<svg xmlns="http://www.w3.org/2000/svg" viewBox="0 0 750 380.67"><defs><style>.cls-1{fill:#fff2e4;}.cls-2{fill:#d8bc9c;}.cls-3{fill:#373f3c;}.cls-4{fill:#fff;}.cls-5{fill:#4e625f;}.cls-6{fill:#a9b8b3;}.cls-7{fill:#6e7d78;}.cls-8{fill:#cbd4d1;}.cls-9{fill:#93a6a0;}.cls-10{fill:#c6be8b;}.cls-11{fill:#958f68;}.cls-12{fill:#c0977e;}.cls-13{fill:#90715f;}.cls-14{fill:#f4d9ca;}.cls-15{fill:#e2a89f;}.cls-16{fill:#f1cfbd;}.cls-17{fill:#333;}.cls-18{fill:#af7868;}.cls-19{fill:#d8a5a1;}</style></defs><g id="Layer_2" data-name="Layer 2"><g id="BACKGROUND"><rect class="cls-1" width="750" height="380.67"/></g><g id="OBJECTS"><path class="cls-2" d="M750,380.67H0V170.56c8.33-3.09-11.35-37.77,156.16,38.91S664.48,159.9,750,117.31"/><path class="cls-3" d="M287.24,279.79s1.86,4.95,10.9,3.7,8.34-10,8.34-10L305.57,210a2.18,2.18,0,0,0-.78-1.66l-31.91-26.05a1.32,1.32,0,0,0-1.49-.13l-.49.27a1.42,1.42,0,0,0-.62,1.62l11.17,28.41L251.31,194h-1.24l-5.48-4.75s-2-.29-1.63,1.5S287.24,279.79,287.24,279.79Z"/><path class="cls-4" d="M290,276.45s1.32,3.51,7.74,2.62,5.92-7.1,5.92-7.1l-1.54-61.31L268,183s-2.7,1.34-2.9,1.34,9.6,14.5,9.6,14.5-14.89-12.34-15.35-12.34a13.5,13.5,0,0,0-2.17.5c-.62.17-2.32.34-2,.84s2.48,2.91,2.48,2.91L253,189l-5.91,2.43,3,2.57,28.28,23Z"/><path class="cls-5" d="M274.9,218.37a2.57,2.57,0,0,0-.83-1.43l-16-13.46L243,190.74l10.9,50.5,33.38,38.55Z"/><polygon class="cls-6" points="258.94 238.32 251.95 205.93 265.1 217 271.69 253.04 258.94 238.32"/><polygon class="cls-6" points="312.51 239.16 295.2 245.49 295.7 250.12 313.2 245.24 312.51 239.16"/><path class="cls-3" d="M655.49,211.25s-4.94-.32-7.78,9,4.78,12.42,4.78,12.42L706,259.1a1.87,1.87,0,0,0,1.72,0l35.53-19.87a1.52,1.52,0,0,0,.76-1.4l0-.59a1.34,1.34,0,0,0-1.09-1.3l-28.59-1.35,28.45-21.38.53-1.21,6.34-3.29s1.11-1.84-.56-2.23S655.49,211.25,655.49,211.25Z"/><path class="cls-4" d="M657.09,215.41s-3.5-.23-5.52,6.4,3.39,8.82,3.39,8.82l52,24.87,37.85-21.35s.05-3.21.13-3.4-16.27,3.12-16.27,3.12,16.73-9.2,16.93-9.65a16.14,16.14,0,0,0,.52-2.32c.12-.68.71-2.4.16-2.32s-3.5,1.16-3.5,1.16l3.46-3.77.51-6.79L743.3,212l-31.41,17.65Z"/><path class="cls-5" d="M712.22,225.65a2.15,2.15,0,0,0,1.55-.19l18.14-9.77,17.17-9.25-47-11.11-46.63,15.92Z"/><polygon class="cls-6" points="702.38 201.53 732.5 208.66 717.58 216.7 684.57 207.62 702.38 201.53"/><polygon class="cls-6" points="678.64 253.33 680.78 233.75 676.7 232.25 673.25 251.39 678.64 253.33"/><path class="cls-4" d="M148.24,238.93l.75,7,10,1-9.38.87a10.65,10.65,0,0,1,.34,1.75,21.91,21.91,0,0,0,.35,2.25h29.09l-28,5.25s.93,3.38,1,3.88a6.43,6.43,0,0,0,.69,1.62c.23.38-.23,1.13.12,1.5a22.89,22.89,0,0,1,1.36,2.14l7.8-1.14,30-10.75,1.73-1.76v-4.11l-2.55-4.25-38.59-5.88Z"/><path class="cls-7" d="M195,253.13a10.65,10.65,0,0,0-1.13-7.37,15.35,15.35,0,0,0-1.57-2.66l5-42.23L200,178.6a14.35,14.35,0,0,1,2.68,10.25L200,211.12l-4.81,41.79Z"/><polygon class="cls-6" points="199.99 178.6 157.33 171.86 148.24 236.13 170.13 239.59 192.34 243.1 199.99 178.6"/><polygon class="cls-8" points="155.07 225.6 158.53 202.22 190.31 207.25 188.02 230.82 155.07 225.6"/><path class="cls-7" d="M191.49,253.74c-.88.33-7.38,2.58-14.71,5.05-10.32,3.47-22.26,7.45-22.26,7.45a1.55,1.55,0,0,0,.61,2.49s11.94-4,22.27-7.46c7.32-2.46,13.84-4.68,14.7-5a5.89,5.89,0,0,0,2.92-2.88l0-.22a10.65,10.65,0,0,0-1.13-7.37,15.35,15.35,0,0,0-1.57-2.66l-22.21-3.51-21.89-3.46a2.45,2.45,0,0,0,0,2.8l41.93,6.63h.52a10.57,10.57,0,0,1,1.08,1.83,7.75,7.75,0,0,1,.68,5.22A1.46,1.46,0,0,1,191.49,253.74Z"/><ellipse class="cls-8" cx="190.31" cy="186.02" rx="2.55" ry="2.75"/><path class="cls-4" d="M260.38,301.85l-6.33-1.93-4.64,9.57,2.81-9.7a8.52,8.52,0,0,1-1.63-.32,17.53,17.53,0,0,0-2.06-.5l-11,29,6.14-30s-3.25-.36-3.72-.43a5.35,5.35,0,0,0-1.66.07c-.41.09-.88-.65-1.33-.45a18.63,18.63,0,0,1-2.35.54l-2,8.22-2.17,34,.86,2.41L234.8,344l4.62-.93,19.68-36.28Z"/><path class="cls-7" d="M230.44,343.17c2.17,1.84,4.75,1.83,6.76,1.66a12.66,12.66,0,0,0,2.87-.56l34.34,21,18.1,11.08a11.85,11.85,0,0,1-9.81-1.21l-18.1-11.09-34-20.65Z"/><polygon class="cls-6" points="292.51 376.37 314.48 336.37 262.78 302.92 251.51 323.45 240.07 344.27 292.51 376.37"/><polygon class="cls-8" points="269.23 313.72 287.97 326.05 271.6 355.85 252.25 344.62 269.23 313.72"/><path class="cls-7" d="M231.27,339.39c0-1,.59-8.34,1.25-16.59.93-11.62,2-25.05,2-25.05a1.35,1.35,0,0,0-2.37-.33s-1.11,13.43-2,25.05c-.66,8.25-1.23,15.59-1.25,16.59a6.29,6.29,0,0,0,1.36,4l.18.12c2.17,1.84,4.75,1.83,6.76,1.66a12.66,12.66,0,0,0,2.87-.56l11.44-20.82,11.27-20.53s-.92-1.64-2.4-1.07l-21.6,39.33-.19.52a8.67,8.67,0,0,1-2,.38,6.38,6.38,0,0,1-4.73-1.3A1.52,1.52,0,0,1,231.27,339.39Z"/><path class="cls-8" d="M288.85,366.45a2.5,2.5,0,0,0,3.33-1.51,2.82,2.82,0,0,0-1.4-3.58,2.48,2.48,0,0,0-3.32,1.5A2.83,2.83,0,0,0,288.85,366.45Z"/><path class="cls-4" d="M466.76,207.49a14.17,14.17,0,0,0,5.76,10.45c4.87,3.38,7.59,1.92,7.59,1.92v8.48l-6.67,24.59-6.68,4.62-11.88-9.87-1.24-19.34Z"/><path class="cls-9" d="M470.33,258a20.46,20.46,0,0,1-11.7-8.87,25.84,25.84,0,0,1-3.75-11.47l-31,14.11L392.6,266a25.87,25.87,0,0,0,3.75,11.47,20.45,20.45,0,0,0,11.7,8.86L470.33,258"/><path class="cls-7" d="M467,206.14l-3.58,12.66-5.23,18.51-.06.26a21,21,0,0,0,3.05,9.34c1.85,2.94,3.53,5.35,8.26,6.78,0,0,1.93.33,2.71-2.17S481.3,215,481.3,215s2.48-.84,2.79,1.41c0,0-8.5,35.42-9.59,37.92s-4.17,3.67-4.17,3.67a20.46,20.46,0,0,1-11.7-8.87,25.84,25.84,0,0,1-3.75-11.47l5.23-18.51,4-14.3S466.53,204.22,467,206.14Z"/><polygon class="cls-8" points="401.92 233.1 433.2 218.87 464.2 204.76 464.15 204.87 460.11 219.18 454.88 237.68 423.88 251.79 392.6 266.02 392.6 265.69 401.66 233.64 401.92 233.1"/><path class="cls-8" d="M431.6,269.12l26.15-11.89a26.72,26.72,0,0,1-3.72-4.71,30.58,30.58,0,0,1-3.09-6.53L426,257.31l-1.77.81C426.08,265.12,429.73,268.05,431.6,269.12Z"/><path class="cls-8" d="M419.53,260.28l-20.59,9.36a18.5,18.5,0,0,0,2,4.48,14.66,14.66,0,0,0,6.86,5.82l19.37-8.81A17.7,17.7,0,0,1,419.53,260.28Z"/><polygon class="cls-8" points="470.33 233.18 471.52 228.34 487.33 233.18 482.96 235.39 485.01 240.85 470.33 233.18"/><path class="cls-4" d="M562.57,315.34a14.15,14.15,0,0,0,4.77-11c-.15-6.24-2.8-7.84-2.8-7.84l6.5-4.77,22.61-7.89,7.3,3.36-.88,16.14-14.13,12Z"/><path class="cls-8" d="M599.29,283.72a23.48,23.48,0,0,1-.21,15.42,24.28,24.28,0,0,1-6.68,9.8l28.26,19.7,28.51,19.88a24.3,24.3,0,0,0,6.68-9.8,23.54,23.54,0,0,0,.21-15.42l-56.77-39.58"/><path class="cls-7" d="M561.38,315.85l11.72-3.94,17.13-5.75.24-.09a19.88,19.88,0,0,0,5.44-8c1.21-3.3,2.11-6.16.55-11.18a2.51,2.51,0,0,0-3.19-1.19c-2.35.72-33.11,12.41-33.11,12.41s-2-1.73-.48-3.28c0,0,31.93-12.35,34.46-12.79s5.15,1.66,5.15,1.66a23.48,23.48,0,0,1-.21,15.42,24.28,24.28,0,0,1-6.68,9.8l-17.13,5.75L562,319.13S560.2,317.38,561.38,315.85Z"/><polygon class="cls-9" points="618.68 358.73 590.17 338.85 561.92 319.14 562.03 319.13 575.27 314.69 592.4 308.94 620.66 328.64 649.17 348.52 648.91 348.71 619.25 358.66 618.68 358.73"/><polygon class="cls-9" points="580.26 297.69 575.88 299.36 570.69 282.54 574.85 285.19 577.88 280.29 580.26 297.69"/><path class="cls-10" d="M112.86,180.73C110,180,107.32,189,107.32,189c1.09-4.78.84-21.92-1.9-22.71s-5.07,10.87-5.07,10.87,0-21.34-3.21-21.48-4.67,8.52-4.67,8.52-11.76-23.93-16.85-22.52c-4.71,2.52.87,28.93.87,28.93s-6.34-5.54-8.7-3.17S78.37,186,78.37,186s-8.82-7.19-10.42-4.66S76.53,197,80.26,199.85c0,0-7.5-5-9.21-2.36s10.54,18.51,31,21.37c0,0,.12.07.16,0s.11-.13.11-.13C116.08,202.18,115.73,181.51,112.86,180.73Z"/><path class="cls-11" d="M107.12,198.3a.45.45,0,0,0-.61.25c0,.09-3.33,8.06-6.76,11.91l-3.18-9.13c3.47-4.55,5.45-13.49,5.54-13.87a.52.52,0,0,0-.35-.61.47.47,0,0,0-.56.38c0,.09-1.88,8.49-5,13l-4.63-13.37c2.42-3.37,3.7-12.09,3.75-12.47a.49.49,0,0,0-.38-.57.46.46,0,0,0-.53.42c0,.08-1.17,8-3.23,11.49-4.79-13.87-9.08-26.35-9.16-26.59a.46.46,0,0,0-.6-.29.5.5,0,0,0-.27.64c.08.24,4.37,12.72,9.16,26.59-3.68-1.2-9.35-6.36-9.41-6.41a.44.44,0,0,0-.65.06.51.51,0,0,0,.05.7c.27.25,6.52,5.93,10.4,6.78,1.55,4.46,3.13,9,4.63,13.37-5.11-1.2-11.62-6.23-11.69-6.28a.42.42,0,0,0-.64.11.53.53,0,0,0,.1.7c.3.23,7.22,5.58,12.61,6.57,1.13,3.26,2.21,6.36,3.18,9.14-4.93-.47-12.3-4.18-12.38-4.22a.44.44,0,0,0-.61.24.51.51,0,0,0,.22.66c.33.17,8,4.06,13.13,4.35,1,2.83,1.86,5.29,2.54,7.21,5.09,14.36,5.92,16.46,6,16.55a.47.47,0,0,0,.55.28l.06,0a.52.52,0,0,0,.25-.66s-.87-2.21-6-16.5c-.68-1.93-1.54-4.39-2.53-7.23,3.66-3.84,7.1-12.16,7.25-12.52A.52.52,0,0,0,107.12,198.3Z"/><path class="cls-10" d="M399.06,340.77c2.84-1,.71-10.18.71-10.18,1.39,4.69,9.92,19.15,12.63,18.28s-.95-12.12-.95-12.12,10.34,18.2,13.15,16.5-.15-9.9-.15-9.9,21.63,13.76,25.29,9.69c2.79-4.8-14.77-24.17-14.77-24.17s8.09,1.15,8.95-2.2-18-9.83-18-9.83,11,1.16,11.14-1.9-14.93-8.53-19.48-8.86c0,0,8.8,0,9-3.17s-18-9.84-36.78-.73c0,0-.14,0-.15.07s0,.17,0,.17C385.91,324.31,396.24,341.73,399.06,340.77Z"/><path class="cls-11" d="M395.44,322.56a.48.48,0,0,0,.39-.56c0-.09-1.06-8.75,0-14l7.14,6c-.75,5.84,1.89,14.57,2,15a.45.45,0,0,0,.58.31.51.51,0,0,0,.3-.63c0-.09-2.52-8.3-2-13.91l10.43,8.78c-.42,4.25,2.72,12.4,2.86,12.75a.44.44,0,0,0,.6.27.52.52,0,0,0,.25-.66c0-.08-2.88-7.46-2.83-11.62,10.81,9.12,20.52,17.34,20.71,17.5a.44.44,0,0,0,.65-.09.52.52,0,0,0-.08-.7c-.18-.15-9.89-8.37-20.7-17.49,3.72-1.05,11.05.14,11.13.15a.46.46,0,0,0,.53-.41.49.49,0,0,0-.39-.57c-.35-.06-8.43-1.38-12.15.09-3.49-2.94-7.05-5.95-10.44-8.79,4.94-1.86,12.93-1.24,13-1.23a.48.48,0,0,0,.5-.46.49.49,0,0,0-.43-.54c-.36,0-8.86-.69-13.93,1.51l-7.15-6c4.43-2.38,12.52-3.37,12.6-3.38a.49.49,0,0,0,.41-.55.48.48,0,0,0-.51-.45c-.37.05-8.81,1.08-13.3,3.71l-5.66-4.72c-11.31-9.36-13-10.69-13.1-10.74a.45.45,0,0,0-.6.06l-.05.06a.53.53,0,0,0,.11.7s1.81,1.39,13.07,10.71l5.67,4.73c-1.26,5.34-.15,14.37-.1,14.76A.46.46,0,0,0,395.44,322.56Z"/><path class="cls-10" d="M643.22,190.6c-1.85-2.51-9.06,2.93-9.06,2.93,3.56-3.07,13-16.83,11.31-19.26s-10.16,5.3-10.16,5.3,12.06-16.92,9.58-19.15-8.51,3.69-8.51,3.69,4.17-26.71-.66-28.93c-5.16-1.09-15.64,23.52-15.64,23.52s-1.9-8.56-5.11-8.22-2.07,21.64-2.07,21.64-2.94-11.49-5.63-10.54-2,18.08-.7,22.79c0,0-3.13-8.88-6-7.92s-2.09,21.61,12.53,37.3c0,0,.06.14.11.13s.17,0,.17,0C633.68,209.74,645.06,193.1,643.22,190.6Z"/><path class="cls-11" d="M628.76,200.77a.45.45,0,0,0-.63-.2c-.07,0-7.19,4.21-12.08,5,.8-2.85,1.69-6,2.63-9.33,5.32-1.33,11.94-7.12,12.22-7.37a.54.54,0,0,0,.07-.71.45.45,0,0,0-.65-.07c-.07.06-6.29,5.5-11.33,7,1.26-4.42,2.58-9.09,3.88-13.64,3.83-1.1,9.76-7.18,10-7.44a.53.53,0,0,0,0-.71.43.43,0,0,0-.65,0c-.06.06-5.44,5.57-9,7,4-14.15,7.67-26.87,7.74-27.11a.51.51,0,0,0-.31-.62.45.45,0,0,0-.58.33c-.07.24-3.71,12.95-7.74,27.1-2.24-3.37-3.83-11.18-3.85-11.26a.46.46,0,0,0-.55-.38.49.49,0,0,0-.35.59c.07.38,1.83,9,4.42,12.21-1.29,4.55-2.62,9.22-3.87,13.65-3.38-4.31-5.7-12.58-5.72-12.66a.46.46,0,0,0-.58-.34.5.5,0,0,0-.31.62c.1.38,2.58,9.18,6.29,13.5-.94,3.33-1.84,6.49-2.64,9.34-3.64-3.61-7.39-11.4-7.43-11.48a.45.45,0,0,0-.63-.21.51.51,0,0,0-.2.67c.17.35,4.09,8.49,8,12.07-.81,2.89-1.52,5.42-2.06,7.39-4.06,14.73-4.59,16.94-4.61,17a.53.53,0,0,0,.26.59l.07,0a.47.47,0,0,0,.57-.36s.55-2.32,4.6-17c.54-2,1.25-4.5,2.06-7.39,5.07-.65,12.5-5,12.82-5.18A.52.52,0,0,0,628.76,200.77Z"/><path class="cls-12" d="M216.51,270.84a19.19,19.19,0,0,1-7.68-6.29c-3.31-4.6-2.09-10.87,1-12.47s8.1,10.17,7.82,15.71Z"/><path class="cls-12" d="M216.5,270.84a17.89,17.89,0,0,0,9.54,1.5c5.36-.66,8.66-6,7.53-9.52s-12.41.87-15.88,5Z"/><path class="cls-12" d="M210.78,288.33a19,19,0,0,1-8.09-5.66c-3.63-4.31-2.85-10.66.17-12.51s8.78,9.48,8.89,15Z"/><path class="cls-12" d="M210.78,288.32a17.72,17.72,0,0,0,9.61.72c5.3-1.09,8.22-6.67,6.84-10.11s-12.3,1.89-15.48,6.25Z"/><path class="cls-12" d="M206.84,306.75a18.49,18.49,0,0,1-8.58-4.73c-4-3.88-3.85-10.29-1-12.47s9.64,8.46,10.28,14Z"/><path class="cls-12" d="M206.84,306.75a17.83,17.83,0,0,0,9.63-.35c5.17-1.68,7.54-7.55,5.84-10.82s-12.06,3.24-14.8,7.93Z"/><path class="cls-12" d="M223.63,254.53s14,.35,12.73-7.22c-1.1-6.5-10.87,3.63-10.87,3.63Z"/><path class="cls-12" d="M223.6,254.52s-7.52-12.75-.85-15.49c5.72-2.35,2.74,11.91,2.74,11.91Z"/><path class="cls-13" d="M230,249.84a32,32,0,0,1-4.41,1.95c.23-.44.45-.88.69-1.32a.47.47,0,0,0-.15-.62.39.39,0,0,0-.57.16c-.25.45-.47.9-.71,1.35a38.2,38.2,0,0,1-.74-5.1.44.44,0,0,0-.46-.42.45.45,0,0,0-.38.49,31.59,31.59,0,0,0,1,6.09,168.59,168.59,0,0,0-7.31,16.19,59.31,59.31,0,0,1-4.09-6,.4.4,0,0,0-.57-.14.48.48,0,0,0-.14.63,56.31,56.31,0,0,0,4.44,6.45c-2.19,5.72-4,11.29-5.49,16.56a54.25,54.25,0,0,1-4.52-5.69.4.4,0,0,0-.59-.09.47.47,0,0,0-.09.63,54,54,0,0,0,4.93,6.12c-1.75,6.32-3,12.19-4,17.35a56.17,56.17,0,0,1-5-5.08.4.4,0,0,0-.59,0,.49.49,0,0,0,0,.64,52.91,52.91,0,0,0,5.4,5.47,155,155,0,0,0-2.42,20.13.42.42,0,0,0,.4.46.41.41,0,0,0,.37-.2.56.56,0,0,0,.07-.23,152.34,152.34,0,0,1,2.39-19.93,49.33,49.33,0,0,0,7.1-2.5.49.49,0,0,0,.19-.16.54.54,0,0,0,0-.43.42.42,0,0,0-.55-.25,49.64,49.64,0,0,1-6.61,2.37c.94-5.17,2.23-11.05,4-17.39a47.45,47.45,0,0,0,7.19-1.69.42.42,0,0,0,.23-.18.46.46,0,0,0,.05-.38.42.42,0,0,0-.52-.31,48.88,48.88,0,0,1-6.68,1.61c1.48-5.25,3.28-10.78,5.46-16.46a47.42,47.42,0,0,0,7.35-1.1.46.46,0,0,0,.26-.19.47.47,0,0,0,.06-.35.43.43,0,0,0-.5-.35,48.77,48.77,0,0,1-6.81,1.06A166.43,166.43,0,0,1,225,252.86a26.16,26.16,0,0,0,5.34-2.21.33.33,0,0,0,.16-.15.45.45,0,0,0,0-.45A.4.4,0,0,0,230,249.84Z"/><path class="cls-12" d="M634.18,262a21.51,21.51,0,0,0,3.07-9.85c.36-5.81-3.92-10.26-7.35-9.69s-1.4,13.32,1.71,17.73Z"/><path class="cls-12" d="M634.19,262a19.88,19.88,0,0,1-7.11,7c-4.79,2.71-10.29.3-11.19-3.32s10.72-6.78,15.72-5.5Z"/><path class="cls-12" d="M648,273a21.43,21.43,0,0,0,3.75-9.58c.76-5.76-3.19-10.55-6.65-10.26s-2.34,13.17.46,17.82Z"/><path class="cls-12" d="M648,273a19.55,19.55,0,0,1-7.58,6.42c-5,2.3-10.28-.55-10.92-4.23s11.16-5.89,16.06-4.2Z"/><path class="cls-12" d="M660.87,285.89a21,21,0,0,0,4.64-9.11c1.31-5.65-2.16-10.85-5.63-10.94s-3.58,12.83-1.24,17.77Z"/><path class="cls-12" d="M660.88,285.88a19.22,19.22,0,0,1-8.16,5.55c-5.15,1.74-10.17-1.69-10.46-5.42s11.67-4.62,16.38-2.4Z"/><path class="cls-12" d="M619.79,252.84s-11.41,8.77-14.29,1.73c-2.48-6,10.88-3.57,10.88-3.57Z"/><path class="cls-12" d="M619.81,252.81s-.41-15.1-7.36-13.33c-6,1.52,3.93,11.52,3.93,11.52Z"/><path class="cls-13" d="M612.12,252.79a32.87,32.87,0,0,0,4.67-1.06l-1.26-.68a.47.47,0,0,1-.2-.6.39.39,0,0,1,.56-.21l1.28.68a36.54,36.54,0,0,0-2-4.67.47.47,0,0,1,.16-.61.4.4,0,0,1,.58.17,31.25,31.25,0,0,1,2.32,5.65,153.26,153.26,0,0,1,14.48,9,63.44,63.44,0,0,0,.25-7.45.44.44,0,0,1,.4-.47.45.45,0,0,1,.44.44,61.05,61.05,0,0,1-.32,8,166.6,166.6,0,0,1,13.17,10.38,61.8,61.8,0,0,0,.78-7.45.42.42,0,1,1,.84,0,59.87,59.87,0,0,1-.89,8.05c4.74,4.17,8.85,8.25,12.32,11.95a60.61,60.61,0,0,0,1.45-7.2.44.44,0,0,1,.48-.39.45.45,0,0,1,.35.52,58.29,58.29,0,0,1-1.61,7.79,144.51,144.51,0,0,1,12.48,15.18.49.49,0,0,1-.09.64.41.41,0,0,1-.41.05.43.43,0,0,1-.18-.15,141.35,141.35,0,0,0-12.35-15,49.6,49.6,0,0,1-7.18,2.23.33.33,0,0,1-.24,0,.42.42,0,0,1-.25-.32.45.45,0,0,1,.32-.54,51,51,0,0,0,6.7-2c-3.47-3.71-7.6-7.8-12.35-12a48.88,48.88,0,0,1-6.83,2.95.34.34,0,0,1-.28,0,.45.45,0,0,1-.24-.28.46.46,0,0,1,.27-.57,50.52,50.52,0,0,0,6.36-2.71A166.2,166.2,0,0,0,633,261.73a49.42,49.42,0,0,1-6.66,3.54.37.37,0,0,1-.31,0,.41.41,0,0,1-.23-.25.46.46,0,0,1,.23-.59,49.71,49.71,0,0,0,6.19-3.25,149.33,149.33,0,0,0-14.39-8.91,25.51,25.51,0,0,1-5.57,1.41.41.41,0,0,1-.22,0,.5.5,0,0,1-.26-.36A.45.45,0,0,1,612.12,252.79Z"/><path class="cls-2" d="M141,149.28l1,6.75c.35,2.25,1,5.12,5.33,3.25s2.78-4.13,2.09-5.38-5.34-6.5-5.34-6.5Z"/><path class="cls-2" d="M144.12,147.54l6.22,1.38c2.07.46,4.8.8,4.73-4.19s-2.57-4.29-3.9-4-7.55,3-7.55,3Z"/><path class="cls-2" d="M143.67,143.62s2.12-3.94,3.19-5.91,2.22-4.67-2.19-6.17-4.58,1.26-4.78,2.7.26,8.67.26,8.67Z"/><path class="cls-2" d="M140,142.88l-4.3-5c-1.44-1.68-3.48-3.67-6.11.44s-.23,5.09,1,5.73,7.76,2.27,7.76,2.27Z"/><path class="cls-2" d="M138.26,146.41l-5.74,2.91c-1.91,1-4.29,2.47-1.45,6.42s4.43,1.76,5.36.7,4.35-7.29,4.35-7.29Z"/><path class="cls-4" d="M144.46,145.92a3.1,3.1,0,1,0-3.09,3.34A3.22,3.22,0,0,0,144.46,145.92Z"/><path class="cls-14" d="M118.24,262.24l-4.55,2.66c-1.51.89-3.38,2.23-.91,5.29s3.69,1.22,4.4.31,3.23-6.15,3.23-6.15Z"/><path class="cls-14" d="M120.32,264.42,121,270c.22,1.84.71,4.2,4.25,2.82s2.38-3.27,1.85-4.31-4.16-5.47-4.16-5.47Z"/><path class="cls-14" d="M123,263l5.07,1.08c1.7.36,3.93.62,3.84-3.45s-2.12-3.47-3.21-3.26-6.12,2.52-6.12,2.52Z"/><path class="cls-14" d="M122.56,259.76l2.45-4.91c.82-1.64,1.7-3.87-1.93-5s-3.7,1.16-3.83,2.34.43,7.06.43,7.06Z"/><path class="cls-14" d="M119.58,259.24l-3.6-4c-1.21-1.33-2.91-2.91-5,.5s-.08,4.15.92,4.64a65.67,65.67,0,0,0,6.37,1.69Z"/><path class="cls-4" d="M121.57,264.27a2.79,2.79,0,0,0,1.56-3.46,2.48,2.48,0,0,0-3.2-1.68,2.76,2.76,0,0,0-1.56,3.45A2.48,2.48,0,0,0,121.57,264.27Z"/><path class="cls-14" d="M501.06,256.65l-6.12.13c-2,0-4.68.35-3.62,5s3.26,3.44,4.46,2.9,6.5-4.58,6.5-4.58Z"/><path class="cls-14" d="M502.15,260.15l-2.09,6.21c-.69,2.07-1.37,4.84,3.06,5.45s4.15-2,4.11-3.45-1.62-8.19-1.62-8.19Z"/><path class="cls-14" d="M505.69,260.23l4.79,4.11c1.6,1.37,3.82,3,5.77-1.38s-.48-4.9-1.72-5.31a77.61,77.61,0,0,0-7.72-.94Z"/><path class="cls-14" d="M506.86,256.56l5.06-3.73c1.68-1.24,3.73-3.07.46-6.35s-4.48-.95-5.21.22-3.1,7.67-3.1,7.67Z"/><path class="cls-14" d="M504,254.27s-1.18-4.21-1.78-6.32-1.59-4.76-5.47-2.39-2.19,4.32-1.38,5.42,5.85,5.51,5.85,5.51Z"/><path class="cls-4" d="M503.54,260.72a3,3,0,0,0,3.39-2.71,3.19,3.19,0,0,0-2.52-3.65,3,3,0,0,0-3.39,2.71A3.18,3.18,0,0,0,503.54,260.72Z"/><path class="cls-14" d="M714.18,166.14l-4.44,4.55c-1.48,1.52-3.23,3.67.47,6.35s4.57.17,5.12-1.1,1.93-8.11,1.93-8.11Z"/><path class="cls-14" d="M717.18,167.94l2.34,6.1c.77,2,2,4.58,5.66,1.81s1.79-4.53.89-5.54-6.32-4.87-6.32-4.87Z"/><path class="cls-14" d="M719.84,165.43,726,165c2-.15,4.66-.6,3.4-5.22s-3.42-3.27-4.6-2.67-6.28,4.92-6.28,4.92Z"/><path class="cls-14" d="M718.42,161.86s.93-4.28,1.39-6.43.84-5-3.62-5-3.9,2.56-3.72,3.95,2.51,7.93,2.51,7.93Z"/><path class="cls-14" d="M714.86,162.27l-5.27-3.38c-1.75-1.12-4.15-2.36-5.54,2.22s1.09,4.78,2.37,5a75.88,75.88,0,0,0,7.77-.19Z"/><path class="cls-4" d="M718.56,167.35a3.37,3.37,0,0,0,.8-4.47,2.84,2.84,0,0,0-4.14-.86,3.39,3.39,0,0,0-.8,4.47A2.85,2.85,0,0,0,718.56,167.35Z"/><path class="cls-14" d="M349.93,299.4l-4.88-1.84c-1.63-.61-3.8-1.2-4.24,2.84s1.65,3.76,2.75,3.71a64,64,0,0,0,6.39-1.56Z"/><path class="cls-14" d="M349.84,302.52l-3.34,4.25c-1.12,1.42-2.41,3.4.92,5.29s3.85-.3,4.2-1.43.95-7,.95-7Z"/><path class="cls-14" d="M352.62,303.71l2.67,4.77c.89,1.59,2.22,3.54,4.95.73s.95-4,.08-4.74-5.85-3.2-5.85-3.2Z"/><path class="cls-14" d="M354.55,301.17l5-1.35c1.67-.45,3.79-1.25,2.1-4.88s-3.29-2.17-4.19-1.48-4.55,5.09-4.55,5.09Z"/><path class="cls-14" d="M352.89,298.45s.21-3.71.32-5.57,0-4.27-3.69-3.63-2.9,2.73-2.56,3.86,3.13,6.21,3.13,6.21Z"/><path class="cls-4" d="M350.79,303.41a2.42,2.42,0,0,0,3.42-1.07,2.84,2.84,0,0,0-1-3.69,2.43,2.43,0,0,0-3.42,1.08A2.82,2.82,0,0,0,350.79,303.41Z"/><path class="cls-2" d="M107.67,114.11l-2.13-4.26c-.7-1.42-1.78-3.18-4.25-.87s-1,3.45-.26,4.12,4.94,3,4.94,3Z"/><path class="cls-2" d="M105.92,116.05l-4.45.61c-1.49.2-3.39.65-2.28,4s2.62,2.24,3.46,1.74,4.41-3.88,4.41-3.88Z"/><path class="cls-2" d="M107.05,118.56s-.59,3.17-.88,4.75-.5,3.67,2.77,3.59,2.8-2,2.63-3-2-5.75-2-5.75Z"/><path class="cls-2" d="M109.66,118.16l4,2.31c1.32.76,3.11,1.6,4-1.8s-.93-3.47-1.87-3.59a55.34,55.34,0,0,0-5.69.38Z"/><path class="cls-2" d="M110.08,115.37s2.16-2.24,3.23-3.37,2.35-2.71-.38-4.65-3.35-.09-3.74.85-1.38,6-1.38,6Z"/><path class="cls-4" d="M106,117.22a2.15,2.15,0,0,0,2.77,1.47,2.4,2.4,0,0,0,1.37-3,2.16,2.16,0,0,0-2.78-1.48A2.42,2.42,0,0,0,106,117.22Z"/><path class="cls-2" d="M497.78,176.2s.76-3.12,1.13-4.68.7-3.64-2.58-3.76-2.89,1.81-2.78,2.83,1.71,5.85,1.71,5.85Z"/><path class="cls-2" d="M495.28,176.34l-3.65-2.82c-1.22-.94-2.9-2-4.18,1.24s.52,3.57,1.44,3.82,5.69.39,5.69.39Z"/><path class="cls-2" d="M494.52,179l-3.64,2.83c-1.21.94-2.68,2.32-.23,4.67s3.29.6,3.81-.27,2.15-5.68,2.15-5.68Z"/><path class="cls-2" d="M496.69,180.64l1.44,4.58c.48,1.53,1.27,3.45,4.07,1.62s1.5-3.23.89-4-4.41-3.89-4.41-3.89Z"/><path class="cls-2" d="M498.76,178.9l4.49-.1c1.49,0,3.43-.27,2.65-3.7s-2.4-2.52-3.28-2.12-4.76,3.36-4.76,3.36Z"/><path class="cls-4" d="M494.63,177.29a2.43,2.43,0,0,0,1.1,3.11,2.13,2.13,0,0,0,2.89-1.2,2.43,2.43,0,0,0-1.11-3.11A2.12,2.12,0,0,0,494.63,177.29Z"/><path class="cls-2" d="M595.73,115.21,593.46,111c-.76-1.39-1.89-3.1-4.29-.69s-.87,3.48-.11,4.12,5,2.84,5,2.84Z"/><path class="cls-2" d="M594.05,117.22l-4.43.79c-1.48.26-3.37.78-2.15,4.06s2.7,2.13,3.53,1.6,4.27-4.06,4.27-4.06Z"/><path class="cls-2" d="M595.26,119.69l-.72,4.78c-.24,1.59-.38,3.69,2.89,3.48s2.73-2.08,2.53-3.09-2.2-5.66-2.2-5.66Z"/><path class="cls-2" d="M597.86,119.19l4,2.14c1.35.72,3.16,1.48,3.94-2s-1.05-3.43-2-3.52a55.66,55.66,0,0,0-5.66.61Z"/><path class="cls-2" d="M598.18,116.38l3.11-3.49c1-1.17,2.26-2.81-.54-4.64s-3.34,0-3.71,1-1.17,6-1.17,6Z"/><path class="cls-4" d="M594.2,118.39a2.16,2.16,0,0,0,2.83,1.36,2.43,2.43,0,0,0,1.26-3,2.15,2.15,0,0,0-2.83-1.36A2.43,2.43,0,0,0,594.2,118.39Z"/><path class="cls-15" d="M329.23,235.49l-1.14-12.4s-1.14-4.58,4.56-5.15,8.38,0,8.3,3.72,0,13.83,0,13.83l7.83-13.63s2.09-2.45,4.56-1,8,8.19,8.54,9,1.9,3.19-3.6,6.82a65.44,65.44,0,0,0-6.84,4.85l8.54-.82s6.94-2.66,7.46,1.84.71,7.17-4.23,8-21.45,1.64-21.45,1.64l-6.95-4.6Z"/><path class="cls-16" d="M332.84,259.66s21.45.08,28.09-3.4c0,0,2.47-2.25,2.28-3.68s.38-8-1.9-8h-5.5L360,240.7a3.3,3.3,0,0,0,0-4,23.27,23.27,0,0,0-4.93-5.39c-.57-.2-3.42-1.13-4.94.87s-6.4,5.48-6.4,5.48-1-10.7-1.38-11.29-1.71-1.4-4.18-1.2-4.56,1.43-5.31,3.48-.76,9-.76,9-4.78-10.79-6.84-10.44c-1.44.24-4.39,1.35-3.23,5.88C324.68,243.48,332.84,259.66,332.84,259.66Z"/><path class="cls-3" d="M332.84,259.66s-2.73-8.49-2.73-9.92-.83-2.67,1.49-3.38,3.21,5,3.21,5,2-5.47,3.34-5,2.06,2.54,1.28,3.15S337.3,253,337.3,253s3.7-2.66,4.46-2.45,1.89,3.07.85,3.48a25.76,25.76,0,0,0-3.18,1.84s3.56-.82,4.28,0,.5,3.44-1.1,3.52S332.84,259.66,332.84,259.66Z"/><path class="cls-17" d="M322,274.23a.53.53,0,0,1-.44-.22.64.64,0,0,1,.07-.86c.07-.07,7.53-6.89,10.69-13.77a.56.56,0,0,1,.77-.28.65.65,0,0,1,.26.83c-3.27,7.11-10.67,13.87-11,14.16A.58.58,0,0,1,322,274.23Z"/><path class="cls-15" d="M694.56,326.9,683,326.72s-4.35.71-4.24-5.46.93-9,4.37-8.49,12.74,1.56,12.74,1.56l-11.67-9.92s-2-2.52-.43-5,8.44-7.62,9.26-8.14,3.16-1.67,5.88,4.63a73.43,73.43,0,0,0,3.7,7.87l.21-9.24s-1.67-7.74,2.53-7.78,6.69,0,6.88,5.43-.9,23.17-.9,23.17l-5,6.93Z"/><path class="cls-16" d="M717.23,325.76s2.5-23,0-30.5c0,0-1.8-2.89-3.14-2.85s-7.31-1.31-7.57,1.13-.62,5.9-.62,5.9l-3.11-4.91a2.78,2.78,0,0,0-3.72-.46,22.92,22.92,0,0,0-5.52,4.69c-.25.58-1.43,3.53.24,5.38s4.33,7.49,4.33,7.49-10-.14-10.55.2-1.49,1.67-1.58,4.34.8,5,2.61,6.09,8.21,1.83,8.21,1.83-10.48,3.89-10.39,6.15c.06,1.56.75,4.85,5.06,4.12C701.4,332.67,717.23,325.76,717.23,325.76Z"/><path class="cls-3" d="M717.23,325.76s-8.13,2-9.45,1.79-2.54.59-2.94-2,5-2.87,5-2.87-4.82-2.78-4.22-4.15,2.57-1.92,3-1a14.39,14.39,0,0,0,3,2.68s-2-4.26-1.75-5.05,3-1.68,3.3-.52a29.31,29.31,0,0,0,1.34,3.61s-.35-3.91.48-4.58,3.22-.16,3.12,1.57S717.23,325.76,717.23,325.76Z"/><path class="cls-17" d="M729.44,339a.64.64,0,0,1-.26.44.55.55,0,0,1-.79-.17c0-.09-5.49-8.86-11.47-13a.65.65,0,0,1-.17-.85.55.55,0,0,1,.79-.18c6.18,4.3,11.58,13,11.8,13.37A.66.66,0,0,1,729.44,339Z"/><path class="cls-15" d="M40.92,193.83l7.71-8s2.44-3.53,6.11.61S59.57,193,57,195.08s-9.33,8-9.33,8l13.7-1.7a3.7,3.7,0,0,1,3.31,3c.45,2.76-.94,11-1.16,11.89s-1.07,3.33-6.68,1.09a56.18,56.18,0,0,0-7.21-2.57L55.1,221s5.79,3.92,3,6.91-4.43,4.68-7.83,1.28-13.44-15.9-13.44-15.9l-.9-8.1Z"/><path class="cls-16" d="M26.69,210.57S39,227.46,45.14,230.67c0,0,2.94.64,3.8-.33s5.61-4.3,4.3-6.09l-3.17-4.32,5,1s2,.2,2.72-2.32a24.14,24.14,0,0,0,.8-7c-.19-.57-1.2-3.33-3.43-3.38s-7.38-1.87-7.38-1.87,6.64-6.94,6.82-7.58,0-2.15-1.59-4-3.59-2.75-5.41-2.17-6.51,4.59-6.51,4.59,4.54-10,3.11-11.37c-1-1-3.44-2.67-5.83.85C32.92,194.86,26.69,210.57,26.69,210.57Z"/><path class="cls-3" d="M26.69,210.57s4.16-7,5.13-7.85,1.32-2.18,3.13-.77-1.52,5.39-1.52,5.39,4.85-1.57,5.29-.25-.52,3.08-1.38,2.82a12.16,12.16,0,0,0-3.58.32s3.92,1.38,4.22,2.09-1,3.25-1.86,2.67a22.9,22.9,0,0,0-3.07-1.43s2.6,2.32,2.46,3.35-2,2.38-3,1.16S26.69,210.57,26.69,210.57Z"/><path class="cls-17" d="M10.62,210.44a.58.58,0,0,1-.1-.47.53.53,0,0,1,.62-.44c.09,0,9,2,15.44.48a.53.53,0,0,1,.63.44.56.56,0,0,1-.41.67c-6.68,1.53-15.5-.39-15.87-.47A.53.53,0,0,1,10.62,210.44Z"/><path class="cls-4" d="M108.35,292.8a43.75,43.75,0,0,1,0,5.52,2.46,2.46,0,0,0,0,1.38l-11.12,1.5h11.22a13.87,13.87,0,0,0,0,2.37c.14.63-1.13.88-1.13.88l.46,4.12-29.44.75,28.86,4.88s-1,3.25-1,3.62-.58.25-.47,1.13a22,22,0,0,1-.92,4.37L61.42,315.2l-.93-4.38L61.76,305l5-5Z"/><path class="cls-5" d="M59.56,316.45a20.66,20.66,0,0,1,.5-10.3,12.45,12.45,0,0,1,5.53-7L52.32,282.2,32.57,257a12.58,12.58,0,0,0-5.73,7.69,21.16,21.16,0,0,0-.29,9.64Z"/><path class="cls-8" d="M56.74,287.84s-4.17,1.75-5.73,8c-.62,2.51-.49,5.93.21,9.93l-2.81-3.42a21.11,21.11,0,0,1,.29-9.63,13.18,13.18,0,0,1,5.75-7.84Z"/><polygon class="cls-7" points="32.57 257.03 75.79 247.86 75.34 247.86 95.08 273.03 108.35 289.95 83.71 295.23 65.59 299.11 32.57 257.03"/><path class="cls-8" d="M67.72,293a.44.44,0,0,1-.36-.18L42.58,261.27a.5.5,0,0,1-.08-.49.46.46,0,0,1,.34-.32L73.18,254a.45.45,0,0,1,.44.17l24.74,31.53a.51.51,0,0,1,.08.49.47.47,0,0,1-.34.33L67.81,293ZM43.8,261.27,67.9,292l29.24-6.27-24-30.66Z"/><path class="cls-3" d="M65.59,299.11l18.12-3.88L108.35,290a2.32,2.32,0,0,1,0,2.85l-23.87,5.12L66.36,301.8a8.66,8.66,0,0,0-3.85,4.91,14.47,14.47,0,0,0-.35,7.18l.3.68,42.61,8a1.79,1.79,0,0,1-.33,2.56l-34.28-6.56-10.9-2.08a20.66,20.66,0,0,1,.5-10.3,12.45,12.45,0,0,1,5.53-7"/><path class="cls-8" d="M34.57,284.59c-.7-4-.83-7.43-.21-9.93,1.56-6.3,5.73-8,5.73-8l-2.19-2.8a12.6,12.6,0,0,0-5.85,7.71,21.16,21.16,0,0,0-.29,9.64Z"/><path class="cls-4" d="M579.09,253.79a41,41,0,0,1-3.56,4,2.16,2.16,0,0,0-.89,1l-9-7.26,8.07,8.41a12.33,12.33,0,0,0-1.54,1.71c-.3.55-1.38-.23-1.38-.23l-2.33,3.32-21.63-21.55,17.59,25.15s-2.85,1.55-3.09,1.82-.58-.25-1.06.46-3.48,2.45-3.48,2.45l-25.91-38.35,2.16-3.84,4.7-3.27,6.81.15Z"/><path class="cls-5" d="M528.78,234.17a18.37,18.37,0,0,1,7-7,11,11,0,0,1,8.5-.91l1.38-22.11,2.05-32.89a11.13,11.13,0,0,0-9.08,1.23,18.86,18.86,0,0,0-6.43,6.7Z"/><path class="cls-8" d="M545.21,211.51s-4.13-1.88-9.3,1.47c-2.06,1.34-4.18,3.89-6.26,7.3l.19-4.57a18.78,18.78,0,0,1,6.43-6.7,11.66,11.66,0,0,1,9.18-1.33Z"/><polygon class="cls-7" points="547.72 171.24 584.68 197.07 584.36 196.74 582.31 229.63 580.93 251.74 559.82 237.04 544.29 226.24 547.72 171.24"/><path class="cls-8" d="M549.74,223.48a.58.58,0,0,1-.14-.4l2.57-41.29a.5.5,0,0,1,.26-.41.43.43,0,0,1,.46,0l25.94,18.13a.52.52,0,0,1,.21.45l-2.57,41.22a.49.49,0,0,1-.25.41.43.43,0,0,1-.46,0l-26-18.05Zm3.31-40.77-2.5,40.15,25.05,17.43,2.5-40.07Z"/><path class="cls-3" d="M544.29,226.24,559.82,237l21.11,14.7s-.15,1.95-1.84,2l-20.45-14.23-15.52-10.81a7.68,7.68,0,0,0-5.93.64,12.74,12.74,0,0,0-4.88,4.89l-.23.72,25.48,37.68a1.64,1.64,0,0,1-1.89,1.59l-20.4-30.42-6.49-9.68a18.37,18.37,0,0,1,7-7,11,11,0,0,1,8.5-.91"/><path class="cls-8" d="M531.38,192.54c2.08-3.41,4.19-6,6.25-7.3,5.18-3.35,9.31-1.47,9.31-1.47l.23-3.65a11.15,11.15,0,0,0-9.18,1.15,18.86,18.86,0,0,0-6.43,6.7Z"/><path class="cls-18" d="M163.48,297.12a71.94,71.94,0,0,0-33.39,34.93c-11.18,25.27-9.38,43.31.6,47.56s25.88-16,31.09-31.42A91.21,91.21,0,0,0,163.48,297.12Z"/><path class="cls-19" d="M172.59,280.38a236.92,236.92,0,0,0-14.08,25.76L139,316.55l.4.87,18.43-9.82q-2,4.26-3.92,8.57L132,327.27l.38.88,20.9-10.59q-2.08,4.72-4,9.43l-21.9,10.83.38.88,21-10.36c-1.27,3.09-2.49,6.14-3.66,9.12l-20.44,8.83.34.91,19.61-8.47c-1.17,3-2.27,5.91-3.32,8.72l-18.55,8.14.35.9,17.73-7.78c-1.16,3.14-2.24,6.14-3.23,8.94L122.33,364l.33.91,14.45-6c-1.29,3.66-2.41,7-3.36,9.79l-9.57,3.8.31.92,8.86-3.52c-1.95,5.86-3,9.44-3.09,9.59l.86.3c0-.14,1.12-3.66,3-9.4l3.77,8.84.83-.41L134.59,369c.91-2.72,2-5.88,3.21-9.37l6,15.51.84-.37-6.39-16.47c1-2.8,2.07-5.79,3.22-8.93l7.93,20,.83-.39L142,348.12c1.05-2.82,2.15-5.75,3.32-8.76l9.16,23.07.83-.38-9.5-23.94c1.18-3,2.41-6.11,3.7-9.24l9.3,25.76.85-.35L150,327.61c1.31-3.18,2.68-6.39,4.09-9.6l8.52,26.26.86-.32-8.83-27.19c1.31-3,2.66-5.93,4.05-8.85l6.61,21.46.86-.31-6.89-22.37a233.2,233.2,0,0,1,14.07-25.75Z"/><path class="cls-18" d="M540,329.32s-9.25-23.8-32.84-35.52-40.28-9.52-44.09,1.3,15.22,27.69,29.57,33.09A73.17,73.17,0,0,0,540,329.32Z"/><path class="cls-19" d="M555.69,338.92a210.43,210.43,0,0,0-24.08-14.83l-9.91-20.91-.81.44,9.36,19.74c-2.64-1.4-5.32-2.77-8-4.11l-10.6-23.45-.81.42L521,318.61c-2.94-1.45-5.89-2.85-8.8-4.21l-10.34-23.47-.82.42,9.9,22.47c-2.88-1.33-5.73-2.6-8.51-3.82l-8.46-21.91-.84.37,8.12,21c-2.79-1.22-5.51-2.37-8.13-3.46l-7.8-19.89-.84.38,7.46,19c-2.93-1.21-5.72-2.34-8.33-3.37l-6.08-16.31-.84.36,5.77,15.5c-3.4-1.33-6.48-2.5-9.12-3.49L469.65,288l-.85.35,3.38,9.51c-5.45-2-8.79-3.15-8.93-3.2l-.27.93c.14.05,3.41,1.16,8.76,3.14l-8.14,4.19.39.88,9-4.62c2.54,1,5.48,2.07,8.74,3.34L467.4,309.2l.36.89L482.94,303c2.61,1,5.4,2.14,8.33,3.35l-18.4,8.82.37.89,19.23-9.21c2.63,1.09,5.36,2.24,8.16,3.46l-21.26,10.19.37.89L501.8,310.8q4.23,1.84,8.62,3.86L486.66,325l.34.91,24.59-10.75q4.45,2.07,9,4.28L496.32,329l.31.91,25.09-9.89q4.15,2.07,8.26,4.25l-19.81,7.42.3.93,20.65-7.75a212.55,212.55,0,0,1,24.07,14.82Z"/><path class="cls-18" d="M670.75,157.89A43.36,43.36,0,0,0,694.59,140c9.25-14.37,9.82-25.68,4.07-29.38s-17.45,7.06-22.1,16A56.59,56.59,0,0,0,670.75,157.89Z"/><path class="cls-19" d="M663.56,167.22a140.56,140.56,0,0,0,11.09-14.34l13-4.29-.17-.59-12.28,4.05c1.09-1.6,2.17-3.22,3.22-4.85L693,142.73l-.15-.58-13.87,4.26c1.15-1.79,2.27-3.59,3.36-5.38l14.51-4.29-.15-.59-13.89,4.11c1.07-1.76,2.11-3.51,3.1-5.23l13.42-3.21-.12-.6-12.87,3.09c1-1.72,2-3.4,2.85-5l12.2-3-.13-.59-11.66,2.86q1.52-2.72,2.83-5.15l10-2.25-.11-.6-9.47,2.13c1.13-2.11,2.14-4,3-5.66l6.26-1.3-.11-.6-5.79,1.2c1.75-3.4,2.76-5.49,2.8-5.57l-.5-.29c0,.09-1,2.14-2.74,5.47l-1.5-5.86-.55.17,1.65,6.46c-.81,1.58-1.77,3.41-2.85,5.43l-2.27-10.22-.55.14L692,122.9c-.87,1.62-1.81,3.35-2.82,5.16l-3-13.17-.55.15,3.16,13.76q-1.37,2.44-2.87,5l-3.49-15.22-.54.15,3.61,15.79c-1,1.73-2.05,3.5-3.14,5.29L679,123l-.56.12,3.44,17.49c-1.1,1.81-2.25,3.64-3.41,5.47l-2.81-17.11-.55.1,2.9,17.72q-1.63,2.53-3.32,5l-2.08-14-.56.1,2.16,14.54a141.93,141.93,0,0,1-11.07,14.34Z"/><path class="cls-18" d="M27.89,169s15.49-4.18,24.61-18,9.07-24.38,2.66-27.45-18.37,7.63-22.85,16.17A45.92,45.92,0,0,0,27.89,169Z"/><path class="cls-19" d="M20.71,178.05a134.66,134.66,0,0,0,11.09-14l13.75-4.77-.21-.53-13,4.51q1.62-2.32,3.17-4.7l15.38-5-.2-.53L36,157.83c1.13-1.73,2.24-3.46,3.3-5.18l15.37-4.88-.19-.53L39.79,151.9c1.05-1.7,2.07-3.38,3-5l14.26-3.82-.17-.54-13.68,3.66q1.45-2.49,2.78-4.82L59,137.82l-.17-.54-12.38,3.38c1-1.74,1.89-3.4,2.74-4.95L59.75,133l-.16-.55L49.53,135c1.09-2,2.06-3.86,2.87-5.43l6.66-1.6-.15-.54-6.16,1.47c1.68-3.25,2.65-5.25,2.68-5.33l-.55-.23c0,.08-1,2-2.64,5.23l-2-5.33-.57.18,2.16,5.88c-.79,1.51-1.71,3.27-2.76,5.2l-3-9.32-.58.17,3.22,9.89c-.84,1.55-1.75,3.21-2.73,4.94l-4-12-.58.17,4.21,12.54c-.88,1.56-1.82,3.18-2.79,4.84L38.14,131.9l-.59.17,4.83,14.39c-1,1.66-2,3.37-3.07,5.09l-4.58-15.43-.58.16,4.73,16c-1.08,1.75-2.2,3.52-3.35,5.28l-4-15.66-.59.13,4.16,16.22q-1.6,2.44-3.28,4.85l-3.05-12.79-.6.13,3.19,13.32a136,136,0,0,1-11.08,14Z"/></g></g></svg>