<svg xmlns="http://www.w3.org/2000/svg" viewBox="0 0 750 314.63"><defs><style>.cls-1{fill:#fff2e4;}.cls-2{fill:#d8bc9c;}.cls-3{fill:#373f3c;}.cls-4{fill:#fff;}.cls-5{fill:#4e625f;}.cls-6{fill:#a9b8b3;}.cls-7{fill:#6e7d78;}.cls-8{fill:#cbd4d1;}.cls-9{fill:#93a6a0;}.cls-10{fill:#c6be8b;}.cls-11{fill:#958f68;}.cls-12{fill:#c0977e;}.cls-13{fill:#90715f;}.cls-14{fill:#f4d9ca;}.cls-15{fill:#e2a89f;}.cls-16{fill:#f1cfbd;}.cls-17{fill:#333;}.cls-18{fill:#af7868;}.cls-19{fill:#d8a5a1;}</style></defs><g id="Layer_2" data-name="Layer 2"><g id="BACKGROUND"><rect class="cls-1" width="750" height="314.63"/></g><g id="OBJECTS"><path class="cls-2" d="M750,314.63H0V104.53c8.33-3.1-11.35-37.77,156.16,38.9S664.48,93.86,750,51.27"/><path class="cls-3" d="M287.24,213.76s1.86,5,10.9,3.7,8.34-10,8.34-10L305.57,144a2.21,2.21,0,0,0-.78-1.66l-31.91-26.05a1.32,1.32,0,0,0-1.49-.13l-.49.28a1.4,1.4,0,0,0-.62,1.61l11.17,28.42L251.31,128h-1.24l-5.48-4.75s-2-.3-1.63,1.5S287.24,213.76,287.24,213.76Z"/><path class="cls-4" d="M290,210.41s1.32,3.51,7.74,2.62,5.92-7.09,5.92-7.09l-1.54-61.32L268,117s-2.7,1.33-2.9,1.33,9.6,14.5,9.6,14.5-14.89-12.33-15.35-12.33a12.5,12.5,0,0,0-2.17.5c-.62.16-2.32.33-2,.83s2.48,2.92,2.48,2.92L253,123l-5.91,2.42,3,2.58,28.28,23Z"/><path class="cls-5" d="M274.9,152.33a2.51,2.51,0,0,0-.83-1.42l-16-13.47L243,124.71l10.9,50.5,33.38,38.55Z"/><polygon class="cls-6" points="258.94 172.28 251.95 139.89 265.1 150.97 271.69 187 258.94 172.28"/><polygon class="cls-6" points="312.51 173.12 295.2 179.46 295.7 184.08 313.2 179.21 312.51 173.12"/><path class="cls-3" d="M655.49,145.21s-4.94-.32-7.78,9,4.78,12.42,4.78,12.42L706,193.06a1.84,1.84,0,0,0,1.72,0l35.53-19.87a1.52,1.52,0,0,0,.76-1.4l0-.58a1.35,1.35,0,0,0-1.09-1.31l-28.59-1.35,28.45-21.38.53-1.2,6.34-3.3s1.11-1.83-.56-2.23S655.49,145.21,655.49,145.21Z"/><path class="cls-4" d="M657.09,149.37s-3.5-.23-5.52,6.4,3.39,8.82,3.39,8.82l52,24.87,37.85-21.35s.05-3.21.13-3.39-16.27,3.11-16.27,3.11,16.73-9.2,16.93-9.65a16.14,16.14,0,0,0,.52-2.32c.12-.68.71-2.4.16-2.32s-3.5,1.16-3.5,1.16l3.46-3.76.51-6.8-3.44,1.79-31.41,17.64Z"/><path class="cls-5" d="M712.22,159.61a2.1,2.1,0,0,0,1.55-.19l18.14-9.77,17.17-9.25-47-11.11-46.63,15.92Z"/><polygon class="cls-6" points="702.38 135.5 732.5 142.62 717.58 150.66 684.57 141.58 702.38 135.5"/><polygon class="cls-6" points="678.64 187.29 680.78 167.71 676.7 166.21 673.25 185.35 678.64 187.29"/><path class="cls-4" d="M148.24,172.89l.75,7.05,10,1-9.38.88a10.65,10.65,0,0,1,.34,1.75,21.91,21.91,0,0,0,.35,2.25h29.09l-28,5.25s.93,3.37,1,3.87a6.66,6.66,0,0,0,.69,1.63c.23.37-.23,1.12.12,1.5a21.73,21.73,0,0,1,1.36,2.13l7.8-1.13,30-10.75,1.73-1.77v-4.11l-2.55-4.25-38.59-5.87Z"/><path class="cls-7" d="M195,187.09a10.65,10.65,0,0,0-1.13-7.37,15,15,0,0,0-1.57-2.65l5-42.23L200,112.57a14.33,14.33,0,0,1,2.68,10.25L200,145.09l-4.81,41.78Z"/><polygon class="cls-6" points="199.99 112.57 157.33 105.82 148.24 170.09 170.13 173.56 192.34 177.07 199.99 112.57"/><polygon class="cls-8" points="155.07 159.57 158.53 136.19 190.31 141.21 188.02 164.78 155.07 159.57"/><path class="cls-7" d="M191.49,187.7c-.88.33-7.38,2.58-14.71,5.05-10.32,3.48-22.26,7.45-22.26,7.45a1.55,1.55,0,0,0,.61,2.49s11.94-4,22.27-7.45c7.32-2.47,13.84-4.69,14.7-5.05a5.85,5.85,0,0,0,2.92-2.87l0-.23a10.65,10.65,0,0,0-1.13-7.37,15,15,0,0,0-1.57-2.65l-22.21-3.52-21.89-3.46a2.45,2.45,0,0,0,0,2.8l41.93,6.64h.52a10.21,10.21,0,0,1,1.08,1.82,7.76,7.76,0,0,1,.68,5.22A1.46,1.46,0,0,1,191.49,187.7Z"/><ellipse class="cls-8" cx="190.31" cy="119.98" rx="2.55" ry="2.75"/><path class="cls-4" d="M260.38,235.82l-6.33-1.94-4.64,9.57,2.81-9.7a8.52,8.52,0,0,1-1.63-.32,17.53,17.53,0,0,0-2.06-.5l-11,29,6.14-30s-3.25-.36-3.72-.43a5.34,5.34,0,0,0-1.66.08c-.41.08-.88-.66-1.33-.46a19,19,0,0,1-2.35.55l-2,8.21-2.17,34,.86,2.41,3.52,1.56,4.62-.94,19.68-36.28Z"/><path class="cls-7" d="M230.44,277.13c2.17,1.84,4.75,1.83,6.76,1.66a12.66,12.66,0,0,0,2.87-.56l34.34,21,18.1,11.08a11.81,11.81,0,0,1-9.81-1.21L264.6,298l-34-20.65Z"/><polygon class="cls-6" points="292.51 310.33 314.48 270.33 262.78 236.88 251.51 257.41 240.07 278.23 292.51 310.33"/><polygon class="cls-8" points="269.23 247.68 287.97 260.01 271.6 289.81 252.25 278.58 269.23 247.68"/><path class="cls-7" d="M231.27,273.35c0-1,.59-8.34,1.25-16.59.93-11.62,2-25,2-25a1.36,1.36,0,0,0-2.37-.34s-1.11,13.43-2,25.05c-.66,8.25-1.23,15.59-1.25,16.59a6.34,6.34,0,0,0,1.36,4l.18.11c2.17,1.84,4.75,1.83,6.76,1.66a12.66,12.66,0,0,0,2.87-.56l11.44-20.82,11.27-20.53s-.92-1.64-2.4-1.06l-21.6,39.32-.19.52a9,9,0,0,1-2,.39,6.43,6.43,0,0,1-4.73-1.31A1.52,1.52,0,0,1,231.27,273.35Z"/><path class="cls-8" d="M288.85,300.41a2.5,2.5,0,0,0,3.33-1.5,2.83,2.83,0,0,0-1.4-3.59,2.48,2.48,0,0,0-3.32,1.5A2.83,2.83,0,0,0,288.85,300.41Z"/><path class="cls-4" d="M466.76,141.45a14.2,14.2,0,0,0,5.76,10.46c4.87,3.37,7.59,1.91,7.59,1.91v8.48l-6.67,24.59-6.68,4.63-11.88-9.88-1.24-19.34Z"/><path class="cls-9" d="M470.33,192a20.49,20.49,0,0,1-11.7-8.86,25.9,25.9,0,0,1-3.75-11.48l-31,14.11L392.6,200a25.87,25.87,0,0,0,3.75,11.47,20.45,20.45,0,0,0,11.7,8.86L470.33,192"/><path class="cls-7" d="M467,140.1l-3.58,12.66-5.23,18.51-.06.26a21,21,0,0,0,3.05,9.34c1.85,2.94,3.53,5.35,8.26,6.78,0,0,1.93.33,2.71-2.17S481.3,149,481.3,149s2.48-.84,2.79,1.41c0,0-8.5,35.42-9.59,37.92s-4.17,3.67-4.17,3.67a20.49,20.49,0,0,1-11.7-8.86,25.9,25.9,0,0,1-3.75-11.48l5.23-18.5,4-14.31S466.53,138.18,467,140.1Z"/><polygon class="cls-8" points="401.92 167.06 433.2 152.83 464.2 138.73 464.15 138.83 460.11 153.14 454.88 171.65 423.88 185.75 392.6 199.98 392.6 199.65 401.66 167.6 401.92 167.06"/><path class="cls-8" d="M431.6,203.09l26.15-11.9a26.72,26.72,0,0,1-3.72-4.71,30.58,30.58,0,0,1-3.09-6.53L426,191.28l-1.77.8C426.08,199.08,429.73,202,431.6,203.09Z"/><path class="cls-8" d="M419.53,194.24l-20.59,9.36a18.5,18.5,0,0,0,2,4.48,14.69,14.69,0,0,0,6.86,5.83l19.37-8.82A17.67,17.67,0,0,1,419.53,194.24Z"/><polygon class="cls-8" points="470.33 167.15 471.52 162.3 487.33 167.15 482.96 169.35 485.01 174.81 470.33 167.15"/><path class="cls-4" d="M562.57,249.3a14.15,14.15,0,0,0,4.77-11c-.15-6.24-2.8-7.84-2.8-7.84l6.5-4.77,22.61-7.89,7.3,3.36-.88,16.14-14.13,12Z"/><path class="cls-8" d="M599.29,217.68a23.48,23.48,0,0,1-.21,15.42,24.19,24.19,0,0,1-6.68,9.8l28.26,19.7,28.51,19.88a24.3,24.3,0,0,0,6.68-9.8,23.54,23.54,0,0,0,.21-15.42l-56.77-39.58"/><path class="cls-7" d="M561.38,249.81l11.72-3.94,17.13-5.75.24-.09a19.79,19.79,0,0,0,5.44-8c1.21-3.3,2.11-6.16.55-11.18a2.51,2.51,0,0,0-3.19-1.19c-2.35.72-33.11,12.41-33.11,12.41s-2-1.73-.48-3.27c0,0,31.93-12.35,34.46-12.8s5.15,1.66,5.15,1.66a23.48,23.48,0,0,1-.21,15.42,24.19,24.19,0,0,1-6.68,9.8l-17.13,5.75L562,253.09S560.2,251.34,561.38,249.81Z"/><polygon class="cls-9" points="618.68 292.69 590.17 272.81 561.92 253.11 562.03 253.09 575.27 248.65 592.4 242.9 620.66 262.6 649.17 282.48 648.91 282.67 619.25 292.63 618.68 292.69"/><polygon class="cls-9" points="580.26 231.65 575.88 233.32 570.69 216.5 574.85 219.15 577.88 214.25 580.26 231.65"/><path class="cls-10" d="M112.86,114.7c-2.89-.78-5.54,8.27-5.54,8.27,1.09-4.78.84-21.92-1.9-22.7s-5.07,10.87-5.07,10.87,0-21.35-3.21-21.49-4.67,8.52-4.67,8.52S80.71,74.25,75.62,75.66c-4.71,2.51.87,28.92.87,28.92s-6.34-5.54-8.7-3.17,10.58,18.53,10.58,18.53-8.82-7.19-10.42-4.66S76.53,131,80.26,133.81c0,0-7.5-5-9.21-2.36s10.54,18.51,31,21.37c0,0,.12.07.16,0s.11-.14.11-.14C116.08,136.14,115.73,115.47,112.86,114.7Z"/><path class="cls-11" d="M107.12,132.26a.45.45,0,0,0-.61.25c0,.09-3.33,8.06-6.76,11.91l-3.18-9.13c3.47-4.55,5.45-13.49,5.54-13.87a.5.5,0,0,0-.35-.6.46.46,0,0,0-.56.37c0,.09-1.88,8.49-5,13-1.5-4.34-3.08-8.91-4.63-13.37,2.42-3.38,3.7-12.1,3.75-12.48a.49.49,0,0,0-.38-.57.47.47,0,0,0-.53.42c0,.08-1.17,8-3.23,11.5C86.38,105.82,82.09,93.34,82,93.11a.46.46,0,0,0-.6-.3.51.51,0,0,0-.27.64c.08.24,4.37,12.72,9.16,26.59-3.68-1.2-9.35-6.35-9.41-6.41a.44.44,0,0,0-.65.06.51.51,0,0,0,.05.7c.27.25,6.52,5.93,10.4,6.78l4.63,13.37c-5.11-1.2-11.62-6.23-11.69-6.28a.44.44,0,0,0-.64.11.53.53,0,0,0,.1.7c.3.23,7.22,5.58,12.61,6.57,1.13,3.26,2.21,6.36,3.18,9.14-4.93-.46-12.3-4.18-12.38-4.22a.44.44,0,0,0-.61.24.52.52,0,0,0,.22.67c.33.16,8,4.05,13.13,4.34,1,2.83,1.86,5.3,2.54,7.21,5.09,14.36,5.92,16.46,6,16.55a.46.46,0,0,0,.55.28l.06,0a.52.52,0,0,0,.25-.66s-.87-2.2-6-16.5c-.68-1.92-1.54-4.39-2.53-7.23,3.66-3.84,7.1-12.16,7.25-12.52A.52.52,0,0,0,107.12,132.26Z"/><path class="cls-10" d="M399.06,274.73c2.84-1,.71-10.18.71-10.18,1.39,4.69,9.92,19.16,12.63,18.28s-.95-12.12-.95-12.12,10.34,18.2,13.15,16.5-.15-9.9-.15-9.9,21.63,13.76,25.29,9.69c2.79-4.8-14.77-24.16-14.77-24.16s8.09,1.14,8.95-2.21-18-9.83-18-9.83,11,1.16,11.14-1.9-14.93-8.53-19.48-8.85c0,0,8.8,0,9-3.18s-18-9.84-36.78-.73c0,0-.14,0-.15.07s0,.18,0,.18C385.91,258.27,396.24,275.69,399.06,274.73Z"/><path class="cls-11" d="M395.44,256.53a.49.49,0,0,0,.39-.57c0-.09-1.06-8.74,0-14l7.14,6c-.75,5.84,1.89,14.57,2,14.95a.46.46,0,0,0,.58.32.51.51,0,0,0,.3-.64c0-.08-2.52-8.3-2-13.91l10.43,8.78c-.42,4.25,2.72,12.4,2.86,12.75a.44.44,0,0,0,.6.27.51.51,0,0,0,.25-.65c0-.08-2.88-7.47-2.83-11.62l20.71,17.49a.45.45,0,0,0,.65-.08.54.54,0,0,0-.08-.71c-.18-.15-9.89-8.37-20.7-17.49,3.72-1.05,11.05.14,11.13.16a.48.48,0,0,0,.53-.42.49.49,0,0,0-.39-.57c-.35-.06-8.43-1.37-12.15.09l-10.44-8.79c4.94-1.86,12.93-1.24,13-1.23a.48.48,0,0,0,.5-.46.49.49,0,0,0-.43-.54c-.36,0-8.86-.68-13.93,1.51l-7.15-6c4.43-2.38,12.52-3.37,12.6-3.38a.49.49,0,0,0,.41-.55.46.46,0,0,0-.51-.44c-.37,0-8.81,1.07-13.3,3.7l-5.66-4.72c-11.31-9.36-13-10.69-13.1-10.74a.45.45,0,0,0-.6.06l-.05.06a.53.53,0,0,0,.11.7s1.81,1.39,13.07,10.72c1.52,1.25,3.45,2.86,5.67,4.72-1.26,5.34-.15,14.38-.1,14.77A.47.47,0,0,0,395.44,256.53Z"/><path class="cls-10" d="M643.22,124.56c-1.85-2.51-9.06,2.93-9.06,2.93,3.56-3.07,13-16.83,11.31-19.26s-10.16,5.3-10.16,5.3,12.06-16.92,9.58-19.15-8.51,3.69-8.51,3.69,4.17-26.7-.66-28.93c-5.16-1.09-15.64,23.52-15.64,23.52s-1.9-8.56-5.11-8.22-2.07,21.64-2.07,21.64S610,94.59,607.27,95.54s-2,18.09-.7,22.79c0,0-3.13-8.88-6-7.92s-2.09,21.61,12.53,37.3c0,0,.06.14.11.13s.17,0,.17,0C633.68,143.7,645.06,127.06,643.22,124.56Z"/><path class="cls-11" d="M628.76,134.73a.45.45,0,0,0-.63-.2c-.07.05-7.19,4.21-12.08,5,.8-2.85,1.69-6,2.63-9.33,5.32-1.33,11.94-7.12,12.22-7.37a.52.52,0,0,0,.07-.7.43.43,0,0,0-.65-.07c-.07.05-6.29,5.5-11.33,7,1.26-4.42,2.58-9.09,3.88-13.64,3.83-1.09,9.76-7.17,10-7.44a.53.53,0,0,0,0-.71.44.44,0,0,0-.65,0c-.06.06-5.44,5.57-9,7,4-14.16,7.67-26.88,7.74-27.12a.51.51,0,0,0-.31-.62.46.46,0,0,0-.58.33c-.07.24-3.71,13-7.74,27.11-2.24-3.38-3.83-11.18-3.85-11.27a.46.46,0,0,0-.55-.38.49.49,0,0,0-.35.59c.07.38,1.83,9,4.42,12.21-1.29,4.56-2.62,9.22-3.87,13.65-3.38-4.31-5.7-12.57-5.72-12.66a.46.46,0,0,0-.58-.34.5.5,0,0,0-.31.62c.1.38,2.58,9.18,6.29,13.5-.94,3.33-1.84,6.49-2.64,9.34-3.64-3.61-7.39-11.39-7.43-11.48a.45.45,0,0,0-.63-.21.51.51,0,0,0-.2.67c.17.35,4.09,8.49,8,12.07-.81,2.9-1.52,5.42-2.06,7.39-4.06,14.73-4.59,17-4.61,17a.52.52,0,0,0,.26.59l.07,0a.47.47,0,0,0,.57-.36s.55-2.32,4.6-17c.54-2,1.25-4.5,2.06-7.39,5.07-.65,12.5-5,12.82-5.18A.52.52,0,0,0,628.76,134.73Z"/><path class="cls-12" d="M216.51,204.8a19.19,19.19,0,0,1-7.68-6.29c-3.31-4.59-2.09-10.87,1-12.47s8.1,10.17,7.82,15.71Z"/><path class="cls-12" d="M216.5,204.8a17.89,17.89,0,0,0,9.54,1.5c5.36-.66,8.66-6,7.53-9.52s-12.41.88-15.88,5Z"/><path class="cls-12" d="M210.78,222.29a19,19,0,0,1-8.09-5.66c-3.63-4.3-2.85-10.66.17-12.51s8.78,9.48,8.89,15Z"/><path class="cls-12" d="M210.78,222.28a17.72,17.72,0,0,0,9.61.72c5.3-1.09,8.22-6.67,6.84-10.11s-12.3,1.89-15.48,6.25Z"/><path class="cls-12" d="M206.84,240.71a18.49,18.49,0,0,1-8.58-4.73c-4-3.88-3.85-10.29-1-12.46s9.64,8.45,10.28,14Z"/><path class="cls-12" d="M206.84,240.71a17.71,17.71,0,0,0,9.63-.35c5.17-1.68,7.54-7.55,5.84-10.82s-12.06,3.25-14.8,7.94Z"/><path class="cls-12" d="M223.63,188.5s14,.34,12.73-7.23c-1.1-6.5-10.87,3.63-10.87,3.63Z"/><path class="cls-12" d="M223.6,188.48s-7.52-12.75-.85-15.49c5.72-2.35,2.74,11.91,2.74,11.91Z"/><path class="cls-13" d="M230,183.8a32,32,0,0,1-4.41,1.95c.23-.44.45-.88.69-1.32a.47.47,0,0,0-.15-.62.39.39,0,0,0-.57.16c-.25.45-.47.9-.71,1.35a38,38,0,0,1-.74-5.1.43.43,0,0,0-.46-.41.44.44,0,0,0-.38.49,31.52,31.52,0,0,0,1,6.08,169.7,169.7,0,0,0-7.31,16.19,61,61,0,0,1-4.09-6,.39.39,0,0,0-.57-.15.49.49,0,0,0-.14.63,57,57,0,0,0,4.44,6.46c-2.19,5.71-4,11.28-5.49,16.56a55,55,0,0,1-4.52-5.7.4.4,0,0,0-.59-.09.47.47,0,0,0-.09.63,54.71,54.71,0,0,0,4.93,6.13c-1.75,6.31-3,12.18-4,17.35a55.67,55.67,0,0,1-5-5.09.4.4,0,0,0-.59,0,.47.47,0,0,0,0,.63,53.66,53.66,0,0,0,5.4,5.48,154.93,154.93,0,0,0-2.42,20.12.44.44,0,0,0,.4.47.45.45,0,0,0,.37-.2.61.61,0,0,0,.07-.24,152.73,152.73,0,0,1,2.39-19.93,49.33,49.33,0,0,0,7.1-2.5.42.42,0,0,0,.19-.16.53.53,0,0,0,0-.43.41.41,0,0,0-.55-.24,51.93,51.93,0,0,1-6.61,2.36c.94-5.17,2.23-11,4-17.39a47.45,47.45,0,0,0,7.19-1.69.38.38,0,0,0,.23-.18.45.45,0,0,0,.05-.38.4.4,0,0,0-.52-.3,51.33,51.33,0,0,1-6.68,1.6c1.48-5.24,3.28-10.78,5.46-16.46a47.42,47.42,0,0,0,7.35-1.1.38.38,0,0,0,.26-.19.47.47,0,0,0,.06-.35.41.41,0,0,0-.5-.34,50.49,50.49,0,0,1-6.81,1.06A166.58,166.58,0,0,1,225,186.82a26.16,26.16,0,0,0,5.34-2.21.29.29,0,0,0,.16-.15.45.45,0,0,0,0-.45A.4.4,0,0,0,230,183.8Z"/><path class="cls-12" d="M634.18,196a21.59,21.59,0,0,0,3.07-9.86c.36-5.81-3.92-10.26-7.35-9.69s-1.4,13.32,1.71,17.74Z"/><path class="cls-12" d="M634.19,196a19.86,19.86,0,0,1-7.11,7c-4.79,2.7-10.29.29-11.19-3.33s10.72-6.78,15.72-5.49Z"/><path class="cls-12" d="M648,207a21.36,21.36,0,0,0,3.75-9.58c.76-5.76-3.19-10.55-6.65-10.26s-2.34,13.17.46,17.82Z"/><path class="cls-12" d="M648,207a19.46,19.46,0,0,1-7.58,6.42c-5,2.3-10.28-.55-10.92-4.23s11.16-5.88,16.06-4.2Z"/><path class="cls-12" d="M660.87,219.85a20.93,20.93,0,0,0,4.64-9.11c1.31-5.65-2.16-10.85-5.63-10.94s-3.58,12.84-1.24,17.77Z"/><path class="cls-12" d="M660.88,219.84a19.22,19.22,0,0,1-8.16,5.55c-5.15,1.74-10.17-1.69-10.46-5.42s11.67-4.62,16.38-2.4Z"/><path class="cls-12" d="M619.79,186.81s-11.41,8.76-14.29,1.72c-2.48-6,10.88-3.57,10.88-3.57Z"/><path class="cls-12" d="M619.81,186.77s-.41-15.09-7.36-13.33c-6,1.52,3.93,11.52,3.93,11.52Z"/><path class="cls-13" d="M612.12,186.75a32.87,32.87,0,0,0,4.67-1.06l-1.26-.68a.46.46,0,0,1-.2-.6.39.39,0,0,1,.56-.21l1.28.68a37.25,37.25,0,0,0-2-4.67.47.47,0,0,1,.16-.61.4.4,0,0,1,.58.17,31.44,31.44,0,0,1,2.32,5.66,149.25,149.25,0,0,1,14.48,9,63.63,63.63,0,0,0,.25-7.46.42.42,0,0,1,.4-.46.43.43,0,0,1,.44.43,61.05,61.05,0,0,1-.32,8c4.8,3.4,9.19,6.92,13.17,10.38a61.8,61.8,0,0,0,.78-7.45.42.42,0,1,1,.84,0,59.87,59.87,0,0,1-.89,8.05c4.74,4.17,8.85,8.25,12.32,11.95a60.61,60.61,0,0,0,1.45-7.2.44.44,0,0,1,.48-.39.45.45,0,0,1,.35.52,58.29,58.29,0,0,1-1.61,7.79,142.7,142.7,0,0,1,12.48,15.19.48.48,0,0,1-.09.63.41.41,0,0,1-.41.05.43.43,0,0,1-.18-.15,141.35,141.35,0,0,0-12.35-15,48.26,48.26,0,0,1-7.18,2.23.39.39,0,0,1-.24,0,.47.47,0,0,1,.07-.87,51,51,0,0,0,6.7-2c-3.47-3.7-7.6-7.8-12.35-12a49.48,49.48,0,0,1-6.83,3,.39.39,0,0,1-.28,0,.4.4,0,0,1-.24-.28.46.46,0,0,1,.27-.57,50.52,50.52,0,0,0,6.36-2.71A166.2,166.2,0,0,0,633,195.69a49.42,49.42,0,0,1-6.66,3.54.34.34,0,0,1-.31,0,.41.41,0,0,1-.23-.25.46.46,0,0,1,.23-.59,49.71,49.71,0,0,0,6.19-3.25,151.34,151.34,0,0,0-14.39-8.91,26.33,26.33,0,0,1-5.57,1.42.41.41,0,0,1-.22,0,.48.48,0,0,1-.26-.36A.45.45,0,0,1,612.12,186.75Z"/><path class="cls-2" d="M141,83.24,142,90c.35,2.25,1,5.12,5.33,3.25s2.78-4.13,2.09-5.38-5.34-6.5-5.34-6.5Z"/><path class="cls-2" d="M144.12,81.51l6.22,1.37c2.07.46,4.8.8,4.73-4.19s-2.57-4.28-3.9-4-7.55,3-7.55,3Z"/><path class="cls-2" d="M143.67,77.58s2.12-3.94,3.19-5.91,2.22-4.67-2.19-6.17-4.58,1.26-4.78,2.7.26,8.68.26,8.68Z"/><path class="cls-2" d="M140,76.84l-4.3-5c-1.44-1.67-3.48-3.67-6.11.44s-.23,5.1,1,5.73,7.76,2.28,7.76,2.28Z"/><path class="cls-2" d="M138.26,80.37l-5.74,2.91c-1.91,1-4.29,2.48-1.45,6.42s4.43,1.77,5.36.71,4.35-7.3,4.35-7.3Z"/><path class="cls-4" d="M144.46,79.88a3.1,3.1,0,1,0-3.09,3.34A3.22,3.22,0,0,0,144.46,79.88Z"/><path class="cls-14" d="M118.24,196.21l-4.55,2.65c-1.51.89-3.38,2.23-.91,5.29s3.69,1.22,4.4.31,3.23-6.15,3.23-6.15Z"/><path class="cls-14" d="M120.32,198.38l.66,5.53c.22,1.84.71,4.21,4.25,2.82s2.38-3.27,1.85-4.31-4.16-5.47-4.16-5.47Z"/><path class="cls-14" d="M123,197l5.07,1.08c1.7.37,3.93.62,3.84-3.45s-2.12-3.47-3.21-3.26-6.12,2.52-6.12,2.52Z"/><path class="cls-14" d="M122.56,193.72l2.45-4.91c.82-1.64,1.7-3.87-1.93-5s-3.7,1.17-3.83,2.35.43,7.05.43,7.05Z"/><path class="cls-14" d="M119.58,193.21l-3.6-4c-1.21-1.34-2.91-2.91-5,.49s-.08,4.15.92,4.64a65.67,65.67,0,0,0,6.37,1.69Z"/><path class="cls-4" d="M121.57,198.23a2.78,2.78,0,0,0,1.56-3.45,2.48,2.48,0,0,0-3.2-1.69,2.76,2.76,0,0,0-1.56,3.45A2.48,2.48,0,0,0,121.57,198.23Z"/><path class="cls-14" d="M501.06,190.61l-6.12.13c-2,0-4.68.36-3.62,5s3.26,3.45,4.46,2.9,6.5-4.58,6.5-4.58Z"/><path class="cls-14" d="M502.15,194.11l-2.09,6.21c-.69,2.07-1.37,4.84,3.06,5.46s4.15-2.05,4.11-3.45-1.62-8.19-1.62-8.19Z"/><path class="cls-14" d="M505.69,194.19l4.79,4.12c1.6,1.37,3.82,2.94,5.77-1.39s-.48-4.9-1.72-5.31a77.61,77.61,0,0,0-7.72-.94Z"/><path class="cls-14" d="M506.86,190.52l5.06-3.73c1.68-1.24,3.73-3.07.46-6.35s-4.48-.95-5.21.22-3.1,7.67-3.1,7.67Z"/><path class="cls-14" d="M504,188.24s-1.18-4.22-1.78-6.32-1.59-4.77-5.47-2.4-2.19,4.32-1.38,5.43,5.85,5.5,5.85,5.5Z"/><path class="cls-4" d="M503.54,194.68a3,3,0,0,0,3.39-2.71,3.2,3.2,0,0,0-2.52-3.65A3,3,0,0,0,501,191,3.18,3.18,0,0,0,503.54,194.68Z"/><path class="cls-14" d="M714.18,100.1l-4.44,4.55c-1.48,1.52-3.23,3.67.47,6.36s4.57.17,5.12-1.11,1.93-8.11,1.93-8.11Z"/><path class="cls-14" d="M717.18,101.9l2.34,6.1c.77,2,2,4.58,5.66,1.81s1.79-4.53.89-5.54-6.32-4.87-6.32-4.87Z"/><path class="cls-14" d="M719.84,99.39l6.11-.45c2-.15,4.66-.6,3.4-5.22s-3.42-3.27-4.6-2.66S718.47,96,718.47,96Z"/><path class="cls-14" d="M718.42,95.82s.93-4.28,1.39-6.43.84-5-3.62-5-3.9,2.56-3.72,4S715,96.24,715,96.24Z"/><path class="cls-14" d="M714.86,96.23l-5.27-3.38c-1.75-1.12-4.15-2.36-5.54,2.22s1.09,4.78,2.37,5a76.36,76.36,0,0,0,7.77-.18Z"/><path class="cls-4" d="M718.56,101.31a3.35,3.35,0,0,0,.8-4.46,2.85,2.85,0,0,0-4.14-.87,3.39,3.39,0,0,0-.8,4.47A2.85,2.85,0,0,0,718.56,101.31Z"/><path class="cls-14" d="M349.93,233.36l-4.88-1.83c-1.63-.62-3.8-1.21-4.24,2.83s1.65,3.76,2.75,3.72,6.39-1.57,6.39-1.57Z"/><path class="cls-14" d="M349.84,236.48l-3.34,4.25c-1.12,1.42-2.41,3.4.92,5.29s3.85-.3,4.2-1.42.95-7,.95-7Z"/><path class="cls-14" d="M352.62,237.67l2.67,4.77c.89,1.59,2.22,3.55,4.95.74s.95-4,.08-4.75-5.85-3.2-5.85-3.2Z"/><path class="cls-14" d="M354.55,235.14l5-1.36c1.67-.45,3.79-1.24,2.1-4.88s-3.29-2.17-4.19-1.48-4.55,5.1-4.55,5.1Z"/><path class="cls-14" d="M352.89,232.41s.21-3.71.32-5.57,0-4.27-3.69-3.63-2.9,2.73-2.56,3.86,3.13,6.21,3.13,6.21Z"/><path class="cls-4" d="M350.79,237.38a2.43,2.43,0,0,0,3.42-1.08,2.84,2.84,0,0,0-1-3.69,2.43,2.43,0,0,0-3.42,1.08A2.83,2.83,0,0,0,350.79,237.38Z"/><path class="cls-2" d="M107.67,48.07l-2.13-4.26c-.7-1.42-1.78-3.18-4.25-.87s-1,3.45-.26,4.12,4.94,3,4.94,3Z"/><path class="cls-2" d="M105.92,50l-4.45.61c-1.49.2-3.39.65-2.28,4s2.62,2.24,3.46,1.74,4.41-3.88,4.41-3.88Z"/><path class="cls-2" d="M107.05,52.53s-.59,3.16-.88,4.74-.5,3.67,2.77,3.6,2.8-2,2.63-3-2-5.75-2-5.75Z"/><path class="cls-2" d="M109.66,52.12l4,2.31c1.32.77,3.11,1.6,4-1.8s-.93-3.47-1.87-3.59a55.34,55.34,0,0,0-5.69.38Z"/><path class="cls-2" d="M110.08,49.33,113.31,46c1.08-1.13,2.35-2.72-.38-4.66s-3.35-.09-3.74.85-1.38,6-1.38,6Z"/><path class="cls-4" d="M106,51.18a2.15,2.15,0,0,0,2.77,1.47,2.4,2.4,0,0,0,1.37-3,2.16,2.16,0,0,0-2.78-1.47A2.4,2.4,0,0,0,106,51.18Z"/><path class="cls-2" d="M497.78,110.17s.76-3.13,1.13-4.69.7-3.64-2.58-3.76-2.89,1.81-2.78,2.83,1.71,5.86,1.71,5.86Z"/><path class="cls-2" d="M495.28,110.3l-3.65-2.82c-1.22-.94-2.9-2-4.18,1.25s.52,3.56,1.44,3.81,5.69.39,5.69.39Z"/><path class="cls-2" d="M494.52,113l-3.64,2.83c-1.21,1-2.68,2.32-.23,4.67s3.29.6,3.81-.26,2.15-5.69,2.15-5.69Z"/><path class="cls-2" d="M496.69,114.6l1.44,4.58c.48,1.53,1.27,3.45,4.07,1.62s1.5-3.22.89-4-4.41-3.88-4.41-3.88Z"/><path class="cls-2" d="M498.76,112.86l4.49-.1c1.49,0,3.43-.27,2.65-3.7s-2.4-2.52-3.28-2.12-4.76,3.37-4.76,3.37Z"/><path class="cls-4" d="M494.63,111.25a2.42,2.42,0,0,0,1.1,3.11,2.12,2.12,0,0,0,2.89-1.19,2.44,2.44,0,0,0-1.11-3.12A2.12,2.12,0,0,0,494.63,111.25Z"/><path class="cls-2" d="M595.73,49.18,593.46,45c-.76-1.39-1.89-3.1-4.29-.69s-.87,3.48-.11,4.12,5,2.84,5,2.84Z"/><path class="cls-2" d="M594.05,51.19l-4.43.78c-1.48.26-3.37.78-2.15,4.06s2.7,2.13,3.53,1.6,4.27-4.05,4.27-4.05Z"/><path class="cls-2" d="M595.26,53.65l-.72,4.78c-.24,1.59-.38,3.69,2.89,3.48s2.73-2.08,2.53-3.09-2.2-5.66-2.2-5.66Z"/><path class="cls-2" d="M597.86,53.15l4,2.14c1.35.72,3.16,1.48,3.94-1.95s-1.05-3.43-2-3.52-5.66.61-5.66.61Z"/><path class="cls-2" d="M598.18,50.34l3.11-3.49c1-1.17,2.26-2.81-.54-4.64s-3.34,0-3.71,1-1.17,6-1.17,6Z"/><path class="cls-4" d="M594.2,52.35A2.16,2.16,0,0,0,597,53.71a2.43,2.43,0,0,0,1.26-3.05,2.16,2.16,0,0,0-2.83-1.36A2.43,2.43,0,0,0,594.2,52.35Z"/><path class="cls-15" d="M329.23,169.45l-1.14-12.4s-1.14-4.58,4.56-5.15,8.38,0,8.3,3.72,0,13.83,0,13.83l7.83-13.62s2.09-2.46,4.56-1,8,8.19,8.54,9,1.9,3.2-3.6,6.82a65.44,65.44,0,0,0-6.84,4.85l8.54-.82s6.94-2.66,7.46,1.85.71,7.16-4.23,8-21.45,1.64-21.45,1.64l-6.95-4.59Z"/><path class="cls-16" d="M332.84,193.62s21.45.09,28.09-3.4c0,0,2.47-2.25,2.28-3.68s.38-8-1.9-8h-5.5l4.17-3.89a3.3,3.3,0,0,0,0-4,23.49,23.49,0,0,0-4.93-5.39c-.57-.2-3.42-1.13-4.94.87s-6.4,5.48-6.4,5.48-1-10.7-1.38-11.29-1.71-1.4-4.18-1.2-4.56,1.44-5.31,3.48-.76,9-.76,9-4.78-10.79-6.84-10.44c-1.44.24-4.39,1.36-3.23,5.89C324.68,177.44,332.84,193.62,332.84,193.62Z"/><path class="cls-3" d="M332.84,193.62s-2.73-8.49-2.73-9.92-.83-2.66,1.49-3.38,3.21,5,3.21,5,2-5.47,3.34-5,2.06,2.54,1.28,3.15a15.59,15.59,0,0,0-2.13,3.47s3.7-2.65,4.46-2.45,1.89,3.07.85,3.48a25.76,25.76,0,0,0-3.18,1.84s3.56-.81,4.28,0,.5,3.44-1.1,3.52S332.84,193.62,332.84,193.62Z"/><path class="cls-17" d="M322,208.19a.53.53,0,0,1-.44-.22.64.64,0,0,1,.07-.86c.07-.07,7.53-6.89,10.69-13.77a.56.56,0,0,1,.77-.27.64.64,0,0,1,.26.82c-3.27,7.11-10.67,13.87-11,14.16A.58.58,0,0,1,322,208.19Z"/><path class="cls-15" d="M694.56,260.86,683,260.68s-4.35.71-4.24-5.46.93-9,4.37-8.48,12.74,1.55,12.74,1.55l-11.67-9.92s-2-2.52-.43-5,8.44-7.62,9.26-8.14,3.16-1.67,5.88,4.64a75,75,0,0,0,3.7,7.87l.21-9.25s-1.67-7.74,2.53-7.78,6.69,0,6.88,5.43-.9,23.17-.9,23.17l-5,6.93Z"/><path class="cls-16" d="M717.23,259.72s2.5-23,0-30.49c0,0-1.8-2.9-3.14-2.86s-7.31-1.31-7.57,1.13-.62,5.9-.62,5.9l-3.11-4.91a2.78,2.78,0,0,0-3.72-.46,22.92,22.92,0,0,0-5.52,4.69c-.25.58-1.43,3.53.24,5.38s4.33,7.49,4.33,7.49-10-.14-10.55.2-1.49,1.67-1.58,4.34.8,5.05,2.61,6.09,8.21,1.83,8.21,1.83-10.48,3.9-10.39,6.15c.06,1.56.75,4.85,5.06,4.12C701.4,266.63,717.23,259.72,717.23,259.72Z"/><path class="cls-3" d="M717.23,259.72s-8.13,2-9.45,1.8-2.54.59-2.94-2,5-2.87,5-2.87-4.82-2.78-4.22-4.15,2.57-1.92,3-1a14.39,14.39,0,0,0,3,2.68s-2-4.26-1.75-5.05,3-1.68,3.3-.52a29.31,29.31,0,0,0,1.34,3.61s-.35-3.91.48-4.58,3.22-.16,3.12,1.57S717.23,259.72,717.23,259.72Z"/><path class="cls-17" d="M729.44,273a.62.62,0,0,1-.26.44.55.55,0,0,1-.79-.17c0-.09-5.49-8.85-11.47-13a.64.64,0,0,1-.17-.84.55.55,0,0,1,.79-.19c6.18,4.3,11.58,13,11.8,13.37A.66.66,0,0,1,729.44,273Z"/><path class="cls-15" d="M40.92,127.8l7.71-8s2.44-3.53,6.11.61S59.57,127,57,129s-9.33,8-9.33,8l13.7-1.69a3.69,3.69,0,0,1,3.31,3c.45,2.76-.94,11-1.16,11.89s-1.07,3.33-6.68,1.09a58.65,58.65,0,0,0-7.21-2.57l5.47,6.23s5.79,3.92,3,6.92-4.43,4.67-7.83,1.27-13.44-15.9-13.44-15.9l-.9-8.09Z"/><path class="cls-16" d="M26.69,144.53S39,161.42,45.14,164.63c0,0,2.94.64,3.8-.33s5.61-4.3,4.3-6.09l-3.17-4.32,5,1s2,.21,2.72-2.32a24.11,24.11,0,0,0,.8-7c-.19-.56-1.2-3.33-3.43-3.37s-7.38-1.88-7.38-1.88,6.64-6.94,6.82-7.57,0-2.16-1.59-4-3.59-2.76-5.41-2.17-6.51,4.58-6.51,4.58,4.54-9.95,3.11-11.37c-1-1-3.44-2.67-5.83.85C32.92,128.82,26.69,144.53,26.69,144.53Z"/><path class="cls-3" d="M26.69,144.53s4.16-7,5.13-7.84,1.32-2.19,3.13-.78-1.52,5.39-1.52,5.39,4.85-1.57,5.29-.25-.52,3.08-1.38,2.82a12.16,12.16,0,0,0-3.58.32s3.92,1.38,4.22,2.09-1,3.25-1.86,2.67a22.9,22.9,0,0,0-3.07-1.43s2.6,2.32,2.46,3.35-2,2.38-3,1.17S26.69,144.53,26.69,144.53Z"/><path class="cls-17" d="M10.62,144.4a.56.56,0,0,1-.1-.46.53.53,0,0,1,.62-.45c.09,0,9,2,15.44.48a.53.53,0,0,1,.63.44.58.58,0,0,1-.41.68c-6.68,1.52-15.5-.4-15.87-.48A.49.49,0,0,1,10.62,144.4Z"/><path class="cls-4" d="M108.35,226.76a43.75,43.75,0,0,1,0,5.52,2.46,2.46,0,0,0,0,1.38l-11.12,1.5h11.22a13.87,13.87,0,0,0,0,2.37c.14.63-1.13.88-1.13.88l.46,4.12-29.44.75,28.86,4.88s-1,3.25-1,3.62-.58.25-.47,1.13a22,22,0,0,1-.92,4.37l-43.35-8.12-.93-4.38,1.27-5.87,5-5Z"/><path class="cls-5" d="M59.56,250.41a20.66,20.66,0,0,1,.5-10.3,12.4,12.4,0,0,1,5.53-7L52.32,216.16,32.57,191a12.58,12.58,0,0,0-5.73,7.7,21.15,21.15,0,0,0-.29,9.64Z"/><path class="cls-8" d="M56.74,221.8s-4.17,1.75-5.73,8c-.62,2.5-.49,5.92.21,9.93l-2.81-3.42a21.15,21.15,0,0,1,.29-9.64,13.18,13.18,0,0,1,5.75-7.84Z"/><polygon class="cls-7" points="32.57 190.99 75.79 181.83 75.34 181.83 95.08 206.99 108.35 223.91 83.71 229.19 65.59 233.08 32.57 190.99"/><path class="cls-8" d="M67.72,227a.46.46,0,0,1-.36-.17l-24.78-31.6a.5.5,0,0,1-.08-.49.46.46,0,0,1,.34-.32L73.18,188a.43.43,0,0,1,.44.16l24.74,31.54a.49.49,0,0,1,.08.48.46.46,0,0,1-.34.33L67.81,227ZM43.8,195.24,67.9,226l29.24-6.27L73.09,189Z"/><path class="cls-3" d="M65.59,233.08l18.12-3.89,24.64-5.28a2.32,2.32,0,0,1,0,2.85l-23.87,5.12-18.12,3.88a8.66,8.66,0,0,0-3.85,4.91,14.47,14.47,0,0,0-.35,7.18l.3.68,42.61,8a1.79,1.79,0,0,1-.33,2.56l-34.28-6.56-10.9-2.08a20.66,20.66,0,0,1,.5-10.3,12.4,12.4,0,0,1,5.53-7"/><path class="cls-8" d="M34.57,218.55c-.7-4-.83-7.43-.21-9.93,1.56-6.29,5.73-8,5.73-8l-2.19-2.79a12.56,12.56,0,0,0-5.85,7.7,21.16,21.16,0,0,0-.29,9.64Z"/><path class="cls-4" d="M579.09,187.75a39.83,39.83,0,0,1-3.56,4,2.16,2.16,0,0,0-.89,1l-9-7.26,8.07,8.42a12.09,12.09,0,0,0-1.54,1.7c-.3.55-1.38-.22-1.38-.22l-2.33,3.31L546.87,177.1l17.59,25.15s-2.85,1.56-3.09,1.83-.58-.26-1.06.46a19.36,19.36,0,0,1-3.48,2.44l-25.91-38.35,2.16-3.84,4.7-3.27,6.81.15Z"/><path class="cls-5" d="M528.78,168.13a18.37,18.37,0,0,1,7-7,11,11,0,0,1,8.5-.91l1.38-22.11,2.05-32.89a11.13,11.13,0,0,0-9.08,1.23,18.86,18.86,0,0,0-6.43,6.7Z"/><path class="cls-8" d="M545.21,145.47s-4.13-1.88-9.3,1.48c-2.06,1.33-4.18,3.89-6.26,7.29l.19-4.57a18.78,18.78,0,0,1,6.43-6.7,11.63,11.63,0,0,1,9.18-1.32Z"/><polygon class="cls-7" points="547.72 105.2 584.68 131.03 584.36 130.7 582.31 163.59 580.93 185.7 559.82 171 544.29 160.2 547.72 105.2"/><path class="cls-8" d="M549.74,157.44a.56.56,0,0,1-.14-.4l2.57-41.29a.5.5,0,0,1,.26-.41.43.43,0,0,1,.46,0l25.94,18.13a.52.52,0,0,1,.21.45l-2.57,41.22a.48.48,0,0,1-.25.41.43.43,0,0,1-.46,0l-26-18.05Zm3.31-40.77-2.5,40.15,25.05,17.43,2.5-40.07Z"/><path class="cls-3" d="M544.29,160.2,559.82,171l21.11,14.7s-.15,2-1.84,2.05l-20.45-14.23-15.52-10.8a7.65,7.65,0,0,0-5.93.63,12.77,12.77,0,0,0-4.88,4.9l-.23.71,25.48,37.68a1.65,1.65,0,0,1-1.89,1.6l-20.4-30.43-6.49-9.68a18.37,18.37,0,0,1,7-7,11,11,0,0,1,8.5-.91"/><path class="cls-8" d="M531.38,126.5c2.08-3.4,4.19-6,6.25-7.29,5.18-3.36,9.31-1.48,9.31-1.48l.23-3.65a11.15,11.15,0,0,0-9.18,1.15,18.86,18.86,0,0,0-6.43,6.7Z"/><path class="cls-18" d="M163.48,231.08A71.94,71.94,0,0,0,130.09,266c-11.18,25.28-9.38,43.31.6,47.56s25.88-16,31.09-31.42A91.21,91.21,0,0,0,163.48,231.08Z"/><path class="cls-19" d="M172.59,214.34a236.92,236.92,0,0,0-14.08,25.76L139,250.51l.4.87,18.43-9.81q-2,4.25-3.92,8.56L132,261.23l.38.89,20.9-10.6c-1.39,3.15-2.73,6.31-4,9.43l-21.9,10.83.38.89,21-10.37c-1.27,3.09-2.49,6.14-3.66,9.12l-20.44,8.83.34.91,19.61-8.47c-1.17,3-2.27,5.91-3.32,8.73l-18.55,8.13.35.91,17.73-7.78c-1.16,3.14-2.24,6.13-3.23,8.94L122.33,298l.33.91,14.45-6c-1.29,3.65-2.41,6.95-3.36,9.78l-9.57,3.8.31.92,8.86-3.52c-1.95,5.86-3,9.44-3.09,9.59l.86.31c0-.15,1.12-3.66,3-9.41l3.77,8.84.83-.41L134.59,303c.91-2.73,2-5.89,3.21-9.38l6,15.52.84-.38-6.39-16.47c1-2.8,2.07-5.79,3.22-8.93l7.93,20,.83-.39L142,282.08c1.05-2.82,2.15-5.75,3.32-8.76l9.16,23.07.83-.38-9.5-23.94c1.18-3,2.41-6.11,3.7-9.24l9.3,25.77.85-.36L150,261.57c1.31-3.17,2.68-6.39,4.09-9.59l8.52,26.26.86-.33-8.83-27.19q2-4.46,4.05-8.85l6.61,21.46.86-.3-6.89-22.38a234.11,234.11,0,0,1,14.07-25.75Z"/><path class="cls-18" d="M540,263.28s-9.25-23.8-32.84-35.52-40.28-9.52-44.09,1.3,15.22,27.69,29.57,33.09A73.17,73.17,0,0,0,540,263.28Z"/><path class="cls-19" d="M555.69,272.89a209.06,209.06,0,0,0-24.08-14.84l-9.91-20.91-.81.44,9.36,19.74c-2.64-1.4-5.32-2.77-8-4.1l-10.6-23.46-.81.43L521,252.57c-2.94-1.45-5.89-2.85-8.8-4.2L501.82,224.9l-.82.41,9.9,22.47c-2.88-1.32-5.73-2.6-8.51-3.82l-8.46-21.91-.84.37,8.12,21c-2.79-1.21-5.51-2.37-8.13-3.46l-7.8-19.89-.84.39,7.46,19c-2.93-1.21-5.72-2.33-8.33-3.37l-6.08-16.31-.84.37,5.77,15.49c-3.4-1.33-6.48-2.5-9.12-3.48l-3.65-10.28-.85.35,3.38,9.51c-5.45-2-8.79-3.15-8.93-3.2l-.27.93c.14,0,3.41,1.16,8.76,3.14l-8.14,4.19.39.88,9-4.62c2.54.95,5.48,2.07,8.74,3.34l-14.31,6.71.36.9,15.18-7.12c2.61,1,5.4,2.15,8.33,3.35l-18.4,8.82.37.89,19.23-9.21c2.63,1.09,5.36,2.24,8.16,3.46l-21.26,10.19.37.89,22.06-10.57q4.23,1.85,8.62,3.86L486.66,259l.34.9,24.59-10.75q4.45,2.07,9,4.28L496.32,263l.31.92,25.09-9.9q4.15,2.07,8.26,4.25l-19.81,7.43.3.92,20.65-7.75a211.15,211.15,0,0,1,24.07,14.83Z"/><path class="cls-18" d="M670.75,91.86A43.41,43.41,0,0,0,694.59,74c9.25-14.36,9.82-25.68,4.07-29.38s-17.45,7.07-22.1,16A56.63,56.63,0,0,0,670.75,91.86Z"/><path class="cls-19" d="M663.56,101.19a141.84,141.84,0,0,0,11.09-14.35l13-4.29-.17-.59L675.21,86c1.09-1.6,2.17-3.22,3.22-4.85L693,76.7l-.15-.59-13.87,4.26c1.15-1.79,2.27-3.59,3.36-5.38l14.51-4.29-.15-.59-13.89,4.11c1.07-1.76,2.11-3.51,3.1-5.22l13.42-3.22-.12-.6L686.3,68.27c1-1.72,2-3.4,2.85-5l12.2-3-.13-.59-11.66,2.87c1-1.81,2-3.54,2.83-5.16l10-2.25-.11-.6-9.47,2.14c1.13-2.11,2.14-4,3-5.67l6.26-1.3-.11-.6-5.79,1.2c1.75-3.4,2.76-5.48,2.8-5.57l-.5-.28c0,.08-1,2.13-2.74,5.47l-1.5-5.86-.55.16,1.65,6.46c-.81,1.58-1.77,3.41-2.85,5.43l-2.27-10.22-.55.14L692,56.87c-.87,1.61-1.81,3.34-2.82,5.15l-3-13.16-.55.14,3.16,13.76q-1.37,2.45-2.87,5l-3.49-15.22-.54.15,3.61,15.79c-1,1.73-2.05,3.5-3.14,5.29L679,56.92l-.56.13,3.44,17.48c-1.1,1.82-2.25,3.65-3.41,5.47l-2.81-17.11-.55.11L678,80.71c-1.09,1.69-2.2,3.37-3.32,5l-2.08-14-.56.1,2.16,14.54a141.93,141.93,0,0,1-11.07,14.34Z"/><path class="cls-18" d="M27.89,102.93s15.49-4.18,24.61-18,9.07-24.38,2.66-27.45S36.79,65.07,32.31,73.62A45.89,45.89,0,0,0,27.89,102.93Z"/><path class="cls-19" d="M20.71,112a135.57,135.57,0,0,0,11.09-14l13.75-4.78-.21-.53-13,4.51c1.08-1.55,2.14-3.12,3.17-4.69l15.38-5-.2-.53L36,91.79c1.13-1.73,2.24-3.46,3.3-5.18L54.7,81.74l-.19-.54L39.79,85.87c1.05-1.7,2.07-3.39,3-5L57.09,77l-.17-.54L43.24,80.14c1-1.65,1.9-3.27,2.78-4.82L59,71.79l-.17-.55L46.42,74.62c1-1.74,1.89-3.4,2.74-5L59.75,67l-.16-.55L49.53,69c1.09-2,2.06-3.86,2.87-5.43L59.06,62l-.15-.55-6.16,1.47c1.68-3.25,2.65-5.25,2.68-5.33l-.55-.23c0,.08-1,2-2.64,5.23l-2-5.33-.57.18,2.16,5.88c-.79,1.51-1.71,3.27-2.76,5.2l-3-9.31-.58.16,3.22,9.89c-.84,1.55-1.75,3.21-2.73,5l-4-12-.58.17,4.21,12.54c-.88,1.56-1.82,3.18-2.79,4.84L38.14,65.86l-.59.17,4.83,14.39c-1,1.67-2,3.37-3.07,5.09L34.73,70.09l-.58.15,4.73,16c-1.08,1.75-2.2,3.52-3.35,5.28l-4-15.66-.59.13,4.16,16.22q-1.6,2.44-3.28,4.85L28.74,84.24l-.6.12,3.19,13.32a136,136,0,0,1-11.08,14Z"/></g></g></svg>