<svg xmlns="http://www.w3.org/2000/svg" xmlns:xlink="http://www.w3.org/1999/xlink" viewBox="0 0 1080 900"><defs><style>.cls-1,.cls-21,.cls-22,.cls-26,.cls-27,.cls-33,.cls-4,.cls-6,.cls-66,.cls-68,.cls-74,.cls-75{fill:none;}.cls-2{isolation:isolate;}.cls-3{fill:#fdebe5;}.cls-4{stroke:#41495e;}.cls-19,.cls-21,.cls-26,.cls-27,.cls-33,.cls-4,.cls-6,.cls-66,.cls-68,.cls-83{stroke-miterlimit:10;}.cls-26,.cls-4{stroke-width:0.2px;}.cls-26,.cls-27,.cls-4{stroke-dasharray:1.86;}.cls-5{fill:#54596c;}.cls-21,.cls-22,.cls-6{stroke:#fff;}.cls-6{stroke-width:0.4px;}.cls-7{fill:#c69146;}.cls-8{fill:#ae7e38;}.cls-9{fill:#e2a660;}.cls-10{fill:#010101;}.cls-11{fill:#e3d4cc;}.cls-12{opacity:0.49;}.cls-13{fill:#fefefe;}.cls-14{fill:#eee9ed;}.cls-15{fill:#a3bd73;}.cls-16{fill:#e35256;}.cls-17{fill:#fbbf56;}.cls-18{fill:#fbf5f7;}.cls-19{font-size:16.53px;stroke-width:0.09px;}.cls-19,.cls-83{fill:#6d6d6d;stroke:#6d6d6d;font-family:Gaegu-Light, Gaegu;font-weight:300;}.cls-20{fill:#eb5f63;}.cls-21,.cls-22{stroke-width:0.94px;}.cls-22,.cls-74,.cls-75{stroke-linecap:round;stroke-linejoin:round;}.cls-23{fill:#3b3b44;}.cls-24{fill:#f08a4f;}.cls-25{fill:#fdfcfd;}.cls-26,.cls-27{stroke:#54596c;}.cls-27{stroke-width:0.16px;}.cls-28{fill:#fcc459;}.cls-29{fill:#aac7df;}.cls-30{fill:#c4c058;}.cls-31{fill:#ea5559;}.cls-32{fill:#ed9f58;}.cls-33{stroke:#e5cbd5;stroke-width:1.04px;}.cls-34{fill:#e83f45;}.cls-35{mix-blend-mode:luminosity;opacity:0.4;}.cls-36{clip-path:url(#clip-path);}.cls-37{fill:#824819;}.cls-38{fill:#553518;}.cls-39{fill:#fbceb2;}.cls-40{fill:#eaa984;}.cls-41{fill:#db675e;}.cls-42,.cls-50,.cls-65,.cls-72,.cls-73{fill:#fff;}.cls-43{fill:#f0ecef;}.cls-44{clip-path:url(#clip-path-2);}.cls-45{opacity:0.5;}.cls-46{fill:#b8b9c3;}.cls-47{fill:#918f9f;}.cls-48{fill:#e4dce1;}.cls-49{fill:#4b5060;}.cls-50{font-size:31.07px;font-family:Poppins-SemiBold, Poppins;font-weight:600;}.cls-51{fill:#8d8485;}.cls-52{fill:#395e81;}.cls-53{fill:#c2b2a7;}.cls-54{fill:#3e1810;}.cls-55{fill:#e79f7a;}.cls-56{fill:#f08467;}.cls-57{fill:#075b7f;}.cls-58{fill:#e69e8e;}.cls-59{fill:#057196;}.cls-60{fill:#327195;}.cls-61{fill:#999293;}.cls-62{fill:#a7a6a6;}.cls-63{fill:#d9d9d9;}.cls-64{fill:#7b7272;}.cls-65{font-size:34.55px;}.cls-65,.cls-72{font-family:Gaegu-Regular, Gaegu;}.cls-66{stroke:#010101;}.cls-66,.cls-68{stroke-width:1.08px;}.cls-67{fill:#d18259;}.cls-68{stroke:#d18259;}.cls-69{fill:#5e6f80;}.cls-70{fill:#97afad;}.cls-71{fill:#979797;}.cls-72{font-size:28.31px;}.cls-73{font-size:30.26px;font-family:Gaegu-Bold, Gaegu;font-weight:700;}.cls-74,.cls-75{stroke:#e3ddd8;}.cls-74{stroke-width:1px;}.cls-75{stroke-width:0.81px;}.cls-76{fill:#e0dfe1;}.cls-77{clip-path:url(#clip-path-3);}.cls-78{fill:#ebeef1;}.cls-79{fill:#797b8e;}.cls-80{fill:#aaa;}.cls-81{fill:#858585;}.cls-82{fill:#e5f4f8;opacity:0.42;}.cls-83{font-size:19.06px;stroke-width:0.26px;letter-spacing:-0.03em;}</style><clipPath id="clip-path"><rect class="cls-1" x="531.98" y="143.03" width="186.36" height="152.47" transform="matrix(-1, 0.01, -0.01, -1, 1252.38, 432.56)"/></clipPath><clipPath id="clip-path-2"><circle class="cls-1" cx="739.11" cy="396.97" r="49.3"/></clipPath><clipPath id="clip-path-3"><circle class="cls-1" cx="276.04" cy="300.1" r="43.25"/></clipPath></defs><g class="cls-2"><g id="Layer_1" data-name="Layer 1"><path class="cls-3" d="M313.26,796.76h-183c-86.62,0-4.73,58.72,160.63,58.72,263,0,435.43-5.51,366.93-74Z"/><path class="cls-4" d="M808.21,802.64c249.26,32.47,278.72-173.63,239.89-259C1015.17,471.26,924.28,413.13,863.6,428"/><rect class="cls-5" x="962.36" y="768.92" width="26.19" height="23.96" rx="4.09"/><path class="cls-6" d="M972.26,777.56a3.11,3.11,0,1,1,6.21,0"/><path class="cls-6" d="M971.33,777.67h8.07a1.43,1.43,0,0,1,1.41,1.17l1,5.37a1.43,1.43,0,0,1-1.41,1.7H970.32a1.45,1.45,0,0,1-1.42-1.7l1-5.37A1.45,1.45,0,0,1,971.33,777.67Z"/><path class="cls-7" d="M87.23,687.49l45-14,94.34-.91-2.78,97.93a11,11,0,0,1-4,7.91l-20.61,18L93.33,795c-2,0-3.51-1.22-3.57-2.73Z"/><path class="cls-8" d="M226.58,672.55l-2.78,97.93a11,11,0,0,1-4,7.91l-20.61,18-1.74-109.63Z"/><polygon class="cls-9" points="226.58 672.55 132.24 673.46 87.23 687.5 197.39 686.86 226.58 672.55"/><polygon class="cls-8" points="165.57 673.13 132.35 687.22 130.85 795.45 146.5 795.76 149.01 687.81 179.67 672.99 165.57 673.13"/><path class="cls-10" d="M138.5,794.33c-.1-4.13.06-8.29.14-12.42q.21-12.13.46-24.27.3-14.35.59-28.69.26-12.62.49-25.22c.09-4.78.22-9.56.2-14.33,0-.21,0-.42,0-.63a.09.09,0,0,0-.17,0c.1,4.13-.07,8.28-.14,12.42q-.21,12.13-.47,24.27-.28,14.34-.58,28.69-.27,12.6-.5,25.22c-.08,4.77-.22,9.55-.19,14.33,0,.21,0,.42,0,.63a.09.09,0,0,0,.17,0Z"/><path class="cls-10" d="M145.81,684.38c2.87-1.44,5.89-2.63,8.83-3.92q6.39-2.78,12.78-5.58c1.23-.54,2.47-1,3.67-1.65.1-.05,0-.19-.09-.15-2.87,1.44-5.88,2.63-8.83,3.92l-12.78,5.58c-1.22.54-2.47,1-3.66,1.65-.1,0,0,.2.08.15Z"/><polygon class="cls-11" points="157.17 693.3 157.85 704.73 189.41 704.46 189.93 692.61 157.17 693.3"/><path class="cls-10" d="M161,700.38a2.78,2.78,0,0,1,.51-2.24c1.74-1.67,1.75.5,1.94,1.39.11.51.09,1.38.78,1.44s1.06-.82,1.38-1.26c.55-.76,1.53-1.46,2.45-.43.11.12.15.31.26.44a.88.88,0,0,0,.48.31,1,1,0,0,0,.66-.11c.61-.29.77-.75,1.54-.85,1.2-.15,2.38.8,3.64.85,2.9.13,5.85-.14,8.75-.23.11,0,.11-.17,0-.16l-5.16.15c-1.86.05-3.82.35-5.57-.42-.85-.38-1.6-.74-2.44-.17a5.32,5.32,0,0,1-.45.38c-.35.37-.83.35-1.44-.05a1.77,1.77,0,0,0-.19-.33c-.26-.19-.31-.4-.67-.49a1.86,1.86,0,0,0-1.8.74c-.24.28-.53,1-.81,1.13-1.13.68-1.13-.45-1.25-1a7.36,7.36,0,0,0-.43-2c-.33-.56-.86-.41-1.32,0a3.22,3.22,0,0,0-1,2.9c0,.11.18.11.16,0Z"/><path class="cls-10" d="M150.66,687.27c13.84-.34,27.7.14,41.54-.2a.13.13,0,0,0,0-.25c-13.84.33-27.7-.14-41.54.19-.16,0-.16.26,0,.26Z"/><path class="cls-10" d="M196.9,688.36a2.75,2.75,0,0,1,.14,2.39c-.06.15.19.21.25.07a3.06,3.06,0,0,0-.17-2.59c-.08-.14-.3,0-.22.13Z"/><path class="cls-10" d="M197.89,694.49c.07,3.35.08,6.71.12,10.07l.27,23.27q.15,14.07.32,28.15.14,12.15.28,24.32c0,2.72.06,5.43.1,8.15l0,2.62a6,6,0,0,0,0,1.41,1.92,1.92,0,0,1,0,.24.13.13,0,0,0,.25,0c-.08-3.36-.08-6.72-.12-10.08l-.27-23.26q-.16-14.08-.32-28.15-.15-12.16-.28-24.32c0-2.72-.07-5.44-.1-8.16l0-2.62a6,6,0,0,0,0-1.41,1.77,1.77,0,0,1,0-.23.13.13,0,1,0-.25,0Z"/><path class="cls-10" d="M199.14,686.17a8.6,8.6,0,0,0,2.67-1.09c2-.94,4-1.93,6-2.92,4.44-2.22,8.87-4.5,13.3-6.77,1.17-.6,2.34-1.27,3.56-1.8.15-.06,0-.28-.13-.22-2.93,1.27-5.74,2.92-8.58,4.37-4.33,2.22-8.66,4.45-13,6.55-.81.39-1.62.78-2.44,1.14a4.46,4.46,0,0,1-1.3.49.13.13,0,0,0,0,.25Z"/><path class="cls-10" d="M226.52,677c-.35,3.08-.23,6.28-.33,9.37q-.31,10.57-.61,21.14-.36,12.69-.71,25.39-.31,11.1-.64,22.2-.1,3.72-.23,7.44a21.89,21.89,0,0,0-.14,3.79,1.22,1.22,0,0,1,0,.27c0,.16.23.16.25,0,.35-3.08.23-6.28.32-9.37q.32-10.58.61-21.14l.72-25.39q.3-11.1.63-22.2c.08-2.48.15-5,.23-7.44a20.07,20.07,0,0,0,.14-3.79,1.23,1.23,0,0,1,0-.27c0-.16-.23-.16-.25,0Z"/><path class="cls-10" d="M96.14,688.36l40.42-1,7.11-.17c.16,0,.16-.26,0-.25l-40.42,1-7.11.18a.13.13,0,0,0,0,.25Z"/><path class="cls-10" d="M139.14,673.45c22.16-.54,44.33-.21,66.49-.35,6.24-.05,12.48-.13,18.71-.28a.13.13,0,1,0,0-.25c-22.15.54-44.32.2-66.49.35-6.23,0-12.47.12-18.71.28a.13.13,0,0,0,0,.25Z"/><path class="cls-10" d="M98.25,795.13c11.93-.29,23.87-.11,35.8,0,13.94.14,27.89.34,41.84.39,6.08,0,12.16,0,18.24-.12a.13.13,0,0,0,0-.25c-11.92.29-23.86.11-35.79,0-14-.14-27.89-.35-41.84-.4-6.08,0-12.17,0-18.25.12-.16,0-.16.26,0,.25Z"/><g class="cls-12"><rect class="cls-13" x="311.78" y="165.13" width="115.39" height="82.2" rx="1.42"/><path class="cls-14" d="M311.88,169.29a4.15,4.15,0,0,1,4.16-4.15H423.11a4.15,4.15,0,0,1,4.16,4.15S311.88,169.56,311.88,169.29Z"/><path class="cls-10" d="M311.9,227.73v-49.8c0-2.56,0-5.12,0-7.68,0-2,.59-3.94,2.58-4.74,1.7-.69,3.87-.34,5.65-.34,9.56,0,19.12.1,28.68.1,9.12,0,18.24,0,27.36,0h4.26a.06.06,0,0,0,0-.12c-9.7,0-19.4,0-29.1,0-9.36,0-18.71-.07-28.06-.09-2.4,0-4.83-.14-7.22,0a4.28,4.28,0,0,0-3.92,2.73c-.72,2-.34,4.7-.34,6.75v44.67c0,2.68-.21,5.44,0,8.11,0,.14,0,.27,0,.41a.06.06,0,0,0,.11,0Z"/><path class="cls-10" d="M313,184.07v-14c0-.15-.08-.55,0-.68a6.15,6.15,0,0,1,1.42,0h11.8q5.19,0,10.39,0c4.22,0,8.45,0,12.67,0a.06.06,0,0,0,0-.11c-12.11,0-24.23-.06-36.34-.06a.06.06,0,0,0-.06,0v14.72c0,.07.12.07.12,0Z"/><path class="cls-10" d="M313.6,244.5c-1-1.49-.49-3.77-.44-5.48,0-.67,0-1.34,0-2V203.71c0-.07-.12-.07-.12,0v33c0,.76,0,1.53,0,2.29,0,1.72-.59,4,.46,5.52.05.06.14,0,.1-.06Z"/><path class="cls-10" d="M313,200.08v-10.9c0-.07-.12-.07-.12,0v10.9c0,.07.12.07.12,0Z"/><path class="cls-10" d="M351.11,169.43h18a.06.06,0,1,0,0-.11h-18a.06.06,0,1,0,0,.11Z"/><path class="cls-10" d="M419.61,165.32h3.86a4,4,0,0,1,2.43.94,3.86,3.86,0,0,1,1.31,3,.06.06,0,0,0,.12,0,4,4,0,0,0-2.73-3.87,8.57,8.57,0,0,0-2.86-.22h-2.13c-.07,0-.07.12,0,.12Z"/><path class="cls-10" d="M387.25,165.32H416.9c.07,0,.07-.12,0-.12H387.25c-.07,0-.07.12,0,.12Z"/><path class="cls-10" d="M371,169.3h30a.06.06,0,0,0,0-.11H371a.06.06,0,1,0,0,.11Z"/><path class="cls-10" d="M427.19,170v56.39a.06.06,0,0,0,.11,0V170a.06.06,0,1,0-.11,0Z"/><path class="cls-10" d="M427.27,227.63V240.7a.06.06,0,1,0,.11,0V227.63a.06.06,0,1,0-.11,0Z"/><path class="cls-10" d="M423.47,246.2a2.71,2.71,0,0,0,2.82-2.9.06.06,0,1,0-.11,0,2.61,2.61,0,0,1-.73,2,2.67,2.67,0,0,1-2,.79.06.06,0,1,0,0,.11Z"/><circle class="cls-15" cx="317" cy="167.28" r="0.76"/><circle class="cls-16" cx="319.85" cy="167.28" r="0.76"/><circle class="cls-17" cx="322.5" cy="167.28" r="0.76"/><path class="cls-10" d="M425.14,169.22H410.66a.06.06,0,1,0,0,.11h14.48a.06.06,0,1,0,0-.11Z"/><path class="cls-10" d="M319.29,246.26h54.5c.07,0,.07-.12,0-.12h-54.5c-.07,0-.07.12,0,.12Z"/><path class="cls-10" d="M389.61,246.26h32.25c.07,0,.07-.12,0-.12H389.61a.06.06,0,0,0,0,.12Z"/><rect class="cls-13" x="351.87" y="212.07" width="499.2" height="275.72" rx="4.75"/><path class="cls-14" d="M352.21,226a13.94,13.94,0,0,1,13.94-13.94H837.48A13.94,13.94,0,0,1,851.41,226S352.21,226.93,352.21,226Z"/><path class="cls-10" d="M450.37,211.88H381.82c-5,0-10,0-15,0a17.41,17.41,0,0,0-3.22.33,13.86,13.86,0,0,0-10.2,8.06c-1.8,4.22-1.45,9-1.45,13.48V422a.13.13,0,0,0,.26,0V238.31c0-3.31,0-6.62,0-9.93,0-5.13,1.43-10.41,5.79-13.53a15.37,15.37,0,0,1,8.88-2.71c22.14,0,44.28,0,66.42,0h17.06a.13.13,0,0,0,0-.26Z"/><path class="cls-10" d="M355.89,275.59V228.68c0-.5-.26-1.89,0-2.33.15-.26-.68.07.37,0,1.32-.07,2.66,0,4,0H400q17.63,0,35.24.14c11.76.1,23.52.06,35.28.06h7.1a.13.13,0,0,0,0-.25c-13.9,0-27.8.06-41.7-.06q-20.32-.16-40.64-.15H355.76a.13.13,0,0,0-.12.13v49.35a.13.13,0,0,0,.25,0Z"/><path class="cls-10" d="M357.91,478.32c-1.85-2.34-1.81-5.81-1.9-8.66s.26-5.86.42-8.83c0-.3,0-.61,0-.92V343.49a7.57,7.57,0,0,0,0-1.78,1.61,1.61,0,0,1,0-.22.13.13,0,0,0-.25,0V459.21c0,.5,0,1,0,1.53-.05,1-.22,2-.3,2.95a54,54,0,0,0,.07,9.08,10.35,10.35,0,0,0,1.78,5.73c.1.13.28-.05.18-.18Z"/><path class="cls-10" d="M356,329.3V292.74a.13.13,0,0,0-.25,0V329.3a.13.13,0,1,0,.25,0Z"/><path class="cls-10" d="M483.79,226.45H583a.13.13,0,0,0,0-.25H483.79a.13.13,0,0,0,0,.25Z"/><path class="cls-10" d="M657.37,212.64H821.21a.13.13,0,0,0,0-.25H657.37a.13.13,0,1,0,0,.25Z"/><path class="cls-10" d="M548.14,212.64h86.35a.13.13,0,1,0,0-.25H548.14a.13.13,0,1,0,0,.25Z"/><path class="cls-10" d="M471.46,212.49h63.75a.13.13,0,1,0,0-.25H471.46a.13.13,0,0,0,0,.25Z"/><path class="cls-10" d="M651.65,226H763.14a.13.13,0,0,0,0-.26H651.65a.13.13,0,0,0,0,.26Z"/><path class="cls-10" d="M851.21,228.54V417.68a.13.13,0,0,0,.26,0V228.54a.13.13,0,0,0-.26,0Z"/><path class="cls-10" d="M851.48,421.71v43.86a.13.13,0,0,0,.26,0V421.71a.13.13,0,0,0-.26,0Z"/><path class="cls-10" d="M838.67,483.94a9,9,0,0,0,9.41-9.68c0-.16-.26-.16-.25,0a8.78,8.78,0,0,1-9.16,9.43.13.13,0,0,0,0,.25Z"/><circle class="cls-15" cx="369.38" cy="219.27" r="2.54"/><circle class="cls-16" cx="378.93" cy="219.27" r="2.54"/><circle class="cls-17" cx="387.83" cy="219.27" r="2.54"/><path class="cls-10" d="M844.29,225.86H795.7a.13.13,0,0,0,0,.25h48.59a.13.13,0,1,0,0-.25Z"/><path class="cls-10" d="M377.06,484.13H612.2a.13.13,0,1,0,0-.25H377.06a.13.13,0,0,0,0,.25Z"/><path class="cls-10" d="M665.26,484.13h168a.13.13,0,0,0,0-.25h-168a.13.13,0,0,0,0,.25Z"/><rect class="cls-13" x="748.81" y="419.05" width="125.03" height="89.07" rx="1.54"/><path class="cls-14" d="M748.92,423.56a4.51,4.51,0,0,1,4.51-4.5h116a4.51,4.51,0,0,1,4.5,4.5S748.92,423.85,748.92,423.56Z"/><path class="cls-10" d="M749,486.88v-54c0-2.76,0-5.53,0-8.3,0-2.22.73-4.39,3-5.18,1.85-.65,4.14-.3,6-.29,10.31,0,20.61.11,30.92.11,9.87,0,19.75.05,29.62.05h4.69a.07.07,0,0,0,0-.13c-10.52,0-21-.05-31.55-.05-10,0-20.08-.07-30.12-.1-2.67,0-5.37-.13-8,0a4.63,4.63,0,0,0-4.3,3c-.79,2.13-.38,5.09-.38,7.31v48.41c0,2.91-.18,5.89,0,8.81,0,.13,0,.28,0,.41a.07.07,0,0,0,.13,0Z"/><path class="cls-10" d="M750.13,439.57V424.43c0-.13-.08-.65,0-.76a13.81,13.81,0,0,1,1.42,0h13.34c3.61,0,7.21,0,10.82.05,4.58,0,9.16,0,13.74,0a.07.07,0,0,0,0-.13c-13.13,0-26.25-.06-39.38-.06a.06.06,0,0,0-.06.06v15.94a.06.06,0,1,0,.12,0Z"/><path class="cls-10" d="M750.79,505.06c-1.13-1.63-.53-4.08-.48-5.94,0-.73,0-1.47,0-2.2V460.86a.07.07,0,0,0-.13,0v35.65c0,.87,0,1.74,0,2.61,0,1.88-.65,4.34.5,6,.05.06.16,0,.11-.07Z"/><path class="cls-10" d="M750.17,456.92V445.11a.07.07,0,0,0-.13,0v11.81a.07.07,0,0,0,.13,0Z"/><path class="cls-10" d="M791.43,423.72h19.51a.07.07,0,0,0,0-.13H791.43a.07.07,0,0,0,0,.13Z"/><path class="cls-10" d="M865.66,419.26h4.19a4.29,4.29,0,0,1,2.62,1,4.19,4.19,0,0,1,1.43,3.29.06.06,0,1,0,.12,0,4.31,4.31,0,0,0-3-4.2,9.4,9.4,0,0,0-3.09-.23h-2.31a.07.07,0,0,0,0,.13Z"/><path class="cls-10" d="M830.6,419.26h32.12a.07.07,0,0,0,0-.13H830.6a.07.07,0,0,0,0,.13Z"/><path class="cls-10" d="M813,423.57h32.49a.06.06,0,0,0,0-.12H813a.06.06,0,0,0,0,.12Z"/><path class="cls-10" d="M873.87,424.37v61.1a.07.07,0,0,0,.13,0v-61.1a.07.07,0,0,0-.13,0Z"/><path class="cls-10" d="M874,486.78V501a.06.06,0,0,0,.12,0V486.78a.06.06,0,1,0-.12,0Z"/><path class="cls-10" d="M869.84,506.9a3,3,0,0,0,2.24-.88,3,3,0,0,0,.82-2.27c0-.07-.13-.07-.12,0a2.82,2.82,0,0,1-2.94,3,.06.06,0,0,0,0,.12Z"/><circle class="cls-15" cx="754.47" cy="421.38" r="0.82"/><circle class="cls-16" cx="757.55" cy="421.38" r="0.82"/><circle class="cls-17" cx="760.43" cy="421.38" r="0.82"/><path class="cls-10" d="M871.66,423.49H856a.06.06,0,0,0,0,.12h15.7a.06.06,0,1,0,0-.12Z"/><path class="cls-10" d="M757,507H816a.06.06,0,0,0,0-.12H757a.06.06,0,0,0,0,.12Z"/><path class="cls-10" d="M833.15,507h35a.06.06,0,1,0,0-.12h-35a.06.06,0,0,0,0,.12Z"/><path class="cls-18" d="M914.9,357.58l-103.34.26-27.64.06A13.89,13.89,0,0,1,770,344h0a13.88,13.88,0,0,1,13.86-13.91l26-.05,104.93-.27a13.89,13.89,0,0,1,13.91,13.86h0A13.89,13.89,0,0,1,914.9,357.58Z"/><text class="cls-19" transform="translate(820.88 348.97) rotate(0.1)">R</text><text class="cls-19" transform="translate(829.35 348.98) rotate(0.1)">e</text><text class="cls-19" transform="translate(837.26 348.99) rotate(0.1)">c</text><text class="cls-19" transform="translate(844.3 349.01) rotate(0.1)">o<tspan x="6.98" y="0">m</tspan></text><text class="cls-19" transform="matrix(1, 0, 0, 1, 863.33, 349.04)">m</text><text class="cls-19" transform="translate(875.39 349.06) rotate(0.1)">e</text><text class="cls-19" transform="matrix(1, 0, 0, 1, 883.31, 349.07)">n</text><text class="cls-19" transform="translate(891.14 349.09) rotate(0.1)">d</text><text class="cls-19" transform="translate(899.03 349.1) rotate(0.1)">e</text><text class="cls-19" transform="translate(906.93 349.11) rotate(0.1)">d</text><path class="cls-20" d="M811.56,357.84l-27.64.06A13.89,13.89,0,0,1,770,344h0a13.88,13.88,0,0,1,13.86-13.91l26-.05Z"/><circle class="cls-21" cx="794.69" cy="340.58" r="5.42"/><line class="cls-22" x1="792.19" y1="345.25" x2="788.24" y2="352.17"/><path class="cls-23" d="M783.87,330c-6,.73-11.36,3.93-13.3,9.88a15.14,15.14,0,0,0-.62,6.78,9.81,9.81,0,0,0,2.63,5.46,17.12,17.12,0,0,0,5.69,4.52,14.88,14.88,0,0,0,7,1c.18,0,.18-.29,0-.28a13.09,13.09,0,0,1-11.57-4.49,10.92,10.92,0,0,1-3.36-5.6,14.43,14.43,0,0,1,3.72-12.65,16.29,16.29,0,0,1,9.82-4.36c.18,0,.18-.3,0-.28Z"/><path class="cls-23" d="M834.53,329.91c3.22-.18,6.47-.09,9.69-.08,5.91,0,11.82.07,17.73.13q20.59.21,41.19.53l14.9.24c.18,0,.18-.28,0-.28-10.7-.2-21.41-.34-32.11-.49-13.3-.18-26.59-.35-39.89-.41-3.83,0-7.69-.13-11.51.07-.19,0-.19.3,0,.29Z"/><path class="cls-23" d="M921.85,332.54a9,9,0,0,1,5.69,7.4c0,.17.3.18.28,0a9.36,9.36,0,0,0-5.89-7.68c-.17-.06-.25.21-.08.28Z"/><path class="cls-23" d="M923.63,354.7a6.86,6.86,0,0,0,2.64-2.88c.08-.16-.16-.31-.24-.14a6.68,6.68,0,0,1-2.54,2.78.14.14,0,1,0,.14.24Z"/><path class="cls-23" d="M886.59,357a213.69,213.69,0,0,0,21.92-.05.14.14,0,1,0,0-.28,216.58,216.58,0,0,1-21.92.05c-.18,0-.18.27,0,.28Z"/><path class="cls-23" d="M810.6,348.87c-.64-4.54-.13-9.19-.78-13.73,0-.18-.3-.1-.28.08.65,4.53.14,9.18.79,13.72,0,.18.3.1.27-.07Z"/><path class="cls-23" d="M801.91,330.42c6.85-.23,13.69-.42,20.53-.63l3.34-.11a.14.14,0,0,0,0-.28c-6.84.24-13.69.42-20.53.63l-3.34.11a.14.14,0,0,0,0,.28Z"/><path class="cls-23" d="M826,358c11.31-.29,22.64-.27,34-.41,1.73,0,3.46,0,5.19-.07.18,0,.18-.29,0-.28-11.31.29-22.64.27-34,.41-1.73,0-3.46,0-5.19.07-.18,0-.18.29,0,.28Z"/><circle class="cls-24" cx="932.94" cy="387.96" r="15.06"/><path class="cls-25" d="M939.07,385.63a2.32,2.32,0,0,0-1.51.58l-5.29-4a2.31,2.31,0,1,0-2.08,1.32,2.27,2.27,0,0,0,1.39-.48l5.35,4a2.24,2.24,0,0,0-.17.86,2.27,2.27,0,0,0,.12.69l-5.43,3.23a2.3,2.3,0,0,0-3.72,1.82,2.32,2.32,0,1,0,4.63,0,2.37,2.37,0,0,0-.22-1l5.29-3.16a2.28,2.28,0,0,0,1.64.69,2.32,2.32,0,1,0,0-4.63Z"/><path class="cls-10" d="M922.58,398.66c-4.13-4.44-6.4-11.17-3.45-16.79a16.21,16.21,0,0,1,10.76-8.53,17.48,17.48,0,0,1,11.11,1.9c.12.06.23-.12.11-.18-5.66-2.77-12.09-3.12-17.26.86-3.12,2.39-6.11,6.37-6.29,10.45a17.33,17.33,0,0,0,4.88,12.43.1.1,0,1,0,.14-.14Z"/><path class="cls-10" d="M932,402.71c8.58,1.86,15.87-7,16.06-15a11.89,11.89,0,0,0-1.77-6.63c-.07-.11-.25,0-.18.1,5.56,8.9-3.29,23.66-14.06,21.32a.1.1,0,0,0,0,.2Z"/><path class="cls-4" d="M686.72,366.46S838.52,314,836.38,208.07C834.23,101.77,753,44.52,689.86,49,510.38,61.74,526,220,526,220"/></g><path class="cls-26" d="M396.68,471.86C408.81,315.39,243.82,273,154.1,338.44,95.88,380.89,78.23,451.27,95.4,506.51c16.9,54.36,72,112.11,160.58,98.77"/><path class="cls-26" d="M44.34,799.91s-2.85-96.37,59.3-158.53,107.21-42.19,107.21-42.19"/><rect class="cls-5" x="91.84" y="381.39" width="26.19" height="23.96" rx="4.09"/><path class="cls-6" d="M101.74,390a3.11,3.11,0,1,1,6.21,0"/><path class="cls-6" d="M100.81,390.14h8.07a1.45,1.45,0,0,1,1.42,1.17l1,5.37a1.45,1.45,0,0,1-1.42,1.71H99.8a1.44,1.44,0,0,1-1.41-1.71l1-5.37A1.43,1.43,0,0,1,100.81,390.14Z"/><path class="cls-27" d="M599.24,462.15S726.16,472.48,739.11,397"/><path class="cls-28" d="M805.64,655.38H819a3.45,3.45,0,0,1,3.45,3.45v73.24a0,0,0,0,1,0,0H802.19a0,0,0,0,1,0,0V658.83a3.45,3.45,0,0,1,3.45-3.45Z"/><path class="cls-29" d="M837,685.45h13.35a3.45,3.45,0,0,1,3.45,3.45v43.16a0,0,0,0,1,0,0H833.53a0,0,0,0,1,0,0V688.91A3.45,3.45,0,0,1,837,685.45Z"/><path class="cls-30" d="M868.81,632.28h13.35a3.45,3.45,0,0,1,3.45,3.45v96.34a0,0,0,0,1,0,0H865.36a0,0,0,0,1,0,0V635.73a3.45,3.45,0,0,1,3.45-3.45Z"/><path class="cls-31" d="M903.13,613.72h13.35a3.45,3.45,0,0,1,3.45,3.45v114.9a0,0,0,0,1,0,0H899.68a0,0,0,0,1,0,0V617.18a3.45,3.45,0,0,1,3.45-3.45Z"/><path class="cls-10" d="M802.6,731.43V665.3a.19.19,0,0,0-.38,0v66.13a.19.19,0,0,0,.38,0Z"/><path class="cls-10" d="M844.43,685.62a8.74,8.74,0,0,1,8.59,9v36.78a.19.19,0,0,0,.38,0V714.31c0-6.6,0-13.2,0-19.8a9.12,9.12,0,0,0-9-9.28.2.2,0,0,0,0,.39Z"/><path class="cls-10" d="M865.47,648.53v82.9a.2.2,0,0,0,.39,0v-82.9a.2.2,0,0,0-.39,0Z"/><path class="cls-10" d="M899.5,627.28v81.63a.19.19,0,0,0,.38,0V627.28a.19.19,0,0,0-.38,0Z"/><path class="cls-10" d="M907.68,614.21c3.35,0,6.47.2,9,2.68a9.71,9.71,0,0,1,2.9,7c0,1.56,0,3.13,0,4.7V730.14a9.77,9.77,0,0,0,0,1.71.81.81,0,0,1,0,.22.2.2,0,0,0,.39,0v-108a10.06,10.06,0,0,0-9.22-10.19c-1-.08-2.08,0-3.11,0a.19.19,0,0,0,0,.38Z"/><path class="cls-10" d="M935.29,731.23H786.18a.2.2,0,0,0,0,.39H935.29a.2.2,0,0,0,0-.39Z"/><path class="cls-18" d="M541.05,330l6.69-.07,17.86-.17,145.77-1.39a8,8,0,0,0,7.94-8.09l-1.92-201.58a8,8,0,0,0-8.1-7.94L539,112.33a8,8,0,0,0-7.94,8.1L533,322A8,8,0,0,0,541.05,330Z"/><rect class="cls-32" x="531.98" y="143.03" width="186.36" height="152.47" transform="matrix(-1, 0.01, -0.01, -1, 1252.38, 432.56)"/><line class="cls-33" x1="663.76" y1="127.99" x2="575.04" y2="128.84"/><circle class="cls-29" cx="552.22" cy="128.43" r="9.69"/><path class="cls-34" d="M555.4,322.05c9.29-.37,15.22-13.38,11.59-16.44-5.41-4.56-9.89,4.68-9.89,4.68s-3.82-7.62-9.15-6S547.78,322.35,555.4,322.05Z"/><g class="cls-35"><g class="cls-36"><path class="cls-10" d="M569.54,268.86s-54.51,5.39-65.77,46.68,63.66,84,150.88,51c39.79-15,36.78-47.29,36.78-47.29s-42.9-51.05-80-49.92S569.54,268.86,569.54,268.86Z"/><path class="cls-37" d="M606.19,153.28S601.66,136,609,134.43c23.84-5.23,33.69,22.69,37.9,35.7.05.16,5.92,21.34-9.39,29.44C633.21,201.86,613.55,168.3,606.19,153.28Z"/><path class="cls-38" d="M623,152c5.85,5.85,22,6.48,22.73,25.58.46,12.87-11,20.43-11,20.43Z"/><path class="cls-37" d="M546.49,164.7c-4.17-.56-8.61,1.39-10,5.27s-9.73,37.5-8.34,52.5,2.23,25,17.78,42.22,20.83,15.56,23.61,4.17,5.28-23.06,1.39-36.67S546.49,164.7,546.49,164.7Z"/><path class="cls-38" d="M540.26,171.57s26.78,47,30.67,60.62,1.39,25.28-1.39,36.67-8.06,13.05-23.61-4.17c0,0,6.63-3.47,8.31-13.56.54-3.22-11.83-28.49-11.83-28.49S525,187.28,540.26,171.57Z"/><path class="cls-39" d="M556.83,214.46c6.65,22.85,9.3,32.36,10.16,48.29.37,6.81,14.27,17.44,30.77,31.64,16.76,14.42,42.57,30.25,42.57,30.25,1.15,1.34-8.49-23.15-9.57-30.24a10.22,10.22,0,0,0-2.17-4.94c-3.06-3.79-9.13-11.36-9.72-12.67-1.59-3.47-7.31-6.63-7.44-7.42-1.06-6.93-.2-8.79-2.51-19.2S556.83,214.46,556.83,214.46Z"/><path class="cls-40" d="M597.76,294.39c-16.5-14.2-30.4-24.83-30.77-31.64-.86-15.93-3.51-25.44-10.16-48.29,0,0,44.09,27.86,46.4,38.27L583.35,250a5.77,5.77,0,0,0-7.11,6.8l2.87,13.13Z"/><path class="cls-39" d="M627.84,162.38c11.88,26,9.09,91.43-8.41,91.43-14.94,0-42.45-3.3-52-26.43S551.62,187,558,170.51c3.18-8.24,22.28-6.38,36.37-10.16S622.86,151.49,627.84,162.38Z"/><path class="cls-40" d="M565.82,205.93s6.42.4,19-5.41,19.64-15.83,17.63-30.26-1.2-15.43-1.2-15.43l-10,5.81-25.85,33.47Z"/><path class="cls-41" d="M604.64,229.19c10.76-2.84,13.4-11.93,23.4-7.32,0,0-1.39,2.73-9.34,5.67S604.64,229.19,604.64,229.19Z"/><path class="cls-41" d="M603.34,231.5c1.51,4.06,7.93,10.19,14.42,8.94,13.62-2.62,8.28-9.65,8.28-9.65Z"/><path class="cls-37" d="M558.85,209.46s3.89,3,6.12-.84,1.06-11.7,1.06-11.7,8.66-3.57,10.05-12.46-2.78-11.11,5.55-18.06a44.92,44.92,0,0,1,20.21-9.53c1.43-.3,13.29,1,14.76,1.07,2.49.17,9.26-10,14,3.08,0,0,3,8.27,0,.13-1.34-3.65-15.25-8.39-17.1-11.17-2.42-3.62-8.44-16.28-27.34-15.39-7.17.34-16.8,6.26-25,11.92-29.72,20.55-22.34,56.08-20.67,61.91s10.6,21.52,21.71,19.29Z"/><path class="cls-39" d="M561,209.86c-2.33-3.37-4.34-6.82-9.63-4.66s2,23.67,15.47,20.79C566.86,226,565.35,216.11,561,209.86Z"/><path class="cls-10" d="M623,188.52a6.6,6.6,0,0,1,3.28-4.4,4.76,4.76,0,0,1,3.63,0,3.12,3.12,0,0,1,1.28.83c.2.23.54-.11.34-.34a4.54,4.54,0,0,0-3.09-1.3,5.14,5.14,0,0,0-4.15,1.74,8.81,8.81,0,0,0-1.75,3.38.24.24,0,0,0,.46.13Z"/><path class="cls-10" d="M629.67,220.41a34,34,0,0,1-10.81,5c-6.18,1.63-11,3.32-17.17,3.3,0,0,3.25,9.37,16.62,6.73,9.56-1.89,7.73-4.69,7.73-4.69a18.35,18.35,0,0,1,1.2-5.14C628.25,223.27,629.67,220.41,629.67,220.41Z"/><path class="cls-42" d="M628.14,221.4a32.47,32.47,0,0,1-9.28,4c-6.18,1.63-11,3.32-17.17,3.3a65.85,65.85,0,0,0,8.38,1.1,29.83,29.83,0,0,0,14.86-3.24C627,225.3,628.64,221.08,628.14,221.4Z"/><path class="cls-10" d="M567.41,228.12c4.05,6.16,8.21,12.46,14.32,16.77,3.56,2.5,7.67,3.94,11.74,5.38a34.09,34.09,0,0,0,7.6,2.07c.2,0,.2-.29,0-.32a30,30,0,0,1-6.52-1.72c-2.24-.76-4.45-1.61-6.65-2.49a32.8,32.8,0,0,1-12.47-9.11A98.45,98.45,0,0,1,567.69,228c-.11-.17-.39,0-.28.16Z"/><path class="cls-10" d="M556.33,210.9l2.14,5.66c.06.16.33.09.27-.08l-2.15-5.65c-.06-.17-.33-.1-.26.07Z"/><path class="cls-10" d="M617.13,217.56a18.48,18.48,0,0,1,5.86-2.08l-.12-.29a22.58,22.58,0,0,1-4.57,2.12l.16.27.65-.52c.13-.11,0-.31-.15-.27l-1.65.44c-.14,0-.16.28,0,.3a15.62,15.62,0,0,0,4,.13.17.17,0,0,0,.16-.21,1.38,1.38,0,0,1,.89-1.46c.2-.06.11-.37-.08-.3a1.68,1.68,0,0,0-1.12,1.85l.15-.2a15.91,15.91,0,0,1-4-.11v.3l1.65-.43-.16-.27-.65.52c-.12.1,0,.32.16.27a23.27,23.27,0,0,0,4.64-2.15.16.16,0,0,0-.12-.29,18.54,18.54,0,0,0-5.95,2.1.16.16,0,0,0,.17.28Z"/><path class="cls-10" d="M621.4,217.05c3-.59,2.79-4.16,1.77-6.28-.52-1.09-1.21-2.08-1.69-3.19-.4-.94-.76-1.89-1.13-2.83-.87-2.24-1.71-4.48-2.54-6.73a6.13,6.13,0,0,1-.6-3,49.47,49.47,0,0,1,.79-8.07c0-.2-.26-.29-.3-.09a39.27,39.27,0,0,0-.69,6.4,10.2,10.2,0,0,0-.07,3.35c.5,1.72,1.26,3.4,1.89,5.07.75,2,1.48,4,2.3,5.9.44,1.05,1.06,2,1.58,3,1,2,1.6,5.59-1.39,6.2-.2,0-.12.35.08.3Z"/><path class="cls-10" d="M589.58,203.13c2.42-1.69,5.52-3.77,8.56-2.38.31.14.58-.31.27-.46-3.25-1.48-6.49.55-9.1,2.38-.27.19,0,.65.27.46Z"/><path class="cls-10" d="M626.45,196.3a2.9,2.9,0,0,1,3.48-.72c.3.15.57-.3.27-.46a3.44,3.44,0,0,0-4.12.8c-.22.26.16.64.37.38Z"/><path class="cls-10" d="M561.61,230.37q2.89,13.42,4.65,27c0,.2.35.2.32,0q-1.76-13.65-4.66-27.12c0-.2-.35-.12-.31.08Z"/><path class="cls-10" d="M559.56,228.79a38.23,38.23,0,0,1-11.1-6A25.23,25.23,0,0,1,541.05,212c-3.27-8.55-3.7-17.86-2.95-26.9.44-5.24,1.26-10.43,2.19-15.6,0-.2-.27-.28-.3-.08-1.7,9.42-3.09,19-2.31,28.62.7,8.62,3.09,18.32,9.79,24.3a37,37,0,0,0,12,6.73c.19.07.28-.24.08-.31Z"/><path class="cls-10" d="M570.3,173.19a2.44,2.44,0,0,0,2.48-1.27c.09-.18-.18-.35-.28-.16a2.11,2.11,0,0,1-2.12,1.12.16.16,0,0,0-.19.11.15.15,0,0,0,.11.2Z"/><path class="cls-37" d="M599.55,156c-5.46,5.07,2.36,13.45-1.35,24.19-6.68,19.34-29.49,24.86-38.49,21.45,0,0,4.53-33.21,13.11-37.11S599.55,156,599.55,156Z"/><path class="cls-38" d="M597.31,162.12s-4.3-11.32,2-13.15c10.71-3.12,17.32,9.66,17.32,9.66s-9.14-1.68-12.11-1C598.64,158.83,597.31,162.12,597.31,162.12Z"/><path class="cls-38" d="M616.62,158.63s1-10.81,4.37-12.09c6.39-2.44,24.17,10.5,24.29,27.63,0,4.33-13.37-12.8-20.72-15.5C620.15,157.06,617.39,158,616.62,158.63Z"/><path class="cls-10" d="M581.29,196.41a18.67,18.67,0,0,1,8.2-7.8c3.13-1.52,8-2.86,10.76.06.21.22.55-.11.34-.34-2.71-2.87-7.33-1.88-10.54-.5a19.11,19.11,0,0,0-9.17,8.34c-.15.26.26.51.41.24Z"/><path class="cls-10" d="M598.61,229.2c5.9.6,11.68-1.22,17.27-2.87,2.87-.84,5.71-1.73,8.55-2.67,2.33-.77,4.74-1.49,6.54-3.25.15-.14-.08-.37-.22-.22-2,1.93-4.77,2.63-7.33,3.46s-5.38,1.72-8.09,2.51c-5.42,1.59-11,3.3-16.72,2.72-.21,0-.2.3,0,.32Z"/><path class="cls-10" d="M552.7,161.38a33.36,33.36,0,0,0,11.51-3.33c.18-.09,0-.37-.17-.28a32.55,32.55,0,0,1-11.34,3.29c-.2,0-.2.34,0,.32Z"/><path class="cls-10" d="M580.08,147.22c2.88-3.36,5.86-6.84,9.84-8.93a13.21,13.21,0,0,1,13.39.3c7.06,4.24,10.69,12.21,13,19.79a.16.16,0,0,0,.3-.08c-1.88-6.11-4.57-12.56-9.29-17a17.86,17.86,0,0,0-8.79-4.87,14.13,14.13,0,0,0-9.54,2c-3.65,2.14-6.44,5.41-9.16,8.57-.14.16.09.39.22.23Z"/><path class="cls-10" d="M599.25,174.47c-.38-5.85-2.67-11.4-3-17.25-.2-3.46.84-6.85,4.37-8.13,3.13-1.14,6.45.09,8.85,2.19.16.14.38-.09.23-.22a9.76,9.76,0,0,0-7.71-2.65,6.94,6.94,0,0,0-5.87,5.4c-.68,3.14.1,6.59.76,9.67a76.19,76.19,0,0,1,2,11c0,.2.33.2.32,0Z"/><path class="cls-10" d="M560.21,200.58a14.9,14.9,0,0,0,14.25,1c.19-.08,0-.36-.16-.27a14.6,14.6,0,0,1-13.93-1c-.18-.12-.34.16-.16.27Z"/><path class="cls-10" d="M562.27,227.23c-6.53-2.73-10.66-8.31-12.5-15-.45-1.63-1.38-3.93-.31-5.46.9-1.3,2.68-1.81,4.16-2,4.09-.66,6.51,3,9,5.66.14.15.37-.08.23-.23-1.84-2-3.83-5-6.61-5.7-2.1-.57-5.39.18-6.83,1.91a3.47,3.47,0,0,0-.63,2.86,30.17,30.17,0,0,0,1.32,5,22.27,22.27,0,0,0,4.28,7.68,21.21,21.21,0,0,0,7.85,5.62c.19.08.28-.23.09-.3Z"/><path class="cls-10" d="M565.53,202.47A14.16,14.16,0,0,1,564.4,208c-.08.18.19.35.27.16a14.41,14.41,0,0,0,1.18-5.68.16.16,0,0,0-.32,0Z"/><path class="cls-10" d="M545,165.14c1.27-3.94,4.31-7.3,7.14-10.22a89.88,89.88,0,0,1,9.2-8.24c.16-.13-.07-.35-.23-.23a89.18,89.18,0,0,0-9.58,8.64c-2.72,2.86-5.61,6.14-6.84,10-.06.19.25.28.31.08Z"/><path class="cls-10" d="M565,143.88c2.6-1.69,5.49-2.86,8.15-4.45a34.26,34.26,0,0,1,4.62-2.5c1.48-.6,3-1.08,4.54-1.57a19.9,19.9,0,0,1,6.88-.65,18.41,18.41,0,0,1,7.16,1.31c.18.09.34-.19.16-.28a17.57,17.57,0,0,0-6.49-1.31,22.32,22.32,0,0,0-7.29.46,33,33,0,0,0-9,3.77c-2.87,1.84-6.08,3.08-8.94,4.94-.17.12,0,.39.16.28Z"/><path class="cls-10" d="M617.65,154.39c.33-3.41,1.31-7.82,5.6-7.68,3.86.13,7.87,2.06,10.88,4.37a26.93,26.93,0,0,1,7.25,9.21,38.69,38.69,0,0,1,4.2,11.69c.79,5.2-.37,10.38-1.53,15.43a.16.16,0,0,0,.31.08c1.12-4.86,2.25-9.85,1.63-14.87a38,38,0,0,0-4.44-12.69,26.58,26.58,0,0,0-7.88-9.59,22.43,22.43,0,0,0-5.33-2.8c-1.88-.69-4.19-1.41-6.21-1.09-3.72.58-4.5,4.83-4.79,7.94,0,.2.3.2.31,0Z"/><path class="cls-10" d="M639.32,198.84a28.51,28.51,0,0,0,5.53-5.82,16.45,16.45,0,0,0,2.5-7.08c0-.2-.3-.2-.32,0a16.16,16.16,0,0,1-2.57,7.1,28.91,28.91,0,0,1-5.37,5.57c-.15.14.08.36.23.23Z"/></g></g><path class="cls-10" d="M684.15,328.18a20.2,20.2,0,0,1,3.38-.28c1.88-.08,3.76-.12,5.64-.16,4.66-.11,9.32-.21,14-.54,1.92-.13,3.84-.3,5.74-.61a10.72,10.72,0,0,0,3.56-1c1.68-1,1.62-3.82,1.68-5.48,0-.53,0-1.06,0-1.59,0-3.5,0-7,0-10.51q0-9.37-.08-18.75-.06-12.21-.13-24.41-.09-13.62-.17-27.22t-.16-27.22q-.08-12.23-.13-24.45-.06-9.45-.09-18.9c0-3.5,0-7,0-10.52,0-.34,0-.67,0-1a.21.21,0,0,0-.41,0c-.07,2.66,0,5.33,0,8,0,5.62,0,11.24.06,16.86q.06,11.52.13,23l.15,26.49q.09,13.56.16,27.12l.15,25.3q.06,10.32.1,20.64c0,4.43,0,8.87,0,13.3,0,1,0,2,0,3a19.63,19.63,0,0,1-.28,3.51,3.32,3.32,0,0,1-1.22,2.42,11.07,11.07,0,0,1-3.84,1c-8.38,1.26-16.95.86-25.39,1.26a18.41,18.41,0,0,0-3,.27c-.26.06-.15.46.11.4Z"/><path class="cls-10" d="M715.83,140.55c-.05-8,.09-16.07-.15-24.1-.07-2.55-.84-4.88-3.32-6s-5.1-.83-7.58-.52c-.26,0-.27.45,0,.42,2.41-.31,5.1-.53,7.39.48,3.41,1.51,3.1,5.27,3.12,8.42l.12,21.28a.21.21,0,0,0,.42,0Z"/><path class="cls-10" d="M697.56,110.25l-25.1.24-33.76.33-11.2.1a.21.21,0,0,0,0,.42l25.11-.24,33.75-.32,11.2-.11a.21.21,0,0,0,0-.42Z"/><path class="cls-10" d="M567.82,111.42l-29.33.28a.21.21,0,0,0,0,.42l29.33-.28a.21.21,0,0,0,0-.42Z"/><path class="cls-10" d="M534.06,113.63c-2.88,1.85-3.2,5.55-3.29,8.67-.06,1.87-.08,3.74-.1,5.6,0,5.63,0,11.25,0,16.87q.11,19.86.54,39.71c.12,5.16.23,10.33.53,15.49,0,.27.43.27.41,0-.6-10.41-.67-20.87-.82-31.3-.19-12.52-.31-25-.25-37.57,0-2.37,0-4.75.08-7.12.07-3.41-.11-7.91,3.12-10,.23-.14,0-.5-.2-.36Z"/><path class="cls-10" d="M677.33,327.74l-12.69.13-25.15.24-29.5.28-26.15.25-14.67.14h-.63a.21.21,0,0,0,0,.42l12.69-.12,25.15-.24,29.5-.28,26.15-.25,14.67-.14h.63a.21.21,0,0,0,0-.42Z"/><path class="cls-10" d="M547.78,329.43c-2.11,0-4.23,0-6.34.06a11.52,11.52,0,0,1-3.41-.32c-3.15-.91-4.74-3.63-4.86-6.81,0-.87,0-1.75,0-2.62l-.22-23.09-.33-34.72-.31-32.54-.11-11.16,0-3.5a13,13,0,0,0,0-1.87,1.77,1.77,0,0,1,0-.23.21.21,0,0,0-.42,0l.14,14,.3,32.12.34,35.78.24,24.54c0,3.28-.2,7,2.64,9.26s6.54,1.62,9.79,1.59l2.63,0a.21.21,0,0,0,0-.42Z"/><path class="cls-10" d="M687.09,142l-35.38.33-50.53.49-14.77.14a.21.21,0,0,0,0,.41l35.37-.33,50.53-.49,14.78-.14c.26,0,.26-.42,0-.41Z"/><circle class="cls-43" cx="739.11" cy="396.97" r="49.3"/><polygon class="cls-43" points="695.61 388.06 675.13 393.63 695.54 407.73 695.61 388.06"/><g class="cls-44"><g class="cls-45"><path class="cls-46" d="M695.27,495.07a40.1,40.1,0,0,0-6.82-1.63,58.51,58.51,0,0,1-8.91-2.74,4.16,4.16,0,0,1-.06-1.7c.1-1.38,1.51-30.11,10.7-49.14,5.56-11.5,8.54-19,12.17-22.26,7.67-6.82,28.42-11.34,37.07-11.72,14.15-.62,29,5.15,36.39,11.81,13.44,12.15,23.23,61.55,25.62,69.81,0,0-1.6,9.12-12.74,9.91,0,0-10.48-13-12.38-16.56-2.8-5.25-5.24-12.88-8.87-20.08,0,0,0,16.75-.62,32.3-.44,10.68-1.49,15.16-2.61,18.7-.21.66-50.29,1-55.25-2-2.94-1.75-1.56-17.17-1.7-23.48-.31-13.06-.35-29.21-.57-31.2Z"/><path class="cls-47" d="M724.24,374.77s-2.88,3.41.08,12.69l2.6-12.65Z"/><path class="cls-48" d="M730.1,403.48s-6.34-.76-6.19-13.07,2.62-19.05,6.85-22.69c10.44-9,20.88-2.59,24.62,3.81,3.61,6.16-1.07,20.06-1.84,22.86-.54,1.93-2.88,5.21-3.25,7.12-.83,4.31.65,6.71.65,6.71s-23.47,13.2-22.54.52C728.42,408.5,730.1,403.48,730.1,403.48Z"/><path class="cls-49" d="M705.63,414.85c-1.91,12.51-1,25,1.39,37.38a.09.09,0,0,0,.18-.05c-2.37-12.35-3.3-24.8-1.39-37.28,0-.12-.17-.17-.18,0Z"/><path class="cls-10" d="M751,368.81a7.35,7.35,0,0,1,4.81-.67c.39.08.56-.51.17-.59a8,8,0,0,0-5.29.73c-.35.18,0,.71.31.53Z"/><path class="cls-10" d="M752.4,364.14l-.17,2.28a.31.31,0,1,0,.62,0l.17-2.28a.31.31,0,0,0-.31-.31.32.32,0,0,0-.31.31Z"/><path class="cls-49" d="M765.75,449.63c.39,1.57,0-.33-.06-.79-.08-.74-.14-1.48-.19-2.22-.1-1.48-.15-3-.14-4.45a62.53,62.53,0,0,1,6.27-27.1c.06-.11-.11-.2-.16-.09a63.29,63.29,0,0,0-5.69,36.1c0,.09.16.09.18,0a3.17,3.17,0,0,0,0-1.5.09.09,0,0,0-.18.05Z"/><path class="cls-49" d="M727,408.44a4,4,0,0,0-.12,4.36,6,6,0,0,0,3.84,2.65c.11,0,.16-.16,0-.18a5.87,5.87,0,0,1-3.67-2.48,3.86,3.86,0,0,1,.08-4.25c.07-.1-.1-.19-.17-.1Z"/><path class="cls-49" d="M734,415.68a12.45,12.45,0,0,0,2.86-.21.09.09,0,0,0-.05-.18,13.26,13.26,0,0,1-2.81.21c-.12,0-.12.18,0,.18Z"/><path class="cls-49" d="M740.53,414.57c5.71-1.2,11.63-3.48,14.81-8.69a.09.09,0,0,0-.16-.09c-3.16,5.16-9,7.41-14.7,8.6-.12,0-.07.2,0,.18Z"/><path class="cls-47" d="M728.35,378.1c-6.11-.39-8.61-2.18-10.85-7.8-1-2.41-1.46-10.15,2.09-11.64,2.07-.87,4.68,6.13,4.68,6.13s-1.22-3.56,2.1-5.14c2-.93,5,1.69,5,4.45,0,0,.71-3.66,2.2-4.8s5.86,0,5.83,5.09c0,0,2.47-3.8,12.1,3s3.87,27.53.94,31.24a16.46,16.46,0,0,1-2-6.88s3.63-.73,3.62-5.64c0-5.5-3.68-3.09-4.12-1.59l-1.68.47-.51-3.11s-4.46-.7-6-4.48A78.72,78.72,0,0,1,728.35,378.1Z"/></g></g><circle class="cls-30" cx="732.66" cy="527.46" r="25.73"/><text class="cls-50" transform="translate(723.39 537.52) scale(1 0.95)">$</text><path class="cls-10" d="M715,545.74a29.6,29.6,0,0,1-8.25-19.15,18.6,18.6,0,0,1,2.34-9.5c3.75-7.15,10.44-13,18.49-14.61,6.49-1.27,13.05.39,18.87,3.27.21.1.39-.21.18-.31-5.26-2.6-11.09-4.24-17-3.62a24.79,24.79,0,0,0-12.51,5.11c-5.32,4.1-10.4,10.89-10.71,17.85-.35,7.86,3,15.53,8.34,21.21.15.16.4-.09.25-.25Z"/><path class="cls-10" d="M731,552.65c14.67,3.25,27.14-12.11,27.43-25.66a20.16,20.16,0,0,0-3-11.25c-.12-.2-.43,0-.3.17,7.62,12.11-.3,29.65-12.63,35.18a18.12,18.12,0,0,1-11.38,1.22c-.23,0-.32.3-.1.34Z"/><path class="cls-51" d="M546.13,597.79c13.36,22.26,19.29,59.36,35.61,61.58s37.84.75,37.84.75-7.42-23.75-8.16-40.07,11.07-74.92,17.07-138C633.84,425.7,546.13,597.79,546.13,597.79Z"/><path class="cls-10" d="M549.84,604.16l21.79,31.33s10.45,14.53,10,13.17-13.07-36.18,0-42.61Z"/><path class="cls-52" d="M581.74,659.37l37.84.75s3,50.45,3.71,62.32-8.9,63.06-26.71,65.29S581.74,659.37,581.74,659.37Z"/><path class="cls-53" d="M374,537a135.66,135.66,0,0,0,14.84-38.58c4.45-21.51,7.42-79.38,17.81-100.9s49-26.71,63.8-34.13l71.23-17.81s43.23,2.25,66.77,18.55c19.29,13.36,27.46,31.91,26.71,54.16s-12.61,132.07-19.29,152.1-12.69,35-34.2,35.71S474.9,603,474.9,603l-72.59,16.94L396.26,603Z"/><path class="cls-51" d="M400.32,613.48l5,19.85s29.27,1,35.72-15.38,4-16.87,4-16.87Z"/><path class="cls-51" d="M413.9,501.65c2,10,9.49,37.85,7.73,60.37,0,0,.36,14.08-1.05,15.84s-7.39,10.55-7.39,10.55,0-14.07-.35-36.95S413.9,501.65,413.9,501.65Z"/><path class="cls-51" d="M563.58,520.59c-3.73,3.44-8.66,10.83-4.64-7.74s5.26-27.22,11.14-28.77,15.77,29.08,15.77,29.08S571.62,513.16,563.58,520.59Z"/><path class="cls-10" d="M461.68,376.12c-1.72,2.86-3.28,6.56-3,10,.22,2.92,2.32,5.4,4.56,7.11a21.25,21.25,0,0,0,7.93,3.57,57.78,57.78,0,0,0,11.32,1.64,64.5,64.5,0,0,0,10.75-.86c3-.39,5.94-.86,8.88-1.47a62.22,62.22,0,0,0,14.95-4.84,39.35,39.35,0,0,0,12.31-9.41c.25-.28-.16-.69-.41-.41-6.11,7-14.32,11-23.2,13.23a123.2,123.2,0,0,1-17.39,2.88,43.07,43.07,0,0,1-11.17-.24,41.94,41.94,0,0,1-9.26-2.14c-3.26-1.29-6.57-3.52-8.08-6.8-1.73-3.74.37-8.68,2.33-11.94a.29.29,0,0,0-.5-.29Z"/><path class="cls-54" d="M498,183.16c-11.28-4.77-23.42-2.16-33.83,5.21s-25.59,3-32.53,20.37S413,235.48,419.51,264.05c4.12,18,24.53,31.89,17.25,56.52-4.09,13.88-19.37,20.64-22.73,34.64-4.09,17.05,11.26,13.3,14.14,27,1.58,7.53-24.55,12.3-30,33.21-2.46,9.48.06,14.06,3.3,16.26a13.62,13.62,0,0,1,5.84,12.15c-.46,6.76.41,15.45,6.32,21.37.66.66,2.08-22.44,4.95-33.73,6.3-24.74,23.63-15.21,28.79-34.18,5.67-20.86,35.45-25.68,36-42.53l-4.16-10.07Z"/><path class="cls-39" d="M527.35,275.84c1.49,23,.75,62.32,8.17,70.48S522.34,390,489.69,390s-24.31-14.48-19.35-19.76c7.72-8.21,9.3-9.07,9.3-15.84,0-8.49-6.22-30.37-6.22-30.37Z"/><path class="cls-55" d="M505.57,322l10,9.54-9.55,43s-8.5,12.52-20.66,15.12c0,0,24.75,3,39.76-14.25,22.18-25.52,10.85-49,10.85-51.21s-13-14.76-13-14.76Z"/><path class="cls-39" d="M473.56,343.28c-21.52,0-34.05-42.38-34.05-60.45,0-25.16-5.65-52.22,12.08-64.91,3.68-2.64,10.92,1,10.92,1s55.24-14.13,64.73,4.26c11.87,23,16.31,34.07,11.11,60.78S504.72,343.28,473.56,343.28Z"/><path class="cls-10" d="M520.68,315.35c-5.87,7.7-12.73,14.45-21.34,19-.33.18,0,.68.3.5,8.7-4.6,15.62-11.42,21.54-19.2.23-.3-.28-.59-.5-.3Z"/><path class="cls-56" d="M459.94,313.82c-1.82-2.43-.22,9,7.59,8.7,18.31-.67,21.88-10.49,21.88-10.49S465.3,321,459.94,313.82Z"/><path class="cls-56" d="M459.94,313.82c-2.87-1.61.22-4,3.8-2.24l3.57,1.79s1.56-3.35,7.37-3.12A140.67,140.67,0,0,1,489.41,312S471.1,320.07,459.94,313.82Z"/><path class="cls-57" d="M263.45,635.63c56.67,3.28,95.75-8.4,123.75-2.44,16.37,3.47,35.9-17.45,47.11-12.25,30.42,14.09-5.41,89.63-21.73,103.72S263.45,635.63,263.45,635.63Z"/><polygon class="cls-10" points="325.02 631.3 376.84 656.74 395.68 673.7 427.72 638.84 325.02 631.3"/><path class="cls-39" d="M246.39,623.76c-22.26,1.48-35.62,11.87-37.1,40.07s54.16,63.8,61.58,66.77,95.71,42.29,95.71,42.29l54.16-43S361.39,672,316.87,651.21,263.48,622.62,246.39,623.76Z"/><path class="cls-58" d="M327.53,656.72l22.41,30.47L363.36,708l10.4-12.18s8.6-5-2.51-10.75S327.53,656.72,327.53,656.72Z"/><path class="cls-39" d="M372.71,772.66c10.17,7,35.33,15.52,53.52,23s26.76,11.78,35.86,18.2,17.13,9.1,24.62,7S499,773.73,499,773.73l-64.76-30.5Z"/><path class="cls-58" d="M410.94,789.24l33.89-36.74s-8.23-7.92-14.88-3.17S386.23,771.82,384.33,774s-1.9,4.43,4.12,6S410.94,789.24,410.94,789.24Z"/><path class="cls-59" d="M536.49,588.89c26.68,24.52,51.93,54.16,71.22,115s-2.22,93.48-40.06,100.9-163.23-77.16-163.23-77.16S509,563.66,536.49,588.89Z"/><path class="cls-57" d="M535.23,638.37c-18.88,3.7-27.12,150.93-63.14,130.76-36.18-20.26-67.67-41.5-67.67-41.5s97.65-145.31,125.1-120.08Z"/><path class="cls-60" d="M560.34,710.29c6.85,93.61-105.44,51.39-58.88,74.39,26.83,13.25,52.36,22.83,66.19,20.11,37.84-7.42,59.35-40.06,40.06-100.9S560.34,710.29,560.34,710.29Z"/><path class="cls-59" d="M345.09,725.16c7.42,14.1,31.88,32.89,58.59,41.05,0,0,106.84-64.55,122.42-85.32s39.32-57.87,20-83.1-38.69-25.35-57.87-17.06c-27.45,11.87-77.09,74.14-86.07,83.84C383.65,684.6,345.09,725.16,345.09,725.16Z"/><path class="cls-39" d="M403.68,766.21c-26.71-8.16-50.45-24.48-57.87-38.58,0,0-14.1,17.81-40.07,37.1s-31.9,10.39-39.32,18.55-13.36,26-8.16,32.64,11.13,7.42,17.8,8.16,26,.22,30.22-1.81c16.77-8,13.28-16.25,19.22-19.22S403.68,766.21,403.68,766.21Z"/><path class="cls-58" d="M258.26,815.92c5.19,6.68,11.13,7.42,17.8,8.16s26,.22,30.22-1.81c16.77-8,13.28-16.25,19.22-19.22s78.18-36.84,78.18-36.84a140,140,0,0,1-31.6-14.14c-3.11-1.89-4.27,2.94-7.34,5-9.21,6.32-22.41,23.07-51.48,39.64,0,0,2.1,13.63-16.07,18.17S258.26,815.92,258.26,815.92Z"/><path class="cls-53" d="M305.74,764.73c-26,19.29-31.9,10.39-39.32,18.55s-13.36,26-8.16,32.64,11.13,7.42,17.8,8.16c0,0-5,4.77-28.58,0s-32.64-2.14-44.42-1.61-57.26,2.14-59.4-23.55,31.57-36.39,62.61-35.85,57.27,4.28,64.76,2.14,8.56-3.21,18.73-3.75S305.74,764.73,305.74,764.73Z"/><path class="cls-61" d="M143.66,798.88c2.14,25.69,47.63,24.09,59.4,23.55s20.87-3.21,44.42,1.61,28.58,0,28.58,0c-6.67-.74-12.61-1.48-17.8-8.16s.74-24.48,8.16-32.64,13.35.74,39.32-18.55c0,0-4.78-4.3-17.1,3.33S257,774.51,257,774.51s-70.41-5.28-92.13,4.69S143.66,798.88,143.66,798.88Z"/><path class="cls-62" d="M173.26,489l171.29-14.27a13.08,13.08,0,0,1,13.46,8.8L410.6,637.38l-190.92,6.41L164.17,503.67A10.74,10.74,0,0,1,173.26,489Z"/><path class="cls-63" d="M176,498.48l160.8-13.4a12.28,12.28,0,0,1,12.64,8.27l49.37,144.42-179.24,6L167.49,512.24A10.08,10.08,0,0,1,176,498.48Z"/><path class="cls-39" d="M461.09,556.68c8.56-1.8,18.48,23.89,17.13,29.3l-16.68,16.23s-16.68,39.22-20.29,40.58-33.36,5-40.57,2.7-2.26-6.31,1.8-7.21c0,0-10.37,3.15-12.17,0s0-7.21,6.76-9.47,19.39-8.11,19.39-8.11,13.07-11.72,13.52-14-3.16-2.7-5.86-.9-9.92,9.92-22.54,15.33-14,6.31-15.78,4.51-1.35-6.77,13.53-16.23c1.29-.83,7.57-5.77,8.56-6.77,4.51-4.5,1.44-16,7.66-26.59,0,0,10.82-9,15.33-10.82s10.82-.45,17.58-3.61A111.55,111.55,0,0,1,461.09,556.68Z"/><path class="cls-58" d="M400.17,637.77s-10.29,4.71.51,7.72,28.49.4,28.49.4,17.07.08,20.43-13.45,12.64-28.32,12.64-28.32l-9.58,2.9S437.58,629.65,428,632.84Z"/><path class="cls-53" d="M472.79,795.67c0,16.06,10.17,26.76,18.2,30s25.69,0,32.11,3.21,8,11.78,25.69,7.5,17.66-10.17,17.66-10.17l-1.07-7.49S554.21,759.3,544,755.55s-22,6.94-33.25,11.22c-5.56,2.12-12.83,4.57-20.87,8C481.72,778.33,472.79,783,472.79,795.67Z"/><path class="cls-61" d="M472.79,795.67c0,16.06,10.17,26.76,18.2,30s25.69,0,32.11,3.21,8,11.78,25.69,7.5c8.57-2.08,9-3.16,8.71-5.44s-2.14-12.4-5.13-26.51c-2.4-11.33-9-29.07-15.39-37.63-6-8-15-4.28-26.19,0-5.56,2.12-12.83,4.57-20.87,8C481.72,778.33,472.79,783,472.79,795.67Z"/><path class="cls-64" d="M516.65,824.22C511.48,816,504.79,797.75,506,785c0,0-15.82,2.74-15.22,21.6S516.65,824.22,516.65,824.22Z"/><path class="cls-54" d="M618.91,328.4c-16.19-19.55-23.86-10.24-29-23.27s23-36.31,1.71-46.55c-18.3-8.79-18.17-23.54-24.2-37.21-6.19-18-11.21-32.29-35.1-41.89-27-10.84-57.75,3.26-61.73,9.77s-10.43,20.8-10.43,20.8C461.75,223,468,243.33,492.42,246c15.59,1.7,9.78,8.77,13.59,19.25,3.1,8.55,9.39,13.34,6,20.65a35.54,35.54,0,0,1-5.2,11.8c-7.3,11.25,2.57,15.94,9.87,19.22s13.41,6.2,9.87,10.31c-8.75,10.18-23.1,16.66-24.33,26.51-2.22,17.8,17.94,22.18,16.42,27.77-10.5,11.34-19.82,24.06-19.9,31.09-.29,22.73,9,23.75,2.72,29.88-4.3,4.22,2.66,3.59,9.44-5,17.2-16.52,29.49,1.16,32.21-19.63,7.77-3.26,16.35-4.14,18.57-15.22,1.55-7.76-14.2-14.84-2.12-23,10.67-7.23,29.19-13.69,22.43-22.72-1.43-1.91,4.27-2.82,15.37,5S629,390.31,629,390.31C626.48,379.14,635.11,348,618.91,328.4Z"/><path class="cls-10" d="M457.32,313.76a41.4,41.4,0,0,0,34.15-2.68c.33-.18,0-.68-.29-.5a40.84,40.84,0,0,1-33.71,2.62c-.35-.13-.5.43-.15.56Z"/><path class="cls-10" d="M462.89,303.8c-2.44-.41-7.22-1.8-6.4-5.13.59-2.41,2.46-4.3,3.4-6.57a48.67,48.67,0,0,0,2.53-9.34,84,84,0,0,0,1.2-10c0-.37-.56-.37-.59,0a75.66,75.66,0,0,1-1.55,11.61c-.73,3.28-1.51,6.68-3.25,9.59-1,1.67-3,4.21-2.33,6.32.84,2.64,4.45,3.69,6.83,4.08.37.06.52-.5.16-.56Z"/><path class="cls-10" d="M442,260.72c.93-1.72,3.2-2.88,5-3.38a6.44,6.44,0,0,1,3.64-.06,5.77,5.77,0,0,1,3.2,2.79.29.29,0,0,0,.51-.29,6.44,6.44,0,0,0-3.31-3,6.73,6.73,0,0,0-3.95-.1,10.66,10.66,0,0,0-3.55,1.65,6.4,6.4,0,0,0-2,2.07c-.18.33.32.62.5.29Z"/><path class="cls-10" d="M480.05,259.61c4.7-8.51,17.25-1.34,23,2.12.32.2.62-.31.3-.5-6-3.64-18.87-10.8-23.78-1.91-.18.33.33.62.51.29Z"/><path class="cls-10" d="M489.55,273.16a2.58,2.58,0,0,0,1.25,3.75.3.3,0,0,0,.33-.14,4.27,4.27,0,0,0,.37-4,1.28,1.28,0,0,0-.7-.71.71.71,0,0,0-.84.33,2.15,2.15,0,0,0-.22,1,4.72,4.72,0,0,0,.06,1.06,4.88,4.88,0,0,0,1,2.24.29.29,0,0,0,.46-.06,2.93,2.93,0,0,0-.17-3.2c-.22-.29-.73,0-.5.3a2.36,2.36,0,0,1,.17,2.61l.46-.06a4.28,4.28,0,0,1-.85-2c0-.22-.13-1.89.32-1.63a1.38,1.38,0,0,1,.46.87,3.85,3.85,0,0,1,.12,1,3.81,3.81,0,0,1-.63,2l.33-.13a2,2,0,0,1-.91-2.9c.22-.31-.29-.6-.5-.29Z"/><path class="cls-10" d="M447.9,273.16a2.56,2.56,0,0,0,1.25,3.75.3.3,0,0,0,.33-.14,4.27,4.27,0,0,0,.36-4,1.24,1.24,0,0,0-.69-.71.73.73,0,0,0-.85.33,2.15,2.15,0,0,0-.21,1,4.71,4.71,0,0,0,.05,1.06,4.9,4.9,0,0,0,1,2.24.29.29,0,0,0,.46-.06,3,3,0,0,0-.17-3.2c-.22-.29-.73,0-.5.3a2.38,2.38,0,0,1,.16,2.61l.46-.06a4.26,4.26,0,0,1-.84-2c0-.22-.13-1.89.32-1.63a1.43,1.43,0,0,1,.46.87,3.85,3.85,0,0,1,.11,1,3.64,3.64,0,0,1-.63,2l.33-.13a2,2,0,0,1-.9-2.9c.21-.31-.29-.6-.5-.29Z"/><path class="cls-10" d="M412.82,459c-1.73,13.41-.28,27,1.73,40.25,2.24,14.73,5.16,29.35,6.53,44.2a173,173,0,0,1,.52,26.74c0,.37.56.37.58,0,1-15.36-.6-30.68-2.95-45.85-2.2-14.19-5.1-28.32-6.2-42.67a110.82,110.82,0,0,1,.38-22.67c0-.37-.54-.37-.59,0Z"/><path class="cls-10" d="M393,543.21a37.14,37.14,0,0,1,12.23,9.1c.25.28.66-.13.41-.41a37.45,37.45,0,0,0-12.34-9.19c-.34-.16-.64.34-.3.5Z"/><path class="cls-10" d="M572.09,398.86c-8,14.05-9.83,30.49-9.81,46.4,0,17.72,2.32,35.51.08,53.18a62.67,62.67,0,0,1-3.14,14.4,38.9,38.9,0,0,0-1.69,4.51,13.39,13.39,0,0,0-.08,5.24c0,.37.61.21.56-.16a12.44,12.44,0,0,1,.19-5.33c.39-1.36,1-2.63,1.52-3.94a58.31,58.31,0,0,0,2.89-12.31A149.55,149.55,0,0,0,563.84,475c-.4-16.76-2.14-33.62.34-50.31a72.65,72.65,0,0,1,8.42-25.56.3.3,0,0,0-.51-.3Z"/><path class="cls-10" d="M563.37,449.4a36.64,36.64,0,0,1,8.4-20.6c.24-.29-.17-.7-.42-.42a37.45,37.45,0,0,0-8.57,21c0,.38.56.38.59,0Z"/><path class="cls-10" d="M555.58,531.27a29.73,29.73,0,0,1,21.16-4.65c8,1.28,14.76,6.32,20.79,11.51a97.93,97.93,0,0,1,9.91,9.84c.25.29.66-.13.42-.41a89.38,89.38,0,0,0-19.35-16.95,30.57,30.57,0,0,0-21.56-4.5,29.49,29.49,0,0,0-11.66,4.66c-.31.21,0,.72.29.5Z"/><path class="cls-10" d="M577.89,534.79a25.57,25.57,0,0,1,8.59,7.56c.22.3.72,0,.5-.29a26.29,26.29,0,0,0-8.8-7.78c-.33-.17-.62.33-.29.51Z"/><path class="cls-10" d="M470.3,555.84c3.24-5.2,7.89-9,14.11-9.77,5.44-.65,10.94.66,16.22,1.83,5.45,1.2,11,2.5,16.62,2.3,6.52-.22,13-2.76,18.83-5.46,6.86-3.18,13.3-7.18,20.21-10.24.34-.15.05-.65-.29-.5-6.21,2.74-12,6.24-18.1,9.23-6.25,3.06-13.28,6.06-20.33,6.38-5.84.26-11.6-1.13-17.26-2.38-5.22-1.15-10.67-2.4-16.05-1.73-6.36.79-11.14,4.7-14.46,10-.2.32.31.62.5.3Z"/><path class="cls-10" d="M555.2,529.53c6.92-13.06,23-15.21,36.21-16.14.37,0,.38-.61,0-.59-13.44,1-29.69,3.18-36.72,16.43-.17.34.33.63.51.3Z"/><path class="cls-10" d="M467.63,372.49c-2.1,5.68-.77,12.47,4.71,15.67,2.69,1.58,5.71,2,8.76,2.27a45.91,45.91,0,0,0,9.59.18c.37,0,.38-.62,0-.58a42.68,42.68,0,0,1-8.38-.08c-3-.24-6-.47-8.73-1.79-5.92-2.85-7.56-9.64-5.39-15.51.13-.35-.43-.5-.56-.16Z"/><path class="cls-10" d="M496.68,389.82c4.31-.22,8.26-1.93,12.1-3.77q6.62-3.17,13.21-6.37c.34-.16,0-.66-.29-.5l-12.4,6c-4,1.93-8.11,3.85-12.62,4.08-.37,0-.38.6,0,.58Z"/><path class="cls-10" d="M464.61,557.88c10.35,3.82,15.44,15.58,16.54,25.83,0,.37.62.37.58,0-1.13-10.53-6.34-22.47-17-26.39-.35-.13-.5.44-.15.56Z"/><path class="cls-10" d="M470.34,555.44a31.23,31.23,0,0,1,14.91,26.26.3.3,0,0,0,.59,0,31.84,31.84,0,0,0-15.2-26.76.29.29,0,0,0-.3.5Z"/><path class="cls-10" d="M417.33,619.78c8.17-4.51,13.87-12.09,19.32-19.43.23-.31-.28-.6-.5-.3-5.39,7.27-11,14.77-19.11,19.22a.29.29,0,0,0,.29.51Z"/><path class="cls-10" d="M404.87,638.07c9-.77,18.58-1.64,26.35-6.62,4.28-2.75,7.5-6.75,10.68-10.65,3.4-4.19,6.71-8.49,9.7-13s5.62-9.63,4-15a.29.29,0,0,0-.56.16c1.52,5-.89,9.87-3.56,14-2.86,4.39-6.09,8.58-9.37,12.66-3.06,3.79-6.15,7.82-10.18,10.64a34.85,34.85,0,0,1-12.07,5.14,101.9,101.9,0,0,1-15,2.07c-.37,0-.38.61,0,.58Z"/><path class="cls-10" d="M418.87,647.42l15.78-2.57c4.39-.72,8.25-1.9,11.16-5.46,2.75-3.38,4.47-7.62,6.3-11.53q3.21-6.84,6.11-13.8,3.36-8,6.32-16.22c.13-.36-.44-.51-.56-.16q-5.07,14-11.27,27.5c-1.87,4.08-3.64,8.36-6.1,12.12A15.08,15.08,0,0,1,442,642a18.38,18.38,0,0,1-6.47,2.11c-5.6,1-11.23,1.83-16.85,2.75-.37.06-.21.62.15.56Z"/><path class="cls-10" d="M410,598.61l25.49-19.74c.3-.23-.12-.64-.41-.41l-25.49,19.73c-.3.23.12.64.41.42Z"/><path class="cls-10" d="M391.48,631.5a6.1,6.1,0,0,0-1.8,4.39,3.9,3.9,0,0,0,2.28,3,10.63,10.63,0,0,0,4.52.91,16.17,16.17,0,0,0,5.69-.92c.36-.13.2-.69-.15-.57a14.21,14.21,0,0,1-9.06.37,3.77,3.77,0,0,1-2.65-2.5c-.35-1.57.6-3.12,1.58-4.27.24-.29-.17-.7-.41-.41Z"/><path class="cls-10" d="M396.73,641.74c-.46,3.46,3.24,4.83,6,4.9a81.23,81.23,0,0,0,12.55-.88c.36,0,.37-.63,0-.58q-5.08.68-10.2.84a15.27,15.27,0,0,1-4.82-.29c-1.67-.5-3.27-1.94-3-3.83.05-.37-.52-.53-.57-.16Z"/><path class="cls-10" d="M386.83,622.61c-1,2.54,3.39,3,4.92,3,3.12-.09,6-1.52,8.61-3.08,3.06-1.81,6.1-3.61,9.24-5.29a45,45,0,0,0,8.43-5.39c3.44-3,6.57-6.36,9.82-9.53a.29.29,0,0,0-.41-.41c-3.11,3-6.14,6.2-9.36,9.13-2.91,2.63-6.44,4.46-9.88,6.29s-6.44,3.84-9.74,5.61a16.93,16.93,0,0,1-5.23,1.94,10.39,10.39,0,0,1-3.43,0c-1-.16-2.94-.75-2.4-2.14.13-.35-.43-.5-.57-.15Z"/><path class="cls-10" d="M444.31,581.43a15.84,15.84,0,0,1,1.22,8.35c0,.37.54.37.59,0a16.67,16.67,0,0,0-1.3-8.65c-.15-.34-.66,0-.51.3Z"/><path class="cls-10" d="M452,587.64l1.66,2.05a.29.29,0,0,0,.42-.41l-1.67-2a.29.29,0,1,0-.41.41Z"/><path class="cls-10" d="M461.49,595.42a6.06,6.06,0,0,1,1.88,1.64.29.29,0,0,0,.4.1.28.28,0,0,0,.1-.39,6.62,6.62,0,0,0-2.09-1.85.29.29,0,0,0-.4.1.29.29,0,0,0,.11.4Z"/><path class="cls-10" d="M429,621.67l2.95,4.78c.2.32.7,0,.51-.29l-3-4.78c-.2-.32-.7,0-.5.29Z"/><path class="cls-10" d="M440.41,638.26l1.34,3a.29.29,0,1,0,.5-.3l-1.34-3a.29.29,0,0,0-.5.29Z"/><path class="cls-10" d="M411.44,606.65a12,12,0,0,1,3,2.88.29.29,0,1,0,.5-.29,12.22,12.22,0,0,0-3.2-3.09c-.31-.21-.6.3-.29.5Z"/><path class="cls-10" d="M560.74,605.82c8.32.66,16.79.78,25-.69,8-1.42,15.73-4.52,21.14-10.75A42,42,0,0,0,613.73,583a53,53,0,0,0,3.26-9.86c1.42-6.78,2-13.74,2.77-20.62.94-8.44,1.72-17,3.76-25.29a.29.29,0,0,0-.56-.15c-3.47,14-3.61,28.71-6,42.95a53.63,53.63,0,0,1-7.73,20.31,29.52,29.52,0,0,1-9.31,9.2,39,39,0,0,1-11.22,4.4c-9.12,2.15-18.69,2-28,1.3-.38,0-.38.56,0,.59Z"/><path class="cls-10" d="M627,388.08a73.2,73.2,0,0,1,7.75,24.9c1,8.33.43,16.74-.51,25-2,17.79-5.14,35.46-7.4,53.22-1.24,9.71-2.32,19.45-2.85,29.22,0,.37.57.37.59,0,1-18.15,3.69-36.2,6.31-54.17,1.26-8.63,2.6-17.26,3.66-25.92,1-8.45,1.73-17,1-25.51a73.84,73.84,0,0,0-8-27.09c-.17-.33-.68,0-.51.3Z"/><path class="cls-10" d="M468,451.81l-10.82,35c-.12.35.45.51.56.15l10.82-35c.11-.36-.45-.51-.56-.15Z"/><path class="cls-10" d="M590.73,659l22,1.68c2.42.18,5.48.74,6.22-2.28.64-2.62-.34-5.86-1-8.37-1.71-6.24-4.49-12.1-5.68-18.49a78.64,78.64,0,0,1-1-18.89A97.48,97.48,0,0,1,614.6,592a.3.3,0,0,0-.57-.16A94.33,94.33,0,0,0,611,626.48a71.73,71.73,0,0,0,4.16,16.8,68.4,68.4,0,0,1,2.92,9.59,17.71,17.71,0,0,1,.52,4.46,3.63,3.63,0,0,1-.78,2.27c-.8.85-2,.75-3,.68-8-.51-16-1.21-24-1.82-.38,0-.37.55,0,.58Z"/><path class="cls-51" d="M455.85,493.37c-2.27,8.63-2.72,24.07.91,24.52s8.62-5,8.62-5,3.64-57.67,2.28-56.31S455.85,493.37,455.85,493.37Z"/><path class="cls-51" d="M386.79,538.79s18.66,10.56,22.88,18.65c0,0-3.52-17.94-10.21-20.76C394.23,534.48,386.79,538.79,386.79,538.79Z"/><path class="cls-10" d="M474.61,806.37a27.48,27.48,0,0,0,23.25,21.35c7,1,14.23,0,21.22,1.36a30.61,30.61,0,0,1,9.66,3.94,50.93,50.93,0,0,0,8.14,4.28c7.26,2.67,14.27-1.67,21.12-3.64a.29.29,0,0,0-.15-.56c-6.05,1.74-12.55,5.74-19.05,4.19-6.2-1.48-11-6.35-17.06-8.16s-12.74-1.3-19.1-1.59-12.18-1.62-17.26-5.41a26.79,26.79,0,0,1-10.2-15.92c-.08-.36-.64-.21-.57.16Z"/><path class="cls-10" d="M541,776c4.86,7.32,7.87,15.62,10.24,24,2.53,9,4.63,18.07,6.89,27.12.09.36.65.21.56-.16-2.29-9.18-4.42-18.43-7-27.54-2.36-8.31-5.37-16.51-10.18-23.75-.21-.31-.71,0-.5.29Z"/><path class="cls-10" d="M564.92,830c2.23-4.94.86-10.74-.18-15.81-1.27-6.25-2.35-12.51-3.91-18.7s-3.39-12.25-5.51-18.24a172.16,172.16,0,0,0-7-17.54c-1.17-2.43-2.77-4.92-5.35-6a5.93,5.93,0,0,0-6.71,1c-.26.28.16.69.41.42,1.9-2,5.11-1.76,7.27-.28s3.48,4.16,4.54,6.58c2.41,5.5,4.59,11.11,6.57,16.78a239.43,239.43,0,0,1,8.63,33.66c1.08,5.62,3.22,12.28.73,17.81-.16.34.34.63.5.29Z"/><path class="cls-10" d="M473.46,793.54c.56-7.65,6.15-13.75,12.55-17.4a60.17,60.17,0,0,1,11.48-4.8q6-1.92,12-3.64a105.27,105.27,0,0,1,14.78-3.23c.36-.05.37-.63,0-.58-9,1.2-17.83,4-26.48,6.75-7.64,2.45-15.46,5.66-20.55,12.16a19.74,19.74,0,0,0-4.33,10.74c0,.37.55.37.58,0Z"/><path class="cls-10" d="M530.33,764.29a17.38,17.38,0,0,1,6.88,5.66c.22.3.73,0,.51-.3a18,18,0,0,0-7.09-5.86c-.34-.16-.64.35-.3.5Z"/><path class="cls-10" d="M518.61,762l2.56-1.82a.29.29,0,0,0,.1-.4.28.28,0,0,0-.4-.1l-2.56,1.82a.29.29,0,1,0,.3.5Z"/><path class="cls-10" d="M506.07,793.19a63.14,63.14,0,0,0,3,14.32c.12.35.69.2.57-.16a62.32,62.32,0,0,1-3-14.16c0-.37-.61-.37-.58,0Z"/><path class="cls-10" d="M145.75,794.12a13.72,13.72,0,0,0,.62,12.06c2,3.92,5.64,6.82,9.45,8.93,8.34,4.62,17.87,6.37,27.32,6.62,10,.27,20-.81,30.06-.83a197.84,197.84,0,0,1,33.58,2.81c5.47.94,10.86,2.45,16.36,3.18,4.58.61,9.39.42,13.18-2.53.29-.23-.12-.64-.41-.41-3.64,2.83-8.35,2.95-12.73,2.36-4.67-.63-9.24-1.89-13.87-2.74a199.56,199.56,0,0,0-30.56-3.18c-9.79-.26-19.54.54-29.33.76-9,.2-18.14-.4-26.69-3.55-4.89-1.8-9.84-4.27-13.37-8.18s-5.46-9.9-3.1-15c.15-.34-.35-.63-.51-.29Z"/><path class="cls-10" d="M263.71,822.63c-5.11-2.67-7.45-8.61-7.34-14.15.12-5.83,2.82-11.63,5.2-16.84,1.18-2.58,2.25-5.54,4.22-7.62,2.14-2.25,5.25-3.23,8.2-3.88a70.22,70.22,0,0,0,8.38-1.94,38,38,0,0,0,7.26-3.58c5.55-3.41,10.55-7.68,16.37-10.67.33-.17,0-.67-.3-.5-5.59,2.87-10.42,6.92-15.71,10.26a38.6,38.6,0,0,1-8.13,4.06c-3,1-6.14,1.3-9.18,2.08-2.78.71-5.64,1.84-7.57,4s-2.88,4.92-4,7.45c-2.41,5.26-5.1,11.06-5.28,16.95s2.29,12,7.63,14.83c.33.17.63-.33.29-.5Z"/><path class="cls-10" d="M147.43,791.72a25.21,25.21,0,0,1,10.29-9.87c9.26-4.92,20.34-6.44,30.62-7.54,10.62-1.13,21.32-1.5,32-1.59a.3.3,0,0,0,0-.59c-16.42.15-33.32.62-49.38,4.43-7,1.65-14.46,4.08-19.73,9.2a25.85,25.85,0,0,0-4.3,5.67.29.29,0,0,0,.51.29Z"/><path class="cls-10" d="M234.31,773.33c2.44.12,4.7-.56,7.1-.69a27.78,27.78,0,0,1,3.53.14c4,.32,7.95.78,11.94,1.06a94.54,94.54,0,0,0,14.28.12,34.7,34.7,0,0,0,12.73-3.52c1.81-.89,3.53-1.93,5.29-2.91,1.07-.59,2.37-1.43,3.64-1.34.38,0,.38-.55,0-.58a5.54,5.54,0,0,0-2.75.79c-1.36.67-2.66,1.48-4,2.22A35.42,35.42,0,0,1,273,773.19c-8.9,1.07-17.9-.08-26.77-.88a40.51,40.51,0,0,0-4.54-.26c-2.48.06-4.87.82-7.39.7-.37,0-.37.56,0,.58Z"/><path class="cls-10" d="M206.78,806.92a31.83,31.83,0,0,0,2-7.41c.05-.37-.51-.53-.56-.16a31.69,31.69,0,0,1-2,7.41c-.14.35.42.5.56.16Z"/><path class="cls-10" d="M315.15,757c10.43-11,21.36-21.55,32.11-32.25,13.72-13.66,27.14-27.6,40.06-42Q401.5,666.95,415,650.52c.23-.28-.18-.7-.41-.41q-22.4,27.23-46.65,52.81c-11.75,12.31-23.89,24.24-36,36.22-5.8,5.76-11.57,11.55-17.19,17.48-.26.27.16.68.41.41Z"/><path class="cls-10" d="M324.65,804.11c13.34-7,27-13.48,40.56-20.14,16.81-8.27,33.64-16.54,50.14-25.43A194.29,194.29,0,0,0,434,747.62c.3-.22,0-.72-.3-.51a174.85,174.85,0,0,1-16.15,9.57c-7.73,4.22-15.55,8.25-23.4,12.23-16.73,8.48-33.6,16.68-50.43,25-6.48,3.19-13,6.36-19.38,9.73-.33.17,0,.68.3.5Z"/><path class="cls-10" d="M453.23,734.09A454.68,454.68,0,0,0,508.89,696q7.51-6,14.78-12.35c.28-.25-.13-.66-.41-.41A454.31,454.31,0,0,1,469.2,723.7q-8,5.12-16.26,9.89a.29.29,0,0,0,.29.5Z"/><path class="cls-10" d="M535,671.61a203.08,203.08,0,0,0,24.87-32.89c.2-.32-.31-.61-.5-.29a203.12,203.12,0,0,1-24.79,32.77c-.25.27.16.69.42.41Z"/><path class="cls-10" d="M512.64,693.36q25.65-14,49.91-30.26c.31-.21,0-.72-.29-.51Q538,678.9,512.34,692.86c-.33.17,0,.68.3.5Z"/><path class="cls-10" d="M517.56,697.94a56.61,56.61,0,0,0,22.87-8.7c.31-.2,0-.71-.29-.5a56.15,56.15,0,0,1-22.73,8.63c-.37.06-.21.62.15.57Z"/><path class="cls-10" d="M341.39,721.36c5.6,8.71,12.3,17.07,20.33,23.66a80.28,80.28,0,0,0,13.12,8.51c4.7,2.51,9.46,5,14.33,7.12,5.24,2.33,10.73,4.15,16.5,4.36.37,0,.37-.57,0-.59-10.36-.36-19.92-5.85-28.9-10.53a88.83,88.83,0,0,1-13.28-8.2,79.78,79.78,0,0,1-10.9-10.45,116.86,116.86,0,0,1-10.69-14.17c-.21-.31-.71,0-.51.29Z"/><path class="cls-10" d="M357,725.31a52.31,52.31,0,0,0,18.52,16.26c.33.18.62-.33.29-.5A51.61,51.61,0,0,1,357.53,725c-.22-.3-.72,0-.51.3Z"/><path class="cls-10" d="M387.42,751q13.14,5.6,26.61,10.35c.35.13.51-.43.15-.56q-13.38-4.72-26.46-10.29c-.35-.14-.64.36-.3.5Z"/><path class="cls-10" d="M265,821.17a94.41,94.41,0,0,0,27.69,2.19c8-.56,17-1.66,23.56-6.72A27.21,27.21,0,0,0,324.1,806c.15-.34-.35-.64-.5-.3a27.81,27.81,0,0,1-6.57,9.49,26.13,26.13,0,0,1-10.72,5.48c-8.35,2.29-17.41,2.69-26,2.16a94,94,0,0,1-15.19-2.22c-.36-.08-.52.48-.15.56Z"/><path class="cls-10" d="M378.44,691.21a353.11,353.11,0,0,0-50.34-34.42q-7.55-4.24-15.28-8.12c-.33-.17-.63.34-.29.51a352.36,352.36,0,0,1,51.55,31.59Q371.19,686,378,691.63c.29.23.7-.18.41-.42Z"/><path class="cls-10" d="M381.05,777.52q25.2,10.72,50.92,20.16,7.42,2.72,14.88,5.33c.35.12.5-.44.15-.56q-25.69-9-50.91-19.29-7.39-3-14.74-6.14c-.34-.14-.64.36-.3.5Z"/><path class="cls-10" d="M456.78,809.48c8.2,6,17.12,12.27,27.65,12.75.37,0,.37-.57,0-.58-10.41-.48-19.25-6.72-27.36-12.67-.3-.22-.59.28-.29.5Z"/><path class="cls-10" d="M437,748.14q21.64,15.14,44.66,28.19c.33.18.62-.32.3-.5q-23-13-44.67-28.19c-.31-.22-.6.29-.29.5Z"/><path class="cls-10" d="M210.94,655.13a34.18,34.18,0,0,0,.54,22.8c2.83,7.32,8.25,13.22,13.91,18.49,5.94,5.52,12.44,10.32,18.87,15.25,5,3.79,9.89,7.62,15.07,11.11A161.79,161.79,0,0,0,281.24,735c.34.16.63-.34.29-.5A167.09,167.09,0,0,1,262.21,724c-5-3.24-9.85-6.83-14.61-10.48-6-4.61-12.18-9.1-17.95-14-6-5.16-12-10.84-15.84-17.86a33.61,33.61,0,0,1-2.31-26.31c.12-.36-.44-.51-.56-.15Z"/><path class="cls-10" d="M288,737.85c10.21,5,20.35,10.56,31.23,14a.29.29,0,0,0,.16-.56c-10.84-3.4-20.94-8.92-31.09-13.92-.34-.16-.63.34-.3.51Z"/><path class="cls-10" d="M219.3,643.08a95.15,95.15,0,0,0,11.33.27c6.53,0,13.06-.15,19.59-.29q21.57-.49,43.13-1.34c4.55-.18,9.1-.32,13.64-.63.37,0,.37-.61,0-.58-10.44.7-20.93.92-31.39,1.26-14.33.46-28.67.89-43,1a107.29,107.29,0,0,1-13.3-.26c-.37,0-.37.54,0,.58Z"/><path class="cls-10" d="M313.26,640.44c3.41-.36,6.88-.39,10.3-.5q8.91-.27,17.81-.42c13-.25,26-.43,39-.45,3.89,0,7.81-.12,11.7.13.37,0,.37-.56,0-.58-3.28-.21-6.6-.13-9.88-.13q-8.79,0-17.59.1c-13.05.14-26.1.33-39.14.71-4,.12-8.13.13-12.16.56-.37,0-.37.62,0,.58Z"/><path class="cls-10" d="M167.8,503.53c-1.23,4.37.84,8.8,2.25,12.9q1.83,5.28,3.68,10.56c3.05,8.7,6.12,17.4,9.44,26a65.14,65.14,0,0,0,3.63,8.51c.18.33.68,0,.5-.29a58.85,58.85,0,0,1-3.15-7.3c-1.56-4-3-8-4.5-12-2.91-8-5.72-16-8.51-24.09-1.52-4.4-4.08-9.47-2.78-14.12a.29.29,0,0,0-.56-.15Z"/><path class="cls-10" d="M188.53,566.1a18.87,18.87,0,0,1,1.08,2.38c.77,1.79,1.51,3.58,2.26,5.37q3.47,8.35,6.86,16.73,7.61,18.69,15.13,37.43c1.26,3.12,2.56,6.24,3.76,9.39.13.34.69.19.56-.16-3.13-8.25-6.57-16.4-9.88-24.58-5.05-12.52-10.11-25-15.27-37.5q-1.34-3.25-2.71-6.48a21.13,21.13,0,0,0-1.29-2.87c-.2-.32-.7,0-.5.29Z"/><path class="cls-10" d="M176.51,498.28a5.67,5.67,0,0,1,1.38-.19c1.16-.12,2.33-.23,3.49-.33,4-.35,8.05-.66,12.07-1q19.43-1.51,38.84-2.91l46.62-3.41q20.1-1.47,40.18-3,6.77-.51,13.54-1.07c2.21-.19,4.48-.26,6.67-.64a2,2,0,0,0,.41-.08c.35-.13.2-.69-.15-.56a5.67,5.67,0,0,1-1.38.19c-1.16.12-2.33.22-3.49.33-4,.35-8.05.66-12.07,1q-19.42,1.51-38.84,2.91l-46.62,3.41q-20.1,1.47-40.18,3-6.76.51-13.54,1.07c-2.21.19-4.48.26-6.67.64a2.21,2.21,0,0,0-.42.08c-.34.13-.19.69.16.56Z"/><path class="cls-10" d="M347.87,489.74a19.82,19.82,0,0,1,1.26,2.87c.78,1.94,1.51,3.89,2.23,5.84,2.17,5.84,4.26,11.71,6.33,17.59,4.6,13,9.12,26.09,13.45,39.21a91.13,91.13,0,0,1,3.38,10.83c.07.36.63.21.56-.16a77.68,77.68,0,0,0-2.79-9.06c-2-5.93-4-11.83-6-17.74-4.48-13.13-9-26.25-13.82-39.27-.86-2.32-1.72-4.65-2.63-7a23,23,0,0,0-1.5-3.46.29.29,0,0,0-.5.3Z"/><path class="cls-10" d="M377.8,574.71c3.6,11.24,7.39,22.41,11.07,33.62.75,2.28,1.5,4.56,2.23,6.84.12.36.68.2.57-.15-3.6-11.24-7.39-22.41-11.07-33.62q-1.12-3.42-2.24-6.84c-.11-.36-.67-.21-.56.15Z"/><path class="cls-10" d="M361.18,495.28c2.19,5.56,4.14,11.22,6.11,16.85,3.07,8.74,6.08,17.5,9.09,26.27q4.92,14.39,9.8,28.79,4.17,12.27,8.33,24.54c1.49,4.39,2.94,8.81,4.53,13.16.06.17.12.34.19.51.13.35.7.2.56-.15-1.44-3.71-2.63-7.53-3.91-11.29q-4-11.7-7.94-23.39-4.86-14.33-9.74-28.63-4.63-13.55-9.33-27.08c-2.15-6.15-4.28-12.31-6.61-18.39-.17-.45-.34-.9-.52-1.35s-.7-.19-.56.16Z"/><path class="cls-10" d="M525.05,580.11a251.49,251.49,0,0,1,49.7,53.44,256.76,256.76,0,0,1,32.56,65.34,248.42,248.42,0,0,1,9.56,39.63c.06.37.62.21.57-.16a252,252,0,0,0-21.73-69.82A257.56,257.56,0,0,0,555.36,608a248.4,248.4,0,0,0-29.9-28.29c-.29-.23-.7.17-.41.41Z"/><rect class="cls-31" x="299.89" y="421.4" width="119.42" height="40.76" rx="3.84"/><text class="cls-65" transform="translate(349.64 450.98)">200</text><polygon class="cls-31" points="352.47 459.86 367.6 459.86 359.83 474.99 352.47 459.86"/><circle class="cls-25" cx="327.39" cy="441.09" r="12.33"/><path class="cls-25" d="M333.37,451a24.39,24.39,0,0,0,11,.7L335,445.94Z"/><path class="cls-10" d="M353.44,461.72H310a.15.15,0,0,0,0,.3h43.44a.15.15,0,0,0,0-.3Z"/><path class="cls-10" d="M303.59,458.68c-4.28-3-4.06-8.6-3.87-13.22.1-2.5.21-5,.31-7.49l.17-4c.06-1.38-.11-3,.84-4.15.12-.14-.09-.35-.21-.21a4,4,0,0,0-.83,2.31c-.12,1.51-.13,3-.2,4.55q-.19,4.74-.4,9.48c-.19,4.61-.17,10.05,4.05,13,.15.11.3-.15.14-.26Z"/><path class="cls-10" d="M302.82,425.77a9.12,9.12,0,0,1,7.83-4.4h7l22.12,0,28.38,0,25.94,0H409a.15.15,0,0,0,0-.3l-12.7,0-25.4,0-29,0-23.11,0h-6.52c-2.34,0-4.55.1-6.64,1.39a9.4,9.4,0,0,0-3.09,3.15c-.1.16.16.31.26.15Z"/><path class="cls-10" d="M412.44,422.49c1.79.95,3.75,2,4.73,3.89a14.36,14.36,0,0,1,1.27,4c.21,1.15.28,2.47.4,3.67a109.1,109.1,0,0,1,.73,17.7c0,.19.28.19.29,0,.43-6.17-.21-12.46-.82-18.6a26.85,26.85,0,0,0-.48-3.57,11.09,11.09,0,0,0-1.61-4.09,12.5,12.5,0,0,0-4.36-3.25c-.17-.09-.32.16-.15.25Z"/><path class="cls-10" d="M372.18,462h31.09a.15.15,0,0,0,0-.3H372.18a.15.15,0,0,0,0,.3Z"/><path class="cls-10" d="M409.88,462.15a12,12,0,0,0,9.18-7.86c.06-.18-.23-.25-.29-.08a11.65,11.65,0,0,1-9,7.65c-.18,0-.1.32.08.29Z"/><path class="cls-10" d="M354.2,463.77l5.2,11a.14.14,0,0,0,.25,0l4.21-7.66c.1-.16-.16-.31-.25-.15l-4.21,7.67h.25l-5.19-11c-.08-.17-.34,0-.26.15Z"/><path class="cls-10" d="M366.21,462.22a.15.15,0,0,0,0-.29.15.15,0,0,0,0,.29Z"/><path class="cls-66" d="M607.81,584.35s-10.81-59.89,3.56-69.47,35.32-3.74,45.48,13.86c12.5,21.64,18.41,55.78,18.41,55.78"/><path class="cls-66" d="M638.48,578.6s-10.81-59.89,3.56-69.47,34.25.31,41.2,11.24c13.42,21.09,22.69,58.4,22.69,58.4"/><path class="cls-28" d="M747.8,580.89,762.61,813,614.49,829.41s-3.29-255.1,0-256.75S747.8,580.89,747.8,580.89Z"/><path class="cls-32" d="M584.87,574.31C584,576,567.59,807.19,567.59,807.19l46.9,22.22V572.66l-14,9.05Z"/><polygon class="cls-67" points="567.59 807.19 614.49 829.41 590.63 778.39 567.59 807.19"/><line class="cls-68" x1="589.03" y1="790.33" x2="598.2" y2="582.21"/><path class="cls-10" d="M613.69,828c.12-5.39.16-10.78.21-16.18q.14-13.68.23-27.36l.24-31.2q.11-14.07.23-28.12c.06-6,.11-12,.22-18,0-.38,0-.77,0-1.16s-.57-.37-.58,0c-.12,5.39-.16,10.79-.21,16.19q-.13,13.67-.23,27.35l-.24,31.21q-.11,14.05-.24,28.12c-.05,6-.1,12-.21,18,0,.39,0,.78,0,1.16a.29.29,0,0,0,.58,0Z"/><path class="cls-10" d="M613.89,695.68q1.73-25.23,1.26-50.55-.14-7.2-.45-14.38c0-.37-.59-.38-.58,0q1.1,25.28,0,50.57-.33,7.18-.82,14.36c0,.38.56.38.59,0Z"/><path class="cls-10" d="M615.1,620.53c-1-15.82.69-31.67-.26-47.48,0-.38-.6-.38-.58,0,1,15.81-.69,31.66.26,47.48,0,.37.6.38.58,0Z"/><path class="cls-10" d="M590.31,781.09c-.31-7.83.06-15.71.25-23.54.34-14,.81-28,1.31-42q.87-24.18,1.92-48.33c.63-14.48,1.31-29,2.13-43.42.49-8.77.86-17.6,1.88-26.33.06-.51.12-1,.19-1.52s-.5-.52-.56-.15c-1.15,7.69-1.37,15.58-1.83,23.33-.82,14-1.49,27.91-2.12,41.87q-1.1,24.29-2,48.59-.79,21.72-1.41,43.46c-.23,8.82-.56,17.67-.41,26.49,0,.51,0,1,0,1.53s.6.37.59,0Z"/><path class="cls-10" d="M566.74,805.14C568,786.05,569.91,767,572,748c0-.37-.54-.36-.58,0-2.08,19-4,38-5.25,57.14,0,.38.55.38.58,0Z"/><path class="cls-10" d="M572.66,735.39c.47-8.58,1.15-17.16,1.86-25.72.92-11.18,1.92-22.35,2.93-33.52q1.65-18.15,3.33-36.31c1-11.38,2.06-22.76,3-34.14.76-9,1.49-18,2-27l.15-2.66c0-.37-.56-.37-.58,0-.47,8.59-1.15,17.16-1.86,25.73-.92,11.17-1.92,22.34-2.93,33.51q-1.65,18.15-3.33,36.31c-1,11.38-2.06,22.76-3,34.14-.76,9-1.49,18-2,27l-.15,2.66c0,.37.56.37.58,0Z"/><path class="cls-10" d="M577.13,812.6a342.64,342.64,0,0,0,34.33,15.69c.35.14.5-.43.16-.56a342.29,342.29,0,0,1-34.2-15.63c-.33-.17-.63.33-.29.5Z"/><path class="cls-10" d="M748,581.53c1,12.72,1.78,25.46,2.62,38.19q1.67,25.15,3.21,50.33c.34,5.6.7,11.2.93,16.8,0,.37.6.38.59,0-.53-12.47-1.43-24.93-2.22-37.38q-1.61-25.29-3.32-50.56c-.39-5.79-.78-11.59-1.22-17.38,0-.37-.61-.37-.59,0Z"/><path class="cls-10" d="M756.91,727.41l4.33,65.85,1.23,18.63c0,.38.6.38.58,0L758.72,746l-1.23-18.63c0-.37-.6-.38-.58,0Z"/><path class="cls-10" d="M618.82,828.51a24.32,24.32,0,0,1,4.58-.75c3.32-.44,6.65-.82,10-1.2,10.27-1.16,20.54-2.22,30.81-3.29l36.57-3.77c10.61-1.1,21.22-2.19,31.82-3.37,3.66-.41,7.32-.82,11-1.28,2-.25,4-.44,5.94-.86a4.92,4.92,0,0,0,.55-.14c.36-.11.2-.68-.15-.56a25.3,25.3,0,0,1-4.58.75c-3.33.44-6.66.82-10,1.2-10.26,1.16-20.54,2.22-30.81,3.29l-36.57,3.77c-10.61,1.1-21.21,2.19-31.81,3.37-3.66.41-7.32.82-11,1.28-2,.25-4,.44-5.94.86l-.55.13c-.35.12-.2.69.16.57Z"/><path class="cls-10" d="M617.3,573.28a33.47,33.47,0,0,0,4.13.48c2.68.24,5.36.42,8.05.6,8,.54,16.11,1,24.16,1.39q14.26.75,28.52,1.38,12.54.57,25.1,1c4.74.17,9.51.43,14.26.39l.63,0c.37,0,.37-.6,0-.58-4.07.18-8.2-.14-12.26-.28q-12.06-.42-24.11-1-14.21-.62-28.39-1.35c-8.37-.42-16.74-.87-25.1-1.4-4.72-.3-9.53-.43-14.22-1.13l-.62-.11c-.36-.08-.52.48-.15.56Z"/><path class="cls-10" d="M730.93,580.82a26,26,0,0,1,8.57-.82c.37,0,.37-.56,0-.58a26.48,26.48,0,0,0-8.73.84.29.29,0,0,0,.16.56Z"/><rect class="cls-69" x="687.9" y="663.4" width="113.57" height="161.77" rx="2.18" transform="translate(-133.53 163.55) rotate(-11.51)"/><rect class="cls-29" x="691.52" y="657.92" width="113.57" height="161.77" rx="2.01" transform="translate(-132.37 164.17) rotate(-11.51)"/><rect class="cls-42" x="699.85" y="666.43" width="98.28" height="141.36" rx="1.63" transform="translate(-132.01 164.27) rotate(-11.51)"/><path class="cls-70" d="M711.82,674.05c5,2.47,47.89-6.8,48.6-11.25.45-2.83-9.18-8.25-9.18-8.25l-9.2-2.78s7.59-10,4.49-13.51c-6.62-7.42-28.47-2.07-31.2,6.35-1.41,4.34,3.51,8.86,8.12,11.35l-7.86,6.73S709.2,672.75,711.82,674.05Z"/><path class="cls-30" d="M712.77,748.93l4.11,6.43a.81.81,0,0,0,1.27.16q6.75-8.41,12.87-17.29c.6-.86-.81-1.67-1.4-.82q-6,8.72-12.61,17l1.27.16-4.11-6.42c-.56-.88-2-.07-1.4.81Z"/><path class="cls-30" d="M704.25,710.83l4.11,6.43a.82.82,0,0,0,1.27.16q6.75-8.42,12.88-17.29c.59-.86-.81-1.67-1.4-.82q-6,8.72-12.62,17l1.27.16L705.65,710c-.56-.87-2-.06-1.4.82Z"/><path class="cls-30" d="M721.29,787.48l4.11,6.43a.81.81,0,0,0,1.27.16q6.74-8.4,12.87-17.29c.59-.86-.81-1.67-1.4-.81q-6,8.7-12.62,17l1.27.16-4.11-6.42c-.56-.88-2-.07-1.39.81Z"/><path class="cls-71" d="M732.49,700c12.59-2.54,25.26-4.87,37.73-8a66.62,66.62,0,0,0,6.49-1.85c.25-.09.15-.5-.11-.41A110.9,110.9,0,0,1,763,693.25c-6.53,1.45-13.09,2.78-19.65,4.11l-11,2.21c-.27,0-.15.46.11.4Z"/><path class="cls-71" d="M733.69,706c12.59-2.54,25.25-4.86,37.72-8a66,66,0,0,0,6.5-1.85c.25-.09.14-.5-.11-.41a111.85,111.85,0,0,1-13.58,3.51c-6.54,1.45-13.09,2.79-19.65,4.11l-11,2.21c-.27.05-.16.46.11.4Z"/><path class="cls-71" d="M740.87,735.27c12.59-2.54,25.25-4.87,37.72-8a66.81,66.81,0,0,0,6.5-1.85c.25-.1.14-.5-.11-.41a111.85,111.85,0,0,1-13.58,3.51c-6.54,1.45-13.1,2.78-19.66,4.1l-11,2.21c-.26.06-.15.46.12.41Z"/><path class="cls-71" d="M742.06,741.25c12.59-2.54,25.26-4.87,37.73-8a65.83,65.83,0,0,0,6.49-1.85c.26-.09.15-.5-.11-.41a110.9,110.9,0,0,1-13.58,3.51c-6.53,1.45-13.09,2.78-19.65,4.11l-11,2.21c-.26,0-.15.46.11.4Z"/><path class="cls-71" d="M748.64,774.16c12.59-2.55,25.26-4.87,37.73-8,2.18-.55,4.38-1.1,6.5-1.86.25-.09.14-.49-.12-.4a110.87,110.87,0,0,1-13.58,3.5c-6.53,1.46-13.09,2.79-19.65,4.11l-11,2.21c-.26.06-.15.46.11.41Z"/><path class="cls-71" d="M749.84,780.14c12.59-2.54,25.26-4.87,37.73-8a66.62,66.62,0,0,0,6.49-1.85c.25-.1.15-.5-.11-.41a110.9,110.9,0,0,1-13.58,3.51c-6.53,1.45-13.09,2.78-19.65,4.1l-11,2.21c-.27.06-.15.46.11.41Z"/><path class="cls-10" d="M709.16,825.45a11.67,11.67,0,0,1-.87-2.66c-.5-1.83-.95-3.67-1.39-5.51-1.33-5.56-2.56-11.15-3.77-16.73q-4.07-18.67-7.83-37.4c-.67-3.38-1.5-6.78-1.95-10.19,0-.27-.46-.27-.42,0,.37,2.79,1,5.56,1.57,8.32q1.71,8.52,3.48,17c2.6,12.52,5.21,25,8.14,37.49.53,2.24,1.06,4.48,1.66,6.71a14.3,14.3,0,0,0,1,3.15c.13.24.5,0,.37-.21Z"/><path class="cls-10" d="M691.27,742.64c-1.66-7.65-3.17-15.33-4.74-23q-3.42-16.75-6.85-33.51c-.66-3.18-1.29-6.37-2-9.54-.06-.27-.47-.16-.41.11,1.66,7.64,3.17,15.33,4.73,23q3.43,16.75,6.86,33.5c.66,3.19,1.29,6.37,2,9.55.06.26.46.15.41-.11Z"/><path class="cls-10" d="M818.64,801.7c-2.42-9.65-4.18-19.51-6.2-29.25q-5.24-25.32-10.31-50.69c-1.58-7.92-3.15-15.85-4.63-23.8,0-.26-.46-.15-.41.11,2.89,15.48,6,30.92,9.17,46.35s6.26,30.61,9.49,45.9c.8,3.83,1.53,7.69,2.48,11.49a.21.21,0,0,0,.41-.11Z"/><path class="cls-10" d="M796.48,690.37q-2.93-18.29-7.37-36.29c-.06-.26-.47-.15-.4.12q4.44,18,7.37,36.28c0,.27.44.16.4-.11Z"/><path class="cls-10" d="M713.53,673.61c-.95.43-1.69-.56-1.7-1.41a3.74,3.74,0,0,1,.6-1.76c.42-.81.91-1.6,1.37-2.39.94-1.63,1.89-3.25,2.88-4.85,1.79-2.89,3.66-6.21,6.82-7.76a.21.21,0,0,0,0-.36c-2-1.35-4.43-2.24-6.18-4a7.39,7.39,0,0,1-1.84-4.69c-.4-4.69,4.58-7.2,8.21-8.79.25-.11,0-.47-.21-.36-3.78,1.65-8.83,4.29-8.42,9.15a8.31,8.31,0,0,0,1.46,4.44c1.72,2.14,4.54,3.09,6.77,4.58v-.36a12.1,12.1,0,0,0-4.41,4,81.14,81.14,0,0,0-4.38,6.9c-.68,1.15-1.34,2.3-2,3.46a6,6,0,0,0-1.08,2.73,1.72,1.72,0,0,0,2.33,1.77c.25-.11,0-.47-.21-.36Z"/><path class="cls-10" d="M732.44,635.68c3.48-.15,7.26-.27,10.66.69,1.71.48,3.26,1.31,3.72,3.15.55,2.14-.72,4.27-1.67,6.1a23.91,23.91,0,0,1-2.33,3.17c-.46.61-1.27,1.66-1,2.51.35,1,2.22.73,3,.87a17.41,17.41,0,0,1,4.7,1.65,37.28,37.28,0,0,1,9.38,7c.19.19.49-.11.3-.3a40,40,0,0,0-8.07-6.29,22.74,22.74,0,0,0-4.44-2,14.91,14.91,0,0,0-2.27-.52c-.9-.12-2.28.14-2.16-1.17.07-.69.87-1.49,1.27-2s.87-1,1.27-1.59a16.08,16.08,0,0,0,2.22-4.49,4.66,4.66,0,0,0-2.78-6.11c-3.61-1.45-8-1.23-11.84-1.06-.27,0-.28.44,0,.42Z"/><path class="cls-10" d="M729,673.21A116.78,116.78,0,0,0,758,665.06c.25-.11,0-.47-.21-.37a116.15,116.15,0,0,1-28.84,8.11c-.26,0-.15.44.12.41Z"/><path class="cls-10" d="M728.65,642.33a2.28,2.28,0,0,0,2.77,1.81,1.8,1.8,0,0,0,1.33-1.2,2.35,2.35,0,0,0-.19-1.78,2,2,0,0,0-1.64-1.16c-.27,0-.27.4,0,.42a1.88,1.88,0,0,1,1.48,2.2,1.38,1.38,0,0,1-.92,1.07,1.92,1.92,0,0,1-1.43-.11,1.65,1.65,0,0,1-1-1.25c0-.27-.45-.27-.42,0Z"/><path class="cls-10" d="M716.41,828a13.7,13.7,0,0,0,2.38-.29c1.72-.27,3.44-.57,5.16-.88,5.37-.94,10.72-1.95,16.07-3q17.94-3.39,35.85-7c3.08-.61,6.24-1.1,9.27-1.91a.21.21,0,0,0-.11-.41c-2.49.67-5.08,1.08-7.61,1.58q-7.93,1.59-15.88,3.13c-11.91,2.32-23.83,4.63-35.78,6.78-2.1.37-4.21.75-6.33,1.09a16.23,16.23,0,0,1-3,.4c-.27,0-.27.41,0,.42Z"/><path class="cls-10" d="M793.12,813c3.4-1.78,7.57-2.12,11.31-2.63s7.72-.8,11.24-2.23c.24-.1.13-.51-.12-.4-3.61,1.46-7.72,1.74-11.55,2.26-3.68.51-7.74.89-11.1,2.63-.24.13,0,.49.22.37Z"/><path class="cls-10" d="M718.23,814.24c-3.85,2.37-5.72-7.68-6.29-10-1.24-5-2.32-10.1-3.37-15.17Q705,771.93,702,754.67c-.67-3.86-1.39-7.74-1.82-11.63,0-.27-.46-.27-.43,0,1,9.13,3,18.23,4.66,27.25,2.16,11.52,4.35,23.07,7.17,34.44.65,2.58,2.45,12.56,6.82,9.88.23-.14,0-.51-.21-.37Z"/><path class="cls-10" d="M697.36,728.92a158.09,158.09,0,0,0-3.93-24.74c-.95-4.15-2-8.29-3.07-12.41l-1.59-6.07c-.47-1.81-1.72-4.63-.59-6.38a8.41,8.41,0,0,1,3.86-2.67,9.28,9.28,0,0,1,4.53-.93c.27,0,.27-.39,0-.42-2.49-.31-5.49,1-7.43,2.49a4,4,0,0,0-1.77,2.5c-.31,1.79.55,3.82,1,5.52,2.34,8.94,4.74,17.88,6.45,27a137.1,137.1,0,0,1,2.13,16.14c0,.27.44.27.42,0Z"/><path class="cls-10" d="M702.78,674.17a18.06,18.06,0,0,1,7.91-2.3c.27,0,.27-.43,0-.42a18.55,18.55,0,0,0-8.12,2.35c-.24.13,0,.5.21.37Z"/><path class="cls-10" d="M679.75,672.14a19.94,19.94,0,0,1,5-2.11c2.6-.84,5.25-1.53,7.91-2.18,5.68-1.39,11.41-2.56,17.16-3.62,2.08-.38,4.16-.76,6.25-1.06.26,0,.15-.45-.12-.41-4.53.67-9,1.56-13.53,2.48-5.74,1.18-11.5,2.43-17.1,4.17a22.06,22.06,0,0,0-5.8,2.37c-.22.15,0,.51.22.36Z"/><path class="cls-10" d="M751.8,655.05c9.56-2,19.35-3.47,29.05-4.56a32.23,32.23,0,0,1,5.55-.37c.27,0,.27-.4,0-.42a29.36,29.36,0,0,0-4.78.28c-2.5.27-5,.6-7.49,1-5.58.79-11.16,1.69-16.72,2.65-1.91.33-3.82.66-5.73,1-.26.05-.15.46.12.41Z"/><path class="cls-10" d="M673.63,681.26c.78,3,1.35,6,2,9,1.37,6.41,2.7,12.82,4,19.24q5.57,27,10.9,54.07,3,15.07,5.8,30.18c0,.27.45.15.4-.11-3.42-18.4-7.06-36.75-10.75-55.1q-4.69-23.3-9.58-46.54c-.77-3.64-1.44-7.31-2.38-10.91a.21.21,0,0,0-.41.12Z"/><path class="cls-10" d="M696.71,797.4l5.56,27.53.69,3.42a7.78,7.78,0,0,0,.52,2.37,3,3,0,0,0,1.7.94,35.2,35.2,0,0,0,3.54.88,10.75,10.75,0,0,1,2.84.76c.23.13.45-.23.21-.36-1.64-.9-3.88-1-5.67-1.44-1-.28-2.13-.45-2.39-1.56-.51-2.18-.89-4.39-1.33-6.58l-5.27-26.07c-.05-.27-.46-.16-.4.11Z"/><path class="cls-10" d="M715.47,832.81a13.52,13.52,0,0,0,2.82-.41c2.08-.36,4.16-.76,6.24-1.17,6.53-1.26,13.05-2.58,19.57-3.91q22-4.5,44.06-9.14c3.67-.78,7.37-1.47,11-2.36a.21.21,0,1,0-.11-.4c-9.43,2.29-19,4-28.52,6-14.62,3.05-29.24,6.09-43.89,9-2.58.51-5.16,1-7.75,1.48a17.23,17.23,0,0,1-3.43.52c-.27,0-.27.41,0,.42Z"/><path class="cls-10" d="M762,662.17a15,15,0,0,1,3.33-1c1.66-.39,3.33-.72,5-1,2.82-.52,5.68-1.06,8.54-1.32.26,0,.27-.44,0-.42-2.9.26-5.79.81-8.65,1.33-1.73.32-3.46.66-5.18,1.06a14.82,14.82,0,0,0-3.26,1c-.24.12,0,.48.21.36Z"/><path class="cls-10" d="M783.49,664.31a88.93,88.93,0,0,1,2.42,10.63c1.28,6.07,2.51,12.16,3.73,18.24s2.3,12,3.59,18l5.34,24.86,7.19,33.48,2.78,12.93A60.21,60.21,0,0,0,810,789a2.65,2.65,0,0,1,.06.3c.06.26.46.15.41-.12L807,773.05,799.84,740,794,712.84c-1.11-5.14-2.08-10.31-3.1-15.46-2.12-10.64-4-21.39-6.66-31.91-.11-.43-.22-.86-.36-1.28-.09-.25-.49-.14-.4.12Z"/><path class="cls-10" d="M755,808.51a6.86,6.86,0,0,0,1.68-.22c1.29-.23,2.58-.48,3.87-.74,4-.79,8-1.63,12-2.47q13.6-2.87,27.19-5.83c2.31-.5,4.62-1,6.94-1.49.27,0,.15-.46-.11-.4-5.9,1.13-11.76,2.53-17.64,3.79-9,1.94-18,3.88-27,5.69-1.59.32-3.19.64-4.79.93a9.06,9.06,0,0,1-2.19.32c-.27,0-.27.4,0,.42Z"/><rect class="cls-31" x="220.28" y="370.58" width="96.67" height="33.39" rx="3.13"/><path class="cls-25" d="M242.91,395.71c-13.61-6.78-11.69-14-8.49-15.8,4.58-2.56,8.45,3.14,8.45,3.14s4.94-6.67,8.74-2.33C257.78,387.77,242.91,395.71,242.91,395.71Z"/><text class="cls-72" transform="translate(260.58 394.77)">100</text><polygon class="cls-31" points="262.06 402.01 274.45 402.01 268.08 414.4 262.06 402.01"/><path class="cls-10" d="M261.78,403.26H235.4c-2.32,0-4.71.15-7,0a9.54,9.54,0,0,1-5.11-2c-3.42-2.75-2.82-7.26-2.82-11.17V379.75a.16.16,0,0,0-.32,0v9.46c0,3.76-.73,8.29,1.95,11.36a9.5,9.5,0,0,0,5.68,2.93,23.66,23.66,0,0,0,3.67.09h30.36a.17.17,0,0,0,0-.33Z"/><path class="cls-10" d="M230.87,371.32h76a11.85,11.85,0,0,1,4.2.75,8.3,8.3,0,0,1,5.34,5.1,16,16,0,0,1,.38,4.88v12.76a.16.16,0,0,0,.32,0V383.15a36.06,36.06,0,0,0-.08-4.65,7.85,7.85,0,0,0-3.61-5.64,12.72,12.72,0,0,0-4.95-1.79,18.82,18.82,0,0,0-2.6-.07h-75a.16.16,0,0,0,0,.32Z"/><path class="cls-10" d="M303.53,404.13h7.86a.17.17,0,0,0,0-.33h-7.86a.17.17,0,0,0,0,.33Z"/><path class="cls-10" d="M263.91,406.23a51.85,51.85,0,0,0,3.92,8.41.16.16,0,0,0,.28,0l4.77-8.81a7.07,7.07,0,0,1,.86-1.58c.3-.28.39-.15,1-.12,1.16.05,2.33,0,3.48,0H291.6a.17.17,0,0,0,0-.33H273.71a.15.15,0,0,0-.14.08l-3.91,7.22-1.08,2c-.16.3-.39,1-.67,1.24s0-.12-.14-.46a17.29,17.29,0,0,0-1.2-2.24,50.9,50.9,0,0,1-2.35-5.49c-.07-.2-.38-.11-.31.08Z"/><path class="cls-31" d="M729,819.5l-82.1,21.78a5.5,5.5,0,0,1-6.73-3.91l-.42-1.59a5.5,5.5,0,0,1,2-5.75,11.19,11.19,0,0,0-5.5-20.09,5.35,5.35,0,0,1-4.38-4l-.43-1.65a5.5,5.5,0,0,1,3.9-6.73l82.1-21.78a5.5,5.5,0,0,1,6.73,3.91l.32,1.2a5.69,5.69,0,0,1-2.82,6.31,10.79,10.79,0,0,0,5.56,20.34,5.35,5.35,0,0,1,5.35,3.85l.36,1.37A5.5,5.5,0,0,1,729,819.5Z"/><text class="cls-73" transform="matrix(0.97, -0.26, 0.26, 0.97, 692.86, 814.5)">%</text><text class="cls-73" transform="matrix(0.97, -0.26, 0.26, 0.97, 652.77, 825.85)">Off</text><path class="cls-10" d="M629.87,799.87l2.85,10.45a.21.21,0,0,0,.41-.11l-2.86-10.45a.21.21,0,0,0-.4.11Z"/><path class="cls-10" d="M639.2,837.38q.69,2.67,1.59,5.26a.22.22,0,0,0,.26.15l8.26-2.17L669,835.45l24-6.28,20.63-5.41,6.88-1.8,2.11-.56a4.61,4.61,0,0,0,1.12-.29l.14,0c.26-.06.15-.47-.11-.4l-8.57,2.24-20.44,5.36-24.45,6.41-20.56,5.4-6.34,1.66c-.28.07-2.2.83-2.46.64.16.11-.1-.89-.11-.94-.15-.43-.29-.87-.42-1.3-.29-.95-.56-1.91-.81-2.87a.21.21,0,0,0-.4.11Z"/><path class="cls-10" d="M644.51,826.56a13.32,13.32,0,0,1-4,4.51,6.32,6.32,0,0,0-1.93,1.54c-.51.83-.08,2,.12,2.85,0,.26.46.15.4-.12-.11-.52-.25-1.05-.32-1.58a1.47,1.47,0,0,1,.54-1.37c.65-.57,1.45-1,2.13-1.51a13.92,13.92,0,0,0,3.38-4.1c.13-.24-.23-.45-.36-.22Z"/><path class="cls-10" d="M636.31,810.89a9.68,9.68,0,0,1,7.79,4.22,10.63,10.63,0,0,1,1.11,9.93c-.1.25.31.36.4.11a11,11,0,0,0-1.27-10.41,10,10,0,0,0-8-4.27.21.21,0,0,0,0,.42Z"/><path class="cls-10" d="M718.08,774.8,709.77,777l-20,5.38-24.15,6.52-20.88,5.63-6.85,1.85-2.16.58a5.22,5.22,0,0,0-1.13.3.37.37,0,0,1-.15,0,.21.21,0,0,0,.12.41l8.31-2.24,20-5.39L687,783.61,707.9,778l6.86-1.85,2.16-.58a4.85,4.85,0,0,0,1.13-.31l.14,0a.21.21,0,0,0-.11-.4Z"/><path class="cls-10" d="M720.33,774.63l1.82-.49-.27-.21a38.09,38.09,0,0,0,3,11.13c.19.42.28.21,0,.42a2.21,2.21,0,0,1-.51.18c-.44.17-.88.36-1.31.56a16.2,16.2,0,0,0-3,1.89c-3.48,2.76-5.89,7.84-4.05,12.22,1.69,4,5.61,6.33,9.81,6.85a18.57,18.57,0,0,0,2.69.13c.5,0,1,0,1.5-.07a5.37,5.37,0,0,0,1-.24c.31.24.45,1.62.55,2l2,7.24.38,1.36c0,.17.08.69.22.44s-.49,0-.68.06l-1.64.43-6.56,1.68a.21.21,0,0,0,.11.41l9-2.3a.22.22,0,0,0,.15-.26l-3.1-11.2a.2.2,0,0,0-.2-.15c-5.29.65-11.22-.35-14.17-5.27-2.32-3.86-1-8.86,2.09-11.93a14.83,14.83,0,0,1,6.26-3.72.22.22,0,0,0,.15-.26,43.35,43.35,0,0,1-3.26-11.58.22.22,0,0,0-.27-.2l-1.81.49a.21.21,0,0,0,.11.41Z"/><circle class="cls-28" cx="359.36" cy="237.26" r="22.94"/><polygon class="cls-25" points="360.35 223.79 364.21 231.61 372.84 232.87 366.6 238.95 368.07 247.54 360.35 243.49 352.63 247.54 354.11 238.95 347.87 232.87 356.49 231.61 360.35 223.79"/><path class="cls-10" d="M343.59,253.55a26.35,26.35,0,0,1-7.36-17.14,16.52,16.52,0,0,1,2.11-8.44c3.38-6.42,9.4-11.66,16.64-13,5.73-1.07,11.51.41,16.65,3,.18.09.34-.18.16-.27-4.7-2.32-9.9-3.79-15.17-3.23A22.06,22.06,0,0,0,345.45,219c-4.7,3.63-9.22,9.65-9.52,15.81a26.35,26.35,0,0,0,7.43,19c.14.15.36-.07.23-.22Z"/><path class="cls-10" d="M357.92,259.72C371,262.6,382.1,249,382.37,236.86a18,18,0,0,0-2.69-10.06c-.11-.17-.38,0-.27.16,6.75,10.73-.18,26.28-11.08,31.28A16.2,16.2,0,0,1,358,259.41a.16.16,0,0,0-.08.31Z"/><path class="cls-18" d="M233.91,512.76l-14.73-11.24H135.49a9,9,0,0,1-9-9V448.34a9,9,0,0,1,9-9H224.9a9,9,0,0,1,9,9Z"/><path class="cls-10" d="M126.07,478.41c0,4.43.05,8.87,0,13.3,0,2.41.4,4.71,2.13,6.51a11.57,11.57,0,0,0,6.57,3,19.38,19.38,0,0,0,4.75.23c.22,0,.22-.36,0-.35-3.5.31-7.78-.29-10.52-2.63-2.07-1.76-2.61-4.18-2.58-6.79,0-2.25,0-4.51,0-6.76v-6.54a.18.18,0,0,0-.35,0Z"/><path class="cls-10" d="M147.23,501.59h36.82a.17.17,0,0,0,0-.34H147.23a.17.17,0,0,0,0,.34Z"/><path class="cls-10" d="M126.94,468.52V455.25a.17.17,0,0,0-.34,0v13.27a.17.17,0,0,0,.34,0Z"/><path class="cls-10" d="M127.23,448.48c0-2,.7-4.92,2.24-6.27a13.1,13.1,0,0,1,3.92-1.81,22.16,22.16,0,0,1,3-.92,21.59,21.59,0,0,1,4.95-.2c3.47,0,6.93,0,10.39,0h48.44a.17.17,0,0,0,0-.34H172.23c-10.29,0-20.59,0-30.88,0a20.72,20.72,0,0,0-6,.45,32.48,32.48,0,0,0-3.46,1.26,7.14,7.14,0,0,0-3,1.72,10,10,0,0,0-2,6.11c0,.22.35.22.34,0Z"/><path class="cls-10" d="M204.07,501.23h13.42c.9,0,1.72-.25,2.44.24.49.35.95.78,1.41,1.17l9.66,7.95,2.79,2.29c.17.14.41-.1.24-.24l-7.4-6.09-4.85-4c-.56-.47-1.36-1.44-2.07-1.67a6.68,6.68,0,0,0-1.73,0H204.07a.17.17,0,0,0,0,.34Z"/><path class="cls-10" d="M213.44,439.54h8.62c1.74,0,3.53-.13,5.26,0a4.61,4.61,0,0,1,2.44,1,10.78,10.78,0,0,1,3.28,5.66c1.05,3.72,1.05,7.6,1.05,11.43v52a.18.18,0,0,0,.35,0V458a46.4,46.4,0,0,0-.9-11.22,12.43,12.43,0,0,0-3.06-6.05,5.23,5.23,0,0,0-3-1.54,33,33,0,0,0-4,0h-10.1a.17.17,0,0,0,0,.34Z"/><line class="cls-74" x1="146.62" y1="452.53" x2="217.54" y2="452.53"/><line class="cls-74" x1="146.62" y1="462.92" x2="217.54" y2="462.92"/><line class="cls-74" x1="146.62" y1="471.82" x2="217.54" y2="471.82"/><line class="cls-74" x1="146.62" y1="480.2" x2="217.54" y2="480.2"/><line class="cls-74" x1="146.62" y1="489.63" x2="217.54" y2="489.63"/><path class="cls-18" d="M696.32,344.45l11.92-9.09H776a7.3,7.3,0,0,0,7.3-7.3V292.31A7.3,7.3,0,0,0,776,285H703.62a7.3,7.3,0,0,0-7.3,7.3Z"/><path class="cls-10" d="M772.73,335.32c2.86.26,6.31-.25,8.59-2.11a6.76,6.76,0,0,0,2.29-5.62c0-1.72,0-3.45,0-5.18v-5.76a.14.14,0,0,0-.28,0v10.42c0,1.94-.15,3.8-1.53,5.3a9,9,0,0,1-5.37,2.51,15.81,15.81,0,0,1-3.7.17c-.18,0-.18.26,0,.27Z"/><path class="cls-10" d="M766.48,335.14h-29.8a.14.14,0,0,0,0,.28h29.8a.14.14,0,0,0,0-.28Z"/><path class="cls-10" d="M783.19,308.65V297.9a.14.14,0,0,0-.28,0v10.75a.14.14,0,0,0,.28,0Z"/><path class="cls-10" d="M783,292.43a8.63,8.63,0,0,0-1.22-4.4c-.87-1.46-2.66-1.93-4.18-2.49a16,16,0,0,0-6.09-.84c-2.41,0-4.83,0-7.24,0H723.66a.14.14,0,0,0,0,.28h47.17a31.59,31.59,0,0,1,3.37,0,18.69,18.69,0,0,1,5.82,1.91c1.88.88,2.69,3.59,2.65,5.56a.14.14,0,0,0,.28,0Z"/><path class="cls-10" d="M720.47,334.85H709.71a6,6,0,0,0-2,0,4.55,4.55,0,0,0-.9.74l-2.16,1.78-8.45,6.95c-.13.11.06.3.2.19l8.11-6.67,2.16-1.77a6.9,6.9,0,0,1,1.18-1,6.27,6.27,0,0,1,1.84,0h10.76a.14.14,0,0,0,0-.27Z"/><path class="cls-10" d="M712.89,284.91h-7c-1.39,0-2.83-.11-4.22,0a4,4,0,0,0-1.86.71c-3.74,2.57-3.87,8.73-3.87,12.71,0,11.34,0,22.68,0,34v9.59a.14.14,0,0,0,.27,0V301.81a56.56,56.56,0,0,1,.37-8.92A12.08,12.08,0,0,1,699,286.7a4.2,4.2,0,0,1,2.57-1.5,30.37,30.37,0,0,1,3.57,0h7.77a.14.14,0,0,0,0-.28Z"/><line class="cls-75" x1="766.98" y1="295.7" x2="709.57" y2="295.7"/><line class="cls-75" x1="766.98" y1="304.11" x2="709.57" y2="304.11"/><line class="cls-75" x1="766.98" y1="311.32" x2="709.57" y2="311.32"/><line class="cls-75" x1="766.98" y1="318.1" x2="709.57" y2="318.1"/><line class="cls-75" x1="766.98" y1="325.73" x2="709.57" y2="325.73"/><path class="cls-28" d="M157.55,574l.46,26.37a4,4,0,0,0,4.19,4l51.27-2.09a4,4,0,0,0,3.86-4V572.27a4,4,0,0,0-4.16-4l-51.71,1.63A4,4,0,0,0,157.55,574Z"/><path class="cls-10" d="M188.48,588.92l9.91-.76,11,3.37S202.27,580,195.82,584,188.48,588.92,188.48,588.92Z"/><path class="cls-10" d="M164.14,575.81A127.3,127.3,0,0,0,183.61,589c1.27.71,2.45,1.28,3.89.7a32.92,32.92,0,0,0,4.64-2.75c3.17-2,6.32-4,9.37-6.1a98.7,98.7,0,0,0,10.05-8.08c.24-.22-.12-.58-.36-.36-6.65,6.14-14.21,11-21.91,15.7-1.18.72-2.39,1.67-3.86,1.23a17.9,17.9,0,0,1-3.38-1.78c-2-1.15-4-2.35-5.9-3.6a127.94,127.94,0,0,1-11.65-8.54c-.25-.2-.61.15-.36.36Z"/><path class="cls-10" d="M166.5,594.7a97.49,97.49,0,0,1,11.65-8.43c.28-.17,0-.6-.25-.43a96.24,96.24,0,0,0-11.75,8.51c-.25.21.11.56.35.35Z"/><path class="cls-10" d="M199.87,583.41c5.39,3.15,9.46,8,14.56,11.53.26.19.51-.25.25-.43-5.1-3.55-9.16-8.38-14.56-11.53a.25.25,0,0,0-.25.43Z"/><path class="cls-28" d="M832.67,413.08l.45,26.37a4,4,0,0,0,4.19,4l51.27-2.09a4,4,0,0,0,3.87-4l0-25.9a4,4,0,0,0-4.15-4L836.57,409A4,4,0,0,0,832.67,413.08Z"/><path class="cls-10" d="M863.6,428l9.91-.76,11,3.37s-7.15-11.52-13.6-7.52S863.6,428,863.6,428Z"/><path class="cls-10" d="M839.26,414.92a126.64,126.64,0,0,0,19.47,13.23c1.27.7,2.45,1.28,3.89.7a33.39,33.39,0,0,0,4.63-2.75c3.18-2,6.33-4,9.37-6.1a97.7,97.7,0,0,0,10-8.09c.24-.21-.11-.57-.35-.35-6.66,6.13-14.21,11-21.91,15.69-1.19.73-2.39,1.68-3.86,1.24a17.65,17.65,0,0,1-3.38-1.79q-3-1.71-5.9-3.6a128,128,0,0,1-11.66-8.53c-.24-.2-.6.15-.35.35Z"/><path class="cls-10" d="M841.62,433.82a96.39,96.39,0,0,1,11.65-8.43c.27-.17,0-.6-.25-.43a94.44,94.44,0,0,0-11.75,8.51c-.25.21.11.56.35.35Z"/><path class="cls-10" d="M875,422.53c5.39,3.15,9.45,8,14.55,11.53.27.18.52-.25.26-.43-5.11-3.55-9.16-8.38-14.56-11.53a.25.25,0,0,0-.25.43Z"/><polygon class="cls-76" points="792.3 574.91 812.78 584.03 806.49 588.13 810.21 594.29 805.73 597.07 801.85 591.14 795.24 595.45 792.3 574.91"/><path class="cls-23" d="M803.46,593.94l2.15,3.21a.14.14,0,0,0,.19.05l4.28-3a.15.15,0,0,0,0-.2,37.85,37.85,0,0,0-4.08-6l0,.22,4.4-2.64c.16-.1,0-.35-.14-.26l-4.4,2.65a.15.15,0,0,0,0,.23,37.81,37.81,0,0,1,4,5.91l0-.2-4.27,3,.2,0-2.15-3.21c-.11-.15-.36,0-.25.15Z"/><path class="cls-23" d="M801.39,591c-2,1.28-3.91,2.71-5.86,4.07-.15.11,0,.36.15.25,1.94-1.36,3.85-2.79,5.86-4.07.15-.1,0-.35-.15-.25Z"/><path class="cls-23" d="M812.14,583.79c-6.52-3.43-13.26-6.47-19.95-9.55a.14.14,0,0,0-.21.16c1.22,6.47,1.8,13,2.81,19.55,0,.18.31.11.28-.08-1-6.5-1.59-13.07-2.81-19.55l-.22.17c6.69,3.08,13.43,6.13,20,9.55.16.09.31-.16.14-.25Z"/><path class="cls-43" d="M232.79,300.12a43.25,43.25,0,1,1,82.77,17.5l8.72,10.77-13.79-2.21a43.21,43.21,0,0,1-77.7-26.06Z"/><g class="cls-77"><g class="cls-45"><path class="cls-78" d="M313.85,525.59c14.33,1.6,53.18,15.15,13.91,13.81s-87.69-1.32-93.67-8.75,4.1-7.64,22.33-8.13S313.85,525.59,313.85,525.59Z"/><path class="cls-49" d="M314.44,512.65s10.22,16.93,15.14,19.8c0,0-11.5,4.34-19.22-1.81a34.28,34.28,0,0,1-5.95-5.7L303,532.31l-5.14-1.23,4.26-18.46Z"/><path class="cls-49" d="M250.51,503.49c1.8,3.92,3.49,22.11,3.49,22.11s-13.3-5.86-14.52-15.15l-3.68,6-2.63-2L239.06,500Z"/><path class="cls-47" d="M269,272.76a13.11,13.11,0,0,0-6.41-1,7.29,7.29,0,0,0-5.37,3.34,5.1,5.1,0,0,0,.64,6c.78.75,2,1.64,1.49,2.6a2,2,0,0,1-1,.78c-2.75,1.33-5.64,2.5-8,4.48s-4.08,5-3.59,8a4.17,4.17,0,0,0,2.14,3.21c1.75.79,4.13-.13,5.53,1.18a1.14,1.14,0,0,1,.37.64c.09.6-.54,1-1.1,1.3a26,26,0,0,0-4.46,2.28,5.56,5.56,0,0,0-2.51,4.14c-.05,2.13,1.72,4,3.75,4.66a12.14,12.14,0,0,0,6.33-.05,25.89,25.89,0,0,0,7.07-2.5,22,22,0,0,0,10.29-13.81,30.39,30.39,0,0,0-1.06-17.42"/><path class="cls-79" d="M263.87,372.88c-1.12,1.46-10.67,6-12.78,5.33s-6.71-3.64-3.21-6.09S263.87,372.88,263.87,372.88Z"/><path class="cls-79" d="M288.71,365.54c4.91,0,5.47-.5,6.17,5.24.47,3.9,1.8,10.27.8,20.24-1.76,17.51-42.6,118.73-42.6,118.73l-17.48-7.46,21.83-62.49S264,388,264.54,387C265.76,384.77,273.84,365.61,288.71,365.54Z"/><path class="cls-49" d="M274.06,452.93l-3.28,9.13s-11.85-30-9.68-42.78Z"/><path class="cls-49" d="M293.74,380.38s-7.79,3.91-7.94,8.43,0,20.18,0,20.18-11.87-29.63-10.73-32.38S293.74,380.38,293.74,380.38Z"/><path class="cls-47" d="M317.46,512.4c.06-1.71-37.31-129.94-37.31-129.94s-1.74-16.07-6.27-17.37-18-.94-20.17,4.46c-8.69,21.6,5,46.68,20.35,83.38,13.59,32.53,25.5,64.58,25.5,64.58Z"/><path class="cls-79" d="M275.91,294.12c-7.61,4-4.92,18.4,1.13,22.66s16.68,6.52,17.67-1.54S287.05,288.31,275.91,294.12Z"/><path class="cls-48" d="M284.52,312.92c6.54,2.11,11.46,21.51,20.76,38.81,8.71,16.19,22,30.42,22,30.42l-7.95,1.3S303,365.36,296.5,355.94a149.05,149.05,0,0,1-10.77-19.67S278.67,311,284.52,312.92Z"/><path class="cls-47" d="M294.29,326.67c.18-5.24-1.36-13.19-10.21-14.29Z"/><path class="cls-46" d="M284.08,312.38c5.67,5.15,12.57,16.63,15.25,21.29a3.42,3.42,0,0,1-.28,3.82L293.89,344l-3.07,13.34,5.3,13.8-38.05-1.53s9.64-9.49,2.78-29.11c-4.3-12.31-11.69-16.62-9.46-24.76,1.07-3.91,9.23-8,14-8.5C275.08,306.2,284.08,312.38,284.08,312.38Z"/><path class="cls-48" d="M251.3,313.34c-5.32,5-14.93,29.85-16.57,43.11s0,30.82,0,30.82l-.71,3.79.08,4.92a13.29,13.29,0,0,0-2.15,6.25c0,.46,3.52-2.4,3.48-1.94-.17,2.31-3.24,3.74-3.16,4a5.24,5.24,0,0,0,2,2.54c1.16.83,4.25-.78,5.6-3.16,1.86-3.3,2.41-10.89,2.41-10.89l-1-7.4s1-14.73,3.66-25.82c2-8.5,10.85-24.36,10.85-24.36s7.87-8.7,2.58-17.76C253.91,309.81,251.3,313.34,251.3,313.34Z"/><path class="cls-46" d="M258.49,311.86c3.07,2.18,4.73,9,2.37,16.78s-4.69,7.72-4.69,7.72S246,325.83,245,324.23,251.86,307.15,258.49,311.86Z"/><path class="cls-48" d="M265.77,309.88l1.53-4.67a10.66,10.66,0,0,1-6.1-6.42c-1.33-3.51-1.49-17.74,6.59-23.76s17.34-1,18.58,5.83-5.16,16.87-5.16,16.87l-3.43,10.79-10.13,3.34A1.55,1.55,0,0,1,265.77,309.88Z"/><path class="cls-48" d="M265.19,306.26s2.71,6.94,18.86,14.6a1,1,0,0,0,1.34-1.27,42.68,42.68,0,0,0-7.71-12Z"/><path class="cls-49" d="M260.32,331.91c1.88-4.26,4.4-9.17,2.94-13.92,0-.11-.2-.07-.17,0,1.44,4.7-1.07,9.59-2.93,13.79,0,.1.11.19.16.09Z"/><path class="cls-49" d="M262.42,315.39a12.94,12.94,0,0,0-6.05-4.62c-.1,0-.15.13,0,.17a12.77,12.77,0,0,1,5.94,4.54c.06.09.22,0,.15-.09Z"/><path class="cls-49" d="M295.22,336.36a27.25,27.25,0,0,0-13.51-.56c-.11,0-.07.19.05.17a27.08,27.08,0,0,1,13.41.56.09.09,0,0,0,.05-.17Z"/><path class="cls-49" d="M282.54,341a33.8,33.8,0,0,0-7.23-.81.09.09,0,0,0,0,.18,32.65,32.65,0,0,1,7.18.8.09.09,0,1,0,.05-.17Z"/><path class="cls-48" d="M327.51,380.88c2.56.86,11,5.35,11,5.35,1.92,3.88-3.26,2.64-7.67,1.5-3.94-1-10.66-4.54-11.23-5.55S324.62,379.9,327.51,380.88Z"/><path class="cls-48" d="M241.53,392.19c1.16,1.36,2.06,9.3.31,9.24s-2.62-9.17-2.62-9.17Z"/><path class="cls-49" d="M303.35,510.31c-8.12-21.58-16.64-43-25.26-64.39q-4.9-12.17-9.82-24.33c-1.92-4.8-3.91-9.6-5.64-14.48a59.71,59.71,0,0,1-2.38-10.41,105.81,105.81,0,0,1-1.31-20.88.09.09,0,1,0-.18,0,107.44,107.44,0,0,0,.89,18.1,70.91,70.91,0,0,0,2.44,12.17c1.43,4.37,3.25,8.63,5,12.9,7.12,17.83,14.4,35.6,21.47,53.45,5,12.6,9.9,25.23,14.67,37.92,0,.1.21.06.17-.05Z"/><path class="cls-49" d="M265.61,376.56a20.81,20.81,0,0,1-.85,8.87c-.77,2.28-2.26,4.61-4.78,5.13a.09.09,0,0,0,0,.17c2.37-.48,3.86-2.55,4.69-4.68a20.27,20.27,0,0,0,1.06-9.49c0-.11-.18-.11-.17,0Z"/><path class="cls-48" d="M319.57,382.18c-1.58,2.21,4.82,8.08,8.37,8.75s-1.55-5.21-3.59-7.83C323,381.41,319.57,382.18,319.57,382.18Z"/><path class="cls-49" d="M243.26,355.78,241,354.4c-.09-.06-.18.09-.09.15l2.24,1.39c.1.06.19-.1.09-.16Z"/><path class="cls-49" d="M241.91,394.82l-1.25,4.28c0,.11.13.16.17,0l1.25-4.29c0-.11-.14-.15-.17,0Z"/><path class="cls-49" d="M236.46,398.72a12,12,0,0,1-3.65,3h.11a1.16,1.16,0,0,1-.25-.8c0-.11-.17-.11-.17,0a1.32,1.32,0,0,0,.3.93.09.09,0,0,0,.1,0,12.15,12.15,0,0,0,3.71-3c.07-.09-.08-.18-.15-.09Z"/><path class="cls-49" d="M233.37,406c2-.39,3.81-1.17,4.7-3.09a10.25,10.25,0,0,0,.85-2.65c.15-1,.19-2,.29-2.93,0-.12-.16-.12-.17,0-.1.94-.14,1.9-.29,2.84a9.44,9.44,0,0,1-.78,2.52,4.54,4.54,0,0,1-1.89,2.19,8.61,8.61,0,0,1-2.76.95.09.09,0,0,0,.05.17Z"/><path class="cls-49" d="M338.5,387.38a16.3,16.3,0,0,0-4.35-1.47,19.44,19.44,0,0,1-4.57-1.84.09.09,0,0,0-.09.16,20.66,20.66,0,0,0,4.29,1.78c.77.19,1.55.32,2.31.55a12.1,12.1,0,0,1,2.32,1,.09.09,0,1,0,.09-.15Z"/><path class="cls-49" d="M332.58,383.58a28.6,28.6,0,0,0-3.55-1.65c-.1,0-.15.13,0,.17a28.49,28.49,0,0,1,3.5,1.63c.1.06.18-.09.09-.15Z"/><path class="cls-49" d="M302.42,355.52a2.24,2.24,0,0,0-2.11.7c-.07.09.05.21.13.13a2,2,0,0,1,1.93-.66.09.09,0,0,0,.05-.17Z"/><path class="cls-46" d="M262.36,346.21c-1,9.41-.63,5.19-9.67,17.16-3.88,5.14-7.86,11.74-3.84,10.11,5.58-2.26,38.43,6.11,41.08,6.37,10.53,1.06,6.76-6.36,6.19-8.67s-7.61-11.74-7.61-11.74Z"/><path class="cls-47" d="M272.66,269.38c7.26-.25,10.89,1.92,13.37,3.8,7,5.32,4.65,9.73,6,12.53,2,4,7.4-1,10.91,8.37.47,1.25,4.7,1.39,4.38,2.69-1.27,5.32-5,9.77-9.26,13.17a14.77,14.77,0,0,1-5.59,3.07,6.57,6.57,0,0,1-6-1.32c-2.68-2.55-1.79-6.92-1-10.53a3.11,3.11,0,0,0,.05-1.6c-.38-1.17-1.94-1.45-3.15-1.21s-2.43.79-3.63.49a3.61,3.61,0,0,1-2.38-3.81,8.91,8.91,0,0,1,1.95-4.42,4.8,4.8,0,0,0,1.25-2.78c-.06-1.72-2.08-2.78-3.79-2.58s-3,1.77-4.71,2c-8,1.1-9.22-6-8.72-8.09C263.79,273.15,270.61,269.45,272.66,269.38Z"/><path class="cls-49" d="M292.24,322.74a53,53,0,0,0-7.57-10.52c-.08-.08-.21,0-.13.12a53,53,0,0,1,7.55,10.49.09.09,0,0,0,.15-.09Z"/></g></g><path class="cls-80" d="M846.05,496.27c-8.44-11-22.62-15.27-33.44-6.43s-11.07,23.31-2.23,34.14,23.43,13.9,34.25,5.06S854.57,507.35,846.05,496.27Zm-1.59,28.65c-8.16,7.87-21.72,3.23-28.89-5.54s-7.38-20.05,1.39-27.22,19.89-3.81,27.06,5S852.45,517.22,844.46,524.92Z"/><path class="cls-81" d="M844.57,524.86c7.92-7.72,6.65-19.08-.48-27.89s-18.19-12.19-26.89-5c0,0,15.86-7.32,25.81,7.74C853.53,515.61,844.57,524.86,844.57,524.86Z"/><path class="cls-81" d="M814.07,522.53c13.71,17.9,30.56,6.51,30.56,6.51-10.82,8.84-25.41,5.76-34.25-5.06s-8.6-25.29,2.23-34.14l1.35-.57s-16,11-2,30.82Z"/><path class="cls-80" d="M867.36,556.74h0a4.27,4.27,0,0,1-6-.6l-20.68-25.89c-1.49-1.82,1.56-1.33,3.39-2.82l.81-1c1.82-1.49.92-3.35,2.41-1.53L868,550.74A4.27,4.27,0,0,1,867.36,556.74Z"/><path class="cls-81" d="M841.27,531l20.09,25.16a4.27,4.27,0,0,0,6,.6s-1.76,1.28-3.77-1.47-19.13-23.95-19.13-23.95-.53-1.7-1.65-1.1h0Z"/><path class="cls-82" d="M816.91,492c-8.82,7.22-8.6,18.56-1.39,27.39s19.53,13.25,28.36,6,7.47-19.6.26-28.43S825.74,484.83,816.91,492Z"/><path class="cls-10" d="M847.29,521.42c3.41-4,3.56-10.38,2.22-15.21a25.43,25.43,0,0,0-4.5-8.43,22.58,22.58,0,0,0-6.84-6.18.07.07,0,0,0-.07.13A22.4,22.4,0,0,1,845,498a25.5,25.5,0,0,1,4.26,7.87c1.45,4.85,1.38,11.39-2.08,15.44-.06.07.05.17.11.1Z"/><path class="cls-42" d="M827.4,496a12.4,12.4,0,0,1,9.38,5.83c2.38,3.65,3.06,8.09,3,12.37a.64.64,0,0,0,1.27,0c.09-4.67-.72-9.59-3.47-13.48a13.62,13.62,0,0,0-10.16-6c-.81-.05-.81,1.22,0,1.27Z"/><path class="cls-10" d="M842.24,530.85a8.91,8.91,0,0,0,2.76-2.16c.06-.07,0-.17-.1-.1a8.63,8.63,0,0,1-2.74,2.13.08.08,0,0,0,.08.13Z"/><path class="cls-10" d="M862.1,553.41c.76.93,1.52,1.85,2.26,2.79a2.39,2.39,0,0,0,.72.73,1.45,1.45,0,0,0,1.33,0c.09,0,0-.17-.07-.12a1.31,1.31,0,0,1-1.36-.11,4.32,4.32,0,0,1-.73-.86c-.67-.85-1.36-1.69-2-2.52-.06-.08-.16,0-.1.1Z"/><path class="cls-10" d="M849.66,537.72c3.19,3.88,6.2,7.9,9.3,11.84.55.7,1.09,1.4,1.66,2.09.06.07.17,0,.11-.11-3.21-3.85-6.21-7.89-9.31-11.83-.55-.7-1.09-1.4-1.65-2.09-.06-.07-.17,0-.11.1Z"/><path class="cls-10" d="M843.83,530.38c1.45,2,3,3.93,4.6,5.85.06.07.17,0,.11-.11-1.57-1.91-3.14-3.81-4.58-5.82-.05-.08-.18,0-.13.08Z"/><path class="cls-10" d="M806.3,507.34a16.15,16.15,0,0,1,.45-6.07c0-.09-.11-.13-.14,0a16.14,16.14,0,0,0-.46,6.11c0,.09.16.1.15,0Z"/><path class="cls-10" d="M807.39,498.68c1.14-4.63,4.74-8.53,8.89-10.72.09,0,0-.17-.07-.13-4.18,2.21-7.81,6.14-9,10.81,0,.1.13.14.15,0Z"/><path class="cls-10" d="M809.76,516.15c2,5.64,6.71,10.1,11.83,13,4.78,2.72,10.79,4.56,16.22,2.87.09,0,.05-.17,0-.14-5.39,1.68-11.36-.16-16.1-2.85-5.09-2.9-9.74-7.33-11.77-12.93,0-.08-.17-.05-.14,0Z"/><path class="cls-10" d="M834,486.85a8.81,8.81,0,0,1,1.93.86,29.59,29.59,0,0,1,3.54,2.27,35,35,0,0,1,8.82,9.6c.05.08.18,0,.13-.07a34.78,34.78,0,0,0-8.74-9.55,29.05,29.05,0,0,0-3.67-2.37,8.48,8.48,0,0,0-2-.88c-.09,0-.13.12,0,.14Z"/><path class="cls-10" d="M848.2,525.78a.08.08,0,0,0,0-.15.08.08,0,1,0,0,.15Z"/><path class="cls-10" d="M848.44,525.51a21.37,21.37,0,0,0,4-8,22.25,22.25,0,0,0-1.4-13c0-.08-.17-.05-.14,0,1.61,4.19,2.43,8.73,1.34,13.14a21.39,21.39,0,0,1-3.92,7.74c0,.08.07.15.13.08Z"/><path class="cls-10" d="M812,525.48a55.65,55.65,0,0,1-4.32-5.69,25.11,25.11,0,0,1-3.45-13.93.08.08,0,1,0-.15,0,25.42,25.42,0,0,0,3.25,13.64,29,29,0,0,0,2.73,4c.58.72,1.25,1.37,1.81,2.1.06.07.19,0,.13-.08Z"/><path class="cls-10" d="M804.6,503.61a25.31,25.31,0,0,1,1.32-4.26,26.39,26.39,0,0,1,1.78-3.9.07.07,0,1,0-.13-.07,27.49,27.49,0,0,0-1.75,3.82,25.44,25.44,0,0,0-1.36,4.37c0,.09.12.13.14,0Z"/><path class="cls-10" d="M815.23,528.87c5.27,4.69,13.67,6.91,20.5,4.81a.07.07,0,1,0,0-.14c-6.77,2.08-15.13-.12-20.36-4.77-.07-.07-.17,0-.1.1Z"/><path class="cls-10" d="M813.46,527.14l.54.47a.08.08,0,1,0,.11-.11l-.54-.46a.08.08,0,0,0-.11,0s0,.08,0,.1Z"/><rect class="cls-18" x="4.97" y="661.11" width="130.96" height="30.5" rx="5.2"/><text class="cls-83" transform="translate(29.29 682.11)">#business</text><path class="cls-10" d="M19.94,691.18c-5.31,0-10.82-2.74-13.54-7.42a13.54,13.54,0,0,1-1.5-9.31,11.79,11.79,0,0,1,2.33-4.78c.62-.84,1.29-1.63,1.94-2.44s1.27-1.83,2.41-2c.18,0,.1-.31-.08-.28-1.36.23-2.1,1.54-2.91,2.54a30.06,30.06,0,0,0-2.8,3.83,12.38,12.38,0,0,0-1.28,7.82,14.16,14.16,0,0,0,8.24,10.66,17.19,17.19,0,0,0,7.19,1.68.15.15,0,0,0,0-.29Z"/><path class="cls-10" d="M16.76,662.34a30,30,0,0,1,9.91-.59c.18,0,.18-.27,0-.29a30.51,30.51,0,0,0-10,.6c-.18,0-.1.32.08.28Z"/><path class="cls-10" d="M33,662c3.37.18,6.79.05,10.17.05q10.95,0,21.9,0l26.26,0,22.94,0c4,0,8,.25,12,.05a2.17,2.17,0,0,1,.36,0c.19,0,.19-.28,0-.29-3.37-.18-6.79,0-10.16,0q-10.95,0-21.9,0l-26.27,0-22.94,0c-4,0-8-.25-12,0a2.29,2.29,0,0,1-.37,0c-.19,0-.18.28,0,.29Z"/><path class="cls-10" d="M115.07,691.57c4.32-.37,8.91-.17,13-1.93,3.16-1.37,6-4,6.5-7.51,0-.18-.25-.26-.28-.08-.54,3.65-3.55,6.26-6.85,7.54-3.91,1.51-8.23,1.34-12.34,1.69-.18,0-.18.31,0,.29Z"/><path class="cls-10" d="M136.37,676.63a15.84,15.84,0,0,0-3.74-10.74c-.12-.14-.33.07-.21.21a15.41,15.41,0,0,1,3.66,10.53c0,.19.28.19.29,0Z"/><path class="cls-10" d="M108.41,690.78H26.68a.14.14,0,1,0,0,.28h81.73a.14.14,0,0,0,0-.28Z"/></g></g></svg>