<svg id="Layer_1" data-name="Layer 1" xmlns="http://www.w3.org/2000/svg" xmlns:xlink="http://www.w3.org/1999/xlink" viewBox="0 0 1819.5 306.21"><defs><style>.cls-1{fill:none;}.cls-2{font-size:153.53px;letter-spacing:0.05em;}.cls-10,.cls-15,.cls-2{fill:#6c3545;}.cls-2,.cls-5{font-family:Montserrat-Bold, Montserrat;font-weight:700;}.cls-3{letter-spacing:0.02em;}.cls-4{letter-spacing:0.05em;}.cls-5{font-size:92.39px;fill:#f39423;letter-spacing:0.09em;}.cls-6{letter-spacing:0.08em;}.cls-7{letter-spacing:0.09em;}.cls-8{letter-spacing:0.09em;}.cls-9{letter-spacing:0.1em;}.cls-10{font-size:19.49px;font-family:Montserrat-Medium, Montserrat;font-weight:500;letter-spacing:0.55em;}.cls-11{letter-spacing:0.55em;}.cls-12{letter-spacing:0.55em;}.cls-13{letter-spacing:0.54em;}.cls-14{letter-spacing:0.54em;}.cls-16{clip-path:url(#clip-path);}.cls-17{fill:#f8ae42;}.cls-18{fill:#feead7;}.cls-19{fill:#e54754;}</style><clipPath id="clip-path" transform="translate(-50.25 -146.89)"><path class="cls-1" d="M304,300c0-57,16.69-141-103.22-141-57,0-103.22,84-103.22,141a103.26,103.26,0,0,0,68.73,97.3,25.56,25.56,0,0,0,25.49,23.76h18a25.55,25.55,0,0,0,25.49-23.76A103.24,103.24,0,0,0,304,300Z"/></clipPath></defs><text class="cls-2" transform="translate(337.98 243.48)">INTERN<tspan class="cls-3" x="655.25" y="0">A</tspan><tspan class="cls-4" x="775.15" y="0">TIONAL </tspan></text><text class="cls-5" transform="translate(341.32 110.54)">E<tspan class="cls-6" x="70.58" y="0">X</tspan><tspan class="cls-7" x="143.75" y="0">P</tspan><tspan class="cls-8" x="219.69" y="0">L</tspan><tspan class="cls-9" x="283.62" y="0">ORER</tspan></text><text class="cls-10" transform="translate(348.19 289.21)">#LEARNING <tspan class="cls-11" x="231.94" y="0">L</tspan><tspan class="cls-12" x="254.29" y="0">ANG</tspan><tspan class="cls-13" x="331.59" y="0">U</tspan><tspan class="cls-14" x="357.43" y="0">A</tspan><tspan x="382.22" y="0">GE</tspan></text><path class="cls-15" d="M304,300a103.22,103.22,0,1,0-137.71,97.3,25.56,25.56,0,0,0,25.49,23.76h18a25.55,25.55,0,0,0,25.49-23.76A103.24,103.24,0,0,0,304,300Z" transform="translate(-50.25 -146.89)"/><path class="cls-15" d="M235.63,440.72a12.39,12.39,0,0,1-12.38,12.39h-44.2a12.39,12.39,0,0,1-12.38-12.39h0a12.38,12.38,0,0,1,12.38-12.38h44.2a12.39,12.39,0,0,1,12.38,12.38Z" transform="translate(-50.25 -146.89)"/><g class="cls-16"><polygon class="cls-17" points="134.44 92.88 134.44 262.83 80.25 262.83 80.25 92.88 71.96 92.88 71.96 274.79 142.73 274.79 142.73 92.88 134.44 92.88"/><path class="cls-18" d="M130.5,246.33V409.72h54.2V246.33S179.23,249,157.39,249,130.5,246.33,130.5,246.33Z" transform="translate(-50.25 -146.89)"/><polygon class="cls-19" points="134.44 238.31 134.44 262.83 80.25 262.83 80.25 238.31 71.96 238.31 71.96 274.79 142.73 274.79 142.73 238.31 134.44 238.31"/><rect class="cls-19" x="153.32" y="43.6" width="77.19" height="232.21"/><rect class="cls-18" x="153.32" y="99.86" width="77.19" height="116.1"/><rect class="cls-17" x="166.88" y="63.95" width="47.88" height="123.29"/></g><path class="cls-15" d="M327.5,324.44a8.33,8.33,0,0,1-8.33-8.33h0a8.33,8.33,0,0,1,8.33-8.33h13.75a8.32,8.32,0,0,1,8.32,8.33h0a8.32,8.32,0,0,1-8.32,8.33Z" transform="translate(-50.25 -146.89)"/><path class="cls-15" d="M205.75,169.32a8.32,8.32,0,0,1-8.32,8.33h0a8.33,8.33,0,0,1-8.34-8.33v-14.1a8.33,8.33,0,0,1,8.34-8.33h0a8.33,8.33,0,0,1,8.32,8.33Z" transform="translate(-50.25 -146.89)"/><path class="cls-15" d="M327.5,324.44a8.33,8.33,0,0,1-8.33-8.33h0a8.33,8.33,0,0,1,8.33-8.33h13.75a8.32,8.32,0,0,1,8.32,8.33h0a8.32,8.32,0,0,1-8.32,8.33Z" transform="translate(-50.25 -146.89)"/><path class="cls-15" d="M306.86,218.75a8.3,8.3,0,0,1-11.77,0h0a8.3,8.3,0,0,1,0-11.77l10.12-10.25a8.34,8.34,0,0,1,11.78,0h0a8.34,8.34,0,0,1,0,11.78Z" transform="translate(-50.25 -146.89)"/><path class="cls-15" d="M72.33,324.44a8.33,8.33,0,0,0,8.32-8.33h0a8.33,8.33,0,0,0-8.32-8.33H58.57a8.33,8.33,0,0,0-8.32,8.33h0a8.33,8.33,0,0,0,8.32,8.33Z" transform="translate(-50.25 -146.89)"/><path class="cls-15" d="M93,218.75a8.32,8.32,0,0,0,11.78,0h0a8.3,8.3,0,0,0,0-11.77L94.61,196.73a8.34,8.34,0,0,0-11.78,0h0a8.34,8.34,0,0,0,0,11.78Z" transform="translate(-50.25 -146.89)"/></svg>