<svg xmlns="http://www.w3.org/2000/svg" viewBox="0 0 596.25 190.34"><defs><style>.cls-1,.cls-5{fill:none;}.cls-2{fill:#dcd0fe;}.cls-3{fill:#6242ba;}.cls-4{fill:#bba4ff;}.cls-5{stroke:#6242ba;stroke-linecap:round;stroke-linejoin:round;stroke-width:0;}.cls-6{fill:#f3a9b8;}.cls-7{fill:#ea4272;}.cls-8{fill:#e87d91;}.cls-9{fill:#4f2caf;}.cls-10{fill:#dfd2fd;}.cls-11{fill:#d7c5ff;}.cls-12{fill:#9c89e5;}.cls-13{fill:#31193b;}.cls-14{fill:#fff;}</style></defs><g id="Layer_2" data-name="Layer 2"><g id="OBJECTS"><polygon class="cls-1" points="291.1 184.59 304.09 184.59 299.28 140.18 291.1 184.59"/><polygon class="cls-1" points="431.64 184.59 444.06 184.59 439.46 142.12 431.64 184.59"/><path class="cls-1" d="M474.6,181.08l-.07,0c-.08.58-.12.9-.12.9h-1.75l.07-4.12V177l-.26.81L471.12,182h0l-.44.47-.35.06-.25.05-2.68.48s-3.38-11.11-7-25.39l-.15,27h18.07c-.15-2.36-.36-6-.54-10.41C475.81,178.47,474.6,181.08,474.6,181.08Z"/><path class="cls-1" d="M130.05,171.29c0-3.26.12-6.46.33-9.6-2.8,9-5.49,17.08-7.47,22.9h12.41l.69-11.68A24.26,24.26,0,0,1,130.05,171.29Z"/><path class="cls-1" d="M229.25,150.89a127.85,127.85,0,0,1,6.62-41.27,37.27,37.27,0,0,0,1.86-8.44l.1-1.15a35.45,35.45,0,0,0-.52-9.07A67.1,67.1,0,0,1,236,82.37l-.8-.48a72.42,72.42,0,0,1-8.48,5.17l1.79,42.08-.73.24-.31,55.21h2.34l2-33.24Z"/><path class="cls-1" d="M183.82,129.14,187,87.55a45.34,45.34,0,0,1-13.13-2,32.2,32.2,0,0,1-1.56,11.33,55.26,55.26,0,0,0-2.22,11c10,16.84,8.77,63.43,8.77,63.43a12.27,12.27,0,0,1-2.6.83h0l-.29.06h0c-.67.14-1.41.28-2.23.42l0,12h8.14l2.94-55.13Z"/><polygon class="cls-1" points="199.25 184.59 210.6 184.59 206.16 148.15 199.25 184.59"/><path class="cls-1" d="M151.1,174l-1.95,10.6h11.93l-1.16-10.73C157,174,154.05,174,151.1,174Z"/><path class="cls-1" d="M323.4,137.37c-.82-15.79,4.06-22.93,4.18-23.1.1-.33.21-.67.31-1L328,113c3.88-13.08,1.8-19,.59-25.87a56.21,56.21,0,0,1-8.69,7.09l.86,28.05-.34,62.3h1.39l1.33-22.41A223.27,223.27,0,0,0,323.4,137.37Z"/><path class="cls-1" d="M103.25,179.71l2.23-2.31-.1-.26-2.24,2.32Z"/><path class="cls-1" d="M105.22,184.1h-.28l-3.78,0,0,.47h7.07l-.19-.51Z"/><path class="cls-1" d="M373,72.65l.09-.61a21.17,21.17,0,0,1,.5-2.33c-1.39.32-2.76.57-4.12.76l1.89,1.18C371.92,72,372.47,72.33,373,72.65Z"/><path class="cls-1" d="M366.82,150a237.32,237.32,0,0,1,7.42-59.18h0c-.41-2.37-.92-4.64-1.27-7.1a8.8,8.8,0,0,1-5.84.15c-2.49-1-2.75-2.55-1.8-2.91-.63-.23-1.26-.48-1.89-.74h0s-.24.21-.7.54a40.5,40.5,0,0,1-1.58,7.69c-3.45,11.46-2.82,19.53-1.44,24.63l.33,1.15,0,0c3.63,5.35,5.62,11.6,4.13,23.53a202.68,202.68,0,0,0-1.4,23.88l-.1,22.92h3.55l2.08-34.15C367.8,150.3,367.29,150.15,366.82,150Z"/><path class="cls-1" d="M387,152.17l-6.13,32.42H395l-3.61-32.48C389.92,152.15,388.46,152.17,387,152.17Z"/><path class="cls-1" d="M420.29,80.71a72.63,72.63,0,0,1-13.63,6.87c-.33,1.14-.63,2.25-.89,3.33,5.83,15.84,6.38,59.08,6.38,59.08a30.55,30.55,0,0,1-3.67.74l-.11,33.86h6.21l3.2-60Z"/><polygon class="cls-1" points="336.01 184.59 349.6 184.59 344.57 138.13 336.01 184.59"/><path class="cls-1" d="M320.91,78.4l-1.56-.86.09,2.94C319.94,79.76,320.43,79.06,320.91,78.4Z"/><path class="cls-1" d="M485.82,155v.15Z"/><path class="cls-1" d="M249.84,153.09l-5.8,31.5h13.59l-3.41-31.49C252.76,153.12,251.3,153.12,249.84,153.09Z"/><path class="cls-1" d="M86.14,184.23l-20,.13h-.3l-34.1.23H86.41Z"/><path class="cls-1" d="M279.17,87.3a64.52,64.52,0,0,1-8.62-4.78,43,43,0,0,1-1.36,5.92c-.11.38-.22.75-.32,1.12a35.29,35.29,0,0,0-1.31,10.24l.09,2.07a40.43,40.43,0,0,0,2,9.91c6,17.73,5.38,39.11,5.38,39.11-1.43.28-2.86.52-4.29.75l-.11,33h3.19l3.32-62.3Z"/><path class="cls-2" d="M51,161.67H17.86c4.13,10.08,10.22,19,13.84,22.92l34.1-.23Z"/><path class="cls-2" d="M35,137l-20.53-1.36c-2.2,7.76-.17,17.18,3.32,25.81H50.87Z"/><path class="cls-2" d="M105.22,184.1l2.79,0c-.74-1.92-1.59-4.16-2.53-6.68l-2.23,2.31Z"/><path class="cls-2" d="M65.39,95.8c-10,1.48-13.67,7.21-14,14.5l21.18,1.53Z"/><path class="cls-2" d="M85.1,167.64l-.27-.85h-.14C84.83,167.07,85,167.36,85.1,167.64Z"/><path class="cls-2" d="M101.16,184.12l3.78,0-3.48-7.78C101.37,179.1,101.27,181.73,101.16,184.12Z"/><path class="cls-2" d="M103.14,179.46l2.24-2.32c-1.14-3-2.4-6.48-3.74-10.19,0,3-.08,6-.17,8.8Z"/><path class="cls-2" d="M90.39,151l1.23,2.75c-.12-1.49-.23-3-.31-4.36l-1,1.28C90.34,150.77,90.36,150.88,90.39,151Z"/><path class="cls-2" d="M107.75,137.56c-.37-1-.76-2-1.16-3,.44,2.34.87,4.69,1.29,7C107.83,140.26,107.79,138.91,107.75,137.56Z"/><path class="cls-2" d="M58.87,173.26l7.23,11.1,20-.13c-5.53-7.78-12.59-18.14-17.62-27.11Z"/><path class="cls-2" d="M79.41,126.06c4.08-.75,7.82,10.55,10.84,24.29l1-1.35a67.88,67.88,0,0,1,.22-12.21c-2.29-7.47-4.38-14.91-6-21.73L79,125.55l.25.56.1,0Z"/><path class="cls-2" d="M79,126.2l-6.33-14.11-21.3-1.54c-.25,7.29,2.82,16.1,6.4,23.76l19.38.65C76.71,130.21,77.18,127,79,126.2Z"/><path class="cls-2" d="M85.47,114.72a128.57,128.57,0,0,1-2.7-15.12A23.46,23.46,0,0,0,68.1,95.51c-.86,0-1.67.14-2.46.25l13.23,29.52Z"/><path class="cls-2" d="M58.72,173l9.66-16.16c-3.08-5.5-5.37-10.45-6.06-13.94l-3.65-6a54.5,54.5,0,0,0-10.21-10.55l-6,21.64Z"/><path class="cls-2" d="M63,138.46l-.75-1.76.94,1.6.29-.2c4.75-2.57,13.68,13,21.14,28.44h.18c-3.52-11.32-6.78-23.35-7.57-31.33l-19.28-.65c.52,1.13,1.06,2.22,1.6,3.28l2.71,4.43C62,140.53,62.16,139.21,63,138.46Z"/><path class="cls-2" d="M92.27,160.42c-.23-2-.42-4-.59-5.93l-1-2.32C91.21,154.87,91.75,157.64,92.27,160.42Z"/><path class="cls-2" d="M48.25,126.25c-6.4-4.78-14-7.24-22.26-3.53L42.3,147.78Z"/><path class="cls-2" d="M25.76,122.82c-.42.19-.84.4-1.26.62a19.47,19.47,0,0,0-10,11.93l20.29,1.34Z"/><path class="cls-3" d="M35,136.73V137H35l15.9,24.45h.23v.25H51L65.8,184.36h.3l-7.23-11.1,0,.07-.21-.13.1-.17-16.24-25v.06l-.25-.07.08-.27L26,122.72l-.23.1,9,13.89Z"/><path class="cls-3" d="M103.19,179.77l-.18-.17.13-.14-1.67-3.71c0,.19,0,.38,0,.57l3.48,7.78h.28l-2-4.39Z"/><path class="cls-3" d="M72.78,111.84l0,.25h-.08L79,126.2l.16-.07.07,0-.25-.56,0,.06-.21-.13.13-.2L65.64,95.76l-.25,0,7.18,16Z"/><path class="cls-3" d="M90.64,152.17l1,2.32-.06-.75L90.39,151C90.47,151.38,90.55,151.77,90.64,152.17Z"/><path class="cls-3" d="M62.21,142.27l-2.71-4.43c.13.26.26.53.4.79-.4-.55-.81-1.11-1.23-1.66l3.65,6C62.27,142.7,62.24,142.48,62.21,142.27Z"/><path class="cls-3" d="M34.8,136.71l-20.29-1.34a2.17,2.17,0,0,1-.07.24L35,137Z"/><polygon class="cls-3" points="35.05 136.73 34.8 136.71 34.97 136.97 35.03 136.98 35.05 136.73"/><path class="cls-3" d="M42.48,148.06l6-21.64-.21-.17-6,21.53Z"/><polygon class="cls-3" points="42.22 148.05 42.47 148.12 42.48 148.06 42.3 147.78 42.22 148.05"/><path class="cls-3" d="M50.87,161.42H17.76c0,.08.07.16.1.25H51Z"/><polygon class="cls-3" points="51.1 161.42 50.87 161.42 51.03 161.67 51.1 161.67 51.1 161.42"/><path class="cls-3" d="M68.38,156.87,58.72,173l.15.23,9.65-16.14Z"/><polygon class="cls-3" points="58.62 173.2 58.83 173.33 58.87 173.26 58.72 173.03 58.62 173.2"/><path class="cls-3" d="M72.57,111.83,51.39,110.3a2,2,0,0,0,0,.25l21.3,1.54Z"/><polygon class="cls-3" points="72.78 111.84 72.57 111.83 72.68 112.09 72.76 112.09 72.78 111.84"/><path class="cls-3" d="M85.47,114.72l-6.6,10.56.12.27,6.56-10.49C85.53,115,85.5,114.83,85.47,114.72Z"/><polygon class="cls-3" points="78.74 125.48 78.95 125.61 78.99 125.55 78.87 125.28 78.74 125.48"/><path class="cls-3" d="M77.16,135l-19.38-.65.12.25,19.28.65A2.29,2.29,0,0,1,77.16,135Z"/><path class="cls-3" d="M90.31,150.66l1-1.28c0-.13,0-.25,0-.38l-1,1.35Z"/><path class="cls-3" d="M84.83,166.79l-.08-.25h-.18l.12.25Z"/><path class="cls-3" d="M101.46,176.32c0-.19,0-.38,0-.57.09-2.83.15-5.79.17-8.8-1.65-4.58-3.4-9.58-5.15-14.78l1.56,32.42h3.08l0-.47C101.27,181.73,101.37,179.1,101.46,176.32Z"/><path class="cls-3" d="M96.2,151.3c-1.6-4.74-3.18-9.63-4.68-14.51A67.88,67.88,0,0,0,91.3,149c0,.13,0,.25,0,.38.08,1.41.19,2.87.31,4.36l.06.75c.17,1.95.36,3.93.59,5.93-.52-2.78-1.06-5.55-1.63-8.25-.09-.4-.17-.79-.25-1.18,0-.11,0-.22-.08-.33l-.06-.31c-3-13.74-6.76-25-10.84-24.29l15.66,58.53H97.8Z"/><path class="cls-3" d="M63,138.46c-.79.75-1,2.07-.74,3.81,0,.21.06.43.11.66.69,3.49,3,8.44,6.06,13.94l.14.25c5,9,12.09,19.33,17.62,27.11l.27.36h3.75Z"/><path class="cls-3" d="M79.17,126.13l-.16.07c-1.83.75-2.3,4-1.85,8.76a2.29,2.29,0,0,0,0,.25c.79,8,4,20,7.57,31.33l.08.25.27.85c-.14-.28-.27-.57-.41-.85l-.12-.25c-7.46-15.47-16.39-31-21.14-28.44l-.29.2,27.31,46.29h4.36Z"/><path class="cls-4" d="M62.2,136.7l.75,1.76.19-.16Z"/><path class="cls-4" d="M63.14,138.3l-.19.16,27.21,46.13h.29Z"/><path class="cls-4" d="M79.41,126.06h-.07l-.1,0-.07,0,15.64,58.46h.26Z"/><path class="cls-4" d="M96.49,152.17c-.1-.29-.2-.58-.29-.87l1.6,33.29h.25Z"/><path class="cls-4" d="M85.55,115.06c1.59,6.82,3.68,14.26,6,21.73,1.5,4.88,3.08,9.77,4.68,14.51.09.29.19.58.29.87,1.75,5.2,3.5,10.2,5.15,14.78,1.34,3.71,2.6,7.14,3.74,10.19l.1.26c.94,2.52,1.79,4.76,2.53,6.68l.19.51H112l-24.9-99.7a3.06,3.06,0,0,0-.59.07c-3.66.84-4.55,6.43-3.7,14.64a128.57,128.57,0,0,0,2.7,15.12C85.5,114.83,85.53,115,85.55,115.06Z"/><path class="cls-4" d="M112.22,184.59h4l.89-111.74c-9-.4-10.22,33.1-9.35,64.71,0,1.35.08,2.7.13,4-.42-2.34-.85-4.69-1.29-7-4.8-25.33-11.46-49.74-19.27-49.71Z"/><path class="cls-4" d="M116.46,184.59h2.74L140.42,87l-.18-.06c-7.79-1.81-13.68,21.23-17.75,46.3,2.65-29.62,3.2-59.42-5.14-60.39Z"/><path class="cls-4" d="M119.45,184.59h3.46c2-5.82,4.67-13.88,7.47-22.9a172.08,172.08,0,0,1,12.71-53.83c.16-7.92-2.54-12.37-2.12-20.59a3,3,0,0,0-.31-.15Z"/><path class="cls-3" d="M116.21,184.59h.25l.89-111.7-.22,0h0Z"/><path class="cls-3" d="M112,184.59h.26L87.32,84.86a2.3,2.3,0,0,0-.26,0Z"/><path class="cls-3" d="M119.2,184.59h.25l21.21-97.47-.24-.08Z"/><path class="cls-3" d="M472.66,182h1.75s0-.32.12-.9l.07,0s1.21-2.61,3.1-6.9c-.14-3.26-.25-6.91-.31-10.68l-4.66,14.34Z"/><path class="cls-3" d="M485.81,155v0c1.65-8.89,3.64-17.7,5.87-23.61.14-.6.27-1.2.41-1.8l.07-.28a164.86,164.86,0,0,1,8.11-25.66c0-.09.08-.17.11-.26.3-.69.61-1.37.92-2-.23-2.26-.95-3.81-2.26-4.45l-12.44,38.25C487.1,140.2,486.64,147.49,485.81,155Z"/><path class="cls-3" d="M460.32,157.64c3.66,14.28,7,25.39,7,25.39l2.68-.48-9.58-51.63Z"/><path class="cls-3" d="M460.47,129.59l9.82,52.91.35-.06.44-.47h0l1.36-4.17L474,85.72c-6.55.91-7.32,24.65-6.43,48.34-1.64-15-4.13-29.11-7.86-35.06l.79,25.57Z"/><path class="cls-3" d="M483.18,128.29h.07c1.85.08,2.86,2.47,3.29,6.25L498.81,96.8a2.18,2.18,0,0,0-.27-.11c-5.75-1.63-11.61,13.82-16.41,31.87a2.15,2.15,0,0,1,.8-.26Z"/><path class="cls-3" d="M477.38,162.72c-.15-11.43.24-23.85,2.28-30.18,1.63-23.64,1.5-46.86-5.27-46.86l-.14,0L472.74,177Z"/><polygon class="cls-4" points="470.04 182.55 470.29 182.5 460.47 129.59 460.46 130.92 470.04 182.55"/><path class="cls-4" d="M472.74,177l1.51-91.29-.25,0-1.52,92.08Z"/><path class="cls-4" d="M477.39,163.5c0-.26,0-.52,0-.78L472.74,177v.85Z"/><path class="cls-4" d="M486.61,135.14l12.44-38.25a2.34,2.34,0,0,0-.24-.09l-12.27,37.73C486.57,134.73,486.59,134.93,486.61,135.14Z"/><polygon class="cls-2" points="538.03 162.77 525.94 145.3 511.71 164.97 523.41 181.13 538.03 162.77"/><path class="cls-2" d="M512.77,136.44c1,3.31-2.74,11.06-7.81,19.53l13.8-1.18,15-20.68c-1,1.17-2.07,2.38-3.13,3.65a86.56,86.56,0,0,0,5.36-7.2l-22.53,4.28Z"/><path class="cls-2" d="M564.91,129,556,114.39a81.84,81.84,0,0,0-16.44,13.43l11.19,19Z"/><path class="cls-2" d="M538.19,162.57,550.56,147l-11.2-19c-1.3,1.33-2.64,2.76-4,4.27l-9.27,12.81Z"/><path class="cls-2" d="M584.74,124.46a18.65,18.65,0,0,0-6.63-11.62l-7.66,9.61Z"/><path class="cls-2" d="M557.74,138.42l23.54,4.47c2.58-6,3.74-11.36,3.74-15.3a18.12,18.12,0,0,0-.24-2.87l-14.51-2Z"/><path class="cls-2" d="M577.91,112.69c-4.67-3.4-11.78-4.16-21.71,1.58l8.87,14.54Z"/><path class="cls-2" d="M537.21,75.66c-4.18-1.19-9.57-.64-16.15,2.19a26.65,26.65,0,0,0-7.73,5.26l14.37,16Z"/><path class="cls-2" d="M530.78,172.27l23.85,4.09A100.76,100.76,0,0,0,570,161.19l-26.49-4.93Z"/><path class="cls-2" d="M492.24,161.64c3.61-7.55,7.65-15.24,11.3-20.44l-4.72-4.78A207.09,207.09,0,0,1,492.24,161.64Z"/><path class="cls-2" d="M499.35,168.78l4.4-10.83c-2,3.19-4.08,6.45-6.18,9.57Z"/><path class="cls-2" d="M492.1,129.59c-.14.6-.27,1.2-.41,1.8.21-.55.42-1.07.63-1.57Z"/><path class="cls-2" d="M497.43,167.73c-4.78,7.08-9.44,13.45-12,16.86h7.46L499.25,169Z"/><path class="cls-2" d="M504.8,156.23c-.08.13-.16.26-.23.39l-11.38,28h4l21.36-29.54Z"/><path class="cls-2" d="M546.91,85.83c-1.62-5-4.77-8.67-9.45-10.1l-4.75,11.68Z"/><path class="cls-2" d="M518.05,122.8l9.54-23.47-14.44-16c-4.64,4.46-8.54,10.75-11.84,18-.31.68-.62,1.36-.92,2Z"/><path class="cls-2" d="M497.43,124.25l.09,0a1.17,1.17,0,0,1,.24.09c2.08.89,2.16,5.45,1.11,11.74l4.81,4.89c3.17-4.47,6-7,8.05-5.93a2.07,2.07,0,0,1,.8.78,2.56,2.56,0,0,1,.11.24l5.3-13-17.66-19.41a164.86,164.86,0,0,0-8.11,25.66l.26.26C494,126,495.68,123.86,497.43,124.25Z"/><path class="cls-2" d="M513.53,134.57l22.62-4.3a76.27,76.27,0,0,0,10.52-23.5l-23.35,3.73Z"/><polygon class="cls-2" points="511.55 165.18 497.51 184.59 520.65 184.59 523.25 181.33 511.55 165.18"/><path class="cls-2" d="M521,184.59h21.94a118.33,118.33,0,0,0,11.46-8l-23.77-4.08Z"/><path class="cls-2" d="M523.43,110.23l23.3-3.72c1.87-7.79,2-14.94.26-20.44l-14.39,1.6Z"/><path class="cls-2" d="M543.71,156,570.2,161a78.56,78.56,0,0,0,11-17.84l-23.62-4.49Z"/><path class="cls-3" d="M527.83,99.22l-.19.16,0,0-9.54,23.47.13.15-.18.16-.06,0-5.3,13,0,0c0,.11.08.22.11.33l.65-1.6-.07,0,0-.25.22,0,9.79-24.07h-.07l0-.25.22,0,9.17-22.56h-.07l0-.25.21,0,4.75-11.68-.25-.07L527.7,99.07Z"/><path class="cls-3" d="M503.75,158l-4.4,10.83.13.09-.14.2-.09,0-6.33,15.57h.27l11.38-28Z"/><path class="cls-3" d="M565.17,129l-.22.13,0-.07-14.18,17.8.09.16-.22.13,0-.08-12.37,15.54.09.13-.2.15-.05-.08-14.62,18.36.1.13-.21.15,0-.08-2.6,3.26H521l9.63-12.1h-.07l0-.25.21,0,12.75-16-.07,0,0-.24.21,0,13.85-17.4-.07,0,0-.24.2,0,12.53-15.74h-.07l0-.25.21,0,7.66-9.61-.2-.15-12.84,16.12Z"/><path class="cls-3" d="M518.82,154.78l0,.25-.27,0-21.36,29.54h.3l14-19.41-.1-.14.21-.14,0,.07,14.23-19.67-.1-.15.2-.14.05.07,9.27-12.81c-.54.6-1.09,1.21-1.64,1.84l-15,20.68Z"/><polygon class="cls-3" points="523.41 181.13 511.71 164.97 511.55 165.18 523.25 181.33 523.41 181.13"/><polygon class="cls-3" points="523.3 181.41 523.5 181.26 523.41 181.13 523.25 181.33 523.3 181.41"/><polygon class="cls-3" points="511.65 164.9 511.45 165.04 511.55 165.18 511.71 164.97 511.65 164.9"/><polygon class="cls-3" points="538.19 162.57 526.09 145.08 525.94 145.3 538.03 162.77 538.19 162.57"/><polygon class="cls-3" points="538.08 162.85 538.28 162.71 538.19 162.57 538.03 162.77 538.08 162.85"/><polygon class="cls-3" points="526.04 145.01 525.84 145.15 525.94 145.3 526.09 145.08 526.04 145.01"/><path class="cls-3" d="M550.73,146.82l-11.19-19-.18.18,11.2,19Z"/><polygon class="cls-3" points="550.82 146.98 550.73 146.82 550.56 147.03 550.6 147.11 550.82 146.98"/><path class="cls-3" d="M565.07,128.81l-8.87-14.54-.22.12L564.91,129Z"/><polygon class="cls-3" points="565.16 128.96 565.07 128.81 564.91 129.02 564.95 129.09 565.16 128.96"/><path class="cls-3" d="M570.27,122.68l14.51,2c0-.09,0-.17,0-.26l-14.29-2Z"/><polygon class="cls-3" points="570.24 122.42 570.2 122.67 570.27 122.68 570.45 122.45 570.24 122.42"/><path class="cls-3" d="M557.56,138.64l23.62,4.49a2.44,2.44,0,0,1,.1-.24l-23.54-4.47Z"/><polygon class="cls-3" points="557.54 138.38 557.49 138.62 557.56 138.64 557.74 138.42 557.54 138.38"/><path class="cls-3" d="M543.53,156.26,570,161.19l.18-.22L543.71,156Z"/><polygon class="cls-3" points="543.5 156 543.46 156.24 543.53 156.26 543.71 156.04 543.5 156"/><path class="cls-3" d="M530.6,172.49l23.77,4.08.26-.21-23.85-4.09Z"/><polygon class="cls-3" points="530.57 172.24 530.53 172.48 530.6 172.49 530.78 172.27 530.57 172.24"/><path class="cls-3" d="M518.57,155.05l.19-.26L505,156l-.16.26Z"/><polygon class="cls-3" points="518.84 155.03 518.82 154.78 518.76 154.79 518.57 155.05 518.84 155.03"/><path class="cls-3" d="M497.43,167.73l1.82,1.29.1-.24-1.78-1.26Z"/><polygon class="cls-3" points="499.33 169.07 499.48 168.87 499.35 168.78 499.25 169.02 499.33 169.07"/><path class="cls-3" d="M498.82,136.42l4.72,4.78.14-.2-4.81-4.89C498.86,136.21,498.84,136.32,498.82,136.42Z"/><path class="cls-3" d="M492.43,129.57l-.26-.26-.07.28.22.23C492.36,129.73,492.39,129.65,492.43,129.57Z"/><path class="cls-3" d="M536.34,130.48l.22-.29-.41.08a3,3,0,0,0-.2.29Z"/><path class="cls-3" d="M513.42,134.84,536,130.56a3,3,0,0,1,.2-.29l-22.62,4.3Z"/><polygon class="cls-3" points="513.31 134.61 513.35 134.86 513.42 134.84 513.53 134.57 513.31 134.61"/><path class="cls-3" d="M517.94,123.06l.11-.26-17.66-19.41c0,.09-.07.17-.11.26Z"/><polygon class="cls-3" points="518 123.11 518.18 122.95 518.05 122.8 517.94 123.06 518 123.11"/><path class="cls-3" d="M523.32,110.5l23.35-3.73.06-.26-23.3,3.72Z"/><polygon class="cls-3" points="523.21 110.26 523.25 110.51 523.32 110.5 523.43 110.23 523.21 110.26"/><path class="cls-3" d="M527.7,99.07l-14.37-16-.18.18,14.44,16Z"/><polygon class="cls-3" points="527.83 99.22 527.7 99.07 527.59 99.33 527.64 99.38 527.83 99.22"/><path class="cls-4" d="M512.53,135.85a2.07,2.07,0,0,0-.8-.78c-2-1.09-4.88,1.46-8.05,5.93l-.14.2c-3.65,5.2-7.69,12.89-11.3,20.44a207.09,207.09,0,0,0,6.58-25.22c0-.1,0-.21.05-.31,1.05-6.29,1-10.85-1.11-11.74L481.6,184.59h.23Z"/><path class="cls-4" d="M497.52,124.28l-.09,0c-1.75-.39-3.43,1.7-5,5.32,0,.08-.07.16-.11.25-.21.5-.42,1-.63,1.57-2.23,5.91-4.22,14.72-5.87,23.61l0,.15V155c.83-7.55,1.29-14.84.8-19.9,0-.21,0-.41-.07-.61-.43-3.78-1.44-6.17-3.29-6.25h-.07l-2,56.3h.19Zm-10.91,35.8c0-.09,0-.18,0-.28C486.63,159.9,486.62,160,486.61,160.08Z"/><path class="cls-4" d="M477.38,162.72c0,.26,0,.52,0,.78.06,3.77.17,7.42.31,10.68.18,4.38.39,8,.54,10.41h2.66l2-56.29a2.15,2.15,0,0,0-.8.26c-1,.55-1.82,2-2.47,4C477.62,138.87,477.23,151.29,477.38,162.72Z"/><path class="cls-4" d="M497.57,167.52c2.1-3.12,4.22-6.38,6.18-9.57l.82-1.33c.07-.13.15-.26.23-.39L505,156c5.07-8.47,8.78-16.22,7.81-19.53,0-.11-.07-.22-.11-.33l-30.54,48.48h3.34c2.53-3.41,7.19-9.78,12-16.86Z"/><path class="cls-3" d="M483.18,128.29h-.25l-2,56.29h.25Z"/><path class="cls-3" d="M497.76,124.37a1.17,1.17,0,0,0-.24-.09l-16.18,60.31h.26Z"/><path class="cls-3" d="M512.66,136.11l0,0a2.56,2.56,0,0,0-.11-.24l-30.7,48.74h.29Z"/><polygon class="cls-3" points="103.19 179.77 103.25 179.71 103.14 179.46 103.01 179.6 103.19 179.77"/><path class="cls-5" d="M486.65,159.8c0,.1,0,.19,0,.28"/><path class="cls-5" d="M513.15,83.29l.18-.18"/><path class="cls-3" d="M532.6,87.67,547,86.07a2.25,2.25,0,0,1-.08-.24l-14.2,1.58Z"/><polygon class="cls-3" points="532.5 87.43 532.53 87.68 532.6 87.67 532.71 87.41 532.5 87.43"/><path class="cls-6" d="M468.57,2c-1.63-2.74-3.58-2.24-3.13-.66s1,4.85,1,4.85S464.8,3,464.29,3.7c-.58.83,2.43,5.62,2.43,5.62h2.79S470.19,4.68,468.57,2Z"/><path class="cls-6" d="M333.39,62.63a2.26,2.26,0,0,1,.14-4c-1,.38-2,1.44-2.24,4.19a5.17,5.17,0,0,0,.47,2.65,33.67,33.67,0,0,1,2.6-2.32Z"/><path class="cls-7" d="M254.22,153.1l3.41,31.49h13l.11-33A120.1,120.1,0,0,1,254.22,153.1Z"/><path class="cls-7" d="M231.79,151.35l-2,33.24H244l5.8-31.5A118.7,118.7,0,0,1,231.79,151.35Z"/><path class="cls-8" d="M251.72,60.39a25.21,25.21,0,0,1,6.57.87v-2.7a7.79,7.79,0,0,1-1.47.16,45.32,45.32,0,0,1-10-1.21v3.58A15.34,15.34,0,0,1,251.72,60.39Z"/><path class="cls-9" d="M184.82,129.46l-2.94,55.13h17.37l6.91-36.45,4.44,36.45h16.87l.31-55.21A66.2,66.2,0,0,1,184.82,129.46Z"/><path class="cls-10" d="M197.75,57.73a16.75,16.75,0,0,1,1.92-.27A9.66,9.66,0,0,0,197.75,57.73Z"/><path class="cls-10" d="M201.21,90.84a12,12,0,0,1-6,1.06c-3.16-.38-3.49-2.37-1.86-2.59s4.83-1,4.83-1-3.5-.24-3.1-1c.53-.88,6.13-.06,6.13-.06s5.4-.65,13.56-5.36a10,10,0,0,1-2.18-.07A58.81,58.81,0,0,1,187,87.55l-3.22,41.59,1,.32a66.2,66.2,0,0,0,43-.08l.73-.24-1.79-42.08a83.71,83.71,0,0,1-25.46,8.41Z"/><path class="cls-10" d="M211.29,79.4s4.48-3.46,5.36-3c.71.45-2.22,2.37-2.22,2.37s3.2-.84,4.73-1.45c.8-.32,1.37.06,1.35.76q1.8-1.29,3.69-2.83c.12-.11.24-.2.37-.3-1.85-.67-2.88-1.15-2.88-1.15l-8.64-15.13c-.26,1.81-1.46,4.52-6.35,4.52-4.47,0-5.9-2.16-6.33-3.84l-6.62,16.15a49.82,49.82,0,0,1-4.45,2.62C203.18,82.37,211.29,79.4,211.29,79.4Z"/><path class="cls-8" d="M206.7,61.61c5,0,5.49-4,5.54-4.69V53.7a8.26,8.26,0,0,1-11.07-.24V57S201.17,61.61,206.7,61.61Z"/><path class="cls-4" d="M450.27,67.63c.66.51-2.44,2.14-2.44,2.14s2.25-.37,3.92-.75l-4.06-6.94c-.9,3.69-2.91,6.27-7.24,7-4.86.89-6.91-4.63-10.11-7.76l-2.25,8c10.24,2.62,16.56.72,16.56.72S449.44,67.05,450.27,67.63Z"/><path class="cls-4" d="M453,71.18a6.52,6.52,0,0,1-1,.73c-2.74,1.62-6.33.66-6.33.66s-7.53,4.42-20.05,4.29a60.52,60.52,0,0,1-5.35,3.85l-2.51,43.86a61.55,61.55,0,0,0,42.72,0L459.71,99l-.6-19.17a49.3,49.3,0,0,0-.87-10q-1.44,2.48-3.07,5.06Z"/><path class="cls-7" d="M460.46,130.92v-1.33l0-5a61.55,61.55,0,0,1-42.72,0l-3.2,60h17.06l7.82-42.47,4.6,42.47h16.11l.15-27Z"/><path class="cls-8" d="M441.2,57.67a33,33,0,0,0,3.73-2.13V53.08a9.49,9.49,0,0,1-11.06.19v3C437.61,57.26,438.51,58.86,441.2,57.67Z"/><path class="cls-11" d="M360.07,114.26l0,0v0Z"/><path class="cls-11" d="M327.58,114.27h0l.3-1C327.79,113.6,327.68,113.94,327.58,114.27Z"/><path class="cls-11" d="M351.64,69.7a64.28,64.28,0,0,1-16.77-6.24l1.25,8.37a33.87,33.87,0,0,0,19.66,4.31c-1-.66-2-1.36-3-2.13Z"/><path class="cls-11" d="M328.56,87.15c1.21,6.91,3.29,12.79-.59,25.87v0a61.42,61.42,0,0,0,6.75,1.26l.62.08a68.41,68.41,0,0,0,17,.17l.45-.06a45.69,45.69,0,0,0,6.93-1.45l0,.09c-1.38-5.1-2-13.17,1.44-24.63a40.5,40.5,0,0,0,1.58-7.69c-2.44,1.74-11.14,6.91-24.83,3.94a59.52,59.52,0,0,1-5.75-1.54A53.47,53.47,0,0,1,328.56,87.15Z"/><path class="cls-8" d="M349.34,60.94l0-.07.26.07h.68v-5.7l0,0a10.18,10.18,0,0,1-5.58,1.66h-.28a10.22,10.22,0,0,1-5.61-1.68v4.42A41.48,41.48,0,0,0,349.34,60.94Z"/><path class="cls-6" d="M344.5,56.92h0Z"/><path class="cls-6" d="M159.92,173.86l1.16,10.73h12.66l0-12A123.19,123.19,0,0,1,159.92,173.86Z"/><path class="cls-6" d="M136,172.91l-.69,11.68h13.83L151.1,174A102.47,102.47,0,0,1,136,172.91Z"/><path class="cls-7" d="M143.09,107.86h0c16.61,3.26,27,0,27,0h0a55.26,55.26,0,0,1,2.22-11,32.2,32.2,0,0,0,1.56-11.33c-.76-.23-1.52-.5-2.28-.79A61.57,61.57,0,0,1,165,85.84a27.28,27.28,0,0,1-19.31-4.73l-3.9,6.71L141,87c0,.1,0,.2,0,.3C140.55,95.49,143.25,99.94,143.09,107.86Z"/><path class="cls-6" d="M368.33,150.44l-2.08,34.15h14.63L387,152.17C380,152.18,373.09,151.71,368.33,150.44Z"/><path class="cls-6" d="M391.36,152.11,395,184.59h13.4l.11-33.86A147.74,147.74,0,0,1,391.36,152.11Z"/><path class="cls-3" d="M373,72.65c.78.46,1.54.9,2.29,1.3V69.27c-.57.16-1.14.31-1.7.44a21.17,21.17,0,0,0-.5,2.33Z"/><path class="cls-3" d="M405.8,73.28l.18-.17c-.8-.29-1.61-.6-2.43-.94v3.35A31.65,31.65,0,0,0,405.8,73.28Z"/><path class="cls-3" d="M374.38,83.86l-.89-.34-.52.19c.35,2.46.86,4.73,1.27,7.1a76.26,76.26,0,0,0,31.53.09h0c.26-1.08.56-2.19.89-3.33A64.39,64.39,0,0,1,398.61,90C382.34,93.71,374.38,83.86,374.38,83.86Z"/><path class="cls-12" d="M291.83,53.86a9.73,9.73,0,0,0-2.73.57,16.35,16.35,0,0,1,2.71-.55Z"/><path class="cls-12" d="M303.44,85.51s5.21-2.21,5.94-1.5c.57.61-2.75,1.73-2.75,1.73s3.31,0,4.94-.21,1.82,1.81-1.14,3-7,.44-7,.44v4.91a74.76,74.76,0,0,1-24.27-6.56l-2,35a77.31,77.31,0,0,0,43.56,0l-.86-28.05A64.42,64.42,0,0,1,300.56,103L299,98.1l.86,2.58s-2.1,3.08-5.23,3.64-4-1.25-2.54-1.93,4.31-2.43,4.31-2.43-3.41.8-3.24,0c.24-1,5.84-1.84,5.84-1.84s10.2-2.61,19.81-16.65l.68-1-.09-2.94a61.24,61.24,0,0,1-9-6.05l-4.57-14.8c-.88,1.6-2.7,3.26-6.52,3.26-5,0-6.59-2.71-7.14-4.51l-5.35,17a52,52,0,0,1-5.18,3.73C294.18,86,303.44,85.51,303.44,85.51Z"/><path class="cls-2" d="M277.17,122.29l-3.32,62.3H291.1l8.18-44.41,4.81,44.41h16.3l.34-62.3A77.31,77.31,0,0,1,277.17,122.29Z"/><path class="cls-8" d="M299.22,57.93c5.31,0,5.64-5.43,5.64-5.43V50H293.58v2.75S293.91,57.93,299.22,57.93Z"/><path class="cls-3" d="M240.39,65.09a13.66,13.66,0,0,1,3.51-2.78,49.36,49.36,0,0,0-4.5,2.29l.81.42Z"/><path class="cls-3" d="M220.51,78.12a3.47,3.47,0,0,1-1.71,2.41,7.71,7.71,0,0,1-4.06,1.34c-8.16,4.71-13.56,5.36-13.56,5.36l.08,3.58,0,0,0,4.63a83.71,83.71,0,0,0,25.46-8.41,72.42,72.42,0,0,0,8.48-5.17A17.39,17.39,0,0,1,233,80.28l.85-2s-3.6,1-6.33-.67a3.48,3.48,0,0,1-1.94-2.23l-1-.34c-.13.1-.25.19-.37.3Q222.31,76.83,220.51,78.12Z"/><path class="cls-7" d="M133.49,72.38c1.58.46,4.84,1,4.84,1s-3.1-1.63-2.44-2.14c.84-.59,5.63,2.42,5.63,2.42a19.11,19.11,0,0,0,2.4.92c-.82-2.38-1.53-4.79-4-6.51-3.22-2.27-2.39-5.27-.47-8.89-3.93-6.7-7.66-16.31-8.81-29.54H128S125.71,53,132.77,72.35A1.38,1.38,0,0,1,133.49,72.38Z"/><path class="cls-7" d="M141.74,87.82l3.9-6.71a22.4,22.4,0,0,1-5.16-4.94s-3.6,1-6.34-.67l-.18-.12A44,44,0,0,0,141,87Z"/><path class="cls-7" d="M170,72.3l-2-.4c0,.47-.11.94-.18,1.4C168.6,73,169.31,72.66,170,72.3Z"/><path class="cls-7" d="M212.56,81.8l-1.27-2.4s-8.11,3-22-1.24a71.85,71.85,0,0,1-17.67,6.55c.76.29,1.52.56,2.28.79a45.34,45.34,0,0,0,13.13,2A58.81,58.81,0,0,0,212.56,81.8Z"/><path class="cls-3" d="M237.65,102l.08-.81a37.27,37.27,0,0,1-1.86,8.44,127.85,127.85,0,0,0-6.62,41.27l2.54.46a118.7,118.7,0,0,0,18.05,1.74c1.46,0,2.92,0,4.38,0a120.1,120.1,0,0,0,16.55-1.46c1.43-.23,2.86-.47,4.29-.75,0,0,.64-21.38-5.38-39.11a40.43,40.43,0,0,1-2-9.91V102C250.52,106.35,237.65,102,237.65,102Z"/><path class="cls-3" d="M237.83,100l0-.34s12.78,3.67,29.7,0v.11a35.29,35.29,0,0,1,1.31-10.24c.1-.37.21-.74.32-1.12a43,43,0,0,0,1.36-5.92l-.53-.35a64.75,64.75,0,0,1-10.89,3.43A32,32,0,0,1,236,82.37,67.1,67.1,0,0,0,237.31,91,35.45,35.45,0,0,1,237.83,100Z"/><path class="cls-3" d="M240.39,65.09A36.89,36.89,0,0,0,260.7,67.8L259.89,62a33.79,33.79,0,0,1,4.53,2.17,19.08,19.08,0,0,0-6.13-2.86,25.21,25.21,0,0,0-6.57-.87,15.34,15.34,0,0,0-4.94.7,15.12,15.12,0,0,0-2.88,1.22A13.66,13.66,0,0,0,240.39,65.09Z"/><path class="cls-3" d="M279.17,87.3a74.76,74.76,0,0,0,24.27,6.56V85.51s-9.26.51-21.89-9.38a73.14,73.14,0,0,1-11.53,6l.53.35A64.52,64.52,0,0,0,279.17,87.3Z"/><path class="cls-3" d="M260.7,67.8A34.65,34.65,0,0,0,267.62,66c-1.2-.74-2.27-1.36-3.2-1.87A33.79,33.79,0,0,0,259.89,62Z"/><path class="cls-10" d="M153.9,82.46c-7.36-1-8.78-4.42-10-7.89a19.11,19.11,0,0,1-2.4-.92l-1,2.52a22.4,22.4,0,0,0,5.16,4.94A27.28,27.28,0,0,0,165,85.84a61.57,61.57,0,0,0,6.68-1.13,71.85,71.85,0,0,0,17.67-6.55,49.82,49.82,0,0,0,4.45-2.62l6.62-16.15a5.61,5.61,0,0,1-.16-2h0l-.56,0a16.75,16.75,0,0,0-1.92.27c-4.21.78-12.26,3.45-23.76,12.3a38.4,38.4,0,0,1-4,2.27c-.72.36-1.43.7-2.14,1C167,79,163.78,83.85,153.9,82.46Z"/><path class="cls-11" d="M366,80.88c1.63.2,4.94.21,4.94.21s-3.33-1.12-2.75-1.73c.73-.7,5.94,1.51,5.94,1.51l.93.31s10.71,4.15,21.73-1.09a54.53,54.53,0,0,1-21.48-1.42V74c-.75-.4-1.51-.84-2.29-1.3-.54-.32-1.09-.65-1.64-1l-1.89-1.18a51,51,0,0,1-17.84-.77L352.78,74c1,.77,2,1.47,3,2.13a26,26,0,0,0,6.39-1.27s5.21-2.22,5.94-1.51c.57.61-2.75,1.73-2.75,1.73s3.31,0,4.94-.21,1.82,1.81-1.14,3-6.36-.35-6.36-.35l.64,2.7c.63.26,1.26.51,1.89.74A1.37,1.37,0,0,1,366,80.88Z"/><path class="cls-11" d="M349.34,60.94h.24l-.26-.07Z"/><path class="cls-10" d="M213.05,58.71l8.64,15.13s1,.48,2.88,1.15l1,.34c-.08-.7.45-1.13,1.28-.89,1.58.46,4.85,1,4.85,1s-3.11-1.63-2.45-2.14c.84-.59,5.63,2.43,5.63,2.43S250.66,81.79,266.5,69c2.23-2.11,4.34-3.92,6.32-5.49v0A26.21,26.21,0,0,1,267.62,66a34.65,34.65,0,0,1-6.92,1.81,36.89,36.89,0,0,1-20.31-2.71l-.18-.07-.81-.42c-15.6-8-23.81-7.84-26.31-7.49A6,6,0,0,1,213.05,58.71Z"/><path class="cls-11" d="M330.54,68a38.52,38.52,0,0,0,5.58,3.79l-1.25-8.37-.51-.28a33.67,33.67,0,0,0-2.6,2.32c-.56.54-1.19,1.18-1.9,1.92Z"/><path class="cls-11" d="M318.76,81.45C309.15,95.49,299,98.1,299,98.1l1.61,4.87a64.42,64.42,0,0,0,19.31-8.73,56.21,56.21,0,0,0,8.69-7.09,53.47,53.47,0,0,0,3.6-4,70.37,70.37,0,0,1-11.25-4.75c-.48.66-1,1.36-1.47,2.08Z"/><path class="cls-12" d="M305.74,56.69l4.57,14.8a61.24,61.24,0,0,0,9,6.05l1.56.86a70.37,70.37,0,0,0,11.25,4.75,59.52,59.52,0,0,0,5.75,1.54c13.69,3,22.39-2.2,24.83-3.94.46-.33.7-.54.7-.54h0l-.64-2.7h0l-.63-2.64a26,26,0,0,1-6.39,1.27,33.87,33.87,0,0,1-19.66-4.31A38.52,38.52,0,0,1,330.54,68l-.68-.62c-11.75-10.94-19.92-13.24-23.31-13.7h0A6.79,6.79,0,0,1,305.74,56.69Z"/><path class="cls-12" d="M266.5,69c-15.84,12.84-31.63,6.77-31.63,6.77l-1,2.51h0l-.85,2a17.39,17.39,0,0,0,2.22,1.61l.8.48a32,32,0,0,0,23.13,3.23A64.75,64.75,0,0,0,270,82.17a73.14,73.14,0,0,0,11.53-6,52,52,0,0,0,5.18-3.73l5.35-17a6,6,0,0,1-.27-1.56h0a16.35,16.35,0,0,0-2.71.55c-3.33.91-8.92,3.23-16.28,9C270.84,65,268.73,66.84,266.5,69Z"/><path class="cls-4" d="M428.09,69.34l2.25-8a6,6,0,0,0-5-2,49.06,49.06,0,0,0-9.39,5.4c1,.42,2,.86,3.05,1.34A54.83,54.83,0,0,0,428.09,69.34Z"/><path class="cls-4" d="M375.05,81.18l-.67,2.68s8,9.85,24.23,6.14a64.39,64.39,0,0,0,8.05-2.42,72.63,72.63,0,0,0,13.63-6.87,60.52,60.52,0,0,0,5.35-3.85A58.85,58.85,0,0,1,406,73.11l-.18.17a31.65,31.65,0,0,1-2.25,2.24v3.15a50.91,50.91,0,0,1-6.77,1.42C385.76,85.33,375.05,81.18,375.05,81.18Z"/><path class="cls-4" d="M447.69,62.08,451.75,69c.34-.08.66-.16.92-.24,1.35-.39,1.91,1,.34,2.4l2.16,3.7q1.63-2.58,3.07-5.06c22.57-38.74,11.27-59.54,11.27-59.54H466.7c-2.26,26-12.79,39.08-18.33,44.29A33,33,0,0,1,447.69,62.08Z"/><path class="cls-3" d="M403.55,72.17c.82.34,1.63.65,2.43.94a58.85,58.85,0,0,0,19.66,3.75c12.52.13,20.05-4.29,20.05-4.29l-1-2.51s-6.32,1.9-16.56-.72A54.83,54.83,0,0,1,419,66.1c-1.05-.48-2.07-.92-3.05-1.34a109.59,109.59,0,0,0-12.35-4.52Z"/><path class="cls-3" d="M332.5,59.71a2.26,2.26,0,0,0,.89,2.92l1,.55.51.28a64.28,64.28,0,0,0,16.77,6.24,51,51,0,0,0,17.84.77c1.36-.19,2.73-.44,4.12-.76.56-.13,1.13-.28,1.7-.44v-11a106,106,0,0,0-16,1.78,56.28,56.28,0,0,1-9,.92h-.92a41.48,41.48,0,0,1-10.59-1.28,27.2,27.2,0,0,1-3.39-1.1,2.24,2.24,0,0,0-1.83.1A2.28,2.28,0,0,0,332.5,59.71Z"/><path class="cls-13" d="M140,68.06c2.44,1.72,3.15,4.13,4,6.51,1.2,3.47,2.62,6.86,10,7.89,9.88,1.39,13.09-3.49,14-9.16.07-.46.13-.93.18-1.4.09-1,.13-2,.13-3,0-7.18,5.57-5.22,3.34-14.2S162.12,40,156.61,40A12.8,12.8,0,0,0,145,48.54c-1.4,4-3.87,7.51-5.53,10.63C137.56,62.79,136.73,65.79,140,68.06Z"/><path class="cls-7" d="M212.24,53.7c3.5-2.78,5.86-8.34,5.14-16.11-1.07-11.43-10.94-10.08-10.94-10.08s-8.35-.21-10.48,9.64a16.81,16.81,0,0,0,5.21,16.31,8.26,8.26,0,0,0,11.07.24Z"/><path class="cls-13" d="M344.64,56.92a10.18,10.18,0,0,0,5.58-1.66l0,0c4-2.78,5-8.12,5.59-12.29,1.57-11.59-7.76-14.63-7.76-14.63,5.63-6-7.77-7.72-8.79-3.17-.1.45.66,3.4,1.36,3.17,0,0-9.33,3.05-7.75,14.63.55,4.06,1.69,8.91,5.25,11.86a6.46,6.46,0,0,0,.59.44,10.22,10.22,0,0,0,5.61,1.68Z"/><path class="cls-7" d="M375.3,69.27v9.4a54.53,54.53,0,0,0,21.48,1.42,50.91,50.91,0,0,0,6.77-1.42V45.58a39.11,39.11,0,0,0-.93-8.09c-3.27-14.82-24.33-14.07-26.8.9a42.24,42.24,0,0,0-.52,6.84v24Z"/><path class="cls-9" d="M444.93,53.08a6.74,6.74,0,0,0,2.15-3c1.61-4.38,5.3-4.59,6.27-11.23s-4.12-7.65-6.27-11.85c-2.57-5-13-5.06-15.62,0-2.16,4.2-7.24,5.2-6.27,11.85s4.66,6.85,6.27,11.23a6.86,6.86,0,0,0,2.41,3.17A9.49,9.49,0,0,0,444.93,53.08Z"/><path class="cls-6" d="M130.73,23.5c-.73-.41-1,3.08-1,3.08s-.77-3.21-1-4.85-2.18-1.33-2.62,1.82S128,29.64,128,29.64h2.72S131.59,24,130.73,23.5Z"/><path class="cls-6" d="M140.48,76.17l1-2.52s-4.79-3-5.63-2.42c-.66.51,2.44,2.14,2.44,2.14s-3.26-.53-4.84-1a1.38,1.38,0,0,0-.72,0c-.91.25-.87,1.72,1.19,3l.18.12C136.88,77.13,140.48,76.17,140.48,76.17Z"/><path class="cls-6" d="M195.05,87.29c-.4.73,3.1,1,3.1,1s-3.2.83-4.83,1-1.3,2.21,1.86,2.59a12,12,0,0,0,6-1.06l0,0-.08-3.58S195.58,86.41,195.05,87.29Z"/><path class="cls-6" d="M214.74,81.87a7.71,7.71,0,0,0,4.06-1.34,3.47,3.47,0,0,0,1.71-2.41c0-.7-.55-1.08-1.35-.76-1.53.61-4.73,1.45-4.73,1.45s2.93-1.92,2.22-2.37c-.88-.5-5.36,3-5.36,3l1.27,2.4A10,10,0,0,0,214.74,81.87Z"/><path class="cls-6" d="M227.5,77.56c2.73,1.63,6.33.67,6.33.67h0l1-2.51s-4.79-3-5.63-2.43c-.66.51,2.45,2.14,2.45,2.14s-3.27-.53-4.85-1c-.83-.24-1.36.19-1.28.89A3.48,3.48,0,0,0,227.5,77.56Z"/><path class="cls-6" d="M293.11,99.94c-.17.82,3.24,0,3.24,0s-2.81,1.74-4.31,2.43-.59,2.49,2.54,1.93,5.23-3.64,5.23-3.64L299,98.1S293.35,99,293.11,99.94Z"/><path class="cls-6" d="M310.43,88.51c3-1.17,2.77-3.18,1.14-3s-4.94.21-4.94.21S310,84.62,309.38,84c-.73-.71-5.94,1.5-5.94,1.5V89S307.47,89.68,310.43,88.51Z"/><path class="cls-6" d="M369.16,77.86c3-1.17,2.77-3.18,1.14-3s-4.94.21-4.94.21,3.32-1.12,2.75-1.73c-.73-.71-5.94,1.51-5.94,1.51l.63,2.64h0S366.2,79,369.16,77.86Z"/><path class="cls-6" d="M374.12,80.87s-5.21-2.21-5.94-1.51c-.58.61,2.75,1.73,2.75,1.73s-3.31,0-4.94-.21a1.37,1.37,0,0,0-.66.07c-.95.36-.69,1.93,1.8,2.91a8.8,8.8,0,0,0,5.84-.15l.52-.19Z"/><path class="cls-6" d="M452,71.91a6.52,6.52,0,0,0,1-.73c1.57-1.42,1-2.79-.34-2.4-.26.08-.58.16-.92.24-1.67.38-3.92.75-3.92.75s3.1-1.63,2.44-2.14c-.83-.58-5.62,2.43-5.62,2.43l1,2.51S449.28,73.53,452,71.91Z"/><path class="cls-13" d="M136,172.91A102.47,102.47,0,0,0,151.1,174c3,0,5.94,0,8.82-.13a123.19,123.19,0,0,0,13.86-1.25c.82-.14,1.56-.28,2.23-.42,0-42.75-8-63.6-8.12-63.81l.25,0c.08.21,8.16,21,8.16,63.79a12.27,12.27,0,0,0,2.6-.83s1.21-46.59-8.77-63.43h0s-10.43,3.26-27,0h0a172.08,172.08,0,0,0-12.71,53.83c-.21,3.14-.33,6.34-.33,9.6A24.26,24.26,0,0,0,136,172.91Z"/><path class="cls-13" d="M364.2,137.79c1.49-11.93-.5-18.18-4.13-23.53h0a25.57,25.57,0,0,1-7.09,1.95v.67h-1.14v-.5a58.5,58.5,0,0,1-7.81.5,59.63,59.63,0,0,1-8.15-.54v.72l-1.25-.29v-.62a28.37,28.37,0,0,1-7-1.89h0c-.12.17-5,7.31-4.18,23.1a223.27,223.27,0,0,1-.29,24.81l-1.33,22.41H336l8.56-46.46,5,46.46h13.1l.1-22.92A202.68,202.68,0,0,1,364.2,137.79Z"/><path class="cls-13" d="M374.24,90.81h0A237.32,237.32,0,0,0,366.82,150c.47.16,1,.31,1.51.45,4.76,1.27,11.67,1.74,18.68,1.73,1.45,0,2.91,0,4.35-.06a147.74,147.74,0,0,0,17.12-1.38,30.55,30.55,0,0,0,3.67-.74s-.55-43.24-6.38-59.08h0A76.26,76.26,0,0,1,374.24,90.81Z"/><path class="cls-4" d="M200.37,59.39c.43,1.68,1.86,3.84,6.33,3.84,4.89,0,6.09-2.71,6.35-4.52a6,6,0,0,0,0-1.6h0l-.85-.32v.13c-.05.73-.51,4.69-5.54,4.69-5.53,0-5.53-4.63-5.53-4.63l-.94.44h0A5.61,5.61,0,0,0,200.37,59.39Z"/><path class="cls-3" d="M291.81,53.88a6,6,0,0,0,.27,1.56c.55,1.8,2.19,4.51,7.14,4.51,3.82,0,5.64-1.66,6.52-3.26a6.79,6.79,0,0,0,.81-3h0l-1.69-1.22s-.33,5.43-5.64,5.43-5.64-5.22-5.64-5.22l-1.75,1.15,0,0Z"/><path class="cls-13" d="M237.86,99.69l0,.34-.1,1.15-.08.81s12.87,4.36,30,0v-.12l-.09-2.07v-.11C250.64,103.36,237.86,99.69,237.86,99.69Z"/><path class="cls-3" d="M334.62,114.23h.11A61.42,61.42,0,0,1,328,113v0l-.08.26-.3,1a28.37,28.37,0,0,0,7,1.89Z"/><path class="cls-3" d="M352.76,114.43l.21,0v1.8a25.57,25.57,0,0,0,7.09-1.95v0l-.33-1.15,0-.09A45.69,45.69,0,0,1,352.76,114.43Z"/><path class="cls-3" d="M351.83,114.55l.48-.06a68.41,68.41,0,0,1-17-.17l.52.07v2a59.63,59.63,0,0,0,8.15.54,58.5,58.5,0,0,0,7.81-.5Z"/><polygon class="cls-13" points="335.87 114.39 335.35 114.32 334.73 114.24 334.62 114.23 334.62 116.15 334.62 116.77 335.87 117.06 335.87 116.34 335.87 114.39"/><polygon class="cls-13" points="352.96 114.41 352.76 114.44 352.31 114.49 351.82 114.55 351.82 116.38 351.82 116.88 352.96 116.88 352.96 116.21 352.96 114.41"/><path class="cls-3" d="M168.14,108.33l-.25,0c.08.21,8.12,21.06,8.12,63.81h0l.29-.06h0C176.3,129.33,168.22,108.54,168.14,108.33Z"/><path class="cls-13" d="M258.29,58.56c10.13-2,12.55-24.24-.54-28.85a12.81,12.81,0,0,0-10.06.87,15.88,15.88,0,0,0-4.91,3.85v0a41.37,41.37,0,0,0-4.1,5.71c-1.25,2.37-8.74,9.18-7.65,15.66a10.59,10.59,0,0,1,2-5.08c-.72,1.72-.74,3.63.61,6.23,2-3,6.39-.94,13.12.59a45.32,45.32,0,0,0,10,1.21A7.79,7.79,0,0,0,258.29,58.56Z"/><path class="cls-9" d="M304.86,50h4.46s.09-.83.32-4.5l.68,4.5V30.78c0-3.39-2.71-5.34-5.46-6.44A13.25,13.25,0,0,0,293,25a9.12,9.12,0,0,0-4.38,6.25h0v.11a11.44,11.44,0,0,0-.19,2c0,1.82,0,3.55.11,5.15L288.42,50l.65-2.27V50h15.79Z"/><path class="cls-12" d="M430.34,61.37c3.2,3.13,5.25,8.65,10.11,7.76,4.33-.78,6.34-3.36,7.24-7a33,33,0,0,0,.68-7.51V54.4a6.42,6.42,0,0,0-3.44,1.14,33,33,0,0,1-3.73,2.13c-2.69,1.19-3.59-.41-7.33-1.41-.44-.12-.92-.23-1.45-.32a6.64,6.64,0,0,0-7.13,3.42h0A6,6,0,0,1,430.34,61.37Z"/><polygon class="cls-12" points="373.49 83.52 374.38 83.86 375.05 81.18 374.12 80.87 373.49 83.52"/><path class="cls-12" d="M469.51,9.32H466.7v1h2.81Z"/><path class="cls-14" d="M0,159.16v31.18H596.25V159.16C335,192.62,194.33,126.42,0,159.16Z"/></g></g></svg>