<svg xmlns="http://www.w3.org/2000/svg" viewBox="0 0 176.94 45.03"><defs><style>.cls-1{fill:#fff;}</style></defs><g id="Layer_2" data-name="Layer 2"><g id="OBJECTS"><path class="cls-1" d="M175.75,41.59c-17.2-.29-34.41-.08-51.61-.08s-34.41-.06-51.61.15c-4.79.05-9.58.1-14.37.07L1.26,41.5c-1.68,0-1.68,3.52,0,3.51l55.26-.22q6.38,0,12.74,0Q82.18,45,95.07,45c17.2.07,34.41,0,51.61,0,9.69,0,19.38.08,29.07-.08C177.34,44.89,177.34,41.62,175.75,41.59Z"/><path class="cls-1" d="M20.19,14.34c-.06-3.1.12-6.15.22-9.24,0,0,0,0,0-.07h0L14.07,4.9l-3.38-.06c-.6,0-1.22,0-1.84-.08a50.33,50.33,0,0,0-.5,9.11c0,3.2,0,6.39,0,9.59,0,6.09-.15,12.22.19,18.3a1.43,1.43,0,0,0,0,.71h0a1.13,1.13,0,0,0,1.85.89c1.29,0,2.58.08,3.87.1.75,0,1.5,0,2.25,0,.38,0,.76,0,1.13,0a3,3,0,0,0,1.41-.42,1.15,1.15,0,0,0,.54-1,.69.69,0,0,0,.39-.53,58.73,58.73,0,0,0,.47-8.9q0-4.62-.07-9.23C20.38,20.37,20.26,17.35,20.19,14.34Z"/><path class="cls-1" d="M167.52,14.34c-.07-3.1.12-6.15.21-9.24V5h0l-6.34-.12c-1.12,0-2.25,0-3.37-.06-.6,0-1.23,0-1.84-.08a50.33,50.33,0,0,0-.51,9.11c0,3.2,0,6.39,0,9.59,0,6.09-.15,12.22.18,18.3a1.56,1.56,0,0,0,0,.71h0a1.12,1.12,0,0,0,1.84.89c1.3,0,2.59.08,3.88.1.75,0,1.5,0,2.25,0,.38,0,.75,0,1.13,0a2.93,2.93,0,0,0,1.4-.42,1.18,1.18,0,0,0,.55-1,.71.71,0,0,0,.39-.53,58.73,58.73,0,0,0,.47-8.9q0-4.62-.08-9.23C167.7,20.37,167.58,17.35,167.52,14.34Z"/><path class="cls-1" d="M106.32,10.71c0-3.19.07-6.35.14-9.53l-1.73-.06c-1.55-.05-3.1-.17-4.65-.27C99.29.79,98.5.76,97.72.69a93.55,93.55,0,0,0-.3,9.49l0,10.79c0,6.83-.12,13.73.13,20.56a2.69,2.69,0,0,0,0,.8h0c.05,1.27.91,1.6,1.39,1,1,0,1.94.09,2.91.11.56,0,1.13,0,1.69,0a8.1,8.1,0,0,0,.85,0,1.78,1.78,0,0,0,1-.47,1.54,1.54,0,0,0,.41-1.13.76.76,0,0,0,.29-.59,95.1,95.1,0,0,0,.36-10q0-5.19-.06-10.38C106.46,17.49,106.37,14.1,106.32,10.71Z"/><path class="cls-1" d="M27.07,30.5c0-3.81,0-7.63-.11-11.44h-.85l-3.89-.11c-.69,0-1.38-.08-2.08-.16a104.87,104.87,0,0,0-.23,11.49c0,3.86-.16,7.74.05,11.6a1,1,0,0,0,.77.9,2.76,2.76,0,0,0,1.34.39l1.16.11,1.25.07a2.61,2.61,0,0,0,.79,0,1.18,1.18,0,0,0,.81-.57.84.84,0,0,0,.68-.56c.6-1.76.3-3.87.3-5.71C27.06,34.5,27.07,32.5,27.07,30.5Z"/><path class="cls-1" d="M33.61,30.5c0-3.94,0-18.27-.11-22.21a.24.24,0,0,0,0-.08l-1.82,0c-1.6-.06-3.23-.08-4.84-.23a.77.77,0,0,0-.12.35c-.45,3.83-.24,18.13-.25,22s-.15,7.74.05,11.6a1,1,0,0,0,.77.9,2.79,2.79,0,0,0,1.34.39l1.16.11,1.25.07a2.68,2.68,0,0,0,.8,0,1.23,1.23,0,0,0,.81-.57.84.84,0,0,0,.67-.56c.61-1.76.3-3.87.3-5.71Q33.61,33.5,33.61,30.5Z"/><path class="cls-1" d="M138.43,43.72,145.36,42c-.33-1.52-.9-3.07-1.3-4.51-.64-2.32-1.29-4.65-1.94-7-1.28-4.58-6-21.23-7.33-25.79l0-.09L133,5c-1.56.32-3.15.68-4.75.89a1.22,1.22,0,0,0,0,.43c.82,4.56,5.67,21.13,6.92,25.61C136.22,35.85,137.23,39.82,138.43,43.72Z"/><path class="cls-1" d="M73.31,35.26l-.81-5.95C72,25.8,70.38,14,69.59,8.81l-2.32.24c-2.21.24-4.43.6-6.62,1,.47,5.33,2.19,16.68,2.64,20,.53,3.83.91,7.7,1.64,11.51a1,1,0,0,0,.88.81,2.82,2.82,0,0,0,1.38.23c.39,0,.78,0,1.17,0s2.91-.28,3.32-.31a3,3,0,0,0,.79-.09,1.18,1.18,0,0,0,.72-.66.81.81,0,0,0,.59-.63C74.15,39.15,73.55,37.09,73.31,35.26Z"/><path class="cls-1" d="M99.24,30.4c0-3.95,0-18.28-.17-22.22l0-.08-2.8,0c-2.45-.05-5-.08-7.43-.22a.64.64,0,0,0-.19.34c-.68,3.84-.37,18.13-.38,22s-.24,7.74.08,11.59c0,.52.57.81,1.18.9a5.63,5.63,0,0,0,2,.39l1.79.11,1.92.07a7.1,7.1,0,0,0,1.22,0,2.15,2.15,0,0,0,1.25-.57,1.3,1.3,0,0,0,1-.56c.94-1.76.47-3.88.47-5.71C99.23,34.39,99.24,32.39,99.24,30.4Z"/><path class="cls-1" d="M81.79,29.05c1.6-4.37,7.39-20.28,8.89-24.68,0,0,0-.06,0-.09L89,3.67c-1.49-.56-3-1.09-4.48-1.75a1,1,0,0,0-.26.34c-2,4.12-7.58,20-9.14,24.32s-3.29,8.55-4.66,12.88a1,1,0,0,0,.36,1.25,2.38,2.38,0,0,0,1.11.84c.35.16.7.33,1.06.48l1.15.47a2.44,2.44,0,0,0,.75.24,1.33,1.33,0,0,0,1-.38.92.92,0,0,0,.86-.42c1.29-1.76,1.86-4.2,2.6-6.24C80.16,33.49,81,31.27,81.79,29.05Z"/><path class="cls-1" d="M121,18.23c-1.87-1.12-3.7-2.29-5.57-3.42-2,2.63-7.56,13-9.13,15.71S103,36,101.65,38.91a.8.8,0,0,0,.31,1,3.13,3.13,0,0,0,1,.88l1,.6c.35.2,2.56,1.34,2.91,1.54a3.61,3.61,0,0,0,.71.35,1.31,1.31,0,0,0,.94-.05.88.88,0,0,0,.82-.1c1.25-1,1.84-2.66,2.59-4s1.63-2.87,2.45-4.31c1.5-2.66,6.67-11.87,8.58-15.42C122.31,19,121.67,18.62,121,18.23Z"/><path class="cls-1" d="M49,25c0-1.49.05-3,.14-4.45l-3.83-.07c-2.67,0-5.33.05-8,.19a31.87,31.87,0,0,0-.15,4c0,2,0,4.07,0,6.11,0,3.87-.15,7.77.18,11.64a.64.64,0,0,0,0,.45h0c.07.72,1.21.91,1.84.56,1.29,0,2.58.06,3.87.07h3.38a4.31,4.31,0,0,0,1.41-.27.71.71,0,0,0,.54-.64c.2-.06.36-.17.39-.33a23.5,23.5,0,0,0,.47-5.67c0-1.95,0-3.91-.07-5.87S49.11,26.91,49,25Z"/><path class="cls-1" d="M41.32,27.73c0-4.79,0-22.16-.11-26.95L39.9.68C37.47.5,35.05.3,32.62,0a1.08,1.08,0,0,0-.08.19,1.06,1.06,0,0,0-.22.58c-.45,4.65-.24,22-.25,26.68s-.15,9.39,0,14.07a1.09,1.09,0,0,0,.77,1.09,2.34,2.34,0,0,0,1.34.47c.39.05.78.1,1.16.13s2.93.07,3.34.1a3.06,3.06,0,0,0,.8,0,1.29,1.29,0,0,0,.81-.69.91.91,0,0,0,.67-.68c.61-2.14.3-4.7.31-6.93Z"/><path class="cls-1" d="M56.4,43.45a4,4,0,0,1,.68.29c.13.06.26.11.38.18l1.35-.19c1.33-.18,2.65-.31,4-.4a33,33,0,0,1,3.3-.1l1-.37a1.25,1.25,0,0,0,.79-1.21.66.66,0,0,0,0-.37A42.4,42.4,0,0,0,65,33.13c-1.18-2.73-2.37-5.46-3.55-8.2-2.08-4.8-4-9.7-6.34-14.41-1.34.54-2.69,1.06-4,1.59s-2.9,1.1-4.36,1.62c-.81.28-1.62.54-2.45.76l-.06,0a53,53,0,0,0,2.73,7.4q1.71,3.94,3.47,7.86c1.15,2.56,2.37,5.09,3.54,7.65.91,2,1.67,4,2.45,6Z"/><path class="cls-1" d="M159.87,30.5c0-3.94,0-18.27-.18-22.21a.24.24,0,0,0,0-.08l-2.8,0c-2.45-.06-5-.08-7.43-.23a.77.77,0,0,0-.2.35c-.68,3.83-.36,18.13-.37,22s-.24,7.74.08,11.6c0,.51.57.81,1.18.9a6.08,6.08,0,0,0,2.05.39l1.79.11,1.92.07a6.22,6.22,0,0,0,1.22,0,2,2,0,0,0,1.24-.57,1.28,1.28,0,0,0,1-.56c.93-1.76.46-3.87.47-5.71C159.86,34.5,159.87,32.5,159.87,30.5Z"/><path class="cls-1" d="M150.87,28.26c0-4.63,0-21.46-.11-26.08,0,0,0-.06,0-.09L148.92,2c-1.59-.06-3.23-.09-4.83-.26a.86.86,0,0,0-.13.41c-.44,4.5-.24,21.29-.25,25.81s-.15,9.09.06,13.61a1.07,1.07,0,0,0,.76,1.07,2.42,2.42,0,0,0,1.34.45c.39.05.78.1,1.17.13l1.24.09a3.06,3.06,0,0,0,.8,0,1.29,1.29,0,0,0,.81-.67.88.88,0,0,0,.67-.66c.61-2.07.3-4.55.31-6.7Z"/><path class="cls-1" d="M131.61,7.15c-1.45,0-2.89-.09-4.33-.14s-3.09-.14-4.64-.25c-.86-.06-1.71-.15-2.56-.28H120a59.44,59.44,0,0,0-.42,8.34q0,4.55.08,9.1c0,3,.16,5.94.22,8.92s-.12,6.05-.21,9.09V42a1,1,0,0,0,.24.9,2.39,2.39,0,0,0,1.23.63,6.66,6.66,0,0,0,1.41.06c.79,0,1.58-.1,2.36-.15,1.62-.11,3.27.19,4.9.2a1.21,1.21,0,0,0,1.2-.83.72.72,0,0,0,.18-.36,48.23,48.23,0,0,0,.54-9.15c0-3.15,0-6.31,0-9.46C131.72,18.29,131.85,12.7,131.61,7.15Z"/></g></g></svg>