<svg xmlns="http://www.w3.org/2000/svg" xmlns:xlink="http://www.w3.org/1999/xlink" viewBox="0 0 142.41 125.11"><defs><style>.cls-1{isolation:isolate;}.cls-2{fill:#00dac8;}.cls-3{fill:#2259c9;}.cls-4{fill:#28aad6;}.cls-5{opacity:0.2;}.cls-10,.cls-11,.cls-12,.cls-13,.cls-6,.cls-7,.cls-8,.cls-9{mix-blend-mode:multiply;}.cls-6{fill:url(#linear-gradient);}.cls-7{fill:url(#linear-gradient-2);}.cls-8{fill:url(#linear-gradient-3);}.cls-9{fill:url(#linear-gradient-4);}.cls-10{fill:url(#linear-gradient-5);}.cls-11{fill:url(#linear-gradient-6);}.cls-12{fill:url(#linear-gradient-7);}.cls-13{fill:url(#linear-gradient-8);}</style><linearGradient id="linear-gradient" y1="34.68" x2="78.55" y2="34.68" gradientUnits="userSpaceOnUse"><stop offset="0" stop-color="#fff"/><stop offset="0.11" stop-color="#fafafa"/><stop offset="0.23" stop-color="#ececec"/><stop offset="0.36" stop-color="#d5d5d5"/><stop offset="0.5" stop-color="#b5b5b5"/><stop offset="0.64" stop-color="#8c8c8c"/><stop offset="0.79" stop-color="#595959"/><stop offset="0.93" stop-color="#1e1e1e"/><stop offset="1"/></linearGradient><linearGradient id="linear-gradient-2" x1="3755.75" y1="184.92" x2="3755.75" y2="106.62" gradientTransform="translate(-98.32 3790.33) rotate(-90)" xlink:href="#linear-gradient"/><linearGradient id="linear-gradient-3" x1="3755.7" y1="171.58" x2="3755.7" y2="123.67" gradientTransform="translate(-98.32 3790.33) rotate(-90)" xlink:href="#linear-gradient"/><linearGradient id="linear-gradient-4" x1="13.95" y1="34.65" x2="50.46" y2="34.65" xlink:href="#linear-gradient"/><linearGradient id="linear-gradient-5" x1="3755.65" y1="248.46" x2="3755.65" y2="169.65" gradientTransform="translate(-98.32 3790.33) rotate(-90)" xlink:href="#linear-gradient"/><linearGradient id="linear-gradient-6" x1="53.83" y1="34.64" x2="132.38" y2="34.64" xlink:href="#linear-gradient"/><linearGradient id="linear-gradient-7" x1="3755.7" y1="168.62" x2="3755.7" y2="214.25" gradientTransform="translate(-98.32 3790.33) rotate(-90)" xlink:href="#linear-gradient"/><linearGradient id="linear-gradient-8" x1="81.91" y1="34.65" x2="118.43" y2="34.65" xlink:href="#linear-gradient"/></defs><g class="cls-1"><g id="Layer_2" data-name="Layer 2"><g id="Object"><path class="cls-2" d="M78.55,38.15A4,4,0,0,1,77.39,41L59.17,59.18a34.66,34.66,0,1,1,0-49,4,4,0,1,1-5.63,5.62,26.71,26.71,0,1,0,0,37.77L71.77,35.34a4,4,0,0,1,6.78,2.81Z"/><path class="cls-3" d="M50.46,22.84a4,4,0,0,1-6.78,2.82,12.75,12.75,0,1,0,0,18,4,4,0,0,1,5.62,5.62A20.71,20.71,0,1,1,49.3,20,4,4,0,0,1,50.46,22.84Z"/><path class="cls-3" d="M132.38,34.68a34.66,34.66,0,0,1-59.17,24.5,4,4,0,0,1,5.62-5.62,26.71,26.71,0,1,0,0-37.77L60.61,34A4,4,0,1,1,55,28.39L73.21,10.17a34.66,34.66,0,0,1,59.17,24.51Z"/><path class="cls-4" d="M118.43,34.68A20.71,20.71,0,0,1,83.08,49.32,4,4,0,0,1,88.7,43.7a12.76,12.76,0,1,0,0-18A4,4,0,0,1,83.08,20a20.71,20.71,0,0,1,35.35,14.65Z"/><g class="cls-5"><path class="cls-6" d="M77.39,41a4,4,0,0,0,1.16-2.68,14.47,14.47,0,0,0-8.2,4.09L56.63,56.11c-12,12-31.45,12.31-43.5.43A30.69,30.69,0,0,1,53,10.06a14.6,14.6,0,0,0,7.35,2.87,4,4,0,0,0-1.16-2.75,34.66,34.66,0,1,0,0,49Z"/><path class="cls-7" d="M13,12.94a30.68,30.68,0,0,0,.17,43.56c12,11.87,31.53,11.52,43.5-.44L70.35,42.34a14.47,14.47,0,0,1,8.2-4.09v-.13a4,4,0,0,0-6.78-2.81L53.55,53.53a26.72,26.72,0,1,1,0-37.77,4,4,0,0,0,6.79-2.88A14.51,14.51,0,0,1,53,10,30.69,30.69,0,0,0,13,12.94Z"/></g><g class="cls-5"><path class="cls-8" d="M22,23.67a16.73,16.73,0,0,0,21.75,25,13.88,13.88,0,0,1,6.69-2.17,4,4,0,0,0-6.78-2.84,12.76,12.76,0,1,1,0-18,4,4,0,0,0,5.62,0,3.93,3.93,0,0,0,1.16-2.81v0a13.88,13.88,0,0,1-6.69-2.17A16.73,16.73,0,0,0,22,23.67Z"/><path class="cls-9" d="M20,20A20.7,20.7,0,1,0,49.3,49.28a3.92,3.92,0,0,0,1.16-2.78,13.88,13.88,0,0,0-6.69,2.17,16.73,16.73,0,1,1,0-28.07,13.88,13.88,0,0,0,6.69,2.17A4,4,0,0,0,49.3,20,20.73,20.73,0,0,0,20,20Z"/></g><g class="cls-5"><path class="cls-10" d="M119.42,56.33a30.69,30.69,0,0,0-.17-43.56c-12-11.87-31.54-11.52-43.5.44L62,26.93A14.47,14.47,0,0,1,53.83,31a4,4,0,0,0,6.78,3L78.83,15.76a26.71,26.71,0,1,1,0,37.77,4,4,0,0,0-6.78,2.86,14.49,14.49,0,0,1,7.35,2.86A30.69,30.69,0,0,0,119.42,56.33Z"/><path class="cls-11" d="M55,28.36A3.94,3.94,0,0,0,53.83,31,14.47,14.47,0,0,0,62,26.93L75.75,13.21c12-12,31.45-12.31,43.5-.44A30.69,30.69,0,0,1,79.4,59.25a14.49,14.49,0,0,0-7.35-2.86,4,4,0,0,0,1.16,2.76,34.66,34.66,0,1,0,0-49Z"/></g><g class="cls-5"><path class="cls-12" d="M110.48,34.64a12.76,12.76,0,0,1-21.78,9,4,4,0,0,0-6.79,2.84,13.88,13.88,0,0,1,6.7,2.17,16.73,16.73,0,1,0,0-28.07,13.88,13.88,0,0,1-6.69,2.17,3.89,3.89,0,0,0,1.16,2.85,4,4,0,0,0,5.62,0,12.76,12.76,0,0,1,21.78,9Z"/><path class="cls-13" d="M110.36,23.67a16.73,16.73,0,0,1-21.75,25,13.88,13.88,0,0,0-6.7-2.17,4,4,0,0,0,1.17,2.78,20.7,20.7,0,1,0,0-29.28,4,4,0,0,0-1.16,2.77,13.88,13.88,0,0,0,6.69-2.17A16.73,16.73,0,0,1,110.36,23.67Z"/></g><path class="cls-3" d="M32.39,118.67l-2,3.8V125H30v-2.57l-2-3.8h.48L30.18,122l1.74-3.36Z"/><path class="cls-3" d="M41,119A2.81,2.81,0,0,1,42,120.18a3.73,3.73,0,0,1,0,3.36A2.84,2.84,0,0,1,41,124.7a3.1,3.1,0,0,1-1.58.41,3.06,3.06,0,0,1-1.57-.41,2.93,2.93,0,0,1-1.1-1.16,3.73,3.73,0,0,1,0-3.36A2.9,2.9,0,0,1,37.8,119a3,3,0,0,1,1.57-.41A3,3,0,0,1,41,119Zm-2.93.31a2.61,2.61,0,0,0-1,1,3.57,3.57,0,0,0,0,3,2.68,2.68,0,0,0,3.65,1,2.48,2.48,0,0,0,1-1,3.48,3.48,0,0,0,0-3,2.54,2.54,0,0,0-1-1,2.78,2.78,0,0,0-2.7,0Z"/><path class="cls-3" d="M47.21,118.67v3.91a2.33,2.33,0,0,0,.48,1.63,1.76,1.76,0,0,0,1.33.51,1.7,1.7,0,0,0,1.31-.51,2.39,2.39,0,0,0,.47-1.63v-3.91h.42v3.91a2.69,2.69,0,0,1-.59,1.9,2.1,2.1,0,0,1-1.61.62,2.13,2.13,0,0,1-1.62-.62,2.64,2.64,0,0,1-.6-1.9v-3.91Z"/><path class="cls-3" d="M59.23,125l-1.84-2.71h-1.2V125h-.4v-6.37h1.78a2.19,2.19,0,0,1,1.57.5,1.79,1.79,0,0,1,.51,1.35,1.71,1.71,0,0,1-.47,1.27,2,2,0,0,1-1.35.53L59.7,125Zm-3-3h1.35c1.13,0,1.7-.49,1.7-1.48a1.42,1.42,0,0,0-.4-1.09,1.82,1.82,0,0,0-1.3-.39H56.19Z"/><path class="cls-3" d="M73.1,124.26a1.53,1.53,0,0,1-.6.61,2,2,0,0,1-1,.23,2.38,2.38,0,0,1-1-.22,1.83,1.83,0,0,1-.73-.61,1.67,1.67,0,0,1-.32-.82h.43a1.8,1.8,0,0,0,.23.6,1.44,1.44,0,0,0,.55.51,1.71,1.71,0,0,0,.88.21,1.35,1.35,0,0,0,1-.37,1.27,1.27,0,0,0,.36-.92,1.21,1.21,0,0,0-.22-.77,1.5,1.5,0,0,0-.56-.44,8.32,8.32,0,0,0-.9-.33,6.28,6.28,0,0,1-1-.35,1.43,1.43,0,0,1-.61-.51,1.46,1.46,0,0,1-.25-.9,1.47,1.47,0,0,1,.48-1.13,1.88,1.88,0,0,1,1.32-.44,2,2,0,0,1,1.36.43,1.75,1.75,0,0,1,.62,1h-.43a1.43,1.43,0,0,0-.48-.77,1.55,1.55,0,0,0-1.07-.35,1.49,1.49,0,0,0-1,.32,1.15,1.15,0,0,0-.38.91,1.12,1.12,0,0,0,.22.73,1.46,1.46,0,0,0,.53.42,6.9,6.9,0,0,0,.88.32,6.64,6.64,0,0,1,1,.35,1.69,1.69,0,0,1,.63.53,1.6,1.6,0,0,1,.26,1A1.8,1.8,0,0,1,73.1,124.26Z"/><path class="cls-3" d="M78.09,124.71h2.38V125H77.69v-6.37h.4Z"/><path class="cls-3" d="M89,119a2.84,2.84,0,0,1,1.1,1.15,3.81,3.81,0,0,1,0,3.36A2.86,2.86,0,0,1,89,124.7a3.06,3.06,0,0,1-1.57.41,3.1,3.1,0,0,1-1.58-.41,3,3,0,0,1-1.1-1.16,3.81,3.81,0,0,1,0-3.36,3,3,0,0,1,1.1-1.15,3,3,0,0,1,1.58-.41A3,3,0,0,1,89,119Zm-2.92.31a2.54,2.54,0,0,0-1,1,3.48,3.48,0,0,0,0,3,2.48,2.48,0,0,0,1,1,2.76,2.76,0,0,0,2.69,0,2.44,2.44,0,0,0,1-1,3.48,3.48,0,0,0,0-3,2.5,2.5,0,0,0-1-1,2.76,2.76,0,0,0-2.69,0Z"/><path class="cls-3" d="M99.49,119.16a2.78,2.78,0,0,1,1.05,1.45h-.42a2.39,2.39,0,0,0-.91-1.17,2.8,2.8,0,0,0-2.86-.09,2.43,2.43,0,0,0-.94,1,3.1,3.1,0,0,0-.35,1.52,3.15,3.15,0,0,0,.35,1.54,2.54,2.54,0,0,0,1,1,2.72,2.72,0,0,0,1.36.34,2.76,2.76,0,0,0,1.31-.32,2.57,2.57,0,0,0,1-.93,3.1,3.1,0,0,0,.39-1.43H97.55v-.32h3.18v.31a3.56,3.56,0,0,1-.41,1.58,2.87,2.87,0,0,1-1.07,1.09,3.1,3.1,0,0,1-1.55.39,3.14,3.14,0,0,1-1.59-.41A2.84,2.84,0,0,1,95,123.54a3.81,3.81,0,0,1,0-3.36A2.81,2.81,0,0,1,96.11,119a3,3,0,0,1,1.59-.41A3,3,0,0,1,99.49,119.16Z"/><path class="cls-3" d="M108.73,123.39h-3l-.62,1.65h-.46l2.36-6.2h.45l2.34,6.2h-.44Zm-.13-.34-1.38-3.71-1.39,3.71Z"/><path class="cls-3" d="M118.46,125h-.41l-3.72-5.67V125h-.41v-6.36h.41l3.72,5.67v-5.67h.41Z"/><path class="cls-3" d="M13.14,97.62a4.76,4.76,0,0,1,1.68,2.82H12.17a2.48,2.48,0,0,0-.91-1.13,2.52,2.52,0,0,0-1.44-.41A2.21,2.21,0,0,0,8,99.71,3.78,3.78,0,0,0,8,104a2.2,2.2,0,0,0,1.78.8,2.45,2.45,0,0,0,2.35-1.52h2.65a4.76,4.76,0,0,1-1.68,2.81,5.09,5.09,0,0,1-3.28,1,5.21,5.21,0,0,1-2.65-.66,4.62,4.62,0,0,1-1.77-1.87,6.39,6.39,0,0,1,0-5.49,4.62,4.62,0,0,1,1.77-1.87,5.22,5.22,0,0,1,2.65-.67A5.09,5.09,0,0,1,13.14,97.62Z"/><path class="cls-3" d="M25.29,97.21a5,5,0,0,1,1.88,1.89,5.75,5.75,0,0,1,0,5.48,5,5,0,0,1-1.89,1.9,5.48,5.48,0,0,1-5.29,0,5.1,5.1,0,0,1-1.9-1.9,5.79,5.79,0,0,1,0-5.48A5,5,0,0,1,20,97.21a5.18,5.18,0,0,1,2.64-.69A5.26,5.26,0,0,1,25.29,97.21Zm-4.62,2.45a3.08,3.08,0,0,0-.73,2.17,3.12,3.12,0,0,0,.73,2.18,2.5,2.5,0,0,0,1.95.8,2.5,2.5,0,0,0,1.95-.8,3.59,3.59,0,0,0,0-4.35,2.53,2.53,0,0,0-2-.8A2.47,2.47,0,0,0,20.67,99.66Z"/><path class="cls-3" d="M42.4,96.76v10.3H39.89v-6.44l-2.23,6.44H35.49l-2.25-6.46v6.46H30.73V96.76H33.8l2.8,7.17,2.74-7.17Z"/><path class="cls-3" d="M48.1,103.42v3.64H45.59V96.69h4.07a3.93,3.93,0,0,1,2.81.91,3.23,3.23,0,0,1,1,2.47A3.42,3.42,0,0,1,53,101.8,3,3,0,0,1,51.72,103a4.58,4.58,0,0,1-2.06.43Zm2.79-3.35c0-.91-.51-1.36-1.51-1.36H48.1v2.7h1.28C50.38,101.41,50.89,101,50.89,100.07Z"/><path class="cls-3" d="M62.56,105.16H58.68l-.65,1.9H55.39l3.8-10.3h2.89l3.8,10.3H63.21Zm-.64-1.9-1.29-3.82-1.31,3.82Z"/><path class="cls-3" d="M77.52,107.06H75l-4.2-6.37v6.37H68.31V96.69h2.51l4.2,6.42V96.69h2.5Z"/><path class="cls-3" d="M89.68,96.69l-3.59,6.92v3.45H83.57v-3.45L80,96.69h2.88l2,4.22,2-4.22Z"/><path class="cls-3" d="M105.73,107.06h-2.51L99,100.69v6.37H96.52V96.69H99l4.19,6.42V96.69h2.51Z"/><path class="cls-3" d="M115.35,105.16h-3.89l-.64,1.9h-2.64l3.8-10.3h2.89l3.8,10.3H116Zm-.64-1.9-1.29-3.82-1.31,3.82Z"/><path class="cls-3" d="M132.76,96.76v10.3h-2.51v-6.44L128,107.06h-2.17l-2.24-6.46v6.46H121.1V96.76h3.07l2.8,7.17,2.74-7.17Z"/><path class="cls-3" d="M138.47,98.68v2.17H142v1.89h-3.5v2.31h3.94v2H136V96.69h6.45v2Z"/></g></g></g></svg>