<svg xmlns="http://www.w3.org/2000/svg" xmlns:xlink="http://www.w3.org/1999/xlink" viewBox="0 0 137.6 133.21"><defs><style>.cls-1{isolation:isolate;}.cls-2{fill:#00baeb;}.cls-3{fill:#00dac8;}.cls-4{fill:#28aad6;}.cls-5{fill:#2259c9;}.cls-6{opacity:0.6;}.cls-10,.cls-11,.cls-12,.cls-13,.cls-14,.cls-15,.cls-16,.cls-17,.cls-18,.cls-19,.cls-20,.cls-7,.cls-8,.cls-9{mix-blend-mode:multiply;}.cls-7{fill:url(#radial-gradient);}.cls-8{fill:url(#radial-gradient-2);}.cls-9{fill:url(#radial-gradient-3);}.cls-10{fill:url(#radial-gradient-4);}.cls-11{fill:url(#radial-gradient-5);}.cls-12{fill:url(#radial-gradient-6);}.cls-13{fill:url(#radial-gradient-7);}.cls-14{fill:url(#radial-gradient-8);}.cls-15{fill:url(#radial-gradient-9);}.cls-16{fill:url(#radial-gradient-10);}.cls-17{fill:url(#radial-gradient-11);}.cls-18{fill:url(#radial-gradient-12);}.cls-19{fill:url(#radial-gradient-13);}.cls-20{fill:url(#radial-gradient-14);}</style><radialGradient id="radial-gradient" cx="78.45" cy="55.16" r="14.75" gradientUnits="userSpaceOnUse"><stop offset="0.49" stop-color="#fff"/><stop offset="0.55" stop-color="#fafafa"/><stop offset="0.61" stop-color="#ececec"/><stop offset="0.68" stop-color="#d5d5d5"/><stop offset="0.75" stop-color="#b5b5b5"/><stop offset="0.82" stop-color="#8c8c8c"/><stop offset="0.89" stop-color="#595959"/><stop offset="0.97" stop-color="#1e1e1e"/><stop offset="1"/></radialGradient><radialGradient id="radial-gradient-2" cx="76.78" cy="48.48" r="13.92" xlink:href="#radial-gradient"/><radialGradient id="radial-gradient-3" cx="37.3" cy="70.3" r="20.83" xlink:href="#radial-gradient"/><radialGradient id="radial-gradient-4" cx="92.85" cy="77.09" r="29.35" xlink:href="#radial-gradient"/><radialGradient id="radial-gradient-5" cx="75.24" cy="75.29" r="25.65" xlink:href="#radial-gradient"/><radialGradient id="radial-gradient-6" cx="64.53" cy="32.23" r="19.78" xlink:href="#radial-gradient"/><radialGradient id="radial-gradient-7" cx="78.21" cy="4.57" r="24.13" xlink:href="#radial-gradient"/><radialGradient id="radial-gradient-8" cx="82.19" cy="49.91" r="22.11" xlink:href="#radial-gradient"/><radialGradient id="radial-gradient-9" cx="60.71" cy="31.06" r="21.26" xlink:href="#radial-gradient"/><radialGradient id="radial-gradient-10" cx="15.85" cy="43.79" r="28.15" xlink:href="#radial-gradient"/><radialGradient id="radial-gradient-11" cx="43.63" cy="52.17" r="22.25" xlink:href="#radial-gradient"/><radialGradient id="radial-gradient-12" cx="45.54" cy="98.94" r="24.85" xlink:href="#radial-gradient"/><radialGradient id="radial-gradient-13" cx="60.82" cy="64.89" r="29.62" xlink:href="#radial-gradient"/><radialGradient id="radial-gradient-14" cx="106.42" cy="64.58" r="23.45" xlink:href="#radial-gradient"/></defs><g class="cls-1"><g id="Layer_2" data-name="Layer 2"><g id="Object"><path class="cls-2" d="M42,50.68a29.75,29.75,0,0,0-8.36,18.74,20.67,20.67,0,0,0,9,2,20.73,20.73,0,0,1,6.65-15.25A29.87,29.87,0,0,1,42,50.68Zm7.32-5.54a20.65,20.65,0,0,0,5.1,3.48,29.14,29.14,0,0,1,1-5.95A29.48,29.48,0,0,0,49.34,45.14Zm22.15-2.47a29.14,29.14,0,0,1,1,5.95,20.56,20.56,0,0,0,5.1-3.48A28.94,28.94,0,0,0,71.49,42.67Z"/><path class="cls-2" d="M93.37,71.46a29.89,29.89,0,0,1-58.69,8,29.73,29.73,0,0,0,8,1.09c.69,0,1.38,0,2.05-.08A20.79,20.79,0,1,0,77.61,56.22a29.87,29.87,0,0,0,7.32-5.54,29.75,29.75,0,0,1,8.36,18.74C93.34,70.09,93.37,70.77,93.37,71.46Z"/><path class="cls-3" d="M93.29,32A30,30,0,0,1,77.61,56.22a28.94,28.94,0,0,1-6.12,2.47,28.48,28.48,0,0,1-5.95,1c-.69,0-1.37.07-2.06.07s-1.38,0-2.06-.07a28.46,28.46,0,0,1-6-1,29.48,29.48,0,0,1-6.12-2.47A30,30,0,0,1,33.66,32c0-.68-.08-1.36-.08-2.05a29.9,29.9,0,0,1,58.7-8,29.87,29.87,0,0,0-8-1.1c-.69,0-1.37,0-2.05.08a20.78,20.78,0,1,0-9.7,27.75A20.79,20.79,0,0,0,84.26,29.9,20.67,20.67,0,0,1,93.29,32Z"/><path class="cls-4" d="M44.74,20.87a20.67,20.67,0,0,0-2.05,9,20.77,20.77,0,0,1,15.24,6.64,30,30,0,0,1,5.55-7.33A29.81,29.81,0,0,0,44.74,20.87Zm20.8,38.84A21.17,21.17,0,0,0,69,64.82a29,29,0,0,0,2.47-6.13A28.48,28.48,0,0,1,65.54,59.71Z"/><path class="cls-4" d="M72.51,48.62a20.71,20.71,0,0,1-9,2.06,20.68,20.68,0,0,1,2.06-9A21.11,21.11,0,0,1,69,36.55a29.61,29.61,0,0,1,3.49,12.07Z"/><path class="cls-4" d="M63.48,72.15A29.76,29.76,0,0,1,44.74,80.5c-.67,0-1.36.08-2.05.08a29.89,29.89,0,0,1-8-58.69,29.74,29.74,0,0,0-1.1,8c0,.69,0,1.37.08,2.05A20.79,20.79,0,1,0,57.93,64.82,30,30,0,0,0,63.48,72.15Z"/><path class="cls-5" d="M84.26,71.47a20.67,20.67,0,0,1-2.05,9A30,30,0,0,1,57.93,64.82a29,29,0,0,1-2.47-6.13,28.46,28.46,0,0,0,6,1c.68,0,1.37.07,2.06.07s1.37,0,2.06-.07A21.17,21.17,0,0,0,69,64.82,20.72,20.72,0,0,0,84.26,71.47Z"/><path class="cls-5" d="M114.16,50.68A30,30,0,0,1,92.28,79.49a29.94,29.94,0,0,0,1.09-8c0-.69,0-1.37-.08-2A20.79,20.79,0,1,0,69,36.55a21.11,21.11,0,0,0-3.48,5.1,20.68,20.68,0,0,0-2.06,9,20.72,20.72,0,0,1-9-2.06,29.71,29.71,0,0,1,3.49-12.08A29.93,29.93,0,0,1,82.21,20.87c.68-.05,1.36-.08,2.05-.08a29.92,29.92,0,0,1,29.9,29.89Z"/><g class="cls-6"><path class="cls-7" d="M65.64,59.71a21.17,21.17,0,0,0,3.48,5.11,29,29,0,0,0,2.47-6.13A28.48,28.48,0,0,1,65.64,59.71Z"/><path class="cls-8" d="M72.61,48.62a20.71,20.71,0,0,1-9,2.06,20.68,20.68,0,0,1,2.06-9,21.11,21.11,0,0,1,3.48-5.1,28.94,28.94,0,0,1,2.47,6.12A28.48,28.48,0,0,1,72.61,48.62Z"/><path class="cls-9" d="M49.44,56.22a29.87,29.87,0,0,1-7.32-5.54,30,30,0,0,0-6.48,10.18,41.92,41.92,0,0,0,7.75,5.65A20.78,20.78,0,0,1,49.44,56.22Z"/><path class="cls-10" d="M77.71,56.22a20.71,20.71,0,0,1,6.18,10.83,42.4,42.4,0,0,0,7.9-5.46A30.05,30.05,0,0,0,85,50.68,29.87,29.87,0,0,1,77.71,56.22Z"/><path class="cls-11" d="M69.12,64.82a21.17,21.17,0,0,1-3.48-5.11c-.68,0-1.37.07-2.06.07s-1.38,0-2.06-.07a28.57,28.57,0,0,1-6-1A29,29,0,0,0,58,64.82a30,30,0,0,0,5.55,7.33c.32.31.65.61,1,.91l6.24-6.62C70.22,65.93,69.66,65.39,69.12,64.82Z"/><path class="cls-12" d="M58,36.54a29.71,29.71,0,0,0-3.49,12.08,20.72,20.72,0,0,0,9,2.06,20.68,20.68,0,0,1,2.06-9,21.15,21.15,0,0,1,1.67-2.84L58.93,35C58.62,35.52,58.31,36,58,36.54Z"/><path class="cls-13" d="M82.31,20.87c.68-.05,1.36-.08,2-.08a29.87,29.87,0,0,1,8,1.1,29.93,29.93,0,0,0-7-12.46l-11,2.71A20.94,20.94,0,0,1,82.31,20.87Z"/><path class="cls-14" d="M84.36,29.9a20.63,20.63,0,0,1-4.15,12.45l8.71,3.37A29.74,29.74,0,0,0,93.4,32,20.71,20.71,0,0,0,84.36,29.9Z"/><path class="cls-15" d="M42.73,29.9A20.75,20.75,0,0,1,55.3,34.13a18.9,18.9,0,0,0,1.82-8.06c0-.55,0-1.09-.09-1.63a29.55,29.55,0,0,0-12.24-3.57A20.68,20.68,0,0,0,42.73,29.9Z"/><path class="cls-16" d="M33.7,32c0-.68-.07-1.36-.07-2.05a29.73,29.73,0,0,1,1.09-8A29.9,29.9,0,0,0,20,31.3a18.91,18.91,0,0,0,5.08,8.42A20.81,20.81,0,0,1,33.7,32Z"/><path class="cls-17" d="M42.79,71.47A20.67,20.67,0,0,1,47,59a18.15,18.15,0,0,0-8.74-2.22c-.23,0-.46,0-.69,0a29.68,29.68,0,0,0-3.79,12.64A20.7,20.7,0,0,0,42.79,71.47Z"/><path class="cls-18" d="M44.85,80.5c-.68,0-1.37.08-2.06.08a29.79,29.79,0,0,1-8-1.09A29.83,29.83,0,0,0,42.7,92.84a18.26,18.26,0,0,0,8.42-4.73A20.71,20.71,0,0,1,44.85,80.5Z"/><path class="cls-19" d="M67.87,75.6a29.66,29.66,0,0,0,14.44,4.9,20.67,20.67,0,0,0,2-9A20.69,20.69,0,0,1,70.28,66a18.23,18.23,0,0,0-2.43,9.11C67.85,75.25,67.87,75.42,67.87,75.6Z"/><path class="cls-20" d="M93.4,69.42c0,.67.07,1.35.07,2a29.94,29.94,0,0,1-1.09,8,29.93,29.93,0,0,0,12-6.62,18.23,18.23,0,0,0-3.82-9.16A21.06,21.06,0,0,1,93.4,69.42Z"/></g><path class="cls-5" d="M27.57,126.77l-2,3.79v2.58h-.41v-2.58l-2-3.79h.48l1.75,3.36,1.74-3.36Z"/><path class="cls-5" d="M36.13,127.13a2.84,2.84,0,0,1,1.1,1.15,3.53,3.53,0,0,1,.39,1.68,3.59,3.59,0,0,1-.39,1.68,2.9,2.9,0,0,1-1.1,1.15,3,3,0,0,1-1.57.42,3,3,0,0,1-1.58-.42,2.9,2.9,0,0,1-1.1-1.15,3.59,3.59,0,0,1-.39-1.68,3.53,3.53,0,0,1,.39-1.68,2.84,2.84,0,0,1,1.1-1.15,3,3,0,0,1,1.58-.42A3,3,0,0,1,36.13,127.13Zm-2.92.31a2.48,2.48,0,0,0-1,1,3.48,3.48,0,0,0,0,3,2.54,2.54,0,0,0,1,1,2.76,2.76,0,0,0,2.69,0,2.57,2.57,0,0,0,1-1,3.57,3.57,0,0,0,0-3,2.5,2.5,0,0,0-1-1,2.76,2.76,0,0,0-2.69,0Z"/><path class="cls-5" d="M42.39,126.77v3.91a2.3,2.3,0,0,0,.49,1.63,1.73,1.73,0,0,0,1.32.51,1.7,1.7,0,0,0,1.31-.51,2.35,2.35,0,0,0,.47-1.63v-3.91h.42v3.91a2.7,2.7,0,0,1-.59,1.9,2.14,2.14,0,0,1-1.61.62,2.16,2.16,0,0,1-1.62-.62,2.66,2.66,0,0,1-.6-1.9v-3.91Z"/><path class="cls-5" d="M54.41,133.14l-1.84-2.71H51.38v2.71H51v-6.37h1.78a2.13,2.13,0,0,1,1.57.5,1.79,1.79,0,0,1,.51,1.34,1.74,1.74,0,0,1-.47,1.28,2,2,0,0,1-1.35.53l1.87,2.72Zm-3-3h1.34c1.14,0,1.7-.49,1.7-1.47a1.46,1.46,0,0,0-.4-1.1,1.87,1.87,0,0,0-1.3-.38H51.38Z"/><path class="cls-5" d="M68.28,132.36a1.53,1.53,0,0,1-.6.61,2.08,2.08,0,0,1-1,.23,2.38,2.38,0,0,1-1-.22,2.09,2.09,0,0,1-.73-.61,1.69,1.69,0,0,1-.31-.82H65a1.68,1.68,0,0,0,.23.59,1.53,1.53,0,0,0,.55.52,1.71,1.71,0,0,0,.88.21,1.39,1.39,0,0,0,1-.37,1.29,1.29,0,0,0,.36-.93,1.2,1.2,0,0,0-.22-.76,1.53,1.53,0,0,0-.56-.45,6.79,6.79,0,0,0-.9-.32,7.58,7.58,0,0,1-1-.35,1.5,1.5,0,0,1-.61-.51,1.48,1.48,0,0,1-.25-.9,1.46,1.46,0,0,1,.48-1.13,1.86,1.86,0,0,1,1.33-.44,2.07,2.07,0,0,1,1.36.42,1.76,1.76,0,0,1,.61,1h-.43a1.43,1.43,0,0,0-.48-.77,1.54,1.54,0,0,0-1.06-.35,1.5,1.5,0,0,0-1,.32,1.13,1.13,0,0,0-.38.91,1.2,1.2,0,0,0,.22.73,1.41,1.41,0,0,0,.54.42,6.33,6.33,0,0,0,.87.31,6.13,6.13,0,0,1,1,.36,1.6,1.6,0,0,1,.63.53,1.58,1.58,0,0,1,.26.95A1.7,1.7,0,0,1,68.28,132.36Z"/><path class="cls-5" d="M73.28,132.8h2.37v.34H72.87v-6.37h.41Z"/><path class="cls-5" d="M84.15,127.13a2.81,2.81,0,0,1,1.09,1.15,3.53,3.53,0,0,1,.39,1.68,3.59,3.59,0,0,1-.39,1.68,2.88,2.88,0,0,1-1.09,1.15,3.18,3.18,0,0,1-3.16,0,2.88,2.88,0,0,1-1.09-1.15,3.48,3.48,0,0,1-.4-1.68,3.42,3.42,0,0,1,.4-1.68A2.81,2.81,0,0,1,81,127.13a3.18,3.18,0,0,1,3.16,0Zm-2.93.31a2.48,2.48,0,0,0-1,1,3.48,3.48,0,0,0,0,3,2.54,2.54,0,0,0,1,1,2.66,2.66,0,0,0,1.35.35,2.72,2.72,0,0,0,1.35-.35,2.54,2.54,0,0,0,1-1,3.48,3.48,0,0,0,0-3,2.48,2.48,0,0,0-1-1,2.62,2.62,0,0,0-1.35-.35A2.57,2.57,0,0,0,81.22,127.44Z"/><path class="cls-5" d="M94.68,127.25a2.85,2.85,0,0,1,1,1.45H95.3a2.4,2.4,0,0,0-.9-1.16,2.57,2.57,0,0,0-1.52-.45,2.63,2.63,0,0,0-1.34.35,2.48,2.48,0,0,0-1,1,3.5,3.5,0,0,0,0,3.05,2.38,2.38,0,0,0,1,1,2.7,2.7,0,0,0,1.36.35,2.62,2.62,0,0,0,1.3-.33,2.36,2.36,0,0,0,1-.93,2.94,2.94,0,0,0,.39-1.42H92.73v-.32h3.18v.31a3.27,3.27,0,0,1-.41,1.57,2.9,2.9,0,0,1-1.07,1.1,3.25,3.25,0,0,1-3.14,0,2.88,2.88,0,0,1-1.09-1.15,3.71,3.71,0,0,1-.38-1.68,3.65,3.65,0,0,1,.38-1.68,2.81,2.81,0,0,1,1.09-1.15,3,3,0,0,1,1.59-.42A3,3,0,0,1,94.68,127.25Z"/><path class="cls-5" d="M103.91,131.48h-3l-.62,1.66h-.45l2.35-6.2h.46l2.34,6.2h-.45Zm-.13-.33-1.38-3.71L101,131.15Z"/><path class="cls-5" d="M113.64,133.14h-.41l-3.72-5.68v5.68h-.41v-6.36h.41l3.72,5.67v-5.67h.41Z"/><path class="cls-5" d="M8.32,105.72A4.73,4.73,0,0,1,10,108.54H7.35A2.41,2.41,0,0,0,5,107a2.21,2.21,0,0,0-1.77.8A3.27,3.27,0,0,0,2.55,110a3.22,3.22,0,0,0,.68,2.15,2.21,2.21,0,0,0,1.77.8,2.57,2.57,0,0,0,1.45-.41,2.55,2.55,0,0,0,.9-1.12H10a4.73,4.73,0,0,1-1.68,2.81,5,5,0,0,1-3.27,1,5.13,5.13,0,0,1-2.66-.67A4.5,4.5,0,0,1,.62,112.7a6.36,6.36,0,0,1,0-5.48,4.56,4.56,0,0,1,1.77-1.87,5.13,5.13,0,0,1,2.66-.67A5.06,5.06,0,0,1,8.32,105.72Z"/><path class="cls-5" d="M20.47,105.3a5,5,0,0,1,1.88,1.9,5.38,5.38,0,0,1,.69,2.73,5.44,5.44,0,0,1-.69,2.74,5,5,0,0,1-1.9,1.9,5.41,5.41,0,0,1-5.29,0,4.86,4.86,0,0,1-1.89-1.9,5.35,5.35,0,0,1-.7-2.74,5.28,5.28,0,0,1,.7-2.73,5,5,0,0,1,1.89-1.9,5.52,5.52,0,0,1,5.31,0Zm-4.62,2.45a3.61,3.61,0,0,0,0,4.35,2.48,2.48,0,0,0,2,.81,2.51,2.51,0,0,0,2-.81,3.59,3.59,0,0,0,0-4.34,2.48,2.48,0,0,0-2-.81A2.51,2.51,0,0,0,15.85,107.75Z"/><path class="cls-5" d="M37.58,104.86v10.29H35.07v-6.44l-2.23,6.44H30.67l-2.24-6.45v6.45H25.92V104.86H29l2.8,7.17,2.75-7.17Z"/><path class="cls-5" d="M43.28,111.52v3.63h-2.5V104.78h4.06a3.93,3.93,0,0,1,2.81.92,3.22,3.22,0,0,1,1,2.47,3.35,3.35,0,0,1-.43,1.72,3,3,0,0,1-1.28,1.19,4.52,4.52,0,0,1-2.07.44Zm2.79-3.35c0-.91-.5-1.36-1.51-1.36H43.28v2.7h1.28C45.57,109.51,46.07,109.06,46.07,108.17Z"/><path class="cls-5" d="M57.75,113.26H53.86l-.65,1.89H50.57l3.8-10.29h2.89l3.8,10.29H58.39Zm-.65-1.91-1.29-3.81-1.31,3.81Z"/><path class="cls-5" d="M72.71,115.15H70.2L66,108.79v6.36H63.5V104.78H66l4.2,6.43v-6.43h2.51Z"/><path class="cls-5" d="M84.87,104.78l-3.6,6.93v3.44H78.75v-3.44l-3.59-6.93H78L80,109l2-4.23Z"/><path class="cls-5" d="M100.91,115.15H98.4l-4.19-6.36v6.36H91.7V104.78h2.51l4.19,6.43v-6.43h2.51Z"/><path class="cls-5" d="M110.53,113.26h-3.88l-.65,1.89h-2.64l3.8-10.29h2.89l3.8,10.29h-2.67Zm-.64-1.91-1.29-3.81-1.31,3.81Z"/><path class="cls-5" d="M127.94,104.86v10.29h-2.5v-6.44l-2.23,6.44H121l-2.25-6.45v6.45h-2.51V104.86h3.07l2.8,7.17,2.74-7.17Z"/><path class="cls-5" d="M133.65,106.78V109h3.51v1.89h-3.51v2.3h3.95v2h-6.46V104.78h6.46v2Z"/></g></g></g></svg>