<svg xmlns="http://www.w3.org/2000/svg" xmlns:xlink="http://www.w3.org/1999/xlink" viewBox="0 0 137.6 125.84"><defs><style>.cls-1{isolation:isolate;}.cls-2{fill:#28aad6;}.cls-3{fill:#2259c9;}.cls-4,.cls-5{mix-blend-mode:multiply;opacity:0.4;}.cls-4{fill:url(#linear-gradient);}.cls-5{fill:url(#linear-gradient-2);}</style><linearGradient id="linear-gradient" x1="-87.45" y1="578.66" x2="-158.16" y2="535.93" gradientTransform="translate(195.24 -526.29)" gradientUnits="userSpaceOnUse"><stop offset="0" stop-color="#fff"/><stop offset="0.41" stop-color="#999"/><stop offset="1"/></linearGradient><linearGradient id="linear-gradient-2" x1="-181.19" y1="568.88" x2="-96.94" y2="568.88" gradientTransform="translate(195.24 -526.29)" gradientUnits="userSpaceOnUse"><stop offset="0" stop-color="#fff"/><stop offset="0.44" stop-color="#929292"/><stop offset="1"/></linearGradient></defs><g class="cls-1"><g id="Layer_2" data-name="Layer 2"><g id="Object"><path class="cls-2" d="M89,49H32.58A18.43,18.43,0,0,1,14.15,30.53V18.44A18.43,18.43,0,0,1,32.58,0H92A12.22,12.22,0,0,1,104.2,12.22H32.58a6.21,6.21,0,0,0-6.21,6.22V30.53a6.21,6.21,0,0,0,6.21,6.21H89Z"/><path class="cls-3" d="M85.93,67H26.27A12.23,12.23,0,0,1,14.05,54.81H85.93a6.21,6.21,0,0,0,6.21-6.21V36.51a6.21,6.21,0,0,0-6.21-6.21H29.49V18.07H85.93a18.45,18.45,0,0,1,18.44,18.44V48.6A18.45,18.45,0,0,1,85.93,67Z"/><path class="cls-4" d="M32.58,12.22H104.2L93,7.7a22,22,0,0,0-8.19-1.59H32.63A12.32,12.32,0,0,0,20.31,18.44V30.53A12.32,12.32,0,0,0,32.63,42.85H89V36.74H32.58a6.21,6.21,0,0,1-6.21-6.21V18.44A6.21,6.21,0,0,1,32.58,12.22Z"/><path class="cls-5" d="M35.07,61H86A12.32,12.32,0,0,0,98.3,48.63V36.54A12.33,12.33,0,0,0,86,24.21H29.49v6.12H85.93a6.21,6.21,0,0,1,6.21,6.21V48.63a6.21,6.21,0,0,1-6.21,6.21H14.05l12.27,4.54A25.16,25.16,0,0,0,35.07,61Z"/><path class="cls-3" d="M27.57,119.4l-2,3.79v2.58h-.41v-2.58l-2-3.79h.48l1.75,3.36,1.74-3.36Z"/><path class="cls-3" d="M36.13,119.76a2.84,2.84,0,0,1,1.1,1.15,3.53,3.53,0,0,1,.39,1.68,3.59,3.59,0,0,1-.39,1.68,2.9,2.9,0,0,1-1.1,1.15,3,3,0,0,1-1.57.42,3,3,0,0,1-1.58-.42,2.9,2.9,0,0,1-1.1-1.15,3.59,3.59,0,0,1-.39-1.68,3.53,3.53,0,0,1,.39-1.68,2.84,2.84,0,0,1,1.1-1.15,3,3,0,0,1,1.58-.41A3,3,0,0,1,36.13,119.76Zm-2.92.31a2.48,2.48,0,0,0-1,1,3.48,3.48,0,0,0,0,3,2.54,2.54,0,0,0,1,1,2.76,2.76,0,0,0,2.69,0,2.57,2.57,0,0,0,1-1,3.57,3.57,0,0,0,0-3,2.5,2.5,0,0,0-1-1,2.76,2.76,0,0,0-2.69,0Z"/><path class="cls-3" d="M42.39,119.4v3.91a2.3,2.3,0,0,0,.49,1.63,1.73,1.73,0,0,0,1.32.51,1.7,1.7,0,0,0,1.31-.51,2.35,2.35,0,0,0,.47-1.63V119.4h.42v3.91a2.7,2.7,0,0,1-.59,1.9,2.14,2.14,0,0,1-1.61.62,2.16,2.16,0,0,1-1.62-.62,2.66,2.66,0,0,1-.6-1.9V119.4Z"/><path class="cls-3" d="M54.41,125.77l-1.84-2.71H51.38v2.71H51V119.4h1.78a2.17,2.17,0,0,1,1.57.5,1.79,1.79,0,0,1,.51,1.34,1.74,1.74,0,0,1-.47,1.28,2,2,0,0,1-1.35.53l1.87,2.72Zm-3-3h1.34c1.14,0,1.7-.49,1.7-1.47a1.46,1.46,0,0,0-.4-1.1,1.87,1.87,0,0,0-1.3-.38H51.38Z"/><path class="cls-3" d="M68.28,125a1.53,1.53,0,0,1-.6.61,2.08,2.08,0,0,1-1,.23,2.38,2.38,0,0,1-1-.22,2,2,0,0,1-.73-.61,1.69,1.69,0,0,1-.31-.82H65a1.68,1.68,0,0,0,.23.59,1.53,1.53,0,0,0,.55.52,1.71,1.71,0,0,0,.88.21,1.39,1.39,0,0,0,1-.37,1.28,1.28,0,0,0,.36-.92,1.21,1.21,0,0,0-.22-.77,1.53,1.53,0,0,0-.56-.45,6.79,6.79,0,0,0-.9-.32,7.58,7.58,0,0,1-1-.35,1.5,1.5,0,0,1-.61-.51,1.48,1.48,0,0,1-.25-.9,1.46,1.46,0,0,1,.48-1.13,1.86,1.86,0,0,1,1.33-.44,2,2,0,0,1,1.36.43,1.71,1.71,0,0,1,.61,1h-.43a1.43,1.43,0,0,0-.48-.77,1.54,1.54,0,0,0-1.06-.35,1.5,1.5,0,0,0-1,.32,1.13,1.13,0,0,0-.38.91,1.2,1.2,0,0,0,.22.73,1.41,1.41,0,0,0,.54.42,6.33,6.33,0,0,0,.87.31,6.13,6.13,0,0,1,1,.36,1.6,1.6,0,0,1,.63.53,1.58,1.58,0,0,1,.26,1A1.7,1.7,0,0,1,68.28,125Z"/><path class="cls-3" d="M73.28,125.43h2.37v.34H72.87V119.4h.41Z"/><path class="cls-3" d="M84.15,119.76a2.81,2.81,0,0,1,1.09,1.15,3.53,3.53,0,0,1,.39,1.68,3.59,3.59,0,0,1-.39,1.68,2.88,2.88,0,0,1-1.09,1.15,3.18,3.18,0,0,1-3.16,0,2.88,2.88,0,0,1-1.09-1.15,3.48,3.48,0,0,1-.4-1.68,3.42,3.42,0,0,1,.4-1.68A2.81,2.81,0,0,1,81,119.76a3.25,3.25,0,0,1,3.16,0Zm-2.93.31a2.48,2.48,0,0,0-1,1,3.48,3.48,0,0,0,0,3,2.54,2.54,0,0,0,1,1,2.66,2.66,0,0,0,1.35.35,2.72,2.72,0,0,0,1.35-.35,2.54,2.54,0,0,0,1-1,3.48,3.48,0,0,0,0-3,2.48,2.48,0,0,0-1-1,2.62,2.62,0,0,0-1.35-.35A2.57,2.57,0,0,0,81.22,120.07Z"/><path class="cls-3" d="M94.68,119.88a2.85,2.85,0,0,1,1,1.45H95.3a2.4,2.4,0,0,0-.9-1.16,2.57,2.57,0,0,0-1.52-.45,2.63,2.63,0,0,0-1.34.35,2.48,2.48,0,0,0-1,1,3.5,3.5,0,0,0,0,3.05,2.38,2.38,0,0,0,1,1,2.7,2.7,0,0,0,1.36.35,2.62,2.62,0,0,0,1.3-.33,2.36,2.36,0,0,0,1-.93,2.91,2.91,0,0,0,.39-1.42H92.73v-.32h3.18v.31a3.27,3.27,0,0,1-.41,1.57,2.83,2.83,0,0,1-1.07,1.1,3.25,3.25,0,0,1-3.14,0,2.88,2.88,0,0,1-1.09-1.15,3.71,3.71,0,0,1-.38-1.68,3.65,3.65,0,0,1,.38-1.68,2.81,2.81,0,0,1,1.09-1.15,3,3,0,0,1,1.59-.41A3,3,0,0,1,94.68,119.88Z"/><path class="cls-3" d="M103.91,124.12h-3l-.62,1.65h-.45l2.35-6.2h.46l2.34,6.2h-.45Zm-.13-.34-1.38-3.71L101,123.78Z"/><path class="cls-3" d="M113.64,125.77h-.41l-3.72-5.68v5.68h-.41v-6.36h.41l3.72,5.67v-5.67h.41Z"/><path class="cls-3" d="M8.32,98.35A4.76,4.76,0,0,1,10,101.17H7.35a2.47,2.47,0,0,0-.9-1.13A2.57,2.57,0,0,0,5,99.63a2.21,2.21,0,0,0-1.77.8,3.27,3.27,0,0,0-.68,2.16,3.22,3.22,0,0,0,.68,2.15,2.21,2.21,0,0,0,1.77.8,2.57,2.57,0,0,0,1.45-.41,2.55,2.55,0,0,0,.9-1.12H10a4.73,4.73,0,0,1-1.68,2.81,5,5,0,0,1-3.27,1.05,5.13,5.13,0,0,1-2.66-.67,4.5,4.5,0,0,1-1.77-1.87,6.36,6.36,0,0,1,0-5.48A4.56,4.56,0,0,1,2.39,98a5.13,5.13,0,0,1,2.66-.67A5.06,5.06,0,0,1,8.32,98.35Z"/><path class="cls-3" d="M20.47,97.93a5,5,0,0,1,1.88,1.9,5.38,5.38,0,0,1,.69,2.73,5.44,5.44,0,0,1-.69,2.74,5,5,0,0,1-1.9,1.9,5.41,5.41,0,0,1-5.29,0,4.86,4.86,0,0,1-1.89-1.9,5.35,5.35,0,0,1-.7-2.74,5.28,5.28,0,0,1,.7-2.73,5,5,0,0,1,1.89-1.9,5.52,5.52,0,0,1,5.31,0Zm-4.62,2.45a3.61,3.61,0,0,0,0,4.35,2.48,2.48,0,0,0,2,.81,2.51,2.51,0,0,0,2-.81,3.59,3.59,0,0,0,0-4.34,2.48,2.48,0,0,0-2-.81A2.51,2.51,0,0,0,15.85,100.38Z"/><path class="cls-3" d="M37.58,97.49v10.29H35.07v-6.44l-2.23,6.44H30.67l-2.24-6.45v6.45H25.92V97.49H29l2.8,7.17,2.75-7.17Z"/><path class="cls-3" d="M43.28,104.15v3.63h-2.5V97.41h4.06a3.93,3.93,0,0,1,2.81.92,3.23,3.23,0,0,1,1,2.47,3.35,3.35,0,0,1-.43,1.72,3,3,0,0,1-1.28,1.19,4.52,4.52,0,0,1-2.07.44Zm2.79-3.35c0-.91-.5-1.36-1.51-1.36H43.28v2.7h1.28C45.57,102.14,46.07,101.69,46.07,100.8Z"/><path class="cls-3" d="M57.75,105.89H53.86l-.65,1.89H50.57l3.8-10.29h2.89l3.8,10.29H58.39ZM57.1,104l-1.29-3.81L54.5,104Z"/><path class="cls-3" d="M72.71,107.78H70.2L66,101.42v6.36H63.5V97.41H66l4.2,6.43V97.41h2.51Z"/><path class="cls-3" d="M84.87,97.41l-3.6,6.93v3.44H78.75v-3.44l-3.59-6.93H78l2,4.23,2-4.23Z"/><path class="cls-3" d="M100.91,107.78H98.4l-4.19-6.36v6.36H91.7V97.41h2.51l4.19,6.43V97.41h2.51Z"/><path class="cls-3" d="M110.53,105.89h-3.88l-.65,1.89h-2.64l3.8-10.29h2.89l3.8,10.29h-2.67Zm-.64-1.91-1.29-3.81L107.29,104Z"/><path class="cls-3" d="M127.94,97.49v10.29h-2.5v-6.44l-2.23,6.44H121l-2.25-6.45v6.45h-2.51V97.49h3.07l2.8,7.17,2.74-7.17Z"/><path class="cls-3" d="M133.65,99.41v2.17h3.51v1.89h-3.51v2.3h3.95v2h-6.46V97.41h6.46v2Z"/></g></g></g></svg>