<svg xmlns="http://www.w3.org/2000/svg" xmlns:xlink="http://www.w3.org/1999/xlink" viewBox="0 0 137.6 122.9"><defs><style>.cls-1{isolation:isolate;}.cls-2{fill:#2259c9;}.cls-3{fill:#00dac8;}.cls-4{fill:#00baeb;}.cls-5{fill:#28aad6;}.cls-10,.cls-11,.cls-12,.cls-13,.cls-14,.cls-16,.cls-17,.cls-19,.cls-20,.cls-21,.cls-22,.cls-23,.cls-24,.cls-6,.cls-7,.cls-8,.cls-9{mix-blend-mode:multiply;}.cls-6{fill:url(#linear-gradient);}.cls-7{fill:url(#linear-gradient-2);}.cls-8{fill:url(#linear-gradient-3);}.cls-9{fill:url(#linear-gradient-4);}.cls-10{fill:url(#linear-gradient-5);}.cls-11{fill:url(#linear-gradient-6);}.cls-12{fill:url(#linear-gradient-7);}.cls-13{fill:url(#linear-gradient-8);}.cls-14{opacity:0.2;}.cls-15{fill:none;}.cls-16{fill:url(#linear-gradient-9);}.cls-17{fill:url(#linear-gradient-10);}.cls-18{fill:#fff;}.cls-19{fill:url(#linear-gradient-11);}.cls-20{fill:url(#linear-gradient-12);}.cls-21{fill:url(#linear-gradient-13);}.cls-22{fill:url(#linear-gradient-14);}.cls-23{fill:url(#linear-gradient-15);}.cls-24{fill:url(#linear-gradient-16);}</style><linearGradient id="linear-gradient" x1="28.61" y1="62.27" x2="48.85" y2="40.51" gradientUnits="userSpaceOnUse"><stop offset="0.49" stop-color="#fff"/><stop offset="0.55" stop-color="#fafafa"/><stop offset="0.61" stop-color="#ececec"/><stop offset="0.68" stop-color="#d5d5d5"/><stop offset="0.75" stop-color="#b5b5b5"/><stop offset="0.82" stop-color="#8c8c8c"/><stop offset="0.89" stop-color="#595959"/><stop offset="0.97" stop-color="#1e1e1e"/><stop offset="1"/></linearGradient><linearGradient id="linear-gradient-2" x1="5117.38" y1="212.1" x2="5137.63" y2="190.35" gradientTransform="translate(5182.39 235.82) rotate(180)" xlink:href="#linear-gradient"/><linearGradient id="linear-gradient-3" x1="2515.57" y1="2604.24" x2="2535.82" y2="2582.49" gradientTransform="translate(2647.25 -2506.29) rotate(90)" xlink:href="#linear-gradient"/><linearGradient id="linear-gradient-4" x1="76.43" y1="42.22" x2="62.01" y2="27.04" xlink:href="#linear-gradient"/><linearGradient id="linear-gradient-5" x1="63.58" y1="58.65" x2="76.91" y2="42.55" xlink:href="#linear-gradient"/><linearGradient id="linear-gradient-6" x1="2469.58" y1="2687.26" x2="2482.91" y2="2671.17" gradientTransform="translate(2733.84 -2425.28) rotate(90)" xlink:href="#linear-gradient"/><linearGradient id="linear-gradient-7" x1="78.15" y1="74.52" x2="60.97" y2="57.08" xlink:href="#linear-gradient"/><linearGradient id="linear-gradient-8" x1="81.33" y1="15.1" x2="81.33" y2="50.19" xlink:href="#linear-gradient"/><linearGradient id="linear-gradient-9" x1="37.81" y1="65.54" x2="77.73" y2="65.54" gradientUnits="userSpaceOnUse"><stop offset="0" stop-color="#fff"/><stop offset="0.11" stop-color="#fafafa"/><stop offset="0.23" stop-color="#ececec"/><stop offset="0.36" stop-color="#d5d5d5"/><stop offset="0.5" stop-color="#b5b5b5"/><stop offset="0.64" stop-color="#8c8c8c"/><stop offset="0.79" stop-color="#595959"/><stop offset="0.93" stop-color="#1e1e1e"/><stop offset="1"/></linearGradient><linearGradient id="linear-gradient-10" x1="106.14" y1="18.28" x2="78.48" y2="45.78" xlink:href="#linear-gradient-9"/><linearGradient id="linear-gradient-11" x1="11.58" y1="73.9" x2="41.76" y2="44.98" xlink:href="#linear-gradient-9"/><linearGradient id="linear-gradient-12" x1="91.7" y1="-3.31" x2="52.29" y2="32.9" xlink:href="#linear-gradient-9"/><linearGradient id="linear-gradient-13" x1="19.2" y1="37.74" x2="58.7" y2="37.74" xlink:href="#linear-gradient-9"/><linearGradient id="linear-gradient-14" x1="96.02" y1="94.77" x2="63.57" y2="63.84" xlink:href="#linear-gradient-9"/><linearGradient id="linear-gradient-15" x1="108.74" y1="79.07" x2="56.42" y2="23.91" xlink:href="#linear-gradient-9"/><linearGradient id="linear-gradient-16" x1="34.67" y1="14.53" x2="58.7" y2="14.53" xlink:href="#linear-gradient-9"/></defs><g class="cls-1"><g id="Layer_2" data-name="Layer 2"><g id="Object"><path class="cls-2" d="M77.73,50.18l-8.36,8.36-7.11,7.11L44.92,83a5,5,0,0,1-7.12-7.12L55.14,58.54l7.12-7.12,8.36-8.36Z"/><path class="cls-2" d="M105.32,20.51a5,5,0,0,1-1.47,3.55l-19,19L77.73,36l19-19a5,5,0,0,1,8.59,3.56Z"/><path class="cls-3" d="M89.84,5a5,5,0,0,1-1.47,3.56L53.9,43.06,46.79,36l8.35-8.36,7.12-7.11,19-19A5,5,0,0,1,89.84,5Z"/><path class="cls-3" d="M46.79,50.18,29.45,67.51a5,5,0,0,1-7.12-7.11L39.67,43.06Z"/><path class="cls-4" d="M62.26,20.48l-7.12,7.11-19-19a5,5,0,1,1,7.12-7.11Z"/><path class="cls-4" d="M102.18,67.51a5,5,0,0,1-7.11,0L62.26,34.7l7.11-7.11L77.73,36l7.12,7.11L102.18,60.4A5,5,0,0,1,102.18,67.51Z"/><path class="cls-5" d="M62.26,51.42l-7.12,7.12L20.67,24.06a5,5,0,0,1,3.56-8.59A5,5,0,0,1,27.78,17l19,19,7.11,7.11Z"/><path class="cls-5" d="M86.71,83a5,5,0,0,1-7.11,0L62.26,65.65l7.11-7.11L86.71,75.87A5,5,0,0,1,86.71,83Z"/><path class="cls-6" d="M39.71,57.13s-.19-14.3,0-14.12l7.12,7Z"/><path class="cls-7" d="M53.9,28.85s.19,14.31,0,14.12l-7.11-7Z"/><path class="cls-8" d="M48.14,20.38s14.3-.18,14.12,0l-7,7.12Z"/><path class="cls-9" d="M69.37,27.5s.19,14.3,0,14.11l-7.11-7Z"/><path class="cls-10" d="M77.73,50.09s-14.3.18-14.12,0l7-7.12Z"/><path class="cls-11" d="M55.14,58.44s-.18-14.3,0-14.11l7.12,7Z"/><path class="cls-12" d="M69.37,58.44s.19,14.31,0,14.12-7.11-7-7.11-7Z"/><path class="cls-13" d="M84.85,28.85S85,43.16,84.85,43l-7.12-7Z"/><g class="cls-14"><polygon class="cls-15" points="46.33 49.72 40.43 43.82 43.23 46.62 46.33 49.72"/><polygon class="cls-15" points="62.26 51.42 70.62 43.06 72.24 44.69 62.26 34.71 53.9 43.06 62.26 51.42"/><path class="cls-16" d="M65.81,55l-3.55,3.56L37.81,83a5,5,0,0,0,7.11,0L62.26,65.65l3.55-3.56,3.56-3.55,8.36-8.36L75.57,48l-1.4-1.39Z"/><path class="cls-17" d="M103.84,17,81.29,39.51l3.55,3.55,19-19A5,5,0,0,0,103.84,17Z"/><path class="cls-18" d="M65.81,55l8.36-8.36-1.93-1.93-1.62-1.63-8.36,8.36L58.7,55l-3.56,3.56h0L37.81,75.87a5,5,0,0,0,0,7.12L62.26,58.54Z"/><path class="cls-18" d="M103.84,17a5,5,0,0,0-7.11,0l-19,19,3.56,3.56Z"/><path class="cls-19" d="M43.23,46.62,22.33,67.51a5,5,0,0,1,0-7.11L39.67,43.06l.76.76Z"/><path class="cls-20" d="M58.7,31.15l3.56-3.56L65.81,24,88.37,1.48a5,5,0,0,0-7.11,0l-19,19L58.7,24l-3.56,3.56L46.78,36l3.56,3.56Z"/><path class="cls-18" d="M43.23,46.62,22.33,67.51a5,5,0,0,0,7.12,0L46.78,50.18l-.45-.46Z"/><path class="cls-18" d="M62.26,27.59,58.7,31.15l-8.36,8.36,3.56,3.55,8.36-8.35,3.55-3.56,3.56-3.56,19-19a5,5,0,0,0,0-7.11L65.81,24Z"/><path class="cls-21" d="M43.23,39.51,20.67,17a5,5,0,0,0,0,7.11l19,19h0l.76.76,5.9,5.9.45.46h0l8.36,8.36L58.7,55Z"/><path class="cls-22" d="M62.26,65.65,79.59,83a5,5,0,0,0,7.12,0l-20.9-20.9Z"/><path class="cls-18" d="M58.7,55l3.56-3.56L53.9,43.06l-3.56-3.55L46.78,36l-19-19a5,5,0,0,0-7.11,0L43.23,39.51Z"/><path class="cls-18" d="M86.71,83a5,5,0,0,0,0-7.12L69.37,58.54l-3.56,3.55Z"/><path class="cls-18" d="M77.73,36l-8.36-8.36-3.56,3.56L77.73,43.06l3.56,3.56,20.89,20.89a5,5,0,0,0,0-7.11L84.84,43.06l-3.55-3.55Z"/><path class="cls-18" d="M62.26,20.48l-19-19a5,5,0,0,0-7.11,0L58.7,24Z"/><path class="cls-23" d="M77.73,43.06,65.81,31.15l-3.55,3.56,10,10,1.93,1.93L75.57,48l19.5,19.5a5,5,0,0,0,7.11,0L81.29,46.62Z"/><path class="cls-24" d="M36.14,1.48a5,5,0,0,0,0,7.11l19,19L58.7,24Z"/></g><path class="cls-2" d="M27.57,116.46l-2,3.79v2.58h-.41v-2.58l-2-3.79h.48l1.75,3.36,1.74-3.36Z"/><path class="cls-2" d="M36.13,116.82a2.84,2.84,0,0,1,1.1,1.15,3.53,3.53,0,0,1,.39,1.68,3.59,3.59,0,0,1-.39,1.68,2.9,2.9,0,0,1-1.1,1.15,3,3,0,0,1-1.57.42,3,3,0,0,1-1.58-.42,2.9,2.9,0,0,1-1.1-1.15,3.59,3.59,0,0,1-.39-1.68,3.53,3.53,0,0,1,.39-1.68,2.84,2.84,0,0,1,1.1-1.15,3,3,0,0,1,1.58-.42A3,3,0,0,1,36.13,116.82Zm-2.92.31a2.48,2.48,0,0,0-1,1,3.19,3.19,0,0,0-.35,1.52,3.15,3.15,0,0,0,.35,1.51,2.51,2.51,0,0,0,1,1,2.76,2.76,0,0,0,2.69,0,2.53,2.53,0,0,0,1-1,3.15,3.15,0,0,0,.34-1.51,3.19,3.19,0,0,0-.34-1.52,2.5,2.5,0,0,0-1-1,2.69,2.69,0,0,0-2.69,0Z"/><path class="cls-2" d="M42.39,116.46v3.91a2.3,2.3,0,0,0,.49,1.63,1.73,1.73,0,0,0,1.32.51,1.7,1.7,0,0,0,1.31-.51,2.35,2.35,0,0,0,.47-1.63v-3.91h.42v3.91a2.7,2.7,0,0,1-.59,1.9,2.14,2.14,0,0,1-1.61.62,2.16,2.16,0,0,1-1.62-.62,2.66,2.66,0,0,1-.6-1.9v-3.91Z"/><path class="cls-2" d="M54.41,122.83l-1.84-2.71H51.38v2.71H51v-6.37h1.78a2.17,2.17,0,0,1,1.57.49,1.82,1.82,0,0,1,.51,1.35,1.74,1.74,0,0,1-.47,1.28,2,2,0,0,1-1.35.53l1.87,2.72Zm-3-3h1.34c1.14,0,1.7-.49,1.7-1.47a1.44,1.44,0,0,0-.4-1.1,1.87,1.87,0,0,0-1.3-.38H51.38Z"/><path class="cls-2" d="M68.28,122.05a1.53,1.53,0,0,1-.6.61,2.08,2.08,0,0,1-1,.23,2.25,2.25,0,0,1-1-.23,2,2,0,0,1-.73-.6,1.69,1.69,0,0,1-.31-.82H65a1.68,1.68,0,0,0,.23.59,1.53,1.53,0,0,0,.55.52,1.71,1.71,0,0,0,.88.21,1.39,1.39,0,0,0,1-.37,1.29,1.29,0,0,0,.36-.93,1.18,1.18,0,0,0-.22-.76,1.53,1.53,0,0,0-.56-.45,6.79,6.79,0,0,0-.9-.32,7.58,7.58,0,0,1-1-.35,1.5,1.5,0,0,1-.61-.51,1.48,1.48,0,0,1-.25-.9,1.46,1.46,0,0,1,.48-1.13,1.86,1.86,0,0,1,1.33-.44,2.07,2.07,0,0,1,1.36.42,1.76,1.76,0,0,1,.61,1h-.43a1.43,1.43,0,0,0-.48-.77,1.54,1.54,0,0,0-1.06-.35,1.5,1.5,0,0,0-1,.32,1.28,1.28,0,0,0-.16,1.63,1.34,1.34,0,0,0,.54.43,6.33,6.33,0,0,0,.87.31,6.13,6.13,0,0,1,1,.36,1.6,1.6,0,0,1,.63.53,1.58,1.58,0,0,1,.26,1A1.7,1.7,0,0,1,68.28,122.05Z"/><path class="cls-2" d="M73.28,122.49h2.37v.34H72.87v-6.37h.41Z"/><path class="cls-2" d="M84.15,116.82A2.81,2.81,0,0,1,85.24,118a3.53,3.53,0,0,1,.39,1.68,3.59,3.59,0,0,1-.39,1.68,2.88,2.88,0,0,1-1.09,1.15,3.18,3.18,0,0,1-3.16,0,2.88,2.88,0,0,1-1.09-1.15,3.48,3.48,0,0,1-.4-1.68,3.42,3.42,0,0,1,.4-1.68A2.81,2.81,0,0,1,81,116.82a3.18,3.18,0,0,1,3.16,0Zm-2.93.31a2.48,2.48,0,0,0-1,1,3.19,3.19,0,0,0-.35,1.52,3.15,3.15,0,0,0,.35,1.51,2.51,2.51,0,0,0,1,1,2.66,2.66,0,0,0,1.35.35,2.72,2.72,0,0,0,1.35-.35,2.51,2.51,0,0,0,1-1,3.15,3.15,0,0,0,.35-1.51,3.19,3.19,0,0,0-.35-1.52,2.48,2.48,0,0,0-1-1,2.62,2.62,0,0,0-1.35-.36A2.57,2.57,0,0,0,81.22,117.13Z"/><path class="cls-2" d="M94.68,116.94a2.85,2.85,0,0,1,1,1.45H95.3a2.4,2.4,0,0,0-.9-1.16,2.57,2.57,0,0,0-1.52-.45,2.63,2.63,0,0,0-1.34.35,2.48,2.48,0,0,0-1,1,3.5,3.5,0,0,0,0,3.05,2.38,2.38,0,0,0,1,1,2.7,2.7,0,0,0,1.36.35,2.62,2.62,0,0,0,1.3-.33,2.36,2.36,0,0,0,1-.93,2.94,2.94,0,0,0,.39-1.42H92.73v-.32h3.18v.31a3.27,3.27,0,0,1-.41,1.57,2.9,2.9,0,0,1-1.07,1.1,3.25,3.25,0,0,1-3.14,0,2.88,2.88,0,0,1-1.09-1.15,3.71,3.71,0,0,1-.38-1.68A3.65,3.65,0,0,1,90.2,118a2.81,2.81,0,0,1,1.09-1.15,3,3,0,0,1,1.59-.42A3,3,0,0,1,94.68,116.94Z"/><path class="cls-2" d="M103.91,121.17h-3l-.62,1.66h-.45l2.35-6.2h.46l2.34,6.2h-.45Zm-.13-.33-1.38-3.71L101,120.84Z"/><path class="cls-2" d="M113.64,122.83h-.41l-3.72-5.68v5.68h-.41v-6.36h.41l3.72,5.67v-5.67h.41Z"/><path class="cls-2" d="M8.32,95.41A4.73,4.73,0,0,1,10,98.23H7.35A2.41,2.41,0,0,0,5,96.69a2.21,2.21,0,0,0-1.77.8,3.27,3.27,0,0,0-.68,2.16,3.22,3.22,0,0,0,.68,2.15,2.21,2.21,0,0,0,1.77.8,2.57,2.57,0,0,0,1.45-.41,2.55,2.55,0,0,0,.9-1.12H10a4.73,4.73,0,0,1-1.68,2.81,5,5,0,0,1-3.27,1.05,5.13,5.13,0,0,1-2.66-.67,4.56,4.56,0,0,1-1.77-1.87,6.36,6.36,0,0,1,0-5.48A4.56,4.56,0,0,1,2.39,95a5.13,5.13,0,0,1,2.66-.67A5.06,5.06,0,0,1,8.32,95.41Z"/><path class="cls-2" d="M20.47,95a5,5,0,0,1,1.88,1.9A5.38,5.38,0,0,1,23,99.62a5.44,5.44,0,0,1-.69,2.74,5,5,0,0,1-1.9,1.9,5.48,5.48,0,0,1-5.29,0,4.93,4.93,0,0,1-1.89-1.9,5.35,5.35,0,0,1-.7-2.74,5.28,5.28,0,0,1,.7-2.73A5,5,0,0,1,15.16,95a5.52,5.52,0,0,1,5.31,0Zm-4.62,2.45a3.61,3.61,0,0,0,0,4.35,2.48,2.48,0,0,0,2,.81,2.51,2.51,0,0,0,2-.81,3.59,3.59,0,0,0,0-4.34,2.48,2.48,0,0,0-2-.81A2.51,2.51,0,0,0,15.85,97.44Z"/><path class="cls-2" d="M37.58,94.55v10.29H35.07V98.4l-2.23,6.44H30.67l-2.24-6.45v6.45H25.92V94.55H29l2.8,7.17,2.75-7.17Z"/><path class="cls-2" d="M43.28,101.2v3.64h-2.5V94.47h4.06a3.93,3.93,0,0,1,2.81.92,3.22,3.22,0,0,1,1,2.47,3.35,3.35,0,0,1-.43,1.72,3,3,0,0,1-1.28,1.19,4.52,4.52,0,0,1-2.07.43Zm2.79-3.34c0-.91-.5-1.36-1.51-1.36H43.28v2.7h1.28C45.57,99.2,46.07,98.75,46.07,97.86Z"/><path class="cls-2" d="M57.75,103H53.86l-.65,1.89H50.57l3.8-10.29h2.89l3.8,10.29H58.39ZM57.1,101l-1.29-3.81L54.5,101Z"/><path class="cls-2" d="M72.71,104.84H70.2L66,98.48v6.36H63.5V94.47H66l4.2,6.43V94.47h2.51Z"/><path class="cls-2" d="M84.87,94.47l-3.6,6.93v3.44H78.75V101.4l-3.59-6.93H78l2,4.23,2-4.23Z"/><path class="cls-2" d="M100.91,104.84H98.4l-4.19-6.36v6.36H91.7V94.47h2.51l4.19,6.43V94.47h2.51Z"/><path class="cls-2" d="M110.53,103h-3.88l-.65,1.89h-2.64l3.8-10.29h2.89l3.8,10.29h-2.67Zm-.64-1.91-1.29-3.81L107.29,101Z"/><path class="cls-2" d="M127.94,94.55v10.29h-2.5V98.4l-2.23,6.44H121l-2.25-6.45v6.45h-2.51V94.55h3.07l2.8,7.17,2.74-7.17Z"/><path class="cls-2" d="M133.65,96.47v2.17h3.51v1.89h-3.51v2.3h3.95v2h-6.46V94.47h6.46v2Z"/></g></g></g></svg>