<svg xmlns="http://www.w3.org/2000/svg" xmlns:xlink="http://www.w3.org/1999/xlink" viewBox="0 0 2739.56 2741.63"><defs><style>.cls-1{fill:none;}.cls-2{isolation:isolate;}.cls-3{fill:#99cb91;}.cls-4{fill:#bddaa4;}.cls-5{clip-path:url(#clip-path);}.cls-6{fill:#90c57f;}.cls-7{fill:#85c1cf;}.cls-8{fill:#e7f2f2;}.cls-9{fill:#b1d5de;}.cls-10{clip-path:url(#clip-path-2);}.cls-11{fill:#444b59;}.cls-12{fill:#f7c264;}.cls-13{fill:#f9cbcc;}.cls-14{fill:#eb5d5d;}.cls-15{fill:#fecc50;}.cls-16{fill:#ebded6;}.cls-17{fill:#f3a35c;}.cls-18{fill:#fdeff0;}.cls-19{fill:#c6baaf;}.cls-20{fill:#a1968e;}.cls-21{fill:#eb5974;}.cls-22{fill:#ffe165;}.cls-23{fill:#f2b953;}.cls-24{fill:#fff;}.cls-25{fill:#474a78;}.cls-26{fill:#5d5f8c;}.cls-27{fill:#5887c5;}.cls-28{fill:#5ebfc6;}.cls-29{fill:#8487c1;}.cls-30,.cls-47{mix-blend-mode:multiply;}.cls-31,.cls-47{fill:#b0b0af;}.cls-32{fill:#ce4a4a;}.cls-33{fill:#de8a4b;}.cls-34{fill:#fef075;}.cls-35{fill:#f1b0d0;}.cls-36{fill:#95cdb2;}.cls-37{fill:#ed8b44;}.cls-38{fill:#fab84d;}.cls-39{fill:#f2c3a7;}.cls-40{fill:#7f645e;}.cls-41{fill:#412924;}.cls-42{fill:#fcc13a;}.cls-43{fill:#55678c;}.cls-44{fill:#e1c990;}.cls-45{fill:#b05647;}.cls-46{fill:#e36949;}.cls-48{fill:#d8d8d8;}.cls-49{fill:#d2345e;}.cls-50{fill:#40444c;}.cls-51{fill:#f0837b;}.cls-52{fill:#414959;}.cls-53{fill:#c66c68;}.cls-54{fill:#ce9d84;}.cls-55{fill:#282f52;}.cls-56{fill:#ef7c7a;}</style><clipPath id="clip-path"><path class="cls-1" d="M2166.86,2535h434.63l81.91-265.1s105.84-102.71,95.78-153.33-127.64-135.71-220.63-122.4-186.18,59.87-240.77,131S2138,2437.44,2166.86,2535Z"/></clipPath><clipPath id="clip-path-2"><path class="cls-1" d="M2064.82,1494.67c0,5.89-139.59,10.67-311.78,10.67s-311.78-4.78-311.78-10.67,24.67-349,311.78-349C2064.82,1145.68,2064.82,1488.78,2064.82,1494.67Z"/></clipPath></defs><g class="cls-2"><g id="Layer_2" data-name="Layer 2"><g id="Layer_1-2" data-name="Layer 1"><path class="cls-3" d="M2310.29,2363.17c49.68,5.27,96.43-24.77,113.79-71.62,21.06-56.85,52.39-151,64.3-236.24,18.63-133.37,109.27-122.36,78.18-189.7s-232.21,15.12-304.08,162.82C2203.09,2150.48,2191.08,2350.53,2310.29,2363.17Z"/><path class="cls-4" d="M2225.62,2143.28l60.63-.6L2244,2073.23q1.42-4.11,2.91-8.15l80.8,132.86c3.85-24.26,8.73-50,14.89-75.48a3.31,3.31,0,0,1,.34-1.39,591.26,591.26,0,0,1,22-72c-1.11-4.42-5.43-21.92-9.91-44-5.24-4.33-29.31-24.7-45.4-46.81q2.28-2.6,4.6-5.14c11.85,16.6,29,32.74,38.7,41.27-4.4-23-8.46-49.22-9.21-70.25q3.24-2.85,6.52-5.63c.25,36.65,13.45,96.25,19,119.79a295,295,0,0,1,21.28-42,343.69,343.69,0,0,1,125.2-119.17,316.67,316.67,0,0,1,44.83-20.49,34.63,34.63,0,0,1,4.19,5.67,309.84,309.84,0,0,0-46,20.84,336.89,336.89,0,0,0-122.5,116.7c-19.59,31.44-34.3,73-45.35,117.05l136.58-55.62c-.39,2.57-.79,5.16-1.21,7.75L2349,2124.92c-12.54,52.46-20.08,107.89-24.58,153.93l117.55-38c-.9,2.67-1.79,5.32-2.67,7.92l-115.58,37.33c-3.05,32.79-4.55,60.22-5.28,77.56q-3.36-.1-6.73-.42c.73-17.83,2.26-46.17,5.41-79.83a.88.88,0,0,1,0-.17c1.4-15,3.12-31,5.23-47.55,1.12-8.8,2.39-18,3.81-27.47l-35.82-58.89-65.86.64C2224.82,2147.77,2225.21,2145.52,2225.62,2143.28Z"/><g class="cls-5"><path class="cls-6" d="M2236.38,2718.5a82.06,82.06,0,0,1-26.47-60.7c.33-100,23.78-363.42,164.22-474.73,176.36-139.78,275.56-148.8,346.6-84.84,60.86,54.79-43.66,77.94-62.67,100.71-38.67,46.34-23.87,134.62-87.76,224.52-47.11,66.3-178.07,221.28-243.59,298.09-20.9,24.5-57.77,26.93-81.21,5.35Z"/><path class="cls-4" d="M2400.08,2570.11a3.9,3.9,0,0,0-5.39-1.23l-73,45.75c21.28-37.34,45.9-81,69.16-123.38L2496,2437.74a3.94,3.94,0,0,0,1.76-5.27,3.88,3.88,0,0,0-5.25-1.71l-95,48.34c10.78-19.75,21.17-39,30.66-57.08,17.34-32.95,37.39-67.86,59-101.78l104.9-50.27a4,4,0,0,0,1.88-5.24,3.89,3.89,0,0,0-5.21-1.83l-93.5,44.82c58.33-89.43,126.37-169.16,181.58-183.39a4,4,0,0,0,2.86-4.78,3.87,3.87,0,0,0-4.74-2.82c-37.94,9.78-83.31,48.26-134.83,114.36-19.16,24.6-37,50.18-52.94,74.75L2474,2193.94a3.88,3.88,0,0,0-4.35-3.39,4,4,0,0,0-3.44,4.39l14.35,121.28c-26.08,41-46.64,78.29-59.23,102.21-10,19-21,39.4-32.4,60.25l-38.74-111.6a3.88,3.88,0,0,0-5-2.37,4,4,0,0,0-2.42,5L2383.8,2488c-24.32,44.28-50.13,90-72,128.34l-21.49-70.81a3.89,3.89,0,0,0-4.89-2.57,4,4,0,0,0-2.61,4.92l23.62,77.86c-27.86,48.74-48.16,83.5-48.61,84.27a3.89,3.89,0,0,0,.7,4.85,3.41,3.41,0,0,0,.68.5,4,4,0,0,0,5.37-1.44c.45-.78,20.93-35.84,49-84.93l85.24-53.45A4,4,0,0,0,2400.08,2570.11Z"/></g><path class="cls-7" d="M2549.15,2572.92c0,19-487.1,40.33-1179.43,40.33s-1253.57-10.41-1253.57-29.37,561.25-34.33,1253.57-34.33c552.42,0,1007.69-21.7,1174.67-8.11C2586.68,2544.88,2549.15,2569.09,2549.15,2572.92Z"/><path class="cls-8" d="M1929.64,2084.32l135.18-589.21-311.78-.44-311.78.44,135.19,589.21c-.21.11-.32.22-.32.33,0,3.09,79.2,5.59,176.91,5.59s176.92-2.5,176.92-5.59C1930,2084.54,1929.84,2084.43,1929.64,2084.32Z"/><path class="cls-9" d="M2064.82,1494.67c0,5.89-139.59,10.67-311.78,10.67s-311.78-4.78-311.78-10.67S1580.85,1484,1753,1484,2064.82,1488.78,2064.82,1494.67Z"/><g class="cls-10"><path class="cls-11" d="M1782.38,1742.75l-15.84,30.72-12-30.83C1758.28,1737.21,1766.29,1731.94,1782.38,1742.75Z"/><path class="cls-12" d="M1780.57,1682.79a16.1,16.1,0,0,1,.5,1.71A3.84,3.84,0,0,1,1780.57,1682.79Z"/><path class="cls-13" d="M1782.38,1742.75c-16.09-10.81-24.1-5.54-27.83-.11l-21.3-54.77a46.29,46.29,0,0,1-3-13.53c4.55-3.6,10.17-6.22,15.28-3.32,10.93,6.2,20.35,21.13,20.35,21.13s-1.24-16.61,5.84-17.29c5.24-.51,7.84,5,8.84,7.93a3.84,3.84,0,0,0,.5,1.71,16.1,16.1,0,0,0-.5-1.71c-.09-1.79,1.12-4.54,8.65-6,6-1.12,14.44,4,21.39,10.58a45.88,45.88,0,0,1-2,4.42Z"/><path class="cls-14" d="M1755.58,1210.62l1.35-25.61a22.83,22.83,0,0,1,24-21.61l37.9,2a22.85,22.85,0,0,1,21.61,24L1839.1,1215Z"/><path class="cls-15" d="M1813.7,1673.1a46.16,46.16,0,0,1-3.09,14.32c-6.95-6.56-15.42-11.7-21.39-10.58-7.53,1.41-8.74,4.16-8.65,6-1-2.9-3.6-8.44-8.84-7.93-7.08.68-5.84,17.29-5.84,17.29s-9.42-14.93-20.35-21.13c-5.11-2.9-10.73-.28-15.28,3.32a46.1,46.1,0,0,1-.08-5.64l24.68-444.39,83.52,4.39Z"/><rect class="cls-16" x="1790.13" y="1177.85" width="13.7" height="83.63" transform="translate(484.56 2950.06) rotate(-86.99)"/><path class="cls-17" d="M1813.7,1673.1a46.16,46.16,0,0,1-3.09,14.32c-6.95-6.56-15.42-11.7-21.39-10.58a24.4,24.4,0,0,0-3.61,1c.22-5.68.56-11.26,1.06-16.57,3.64-38.52,9.86-279.31,14.45-333,2.15-25.2,4.26-65.48,5.89-101.15l31.37,1.65Z"/><path class="cls-18" d="M1766.57,1179.9c.93-5.82,5.89-10.85,12-11,2.28-.05,4.44,1.11,4.8,3.57.3,2-1.27,4.74-3.57,4.8s-4.43,1.37-4.79,3.66C1774.11,1186.29,1765.71,1185.29,1766.57,1179.9Z"/><polygon class="cls-19" points="1751.53 1284.33 1835.14 1286.94 1838.38 1228.7 1754.86 1224.31 1751.53 1284.33"/><polygon class="cls-20" points="1835.78 1275.48 1752.24 1272.61 1752.55 1265.81 1836.13 1269.24 1835.78 1275.48"/><polygon class="cls-20" points="1836.97 1254.01 1753.44 1251.3 1753.72 1244.8 1837.34 1247.43 1836.97 1254.01"/><path class="cls-11" d="M1851.48,1802.55l-19.06,26.57-7-30.51C1829.68,1794,1837.91,1790.21,1851.48,1802.55Z"/><path class="cls-12" d="M1858.05,1746.18a16.07,16.07,0,0,1,.24,1.67A3.61,3.61,0,0,1,1858.05,1746.18Z"/><path class="cls-13" d="M1851.48,1802.55c-13.57-12.34-21.8-8.51-26-3.94l-12.39-54.2a43.59,43.59,0,0,1-.93-13.08c4.75-2.74,10.37-4.42,14.76-1,9.38,7.31,16.14,22.58,16.14,22.58s1.13-15.71,7.84-15.38c5,.25,6.65,5.79,7.18,8.65a3.61,3.61,0,0,0,.24,1.67,16.07,16.07,0,0,0-.24-1.67c.17-1.69,1.68-4.1,8.92-4.38,5.75-.23,13,5.75,18.57,12.85a42.09,42.09,0,0,1-2.47,3.86Z"/><path class="cls-21" d="M1899.76,1300.76l4.79-23.8a21.61,21.61,0,0,1,25.46-16.91l35.2,7.09a21.6,21.6,0,0,1,16.91,25.45l-4.79,23.8Z"/><path class="cls-22" d="M1890.4,1741.67a43.77,43.77,0,0,1-4.86,13c-5.6-7.1-12.82-13.08-18.57-12.85-7.24.28-8.75,2.69-8.92,4.38-.53-2.86-2.2-8.4-7.18-8.65-6.71-.33-7.84,15.38-7.84,15.38s-6.76-15.27-16.14-22.58c-4.39-3.42-10-1.74-14.76,1a41.2,41.2,0,0,1,.7-5.29l84.37-412.57,77.57,15.63Z"/><rect class="cls-18" x="1930.78" y="1275.36" width="12.97" height="79.13" transform="translate(265.62 2954.33) rotate(-78.61)"/><path class="cls-23" d="M1890.4,1741.67a43.77,43.77,0,0,1-4.86,13c-5.6-7.1-12.82-13.08-18.57-12.85a22.71,22.71,0,0,0-3.51.39c1-5.28,2.08-10.47,3.28-15.36,8.72-35.56,47.74-260.1,59.44-309.74,5.48-23.29,13-60.7,19.45-93.86l29.14,5.87Z"/><path class="cls-18" d="M1914.28,1273.51c1.68-5.32,7-9.34,12.71-8.64,2.15.26,4,1.65,4,4,0,2-1.84,4.27-4,4s-4.33.68-5,2.77C1920.46,1280.53,1912.73,1278.44,1914.28,1273.51Z"/><path class="cls-11" d="M1578.42,1274.61l-18.08-27.24-8.07,30.24C1556.34,1282.33,1564.42,1286.46,1578.42,1274.61Z"/><path class="cls-12" d="M1583,1331.19a16.28,16.28,0,0,0,.29-1.66A3.59,3.59,0,0,0,1583,1331.19Z"/><path class="cls-13" d="M1578.42,1274.61c-14,11.85-22.08,7.72-26.15,3l-14.34,53.72a44.11,44.11,0,0,0-1.41,13c4.66,2.92,10.21,4.8,14.72,1.54,9.64-7,16.94-22,16.94-22s.56,15.75,7.29,15.66c5-.07,6.85-5.55,7.49-8.38a3.59,3.59,0,0,1,.29-1.66,16.28,16.28,0,0,1-.29,1.66c.1,1.69,1.53,4.15,8.75,4.7,5.74.43,13.17-5.28,19-12.18a44.93,44.93,0,0,0-2.33-4Z"/><path class="cls-14" d="M1608.55,1777.82l3.93,24a21.61,21.61,0,0,0,24.82,17.83l35.44-5.82a21.59,21.59,0,0,0,17.82-24.82l-3.93-24Z"/><path class="cls-15" d="M1615.12,1336.86a43.75,43.75,0,0,0-4.39-13.15c-5.85,6.9-13.28,12.61-19,12.18-7.22-.55-8.65-3-8.75-4.7-.64,2.83-2.51,8.31-7.49,8.38-6.73.09-7.29-15.66-7.29-15.66s-7.3,15-16.94,22c-4.51,3.26-10.06,1.38-14.72-1.54a43.33,43.33,0,0,0,.51,5.32L1606.45,1765l78.08-12.82Z"/><rect class="cls-18" x="1606.97" y="1758.53" width="79.13" height="12.97" transform="translate(-264.15 290.01) rotate(-9.32)"/><path class="cls-17" d="M1615.12,1336.86a43.75,43.75,0,0,0-4.39-13.15c-5.85,6.9-13.28,12.61-19,12.18a23.48,23.48,0,0,1-3.5-.53c.8,5.32,1.7,10.54,2.73,15.48,7.42,35.84,38.31,261.65,48.21,311.68,4.64,23.47,10.81,61.13,16,94.5l29.33-4.81Z"/><path class="cls-18" d="M1622.08,1805.58c1.48,5.37,6.67,9.58,12.39,9.09,2.15-.18,4.06-1.5,4.14-3.85.07-2-1.68-4.33-3.85-4.15s-4.31-.83-4.89-2.94C1628.51,1798.78,1620.71,1800.59,1622.08,1805.58Z"/></g><path class="cls-24" d="M1594.1,2004a12.37,12.37,0,0,1-12-9.49l-66.44-277.74a12.37,12.37,0,0,1,24.06-5.75l66.44,277.74a12.37,12.37,0,0,1-9.15,14.9A12.52,12.52,0,0,1,1594.1,2004Z"/><path class="cls-24" d="M1512.26,1661.88a12.38,12.38,0,0,1-12-9.5L1475.75,1550a12.37,12.37,0,0,1,24.06-5.75l24.49,102.38a12.38,12.38,0,0,1-9.15,14.91A12.52,12.52,0,0,1,1512.26,1661.88Z"/><path class="cls-25" d="M1100.28,2390.87v98.87a70.43,70.43,0,0,0,70.47,70.42H2497.1V2527h-44.57V2352.21h44.57v-31.76H1170.75a70.42,70.42,0,0,0-70.47,70.42Z"/><path class="cls-26" d="M1868.72,2560.18h628.39V2527h-44.59V2352.21h44.59v-31.76H1868.72S1796.47,2429.27,1868.72,2560.18Z"/><path class="cls-26" d="M1798.69,2320.45H1551.92s-72.24,108.82,0,239.73h246.77C1726.45,2429.27,1798.69,2320.45,1798.69,2320.45Z"/><path class="cls-8" d="M2463.74,2352.68v173.6H1890.79c-29.45-51-29.45-116.27,0-173.6Z"/><path class="cls-27" d="M1232.92,2151.15V2250a70.45,70.45,0,0,0,70.43,70.43H2395.86v-29.92h-44.58V2117.9h44.58v-37.22H1303.35a70.38,70.38,0,0,0-70.43,70.47Z"/><path class="cls-28" d="M1750.8,2320.43h645.06v-29.9h-44.58V2117.9h44.58v-37.2H1750.8S1678.56,2189.52,1750.8,2320.43Z"/><path class="cls-8" d="M2363.27,2117.9v172.66H1772.89c-29.46-55.74-29.47-123.5,0-172.42Z"/><rect class="cls-29" x="1204.21" y="2411.28" width="497.68" height="58.06" rx="6"/><polygon class="cls-22" points="2158.1 2200.56 2218.24 2227.79 2317.78 2227.79 2250.73 2200.56 2158.1 2200.56"/><polygon class="cls-21" points="1984.99 2181.15 2045.12 2208.38 2135.33 2208.38 2068.28 2181.15 1984.99 2181.15"/><g class="cls-30"><path class="cls-31" d="M1303.35,2080.68a70.38,70.38,0,0,0-70.43,70.47V2250a70.45,70.45,0,0,0,70.29,70.43H1170.75a70.42,70.42,0,0,0-70.47,70.42v98.87a70.43,70.43,0,0,0,70.47,70.42h302l-84.06-479.48Z"/></g><path class="cls-32" d="M489.3,1114.19v70.89H439.61v-79.15h41.44A8.25,8.25,0,0,1,489.3,1114.19Z"/><polygon class="cls-33" points="1270.84 1149.99 1094.9 1149.99 1094.9 1227.59 1280.49 1227.59 1270.84 1149.99"/><rect class="cls-17" x="1061.46" y="1149.99" width="37.65" height="1439.82"/><rect class="cls-17" x="1270.84" y="1149.99" width="37.65" height="1439.82"/><path class="cls-8" d="M1099.11,1156s33.53,13.44,82.21,14.17c2.1,0,4.47,1.2,8.45,24.2.34,2,2-24.24,4-24.3a259,259,0,0,0,77.08-14.07V2589.81H1197l-3.86-10.8-5,10.8h-20.73l-4.15-7.07-5.7,7.07h-58.52Z"/><path class="cls-15" d="M1061.46,1150H255.06a19.61,19.61,0,0,0-19.61,19.61V2570.2a19.61,19.61,0,0,0,19.61,19.61h806.4Z"/><rect class="cls-17" x="455.6" y="1827.92" width="437.55" height="227.07"/><rect class="cls-14" x="444.2" y="1818.59" width="437.55" height="75.69"/><rect class="cls-34" x="444.2" y="1894.28" width="437.55" height="75.69"/><rect class="cls-14" x="444.2" y="1969.97" width="437.55" height="75.69"/><path class="cls-17" d="M748.72,1539.87a34,34,0,0,1-4.1-.25c-7.85-.94-11.38-3.1-14-4.68-1.88-1.16-2.75-1.69-6.73-1.66-8.59,0-13.15,4.19-13.34,4.37l.09-.08-10.23-10.3c.87-.86,8.88-8.42,23.39-8.5,7.51,0,11,1.69,14.41,3.79,1.9,1.17,3.4,2.09,8.1,2.65,8.85,1.07,13.84-4,14-4.21l-.07.08,10.76,9.74C767.84,1534.41,759.79,1539.87,748.72,1539.87Z"/><path class="cls-17" d="M433.19,1648.75H394.75V1715h43.64l-2.47,16.77H376.51V1560.34h58.88v16.89H394.75V1632h38.44Z"/><path class="cls-17" d="M466.94,1683.49v9.93c0,16.15,5.58,24.78,17.59,24.78,12.27,0,17.13-8.89,17.13-27.67,0-20.06-4.41-27.85-22.47-41.92-18.33-14.34-27.64-23-27.64-48.26,0-21.72,6.51-42.55,33.4-42.41,25.52.14,32.26,17.12,32.26,38.89v8H499.09v-7.46c0-14.23-2.78-23.43-14.51-23.43s-14.79,10.32-14.79,23.75c0,15.94,3.17,22,18.89,33.87,23.8,18,31.33,28,31.33,56.48,0,24.1-6.88,46-35.8,46-27.67,0-35.51-18.13-35.51-40.71v-9.84Z"/><path class="cls-17" d="M538.67,1560.34H570c25.47,0,37.6,12.9,37.6,40.59v10.43c0,25.77-7.69,44.79-38.86,44.79H556.91v75.6H538.67Zm18.24,80.43h10.2c19.43,0,22.25-11.92,22.25-29.74v-9.19c0-13.88-3-26-20.67-26H556.91Z"/><path class="cls-17" d="M634.24,1677.05l-8.19,54.7H607.58l28.16-171.41h26L691,1731.75h-19.1l-8.82-54.7Zm26.52-16.77c-6-37.75-10.28-66.91-11.92-83.12h-.74c-.63,13.25-6.77,51.81-11.39,83.12Z"/><path class="cls-17" d="M705.74,1731.75V1560.34H727.5c9.24,31.73,33.08,121.59,35.88,135.58h.4c-1-23-1.29-47.16-1.29-75.11v-60.47h17.19v171.41h-21c-9.13-32.17-33.69-126.5-36.93-140.15h-.26c1.14,20.64,1.59,48,1.59,79v61.19Z"/><path class="cls-17" d="M875.4,1602.45v86.38c0,30.11-12.41,45.21-38,45.21-26.54,0-36.25-16.92-36.25-45v-86.59c0-29.11,13.25-44.41,37.49-44.41C864,1558.06,875.4,1575.37,875.4,1602.45Zm-55.59-.84v89c0,19.26,7,26.94,18.5,26.94,12.13,0,18.47-7.44,18.47-27.76v-88.11c0-18.19-6.25-26.92-18.61-26.92S819.81,1583,819.81,1601.61Z"/><path class="cls-17" d="M897.42,1560.34h18.24v155h43.11l-2,16.42H897.42Z"/><path class="cls-24" d="M423.86,1644.6H385.42v66.23h43.64l-2.47,16.77H367.18V1556.19h58.87v16.89H385.42v54.75h38.44Z"/><path class="cls-24" d="M457.61,1679.34v9.94c0,16.14,5.58,24.77,17.59,24.77,12.27,0,17.12-8.89,17.12-27.67,0-20.06-4.41-27.85-22.46-41.92-18.34-14.34-27.64-23-27.64-48.26,0-21.72,6.51-42.55,33.4-42.41,25.52.14,32.26,17.12,32.26,38.89v8H489.76v-7.46c0-14.23-2.78-23.42-14.51-23.42s-14.79,10.31-14.79,23.74c0,15.94,3.17,22,18.89,33.88,23.8,18,31.33,28,31.33,56.47,0,24.1-6.88,46.05-35.81,46.05-27.66,0-35.5-18.13-35.5-40.71v-9.84Z"/><path class="cls-24" d="M529.34,1556.19h31.35c25.47,0,37.6,12.9,37.6,40.59v10.43c0,25.78-7.7,44.79-38.86,44.79H547.58v75.6H529.34Zm18.24,80.44h10.19c19.44,0,22.26-11.92,22.26-29.75v-9.19c0-13.88-3-26-20.67-26H547.58Z"/><path class="cls-24" d="M624.91,1672.9l-8.19,54.7H598.25l28.15-171.41h26l29.32,171.41h-19.1l-8.82-54.7Zm26.52-16.77c-6-37.75-10.28-66.91-11.92-83.12h-.74c-.63,13.25-6.77,51.81-11.39,83.12Z"/><path class="cls-24" d="M696.41,1727.6V1556.19h21.76c9.24,31.73,33.08,121.59,35.88,135.59h.4c-1-23-1.29-47.17-1.29-75.12v-60.47h17.19V1727.6h-21c-9.12-32.17-33.68-126.5-36.92-140.15h-.26c1.14,20.64,1.58,48,1.58,79v61.19Z"/><path class="cls-24" d="M866.06,1598.3v86.38c0,30.12-12.41,45.21-37.95,45.21-26.54,0-36.25-16.91-36.25-45v-86.6c0-29.11,13.25-44.41,37.49-44.41C854.68,1553.91,866.06,1571.22,866.06,1598.3Zm-55.58-.84v89c0,19.27,7,26.94,18.5,26.94,12.13,0,18.47-7.44,18.47-27.76v-88.11c0-18.19-6.25-26.92-18.62-26.92S810.48,1578.8,810.48,1597.46Z"/><path class="cls-24" d="M888.08,1556.19h18.25v155h43.1l-2,16.42H888.08Z"/><path class="cls-24" d="M743.36,1537.63a34.15,34.15,0,0,1-4.1-.25c-7.84-.94-11.38-3.11-14-4.69-1.88-1.15-2.75-1.68-6.73-1.65-8.58,0-13.14,4.19-13.33,4.36l.08-.08L695.09,1525c.87-.86,8.89-8.41,23.39-8.5,7.51,0,11,1.69,14.41,3.79,1.9,1.17,3.41,2.09,8.1,2.66,8.85,1.06,13.84-4,14-4.21l-.08.08,10.77,9.74C762.48,1532.16,754.43,1537.63,743.36,1537.63Z"/><path class="cls-9" d="M1187.7,2555a2.25,2.25,0,0,1-2.25-2.25V1199.33a2.25,2.25,0,1,1,4.49,0V2552.77A2.24,2.24,0,0,1,1187.7,2555Z"/><rect class="cls-35" x="850.2" y="1070.68" width="135.48" height="79.31"/><rect class="cls-36" x="657.87" y="1023.85" width="135.48" height="126.14"/><polygon class="cls-17" points="359.45 1387.78 418.89 1357.54 492.18 1387.78 490 1149.99 359.45 1149.99 359.45 1387.78"/><path class="cls-14" d="M449,1099H360.21a21.52,21.52,0,0,0-21.52,21.53v267.23l59.43-30.24,73.29,30.24L469,1124a15.75,15.75,0,0,1,15.25-15.74l2.55-.09h0C480.05,1101.7,462.13,1099,449,1099Z"/><rect class="cls-37" x="286.54" y="1149.99" width="7.87" height="1439.82"/><path class="cls-24" d="M315.19,2231.69a5.62,5.62,0,0,1-5.62-5.62V1515.83a5.62,5.62,0,0,1,11.24,0v710.24A5.62,5.62,0,0,1,315.19,2231.69Z"/><path class="cls-24" d="M315.19,1418.8a5.62,5.62,0,0,1-5.62-5.62V1203.74a5.62,5.62,0,1,1,11.24,0v209.44A5.61,5.61,0,0,1,315.19,1418.8Z"/><path class="cls-9" d="M1223.59,1972.21a2.24,2.24,0,0,1-2.25-2.24V1485.91a2.25,2.25,0,0,1,4.5,0V1970A2.24,2.24,0,0,1,1223.59,1972.21Z"/><path class="cls-9" d="M1223.59,2247.09a2.25,2.25,0,0,1-2.25-2.25V2036.45a2.25,2.25,0,0,1,4.5,0v208.39A2.25,2.25,0,0,1,1223.59,2247.09Z"/><path class="cls-28" d="M687.24,796.61a6.8,6.8,0,0,1-1.89-.27A606,606,0,0,1,628,775.79c-40.6-17-65.45-33.74-73.87-49.75-.79-1.51-7.68-8.95-65.68-7.3-38.82,1.11-89.72,5.83-138.94,10.4-86.55,8-168.28,15.61-198.11,6.06-16.49-5.28-35.12-24.56-55.36-57.29-17.84-28.86-35.75-66.23-51.79-108.07C18.07,501.55-8.54,403.55,2.61,352.1c4.87-22.48,28-41.34,70.78-57.65,35.36-13.49,83.13-25,146.07-35.12C333.1,241,469.16,231.6,578.49,224l40.15-2.8c67.49-4.81,112.54,12.16,141.74,53.37,26,36.71,36.39,87.48,48.42,146.26,5.8,28.36,11.8,57.69,20,87.48,15,54.09.75,98.45-42.25,131.85-34.82,27-80.08,40.65-110,49.66-9.73,2.92-20.65,6.21-24.07,8.17-.15,2.72,1,13.35,18.36,47.71,10.66,21.12,22.08,40.52,22.19,40.71a6.75,6.75,0,0,1-5.81,10.17ZM505,705c37.62,0,55.68,4.49,61.08,14.76,11.95,22.74,71.2,46.56,106.81,58.49-4.26-7.67-9.58-17.5-14.68-27.66-20.82-41.49-20.68-53.14-17.8-59.06,2.67-5.47,9.88-7.87,32.28-14.6,29-8.72,72.8-21.89,105.64-47.4,38.8-30.14,51.08-68.61,37.52-117.6-8.36-30.23-14.41-59.78-20.26-88.36-11.72-57.3-21.84-106.78-46.21-141.17-26.21-37-67.45-52.14-129.77-47.72-12.79.91-26.23,1.84-40.18,2.81-109,7.55-244.77,16.95-357.81,35.16-61.16,9.86-109.4,21.43-143.41,34.4C40.57,321.41,19.57,337.53,15.79,355c-8.65,40,7.46,122.4,41.05,210.05,32.87,85.74,72.52,149,98.67,157.34,27.2,8.72,111.36.91,192.74-6.65,49.44-4.58,100.56-9.33,139.81-10.44Q497.12,705,505,705Zm147.61-7.72Z"/><path class="cls-38" d="M865.22,423.46c-17.62-7.35,0-16,0-16s-17.71,3.78-43-6.26c-1.52-.6-2.83-1.19-4-1.76-11.34,6.93-22,14.3-25.06,16.13-5.76,3.39-43.3,11.09-43.3,11.09L644.45,411.16c-34.28-10.27-104-29-136.44-43.7s-98.07-14.24-128.82-16.63-148.81-12.06-176.87-3.3-70.55,59.79-73.82,118.19,49.43,153.59,145.15,174.2,217-63,252-95.73S621,518,658,509.47,824,466,866.14,456.73c7.88-1.74,15.28-3.6,22.12-5.54C878.59,442.35,878.37,428.94,865.22,423.46Z"/><path class="cls-11" d="M938.07,426.57c1.38-8-15.17-24.84-33.59-34.48s-36.33.34-36.33.34a26.3,26.3,0,0,0-23.51-6.09c-6.5,1.53-16.72,7.13-26.41,13.06,1.14.57,2.45,1.16,4,1.76,25.28,10,43,6.26,43,6.26s-17.59,8.69,0,16c13.15,5.48,13.37,18.89,23,27.73C918,442.79,937,433.08,938.07,426.57Z"/><path class="cls-24" d="M214.55,354s101,.24,148.48,5.26,98.89,3,121.08,11.53,71,21.88,84.14,35.73-67.82,46.56-91.69,63.38-115.39,60.72-194.83,49.9S153.32,493.49,151.18,456,177.74,353.59,214.55,354Z"/><path class="cls-14" d="M155.11,456.08s15.73,23.59,39.95,35.9,54.48,8.54,86.71,9.68,68.32-9,95.6-10.32,52.1-20,75.53-29.69,50.1-28.38,63.66-32.3,49.27-11.71,50.48-17.28-5.54-7.32-17-11.68-35-15.57-47.83-19.82S478,370.11,460.88,369.86s-107.42-5.06-143.29-8.3-83.95,6.6-101.24,12.34S163.69,373.46,155.11,456.08Z"/><path class="cls-24" d="M169.33,477.42a178.08,178.08,0,0,0,42.61-7.09c21.57-6.6,28.77-15.54,42.16-21.49s30.45-11.28,53.22-14.44S363.13,414,388.7,409.48s63.23-7.32,87.94-7.2,73.69-6,75.07-4.6-28.09,3.53-37.36,5.66-49.39,6.37-64.52,5.59-35.28,1.67-46.43,4.35-3.17,6.85,7.8,6.21,38.87-.74,58.77-2.21,59.06-7.35,58.8-6.37-8.37,2.71-13.13,5-50.53,5.38-63.4,8-37.44,6-49.54,4.25S390,415.38,379,418.81s-51.52,24-63.52,25.91-46.12,1.8-59.36,9.87-22.55,15.76-31.66,18.63-34.34,16.89-40.46,15S169.33,477.42,169.33,477.42Z"/><path class="cls-24" d="M156.4,429.12s8.5-8.6,47.11-16.38,26-14.18,65.92-16.38S367,379.1,381.92,379.15s59.84-13.08,59.84-13.08l3.27.84s-22.08,8.57-34.92,11.7-35.9,3.42-43.4,4.78S300,396.62,291.84,398s-34,1.47-44.18,3.72-35.26,13.69-43.29,15.79-45.25,14.6-47.52,16.62S151.31,431.28,156.4,429.12Z"/><path class="cls-39" d="M1370.9,168.44s38.24.56,58.13-3.27,31-14.15,33.66-21.8.1-24.86,8.08-18,7.32,37.87,0,51.64S1408,188.89,1408,188.89Z"/><path class="cls-39" d="M1314.66,171.29s-45.13,4.21-55.08,2.3-19.51-12.63-22.95-19.89-4.21-6.89-6.5-3.45-6.12,18.75-2.3,31,6.63,17.25,19.89,22.07,47.34-4.09,47.34-4.09S1304.61,172.44,1314.66,171.29Z"/><path class="cls-40" d="M1409.14,187.21a168.29,168.29,0,0,1,31.75,6.5c15.3,5,28.3,7.65,29.83,18.74s-32.89,7.27-53.55,0S1409.14,187.21,1409.14,187.21Z"/><path class="cls-40" d="M1291.33,203.42s-26-1.91-38.25,10-16.45,21.42-12.24,23.71,47.81-4.2,50.49-8.79S1298.19,203.49,1291.33,203.42Z"/><path class="cls-40" d="M1405.32,293.71c.77-12.24,19.5-27.14,19.5-41.33,0-4.59-.76-67.32-16.06-77.26s-71.91-6.89-94.1-3.83-22.18,16.83-26.77,25.25c-2.24,4.1-3.39,19.08-4,33.38a68.48,68.48,0,0,0,15.36,46.24,80.47,80.47,0,0,1,8.5,12.18,67.6,67.6,0,0,1,6.82,21.18c2.57-4.85,8.2-10.85,20.51-14.41,21.12-6.1,51.72-9.43,70.15,1.37C1405.24,295.59,1405.26,294.67,1405.32,293.71Z"/><path class="cls-39" d="M1335.11,295.11c-12.31,3.56-17.94,9.56-20.51,14.41a66.15,66.15,0,0,1,.83,7.89c0,7.65,1.53,22.95,22.18,25.24s65.26-4.08,67.71-12.27c4.94-16.52.12-23.34-.06-33.9C1386.83,285.68,1356.23,289,1335.11,295.11Z"/><path class="cls-40" d="M1353.4,321.9s1.68-6-4.48-6.92-14.74,2.06-14,3.46,4.1.28,5.41,1.77,2.42,9.14,7.27,8.21S1353.4,321.9,1353.4,321.9Z"/><path class="cls-40" d="M1373.71,318.68s-1.68-6,4.48-6.91,14.74,2.06,14,3.45-4.1.28-5.41,1.77-2.42,9.14-7.27,8.21S1373.71,318.68,1373.71,318.68Z"/><ellipse class="cls-41" cx="1320.93" cy="237.56" rx="5.32" ry="6.59"/><path class="cls-41" d="M1392.23,234.76c0,3.64-2.38,6.59-5.32,6.59s-5.32-2.95-5.32-6.59,2.38-6.59,5.32-6.59S1392.23,231.12,1392.23,234.76Z"/><path class="cls-15" d="M1366,352a30.94,30.94,0,0,1-5.52-.52c-7.74-1.4-13.22-4.8-16.29-10.11-5-8.72-1.37-19.18-1.21-19.62a3.22,3.22,0,0,1,6.06,2.17c0,.12-2.8,8.17.74,14.26,2.08,3.58,6.07,5.92,11.84,7,7.25,1.31,12.6-.51,15.89-5.41,4.61-6.85,3.89-17.54,2.62-19.55a3.22,3.22,0,1,1,5.43-3.45c2.9,4.57,3,18-2.7,26.59C1380.07,347.47,1375,352,1366,352Z"/><path class="cls-24" d="M1376.67,340.86s2.52-4.6,4-3.58-1.21,6.07-4.52,8.68-8.3,4.1-10.31,2.61,2.38-2.1,5.23-3.41A21.33,21.33,0,0,0,1376.67,340.86Z"/><path class="cls-41" d="M1422.38,215.85a1.27,1.27,0,0,1-1.25-1.12c-.44-3.73-5.4-26-5.45-26.24a1.26,1.26,0,0,1,2.46-.55c.2.92,5,22.64,5.5,26.5a1.27,1.27,0,0,1-1.11,1.4Z"/><path class="cls-41" d="M1284.31,232.23a1.27,1.27,0,0,1-1.24-1c-.57-3.35,1.51-25.47,1.75-28a1.27,1.27,0,0,1,1.38-1.14,1.26,1.26,0,0,1,1.13,1.38c-.93,9.73-2.16,25-1.77,27.31a1.28,1.28,0,0,1-1,1.46Z"/><path class="cls-42" d="M1252,481a6.41,6.41,0,0,1-5.39-1.27,8.32,8.32,0,0,1-2.79-8.78L1261,412.6a161.22,161.22,0,0,1-45.72,3c-42.5-3.57-74.3-26.07-92-65.07-17-37.59-33.5-94.21-15-150.51C1125,149,1166.87,109,1232.65,81.12c76.49-32.38,140.22-50.35,189.41-53.42,56.33-3.52,96.18,12.28,118.45,47C1567,116,1579.11,188.9,1569.86,252c-7,47.78-25.42,84.67-51.85,103.86-28.48,20.69-67.33,34-115.46,39.55a390.75,390.75,0,0,1-61.06,2.32l-86.67,81.82A6.12,6.12,0,0,1,1252,481Zm17.66-86.3a6.63,6.63,0,0,1,6.44,2.25,8.37,8.37,0,0,1,1.73,7.8l-13.36,45.34,69.88-66a6.05,6.05,0,0,1,4.64-1.67c1.07.07,107.23,7.06,171.2-39.41,23.42-17,39.86-50.49,46.28-94.28,8.72-59.4-2.33-127.58-26.87-165.8-37.23-58-135.32-53.88-291.53,12.25-62.19,26.33-101.55,63.53-117,110.57-16.84,51.31-1.52,103.64,14.3,138.51,15.49,34.16,42.49,53.09,80.25,56.26a148.85,148.85,0,0,0,53.46-5.68A3.58,3.58,0,0,1,1269.64,394.74Z"/><path class="cls-43" d="M2365.2,251.06l-186.35,24.52L2109.2,118.76l-4.51-9.32L2092,115.21l80.06,164.43s-3,5,2.34,5.35,6-2.85,6-2.85l187.05-19.54Z"/><path class="cls-14" d="M2187.08,99.9c45.67,1.92,156.3,33.11,173.85,151.72l-113,14.87c-5.16-8.09-16.34-20.07-40.38-32.18-22.16-11.17-40.2-12.95-52.37-12.11L2109.2,118.76S2141.4,98,2187.08,99.9Z"/><path class="cls-43" d="M2207.51,234.31c24,12.11,35.22,24.09,40.38,32.18l-69,9.09-23.71-53.38C2167.31,221.36,2185.35,223.14,2207.51,234.31Z"/><path class="cls-32" d="M2241.14,251.77a2.5,2.5,0,0,0,1.77.1l105.15-32.62a2.53,2.53,0,1,0-1.5-4.83l-105.14,32.63a2.52,2.52,0,0,0-.28,4.72Z"/><path class="cls-32" d="M2223.51,239a2.55,2.55,0,0,0,2.58-.31l21.1-16.38a2.53,2.53,0,1,0-3.1-4L2223,234.73a2.52,2.52,0,0,0-.45,3.55A2.45,2.45,0,0,0,2223.51,239Z"/><path class="cls-32" d="M2250.55,218.06a2.53,2.53,0,0,0,2.58-.31l30.34-23.54a2.53,2.53,0,0,0-3.1-4L2250,213.75a2.52,2.52,0,0,0-.45,3.55A2.45,2.45,0,0,0,2250.55,218.06Z"/><path class="cls-32" d="M2289.5,187.84a2.51,2.51,0,0,0,2.57-.31L2317.26,168a2.53,2.53,0,0,0-3.1-4L2289,183.53a2.53,2.53,0,0,0-.44,3.55A2.45,2.45,0,0,0,2289.5,187.84Z"/><path class="cls-32" d="M2208.63,230.75a2.52,2.52,0,0,0,3.25-1.14l55-104.13a2.53,2.53,0,1,0-4.48-2.36l-55,104.13a2.53,2.53,0,0,0,1.06,3.42Z"/><path class="cls-32" d="M2199.84,176.7a2.09,2.09,0,0,0,.5.16,2.52,2.52,0,0,0,3-1.93l14.4-66.72a2.53,2.53,0,0,0-4.95-1.07l-14.39,66.72A2.52,2.52,0,0,0,2199.84,176.7Z"/><path class="cls-32" d="M2189.63,224a2.16,2.16,0,0,0,.49.16,2.53,2.53,0,0,0,3-1.93l7.61-35.29a2.53,2.53,0,1,0-4.94-1.06l-7.61,35.28A2.52,2.52,0,0,0,2189.63,224Z"/><path class="cls-32" d="M2169.31,215.05a2.53,2.53,0,0,0,3.52-2.66L2158.2,107a2.53,2.53,0,1,0-5,.69l14.64,105.41A2.52,2.52,0,0,0,2169.31,215.05Z"/><path class="cls-28" d="M2218.3,367.18c-37.65-8.69-63.6-19.81-70.76-23.06l-134.45,21.53a6.75,6.75,0,0,1-5.48-11.77l57.9-50a449.83,449.83,0,0,1-57.22-31.94c-45.46-30.31-67.1-60-64.32-88.19,2.2-22.32,8.89-65.61,29-104.78,20.54-40.06,49.19-65,85.16-74.11C2096.71-5,2178.21.44,2260.91,18.25,2305.3,27.82,2412.54,55,2449.48,101c38,47.3,51.19,126.94,30.71,185.25-10.9,31-36.17,70.75-94.68,83.75a344.29,344.29,0,0,1-74.62,7.94A415.69,415.69,0,0,1,2218.3,367.18ZM2061.42,17.9C2029.37,26,2003.64,48.63,1985,85.09c-19.07,37.18-25.45,78.58-27.55,99.94-2.81,28.45,30.11,56.78,58.22,75.55a444.27,444.27,0,0,0,64.92,35.23,6.74,6.74,0,0,1,1.79,11.32l-47.94,41.45,113-18.11a6.73,6.73,0,0,1,4,.59c.27.13,28,13.34,70.27,23.06,38.83,8.92,98.26,16.64,160.87,2.73,52.46-11.66,75.12-47.25,84.88-75.05,9.46-26.92,11.45-59.68,5.62-92.23-5.6-31.23-17.71-59.67-34.12-80.1-23.75-29.58-91.37-58.74-180.89-78-54-11.62-108.46-17.92-149.28-17.92C2089.39,13.52,2073.08,15,2061.42,17.9Z"/><path class="cls-28" d="M2357.46,1429.59a16.31,16.31,0,0,1-3.57-.39,11.69,11.69,0,0,1-8.61-7.39c-2.22-5.8-2.34-16.59,16.64-48.89,5.43-9.26,11-17.88,15-23.87-29.92-6.64-119.22-27.56-162.35-50-18.74-9.74-23.7-45.55-14.74-106.44,7.22-49.07,22.81-108,41.7-157.76,14.84-39,37.09-86.41,58.9-90.55,31.14-5.91,178.53,43,227,59.1,95.41,31.67,186.31,64.84,188.43,65.62,8.83,3.13,13.64,13,14.7,30.16,2.49,40-15.48,116.08-33.13,173.87-8.51,27.89-37.9,119.68-58.64,130-5.14,2.56-20.76,10.33-118.58-10.82-39.05-8.45-76-18.24-88.06-21.49-4.88,5.48-15.51,17.14-27.6,28.65C2378,1424.67,2364.94,1429.59,2357.46,1429.59Zm-50-472.36a24.07,24.07,0,0,0-4.46.34c-8.75,1.66-26.78,24.15-48.79,82.08-18.3,48.12-34,107.49-41,154.94-5.85,39.76-6.92,84.94,7.61,92.5,49.52,25.75,167.57,50.64,168.75,50.89a6.75,6.75,0,0,1,4.12,10.51c-.1.14-10.49,14.82-20.07,31.11-14.58,24.79-15.92,33.84-15.87,36.48,2.91-.18,12.76-2.92,37.43-26.39,15.78-15,29.44-30.8,29.57-31a6.73,6.73,0,0,1,6.91-2.1c.44.12,44.44,12.26,91.46,22.43,84.06,18.18,104.69,14.39,109.66,11.92,7.12-3.54,27.88-43.69,51.75-121.86,26.38-86.42,34.12-144,32.56-169.1-.76-12.27-3.57-17.52-5.75-18.28l-.08,0c-.91-.33-92.23-33.68-188.11-65.51C2373.41,966.5,2323.69,957.23,2307.45,957.23Z"/><path class="cls-17" d="M2690.22,929.9s16.34-19,19.69-17.87,18.45,16.11,14.62,20.73-18.12,18.35-19.28,17.5S2686.56,939.34,2690.22,929.9Z"/><path class="cls-43" d="M2618.83,969.36c6.38,6.67,17.18,6.38,23.83,0l35-33.7-2.44-2.54,9.16-8.81a3.39,3.39,0,0,1,4.8.1L2715.77,952a3.39,3.39,0,0,1-.09,4.8l-9.16,8.81-2.69-2.79-35,33.71c-6.65,6.4-7.36,17.18-.94,23.81,14.06,14.53,11.84,39.41-2.72,53.41l-219.56,212.41c-13.91,13.38-47.53,1-75.09-27.63s-38.62-62.71-24.71-76.1L2565.35,970C2579.9,956,2604.86,954.76,2618.83,969.36Z"/><path class="cls-32" d="M2599.06,1137.66s-55.53-38-99.53-104l-63.71,61s25.4,67.7,99.85,104.33Z"/><path class="cls-24" d="M2384.7,1168.64a4.46,4.46,0,0,1,.21-6.21c1.29-1.23,128.68-123.53,138.07-132.61,8.94-8.64,16.53-16.66,23.22-23.74,9.87-10.45,17.67-18.69,25.37-24.33a4.46,4.46,0,0,1,5.26,7.2c-7,5.15-14.6,13.14-24.16,23.25-6.75,7.15-14.41,15.25-23.5,24-9.4,9.09-136.8,131.4-138.09,132.63a4.46,4.46,0,0,1-6.3-.13Z"/><path class="cls-24" d="M2592.52,981.47a4.41,4.41,0,0,1-1.13-3.44,4.46,4.46,0,0,1,4.88-4c14.83,1.51,27.85,12.18,28.4,12.63a4.46,4.46,0,0,1-5.68,6.87c-.14-.12-11.54-9.4-23.62-10.63A4.44,4.44,0,0,1,2592.52,981.47Z"/><path class="cls-28" d="M1562.56,1186a16.3,16.3,0,0,1-1.76-.09,12.89,12.89,0,0,1-10.47-6.87c-3.19-6-5.35-18.76,12.79-61.22,5.68-13.3,11.72-25.69,15.74-33.67-35.15-3.15-151.52-14.82-209-36-23.82-8.75-35.17-51.4-33.76-126.77,1.14-61.24,11-135.94,26.34-199.8,7.66-31.85,16.35-59.16,25.13-79,10.41-23.48,20.83-36.64,31.85-40.22,14-4.57,49.65-2.7,108.85,5.74,46,6.55,105.93,17,178.15,31.16,122.13,23.88,238.95,50.32,241.5,50.9,10.63,2.3,17.68,13.24,21.55,33.45,9.31,48.54-.79,144.44-13.33,218-4.3,25.2-27,151.71-50.85,167.68-23.39,15.62-115.81,7.69-146.18,5.08-50.33-4.32-98.19-10.7-112.34-12.65-4.82,7.07-16.35,23.61-29.85,40.21C1585.87,1180.14,1571,1186,1562.56,1186Zm-.42-13.51c2.16.14,13.6-1.28,44.25-39,17-21,31.36-42.54,31.5-42.76a6.77,6.77,0,0,1,6.59-3c.55.08,56.48,8.07,115.83,13.17,102.69,8.81,130.21,2,137.47-2.87,7.84-5.24,27-53,45-158.72,18.83-110.41,19.26-182.52,13.38-213.19-2.55-13.33-6.72-21.86-11.16-22.8l-.09,0c-1.17-.27-118.49-26.84-241.17-50.84-92.11-18-251-46.81-280.2-37.3-11.39,3.7-30,34.42-48,109.53-14.91,62-24.86,137.48-26,196.9-1.22,65.11,8.09,107.67,24.92,113.85,65,23.9,214,35.91,215.5,36a6.74,6.74,0,0,1,5.42,9.9c-.11.2-11,20.71-20.38,42.8C1559.2,1161.63,1561.53,1171,1562.14,1172.48Z"/><path class="cls-44" d="M1948.32,658.27s-5.31-4.17-1.8-7.75,7.24-6,9.53-3.07,3.9,4.13,3.15,5.35S1948.32,658.27,1948.32,658.27Z"/><path class="cls-44" d="M1971.3,644.25s-4.9-4.64-1.08-7.88,7.77-5.3,9.77-2.18,3.51,4.47,2.65,5.61S1971.3,644.25,1971.3,644.25Z"/><path class="cls-44" d="M1996.29,632.28s-4.9-4.64-1.08-7.88,7.77-5.3,9.77-2.18,3.51,4.47,2.64,5.61S1996.29,632.28,1996.29,632.28Z"/><path class="cls-44" d="M1969.55,691s-.6,6.72,4.41,6.62,9.33-1.18,8.76-4.85-.33-5.67-1.74-5.95S1969.55,691,1969.55,691Z"/><path class="cls-44" d="M1995.5,683.86s0,6.75,5,6.18,9.18-2,8.27-5.63-.85-5.62-2.28-5.77S1995.5,683.86,1995.5,683.86Z"/><path class="cls-44" d="M2021.32,673.84s0,6.75,5,6.18,9.18-2,8.27-5.64-.86-5.61-2.28-5.76S2021.32,673.84,2021.32,673.84Z"/><path class="cls-45" d="M1743.35,776.9s12.63,9.56,23.59,31.31,17,59.9-3.07,80.89-54.92,23.53-71.08,28.67-20.41,9.26-25.63,22.62-32.53,52.69-62.56,68.35-75.65,4-87.66-9.34,63.46-20.1,79.23-35.91,49.27-68.72,74.75-77.08,40.28-5.89,57.71-28S1743.35,776.9,1743.35,776.9Z"/><path class="cls-38" d="M1742.89,769.72s-16.71-44.57-63.89-46c-26.59-.78-41.59,20-61.06,37s-50.5,11.22-84.37,13.36-71.24,16-86.26,83.57,51.61,136.91,72.79,142.92,71.63,12.5,113.23-48.19,30.56-47.71,70-52.72,63.85-37.82,61.63-66.94S1742.89,769.72,1742.89,769.72Z"/><polygon class="cls-45" points="1515.96 834.97 1536.55 824.98 1582.22 928.9 1564.7 937.14 1515.96 834.97"/><path class="cls-46" d="M1640,788.57a44.71,44.71,0,0,0-23.31,35.21c-2.64,25.61,14.06,45.94,38.31,45s43.13-16,48.38-36-6.6-43-23.26-47.44S1655.4,783.05,1640,788.57Z"/><path class="cls-11" d="M1658.06,796.73s-22.48,1.84-25.66,26.27,19.61,34,32.23,30,24.62-16.13,28-33.85S1674.11,793,1658.06,796.73Z"/><path class="cls-45" d="M1671.59,796.71s12.4,4.06,15.23,16.24.89,20.27.89,20.27L1945,696.35a29.51,29.51,0,0,1,4.92-1.22L1931.76,665C1898.14,683.12,1671.59,796.71,1671.59,796.71Z"/><path class="cls-45" d="M2043,633.05c-5.87-6.19-13.56-5.7-13.53-7.79s7.49-9.24-3.13-6.77-87.54,41.12-90.48,44.15a41.07,41.07,0,0,1-4.13,2.37l18.18,30.12a22.56,22.56,0,0,1,8.35,0c6.31,1.39,10-1.56,15.18-3s72.54-27.27,75-29.14-3.8-8.49-1.57-13.44S2048.89,639.23,2043,633.05Zm-93.8,33.25c.25-3.44,54.48-32.18,60.47-29.93s8.1,4.62,1.78,7.66-48.85,22.8-57.62,25.37C1953.86,669.4,1949,669.75,1949.23,666.3Zm77.71-5c-.7,1.46-15.08,7.93-22.87,10.26s-43,15.46-46.29,13.62,3.18-6.46,3.18-6.46,31.92-15,48.36-19.31S2027.64,659.79,2026.94,661.26Z"/><polygon class="cls-47" points="2036.54 2080.68 2135.33 2099.29 2304.85 2320.43 2326.66 2320.43 2340.24 2352.68 2374.36 2352.68 2357.2 2317.02 2256.13 2124.67 2229.5 2080.68 2036.54 2080.68"/><path class="cls-48" d="M2096.06,1762.57s124.63,89.87,137,136.65c3.67,13.92-35.7,58.55-72.39,37.11C2133.92,1920.7,2096.83,1790.36,2096.06,1762.57Z"/><path class="cls-24" d="M1981.2,1979.11s-49.41-92.61-38.68-182c9.6-80,131.5-62.15,153.54-34.53s30.24,104.88,41.84,139.16c12.55,37.1,21.45,39.21,26.48,54.1s-88.39,42.76-121.78,36.75S1981.2,1979.11,1981.2,1979.11Z"/><polygon class="cls-43" points="2126.89 1960.06 2052.74 1932.82 2052.75 1927.43 2188.65 1916.17 2279.73 1945.6 2126.89 1960.06"/><path class="cls-49" d="M2246,2073.6s-131.62,25.77-131.15-4.64,79.2-54.9,122.26-45.08S2276.63,2063.64,2246,2073.6Z"/><polygon class="cls-50" points="2279.73 1945.6 2126.89 1960.06 2147.55 1844.37 2300.39 1829.91 2279.73 1945.6"/><path class="cls-51" d="M1997.32,2050.1c18.91,25.25,52.06,36.67,121,35.82s148.43-53.8,148.43-53.8l200.5,152.81,21.76-18.17s-40.44-57.12-86.86-111.63-90.16-109.08-111-115.12c-28.76-8.33-217.36,35-217.36,35l-92.6,4.06S1983.59,2031.77,1997.32,2050.1Z"/><path class="cls-21" d="M2239.73,1942.71c-65.46,9.24-165.93,32.34-165.93,32.34l-92.6,4.06s2.39,52.66,16.12,71c18.91,25.25,52.06,36.67,121,35.82,47.34-.58,99.64-25.72,127.77-41.42C2241.43,2023.8,2230.71,1969.59,2239.73,1942.71Z"/><path class="cls-51" d="M2223.76,2056.52s24,75,33.82,99.36c33.1,82,90.59,158.47,90.59,158.47l26.19-8.46s-61.23-240.95-69.69-260.66S2235.06,1996.65,2223.76,2056.52Z"/><path class="cls-50" d="M2379.48,2306.27c-1.2-1.8-3.2-19.6-3.58-20.39-1.66-3.45-20.35,5.76-20.72,14.45-.69,16.29-12.67,10.35-13.81,5.17-4.79,9.94,6.73,39.25,13.91,42,13.71,5.27,32.71,28.35,66.72,20C2435,2364.29,2390.14,2322.3,2379.48,2306.27Z"/><path class="cls-52" d="M2036.54,1980.5l-54,14.49a260.64,260.64,0,0,0,4,26.12C2005.25,2006.9,2036.54,1980.5,2036.54,1980.5Z"/><path class="cls-50" d="M2517.25,2162c-12.16,2.93-16.41,3.17-25,.87-.58-.15-9.3-15.42-10-16-3-2.34-20.66,11.76-17.86,20,5.53,16.22-2,12.65-8.7,9.13.14,11,24.17,37.9,31.82,37.17,14.63-1.39,75.8-55.31,70.78-60.89C2555.24,2149,2533.72,2158.06,2517.25,2162Z"/><path class="cls-51" d="M1949.17,1774.75s-96,162.54-63.21,222.87c34.72,63.89,211.46-44.71,207.31-63.56-5.78-26.19-146.1,11.87-146.1,11.87s39.07-99.64,43.69-120.1C1998.09,1793.86,1968.2,1757.31,1949.17,1774.75Z"/><path class="cls-51" d="M2085.7,1920.62s20.12-9.65,24.2-5.51,14.92,12.71,12.4,14.26-9.7-5.72-9.7-5.72,8.46,11.06,7.65,12.73-3,.77-3,.77a5.7,5.7,0,0,1-1.72,3.47c-1.46,1.14-10.53-6-10.53-6s-28.31,19.33-35.12,6S2085.7,1920.62,2085.7,1920.62Z"/><path class="cls-53" d="M2308.93,2065.12a1.32,1.32,0,0,1-.92-.37l-8.09-7.8c-8.05-7.77-33.75-38.71-34.84-40a1.33,1.33,0,1,1,2.05-1.7c.27.32,26.7,32.13,34.64,39.8l8.09,7.8a1.33,1.33,0,0,1,0,1.88A1.29,1.29,0,0,1,2308.93,2065.12Z"/><path class="cls-53" d="M2243,2026.53a1.33,1.33,0,0,1-.48-2.57c6.24-2.43,25.75-4.5,26.57-4.59a1.33,1.33,0,1,1,.28,2.65c-.2,0-20,2.12-25.88,4.42A1.41,1.41,0,0,1,2243,2026.53Z"/><path class="cls-24" d="M1990.86,1825.83c7.23-32-22.66-68.52-41.69-51.08,0,0-37,62.66-57.21,124.61,9.18,7.77,35.69,31,69,31.68C1972.81,1900.28,1987.67,1840,1990.86,1825.83Z"/><path class="cls-24" d="M2229.53,1897.92c-1.11,5.35-4.79,9.12-8.22,8.41s-5.33-5.62-4.23-11,4.78-9.12,8.22-8.41S2230.63,1892.57,2229.53,1897.92Z"/><path class="cls-53" d="M1917.58,1958.21a1.33,1.33,0,0,1-.73-2.45,84.17,84.17,0,0,1,30.12-11.15,1.34,1.34,0,0,1,.41,2.64,82.69,82.69,0,0,0-29.07,10.75A1.4,1.4,0,0,1,1917.58,1958.21Z"/><path class="cls-48" d="M1963.56,1925.35a1.32,1.32,0,0,1-.48-.09,1.33,1.33,0,0,1-.77-1.72c.08-.21,8.17-21.23,14.18-38.2s14.08-74.7,14.16-75.28a1.33,1.33,0,1,1,2.64.37c-.33,2.38-8.22,58.68-14.29,75.8s-14.12,38-14.2,38.26A1.33,1.33,0,0,1,1963.56,1925.35Z"/><path class="cls-48" d="M1985.58,1852a1.33,1.33,0,0,1-1-2.24c6.25-6.81,14.7-37.55,14.78-37.86a1.34,1.34,0,0,1,2.58.7c-.36,1.29-8.72,31.68-15.4,39A1.34,1.34,0,0,1,1985.58,1852Z"/><path class="cls-52" d="M2072.71,2040.55c-1.47,0-2.88,0-4.24-.16-45-3.68-60.48-21.59-61.12-22.35a.68.68,0,0,1,.09-.94.67.67,0,0,1,.94.09c.15.18,15.81,18.25,60.2,21.87,11,.9,26.06-2.17,43.46-5.71,13.29-2.72,28.36-5.79,43-7.18,40.78-3.89,77.47-21.83,77.83-22a.68.68,0,0,1,.9.3.67.67,0,0,1-.31.89c-.36.18-37.27,18.24-78.3,22.14-14.57,1.39-29,4.33-42.86,7.16C2096.93,2037.79,2083.39,2040.55,2072.71,2040.55Z"/><path class="cls-22" d="M2036.7,1659.19c3.46-4.11,11.86-11.71,21.15-6.35,6,3.49,9.2,7.57,7.89,16.58,3.48,4.38,2.64,7.36-.26,11.52s-.64,1.29-4.25,5.58c-2.16,2.58-.58,6.23-2.07,5.65s-30.66,16.7-32.62,16.18c-1.21-.32-3.92-1.39-4.35-5.5a37.31,37.31,0,0,0-2.73-11.17c-6.17-14.3,8.52-25.58,8.52-25.58S2034.86,1661.39,2036.7,1659.19Z"/><path class="cls-51" d="M2049.93,1755.54c-13,5.61-34.63-9.84-34.26-15.75l10.84-37.65.48-1.57.54.36,17.78,12.12,1.27,5.89.41,1.91.44,2.06.14.66,1.13,12.92S2053.14,1754.15,2049.93,1755.54Z"/><path class="cls-51" d="M2066.2,1714.22a11.92,11.92,0,0,1-2.49,6.39l0,0a8.81,8.81,0,0,1-1.39,1.27c-.29.21-.6.4-.91.59-3,1.7-6.88,2-13.12.59h0l-.79-.18h0c-.56-.13-1.14-.27-1.74-.43s-1.42-.39-2.16-.62a13.78,13.78,0,0,1-6.53-2.28c-.45-.28-.89-.59-1.33-.92-5.3-3.94-9.5-10.8-9.16-16.52a9.33,9.33,0,0,1,.41-2.3l1-5.33.85-.74c5.11-4.43,6.67-12.65,6.67-12.65,1.67-9.08,11.75-10.88,15.82-11.51,13.9-2.14,11.11,4,13.36,11.54C2066.49,1687.36,2067.78,1701.82,2066.2,1714.22Z"/><path class="cls-51" d="M2030.53,1690.41c-.72-2.77-2.43-6.71-6-3.62-5.21,4.49-1.79,18,5.34,17.31C2035.16,1703.61,2030.91,1691.87,2030.53,1690.41Z"/><path class="cls-53" d="M2054.92,1700.19c-.1.16.33.49,1,.59a4.28,4.28,0,0,0,2.86-.58l.07,0a4.38,4.38,0,0,0,1.42-1.43,3,3,0,0,0,.55-1.82c0-.22-.08-.31-.2-.32a.23.23,0,0,0-.16,0,12.48,12.48,0,0,0-1,1.08,7.54,7.54,0,0,1-1.25,1.08.81.81,0,0,1-.18.12,6.89,6.89,0,0,1-2.22.88C2055.33,1699.91,2055,1700,2054.92,1700.19Z"/><path class="cls-32" d="M2043.5,1683c2.91-1.53,5.41-2.68,8.69-1.37.92.37.72,1.61-.57,1.68-3.56.2-4.68.18-7.77,1.31C2042.47,1685.11,2041.81,1683.88,2043.5,1683Z"/><path class="cls-32" d="M2066.36,1684.36a6.72,6.72,0,0,0-4.33-1.59c-1-.09-1.74.79-.58,1.38,3.17,1.63,3.21,1.21,4.63,2.22C2067.09,1687.09,2067.69,1685.74,2066.36,1684.36Z"/><path class="cls-53" d="M2047.61,1724l1.09,12.5c-6.72-3.87-10.13-10.93-11.44-15.86-.1-.36-.18-.71-.26-1.05-.48-2.21-.51-3.84-.21-4.3.81-1.25,3.89,3.26,8.87,5.1.45.17.89.32,1.33.47,6.7,2.27,11.49,2.24,14.39,1.66-3,1.7-6.88,2-13.12.59h0a.3.3,0,0,0-.21.06A.87.87,0,0,0,2047.61,1724Z"/><path class="cls-24" d="M2049,1702.87s12.84,1.19,15.83,1c0,0-1.62,5.58-5.93,5.58S2048.9,1705.4,2049,1702.87Z"/><path class="cls-50" d="M2034.83,1694.89c0,6.27-2.3,11.35-7.42,11.35s-9.27-5.08-9.27-11.35,4.15-11.35,9.27-11.35S2034.83,1688.62,2034.83,1694.89Z"/><path class="cls-50" d="M2030.9,1686.57s-1.38-17.39,3.23-25a28.26,28.26,0,0,0-7.64,5.86s-4,10-1.93,18.73Z"/><path class="cls-7" d="M462.86,2571.57S398,2591.48,402.06,2602s568.52,7.73,568.52,7.73-11.76,8.06,65.28,12,123.21-5.55,122.11-19.74-245.52-31.68-326.39-30.39S462.86,2571.57,462.86,2571.57Z"/><path class="cls-11" d="M418.22,2254.47a15,15,0,0,0,10.12-9.82c.64-2.88,7.89-1.88,12.81.55s6.15,6.54,10.81,11.81a12.57,12.57,0,0,0,7.55,4.47,31.9,31.9,0,0,1,1.92-6.63c2.77-5.83,1.48-15.25-3.4-16.43s-47.37-3.09-56.37,2C396.22,2243.51,407.71,2249,418.22,2254.47Z"/><path class="cls-51" d="M452,2257c-4.66-5.27-5.9-9.38-10.81-11.81s-12.17-3.43-12.81-.55a15,15,0,0,1-10.12,9.82c6.87,3.55,14.69,8.11,15.73,10.86,2.61,7-.34,36-2.11,56.94-.33,3.89,33.09,13.69,32.33-4.09,0,0-6.19-49.18-4.66-56.7A12.57,12.57,0,0,1,452,2257Z"/><path class="cls-11" d="M506.68,2245.22a15.17,15.17,0,0,0,7.93-11.74c0-2.95,7.36-3.51,12.67-2.18s7.35,5.09,13,9.24a12.49,12.49,0,0,0,8.3,2.77,31.75,31.75,0,0,1,.54-6.88c1.54-6.28-1.63-15.22-6.65-15.33s-47,7-54.83,13.91C482.91,2239.18,495.28,2242.15,506.68,2245.22Z"/><path class="cls-51" d="M540.26,2240.54c-5.63-4.15-7.68-7.9-13-9.24s-12.62-.77-12.67,2.18a15.17,15.17,0,0,1-7.93,11.74c7.45,2,16,4.8,17.6,7.27,4,6.23-1.38,27.69-5.29,53.52-.58,3.85,31.79,35.79,32,18,.53-48.72-2.39-73.08-2.41-80.75A12.49,12.49,0,0,1,540.26,2240.54Z"/><path class="cls-54" d="M743.62,2483.29c-1.73-11.12-38-24.86-69.79-27-57.78-3.84-126.29,11.13-126.29,11.13s7.67-29.37,9-39.38c5.15-40,5.15-161.34,5.15-161.34l-40.46-11.56s-81.79,212.9-40.44,266.65C515,2566.35,751.17,2531.81,743.62,2483.29Z"/><path class="cls-55" d="M1038.79,2373.26s11.9-4.17,20.57,3.21-3.53,35.64-4.49,41.26-8.83,25.21,2.57,51.7,43.83,77.06,30,97.61-60.69,26.65-86.38,2.57-45.59-82.45-44.63-131.13S1021.13,2349.18,1038.79,2373.26Z"/><path class="cls-56" d="M1206.5,2495.06c-15.92-9.77-99.72,68.28-123.72,59-3.85-1.48-10.44-8.57-16.91-16.71h0c-25.3-34.39-63.47-108.76-87.27-91.33-13.56,9.93,15.46,79.59,38.58,115.4a204.69,204.69,0,0,0,12.08,17.11c20.39,25.16,39.31,39.56,79.53,25.83S1219.2,2502.85,1206.5,2495.06Z"/><path class="cls-39" d="M768,2492.46s-30.93-20.69-97.2-25.87c-65.67-5.13-181.53,38.53-181.53,38.53s2.42-29.45-.75-57.42c-5.16-45.41-25.79-181-25.79-181l-35.55,9.08s-42.38,279.75,10.27,308.87,268.73,16.75,311.11,8.84C768.76,2589.76,768,2492.46,768,2492.46Z"/><path class="cls-8" d="M951.26,2586c34.78-10.36,69.36-37.68,64.65-83.49-2.89-28.09-1.25-55.26-23.17-60.79-60.85-15.34-129.93,27.78-157.87,32.24-55.43,8.85-101.47-14.15-128.53,18.17-13.74,16.42-41.84,97.88,1.12,106.07C756.89,2607.66,912.54,2597.58,951.26,2586Z"/><path class="cls-7" d="M986.65,2568.4l-51.48-83.55s12.44,102.28,16.09,101.19A111,111,0,0,0,986.65,2568.4Z"/><polygon class="cls-32" points="1210.26 2462.37 1213.24 2457.14 1193.86 2434.35 1187.35 2516.45 1210.26 2462.37"/><polygon class="cls-24" points="1157.97 2465.78 1158.64 2460.67 1203.14 2455.71 1190.03 2438.28 1194.85 2437.29 1211.84 2457.31 1210.26 2462.37 1157.97 2465.78"/><polygon class="cls-14" points="1155.64 2464.34 1144.57 2549.96 1205.46 2538.97 1213.24 2457.14 1155.64 2464.34"/><path class="cls-51" d="M1153.41,2507.06c-15.92-9.76-99.72,68.28-123.71,59-3.85-1.49-10.45-8.58-16.91-16.72h0c-25.3-34.39-34.18-120.84-72.87-97.83-14.44,8.58,1.06,86.1,24.18,121.9a203.43,203.43,0,0,0,12.08,17.12c20.4,25.15,39.31,39.55,79.53,25.83S1166.11,2514.85,1153.41,2507.06Z"/><path class="cls-51" d="M1138.55,2518s-1.08-7.6,5-12.33c8.59-6.71,7.77-18,10.65-16.15s1.36,10.53,1.52,12.55,23.34-6.54,24.83-3.82-8.92,6.58-8.92,6.58,8.63-2.29,10.45-.93-2.38,4.13-2.38,4.13,2.4,2.68,1.09,4.13-8.49,3.54-8.49,3.54,4.74,2.61,1.18,4.48-30.4,8.18-33,5.11A10.06,10.06,0,0,1,1138.55,2518Z"/><polygon class="cls-8" points="1190.03 2438.28 1186.67 2457.55 1203.14 2455.71 1190.03 2438.28"/><path class="cls-51" d="M1003.91,2411.61l-23.62,29.61c-4.11,5.43-1,29.55,12.82,29.09,4-.13,6.3-10.13,8.13-17.58l11-27.83Z"/><path class="cls-51" d="M1017,2392.14s-7.54,7.61-11.35,14.26c-5.62,9.81-1.85,18.2,7.16,25.12,8.78,6.74,13.23,6.62,19.14,1.3a25.26,25.26,0,0,0,4.69-5.71,34.64,34.64,0,0,0,4.15-16.47c-.12-2.57.81-6,1-7.91C1043,2389.11,1029.23,2381.18,1017,2392.14Z"/><path class="cls-51" d="M1009.28,2398.57a19.18,19.18,0,0,1,.91-4c.8-2.46,1.43-6.29-2.82-5.71-6.19.86-9.76,14.17-4,17.17C1007.68,2408.31,1008.93,2402,1009.28,2398.57Z"/><path class="cls-53" d="M1005.08,2418.72c-1.7,1-4.08,17.74.46,23.56l3.87-9c.62-1.41,2.12-2.71,3.33-1.77l0,0c7.18,5.51,11.47,6.44,16,3.68a26.44,26.44,0,0,1-11.61-4.24C1011.54,2426.94,1006.89,2417.62,1005.08,2418.72Z"/><path class="cls-53" d="M1026.64,2415.6c-.15.11.12.55.71.89a4.09,4.09,0,0,0,2.77.5h.07a4.34,4.34,0,0,0,1.79-.77,3,3,0,0,0,1.14-1.43c.05-.21,0-.32-.07-.37a.19.19,0,0,0-.15,0,11.37,11.37,0,0,0-1.24.62,6.68,6.68,0,0,1-1.51.52,1,1,0,0,1-.2.05,6.78,6.78,0,0,1-2.3,0C1027.11,2415.49,1026.75,2415.43,1026.64,2415.6Z"/><path class="cls-24" d="M1020.27,2415.34c4.23,3.26,10.11,5.6,12.7,5.94a1.19,1.19,0,0,1,.93,1.77c-8.31,12.85-16.37,0-15.36-6.76C1018.68,2415.32,1019.45,2414.71,1020.27,2415.34Z"/><path class="cls-55" d="M1023.45,2395.87c3.15-.34,5.8-.47,8.27,1.87.69.66.07,1.69-1.11,1.3-3.26-1.09-4.25-1.5-7.42-1.59C1021.78,2397.41,1021.62,2396.06,1023.45,2395.87Z"/><path class="cls-55" d="M1043.42,2405.23a6.4,6.4,0,0,0-3.31-3c-.84-.44-1.83.09-1,1,2.26,2.58,2.45,2.22,3.36,3.63C1043.11,2407.94,1044.12,2406.93,1043.42,2405.23Z"/><path class="cls-55" d="M1027.08,2403.53c-.44.77-1.2,1.17-1.71.89s-.57-1.15-.13-1.93,1.2-1.17,1.71-.89S1027.52,2402.75,1027.08,2403.53Z"/><path class="cls-55" d="M1040.54,2409.89c-.43.77-1.2,1.17-1.71.89s-.56-1.15-.13-1.93,1.2-1.17,1.71-.89S1041,2409.11,1040.54,2409.89Z"/><path class="cls-53" d="M1037.24,2567.81c-14.91,0-21.83-12.88-22.13-13.45a1.39,1.39,0,0,1,2.46-1.29c.28.54,6.93,12.79,21.14,11.92a1.39,1.39,0,0,1,.17,2.77C1038.32,2567.79,1037.78,2567.81,1037.24,2567.81Z"/><path class="cls-54" d="M452.38,2532.33a1.91,1.91,0,0,1-.83-.2,1.85,1.85,0,0,1-.81-2.49c5.39-10.65,16.14-18,24.21-22.27a92.37,92.37,0,0,1,16.28-6.78,1.85,1.85,0,0,1,1,3.56c-.29.08-28.68,8.33-38.21,27.16A1.83,1.83,0,0,1,452.38,2532.33Z"/></g></g></g></svg>