<svg xmlns="http://www.w3.org/2000/svg" xmlns:xlink="http://www.w3.org/1999/xlink" viewBox="0 0 2048.03 2689.29"><defs><style>.cls-1{isolation:isolate;}.cls-10,.cls-2,.cls-27{mix-blend-mode:multiply;}.cls-3{fill:#f2f3f4;}.cls-4{fill:url(#linear-gradient);}.cls-5{fill:url(#linear-gradient-2);}.cls-6{fill:#c2301a;}.cls-7{fill:url(#linear-gradient-3);}.cls-14,.cls-8{fill:#d8d8d8;}.cls-9{fill:#e9e9e9;}.cls-10,.cls-27{fill:#dcdbe4;}.cls-10{opacity:0.1;}.cls-11{fill:url(#linear-gradient-4);}.cls-12{fill:url(#linear-gradient-5);}.cls-13{fill:#c2c1c1;}.cls-13,.cls-14{mix-blend-mode:overlay;opacity:0.5;}.cls-15{fill:url(#linear-gradient-6);}.cls-16{fill:#6da72e;}.cls-17{fill:#7fb029;}.cls-18{fill:url(#linear-gradient-7);}.cls-19{fill:url(#linear-gradient-8);}.cls-20{fill:url(#linear-gradient-9);}.cls-21{fill:url(#linear-gradient-10);}.cls-22{fill:url(#linear-gradient-11);}.cls-23{fill:url(#linear-gradient-12);}.cls-24{fill:url(#linear-gradient-13);}.cls-25{fill:#df8428;}.cls-26{fill:#fbbb40;}.cls-28{fill:#ad1c17;}.cls-29{fill:#e22d17;}</style><linearGradient id="linear-gradient" x1="298.52" y1="1191.27" x2="1502.23" y2="1191.27" gradientTransform="matrix(-1, 0, 0, 1, 2341.59, -1.34)" gradientUnits="userSpaceOnUse"><stop offset="0" stop-color="#ad1e17"/><stop offset="0.16" stop-color="#9e1a16"/><stop offset="0.24" stop-color="#b62318"/><stop offset="1" stop-color="#b52018"/></linearGradient><linearGradient id="linear-gradient-2" x1="600.51" y1="1361.16" x2="618.51" y2="1361.16" gradientTransform="matrix(-1, 0, 0, 1, 2341.59, -1.34)" gradientUnits="userSpaceOnUse"><stop offset="0" stop-color="#662520"/><stop offset="0.99" stop-color="#82251f"/></linearGradient><linearGradient id="linear-gradient-3" x1="373.55" y1="2501.62" x2="1340.06" y2="2501.62" gradientTransform="translate(2344.87 2834.21) rotate(179.93)" xlink:href="#linear-gradient-2"/><linearGradient id="linear-gradient-4" x1="298.53" y1="907.82" x2="600.54" y2="907.82" gradientTransform="matrix(-1, 0, 0, 1, 2341.59, -1.34)" gradientUnits="userSpaceOnUse"><stop offset="0" stop-color="#d7991e"/><stop offset="0.16" stop-color="#dda21e"/><stop offset="1" stop-color="#f5a81a"/></linearGradient><linearGradient id="linear-gradient-5" x1="298.55" y1="1924.26" x2="600.54" y2="1924.26" xlink:href="#linear-gradient-4"/><linearGradient id="linear-gradient-6" x1="580.46" y1="1355.38" x2="1784.18" y2="1355.38" gradientTransform="matrix(-1, 0, 0, 1, 2341.59, -1.34)" gradientUnits="userSpaceOnUse"><stop offset="0" stop-color="#8aac26"/><stop offset="0.16" stop-color="#6da72e"/><stop offset="0.24" stop-color="#8fb524"/><stop offset="1" stop-color="#95b522"/></linearGradient><linearGradient id="linear-gradient-7" x1="655.52" y1="2337.57" x2="1622.01" y2="2337.57" gradientTransform="translate(2344.87 2834.21) rotate(179.93)" gradientUnits="userSpaceOnUse"><stop offset="0" stop-color="#4b551f"/><stop offset="0.99" stop-color="#617026"/></linearGradient><linearGradient id="linear-gradient-8" x1="580.62" y1="2116.31" x2="882.54" y2="2116.31" xlink:href="#linear-gradient-4"/><linearGradient id="linear-gradient-9" x1="580.63" y1="1172.69" x2="882.52" y2="1172.69" xlink:href="#linear-gradient-4"/><linearGradient id="linear-gradient-10" x1="580.63" y1="2047.76" x2="882.53" y2="2047.76" xlink:href="#linear-gradient-4"/><linearGradient id="linear-gradient-11" x1="580.63" y1="1208.97" x2="882.5" y2="1208.97" xlink:href="#linear-gradient-4"/><linearGradient id="linear-gradient-12" x1="580.64" y1="1253.54" x2="882.52" y2="1253.54" xlink:href="#linear-gradient-4"/><linearGradient id="linear-gradient-13" x1="922.06" y1="1597.26" x2="2039.83" y2="1597.26" gradientTransform="matrix(-1, 0, 0, 1, 2341.59, -1.34)" gradientUnits="userSpaceOnUse"><stop offset="0" stop-color="#e8a72e"/><stop offset="0.16" stop-color="#da9c30"/><stop offset="0.24" stop-color="#f1ad2e"/><stop offset="1" stop-color="#f2ab2e"/></linearGradient></defs><g class="cls-1"><g id="Layer_2" data-name="Layer 2"><g id="Layer_1-2" data-name="Layer 1"><g class="cls-2"><polygon class="cls-3" points="0 2110.57 999.8 2689.29 2048.03 2106.85 1048.2 1528.24 0 2110.57"/></g><path class="cls-4" d="M839.56,155.41l1.82,1534.44,812.38,467.62,61,35.23,6.16,3.47a45.81,45.81,0,0,0,4.76,2.69c3,1.86,5.62,3.18,8.34,4.79a72.39,72.39,0,0,0,9.67,4.8c25.38,12.85,47,18.44,66.37,18.44,17.9,0,33.69-4.87,49.19-13.71L2025,2117.41c13.36-7.73,20-17.9,20.27-28.1h.29l-1.8-1535.41L1810.92,684l-18,3.48-51.08-28.53-18-9.89Z"/><path class="cls-5" d="M1723.71,519l2,1679.9c3,1.86,5.62,3.18,8.34,4.79a72.39,72.39,0,0,0,9.67,4.8l-2-1695.82Z"/><path class="cls-6" d="M1184,138.94,1096.71,27.1h.28v-.25l-8.84-15L1108.74,0l914.45,527.16c27.24,16,27.27,41.46.07,57.57L1857.47,680.6c-37.13,21.27-77.19,19.37-138.34-17l-66.87-39.16Z"/><polygon class="cls-7" points="1088.44 11.96 1968.52 518.42 1968.56 528.81 1749.92 655.43 1001.59 152.12 1088.44 35.41 1088.44 11.96"/><polygon class="cls-8" points="1706.46 630.45 1749.92 655.43 1968.56 528.81 1925.16 503.93 1706.46 630.45"/><polygon class="cls-9" points="1924.91 503.86 1923.84 504.32 1830.26 558.74 1786.51 583.94 1775.59 590.35 1736.21 613.15 1706.49 630.27 1706.24 630.59 898.45 165.54 878.36 153.83 877.5 153.26 876.14 152.51 877.5 151.94 906.43 135.04 956.41 106.36 999.72 80.91 999.94 80.91 1094.88 26.28 1095.17 25.99 1235.68 106.61 1285.16 135.44 1917.18 499.52 1924.91 503.86"/><polygon class="cls-10" points="1924.91 503.93 1831.12 558.2 999.94 80.91 1094.88 26.28 1227.67 102.28 1277.46 131.1 1285.16 135.44 1924.91 503.93"/><polygon class="cls-10" points="906.25 134.83 956.26 106.11 956.59 106.43 958.45 107.19 1786.62 583.94 1775.66 590.42 1736.35 612.9 908.68 136.11 906.5 135.04 906.25 134.83"/><polygon class="cls-6" points="839.3 156.06 1652.26 624.47 1674.17 611.9 860.93 143.7 839.3 156.06"/><path class="cls-11" d="M1817.26,880c14.43-1.11,27.57-5.69,40.71-13.18L1911.42,836l112.23-64.8c12.07-7.05,18.76-15.86,20.26-25l.26,179.54v4.55h-.29c-.5,10.24-6.7,20.33-20,28.07l-165.72,95.76c-32.36,18.44-67.12,19.3-115.85-4.72l-.25-187.24C1771.33,876.61,1795.6,882.16,1817.26,880Z"/><path class="cls-12" d="M1743.37,1932.11l.11,80.3c29.21,14.39,53.48,19.94,75.14,17.79,14.43-1,27.57-5.62,40.71-13.1l53.48-30.86,112.24-64.87c12-6.95,18.72-15.83,20.26-24.88l-.11-80.3c-1.54,9.2-8.2,18-20.26,25l-112.24,64.91-53.48,30.78c-13.1,7.49-26.28,12.07-40.7,13.11C1796.89,1952.16,1772.58,1946.54,1743.37,1932.11Z"/><path class="cls-13" d="M1265,404.4C1080.28,297.32,917.06,200.84,917.06,200.84Z"/><path class="cls-14" d="M1724.22,673.05,1265,404.4c172.81,100.1,364.2,209.22,459.21,257.51Z"/><path class="cls-14" d="M1743,671.36c16.9,8.2,29.47,13.72,36,15.54,33.94,9.28,56.14,3.37,62.15,1.33-4.65,1.64-17.72,6.44-24.27,10.81-18.12,12.17-20.52,34.69-21.55,54.24-1.76,34.4,2.21,1360.37,2.21,1360.37s-15.32-1306.46-16.14-1340.11-4.44-55-8.81-63.4c-10.16-19.16-24-22.84-24-22.84L1743,684Z"/><path class="cls-15" d="M557.8,319.88l1.83,1534.4,812.42,467.62,61,35.23,6.23,3.47a51.69,51.69,0,0,0,4.76,2.76c2.93,1.75,5.62,3.12,8.3,4.73a75.63,75.63,0,0,0,9.63,4.79c25.42,12.82,47.08,18.44,66.41,18.44,17.9,0,33.65-5,49.16-13.75l165.75-95.73c13.36-7.69,20-17.9,20.27-28.1h.28L1762,718.33,1529.18,848.4l-18,3.51-51.09-28.57-18-9.88Z"/><path class="cls-16" d="M1442,683.43l2,1679.93c2.93,1.75,5.62,3.12,8.3,4.73a75.63,75.63,0,0,0,9.63,4.79l-2-1695.86Z"/><path class="cls-17" d="M902.24,303.34,815,191.53h.25v-.28l-8.84-15L827,164.43,1741.4,691.59c27.28,16.07,27.32,41.49.07,57.57L1575.72,845c-37.16,21.27-77.26,19.37-138.34-17L1370.51,789Z"/><polygon class="cls-18" points="806.62 176.39 1686.77 682.89 1686.77 693.24 1468.14 819.79 719.84 316.55 806.65 199.84 806.62 176.39"/><polygon class="cls-8" points="1424.71 794.8 1468.14 819.79 1686.77 693.24 1643.45 668.28 1424.71 794.8"/><polygon class="cls-9" points="1643.23 668.28 1642.16 668.75 1548.54 723.17 1504.72 748.41 1493.81 754.85 1454.46 777.59 1424.78 794.7 1424.49 795.02 616.7 329.97 596.54 318.27 595.82 317.69 594.43 316.87 595.82 316.33 624.68 299.5 674.69 270.76 718.01 245.34 718.26 245.34 813.17 190.71 813.46 190.42 953.94 271.08 1003.49 299.86 1635.4 663.95 1643.23 668.28"/><polygon class="cls-10" points="1643.23 668.28 1549.37 722.67 718.26 245.34 813.17 190.71 945.88 266.71 995.68 295.53 1003.49 299.86 1643.23 668.28"/><polygon class="cls-10" points="624.5 299.26 674.59 270.51 674.84 270.83 676.74 271.58 1504.9 748.41 1493.91 754.85 1454.53 777.33 626.94 300.55 624.86 299.5 624.5 299.26"/><polygon class="cls-17" points="557.52 320.49 1370.51 788.97 1392.42 776.37 579.21 308.13 557.52 320.49"/><path class="cls-19" d="M1461.66,2154.61v20c29.39,14.56,53.48,20.15,75.14,18,14.72-1,27.64-5.62,40.92-13.32l53.38-30.82,112.13-64.76c12.24-7,18.9-15.79,20.19-24.88v-20.23c-1.33,9.09-8,18.15-20.23,25.24l-112.09,64.72-53.42,30.8c-13.28,7.37-26.2,11.95-40.92,13C1515.11,2174.83,1491,2168.93,1461.66,2154.61Z"/><path class="cls-20" d="M1460.55,1211v20c29.39,14.57,53.48,20.15,75.14,18,14.68-1,27.61-5.66,40.89-13.32l53.41-30.82,112.09-64.77c12.28-7,18.9-15.79,20.19-24.84V1095c-1.32,9.06-8,18.15-20.23,25.17l-112,64.8-53.41,30.82c-13.32,7.31-26.25,11.93-40.92,13C1514,1231.14,1489.9,1225.3,1460.55,1211Z"/><path class="cls-21" d="M1461.59,2087.52v20.26c48.93,24,83.52,23.31,116,4.8L1743.15,2017c13.32-7.77,19.55-17.9,19.91-28h.29l0-20.58H1763c-.32,10.49-6.58,20.62-19.9,28.35l-165.54,95.55C1545.07,2110.86,1510.49,2111.54,1461.59,2087.52Z"/><path class="cls-22" d="M1460.58,1248.72l0,20.29c48.9,24,83.48,23.31,116,4.77l165.47-95.59c13.32-7.73,19.58-17.94,19.94-28.07h.25v-20.58h-.25c-.4,10.49-6.62,20.62-19.94,28.35l-165.51,95.55C1544.1,1272.06,1509.52,1272.74,1460.58,1248.72Z"/><path class="cls-23" d="M1460.62,1293.5l0,19.87c48.93,24.06,83.52,23.34,116,4.76l165.51-95.66c13.31-7.62,19.55-17.79,19.94-28.28h.25l0-19.9h-.26c-.35,10.09-6.62,20.26-19.94,28l-165.47,95.91C1544.14,1316.42,1509.56,1317.53,1460.62,1293.5Z"/><path class="cls-13" d="M983.22,568.87c-184.73-107.12-347.87-203.6-347.87-203.6Z"/><path class="cls-14" d="M1442.4,837.48,983.22,568.87C1156,668.93,1347.34,778.05,1442.4,826.38Z"/><path class="cls-14" d="M1461.19,835.79c16.93,8.24,29.5,13.68,36.09,15.54,33.9,9.24,56.13,3.37,62,1.33-4.62,1.64-17.69,6.44-24.24,10.84-18,12.18-20.48,34.66-21.51,54.21-1.76,34.44,2.29,1360.37,2.29,1360.37S1500.46,971.62,1499.61,938s-4.41-55-8.74-63.37c-10.2-19.19-24-22.87-24-22.87l-5.62-3.26Z"/><path class="cls-24" d="M302.55,636.07l1.68,1424.85,754.42,434.22,56.67,32.72,5.73,3.26a47.46,47.46,0,0,0,4.44,2.51c2.76,1.64,5.23,2.93,7.73,4.44a67.57,67.57,0,0,0,8.92,4.4c23.66,11.92,43.74,17.15,61.65,17.11,16.61,0,31.32-4.51,45.68-12.71L1403.38,2458c12.42-7.23,18.61-16.72,18.79-26.07h.25l-1.68-1425.89-216.17,120.72-16.64,3.26-47.47-26.49-16.69-9.1Z"/><path class="cls-25" d="M1123.63,973.7l1.86,1559.93c2.76,1.64,5.23,2.93,7.73,4.44a67.57,67.57,0,0,0,8.92,4.4l-1.86-1574.79Z"/><path class="cls-26" d="M622.35,620.71l-81-103.89h.22v-.29l-8.13-13.89,19-10.92,849.18,489.53c25.38,14.82,25.38,38.49,0,53.45l-154,88.93c-34.51,19.87-71.64,18-128.38-15.68l-62.15-36.37Z"/><polygon class="cls-25" points="533.61 502.78 1350.89 973.16 1350.93 982.79 1147.9 1100.25 452.98 632.92 533.64 524.48 533.61 502.78"/><polygon class="cls-8" points="1107.59 1077.05 1147.9 1100.25 1350.93 982.79 1310.68 959.49 1107.59 1077.05"/><polygon class="cls-9" points="1310.47 959.49 1309.4 959.95 1222.62 1010.5 1181.88 1033.99 1171.78 1039.93 1135.23 1061.02 1107.66 1076.95 1107.38 1077.23 357.25 645.48 338.6 634.56 337.81 633.99 336.6 633.31 337.81 632.74 364.66 617.05 411.06 590.49 451.26 566.9 451.51 566.9 539.73 516.06 539.9 515.81 670.4 590.71 716.4 617.41 1303.24 955.58 1310.47 959.49"/><polygon class="cls-10" points="1310.47 959.49 1223.33 1010.07 451.51 566.9 539.73 516.06 662.99 586.73 709.17 613.44 716.4 617.41 1310.47 959.49"/><polygon class="cls-10" points="364.48 616.84 410.95 590.24 411.17 590.56 412.92 591.24 1181.98 1033.99 1171.82 1039.93 1135.3 1060.8 366.77 618.06 364.81 617.05 364.48 616.84"/><polygon class="cls-26" points="302.26 636.6 1057.22 1071.58 1077.63 1059.9 322.38 625.08 302.26 636.6"/><path class="cls-13" d="M697.61,867.23c-171.56-99.42-323.07-189-323.07-189Z"/><path class="cls-13" d="M1124,1116.65,697.61,867.23c160.45,92.93,338.13,194.25,426.41,239.14Z"/><path class="cls-13" d="M1141.49,1115.11c15.72,7.66,27.32,12.71,33.55,14.43,31.4,8.63,52,3.11,57.64,1.25-4.37,1.54-16.58,6-22.59,10.06-16.94,11.28-19,32.11-20,50.34-1.57,31.93,2.18,1263.28,2.18,1263.28s-14.25-1213.24-15-1244.42S1173,1159,1169,1151.12c-9.45-17.75-22.27-21.23-22.27-21.23l-5.19-3Z"/><polygon class="cls-27" points="640.72 834.04 806.37 738.67 856.09 767.24 690.41 862.68 689.94 862.43 690.84 1604.32 671.43 1587.39 670.54 851.3 640.72 834.04"/><polygon class="cls-28" points="680.74 1604.32 679.85 845.64 611 805.65 602.52 1536.45 608.57 1548.26 642.9 1505.41 671.43 1587.39 680.74 1604.32"/><polygon class="cls-28" points="848.83 763.16 838.77 757.03 671.04 854.2 601.62 814.71 779.38 711.75 848.79 740.78 848.83 763.16"/><polygon class="cls-29" points="671.43 1587.39 670.47 841.85 601.59 801.78 602.52 1536.45 636.89 1493.48 671.43 1587.39"/><polygon class="cls-29" points="848.79 740.78 671.04 843.71 601.59 804.15 779.38 701.29 848.79 740.78"/></g></g></g></svg>