<svg xmlns="http://www.w3.org/2000/svg" xmlns:xlink="http://www.w3.org/1999/xlink" viewBox="0 0 4275.75 2676.76"><defs><style>.cls-1{fill:none;}.cls-2{isolation:isolate;}.cls-3{clip-path:url(#clip-path);}.cls-4{fill:#8ecc7f;}.cls-5{fill:#baf2aa;}.cls-6{fill:#93db93;}.cls-7{clip-path:url(#clip-path-2);}.cls-8{fill:#84c0ce;}.cls-9{fill:#e7f2f2;}.cls-10{fill:#b1d5de;}.cls-11{clip-path:url(#clip-path-3);}.cls-12{fill:#434a59;}.cls-13{fill:#f7c263;}.cls-14{fill:#fcc;}.cls-15{fill:#f25c5c;}.cls-16{fill:#ffcc4d;}.cls-17{fill:#eaded6;}.cls-18{fill:#f2a25c;}.cls-19{fill:#fff0f0;}.cls-20{fill:#c6b9af;}.cls-21{fill:#a0958d;}.cls-22{fill:#f95873;}.cls-23{fill:#ffe164;}.cls-24{fill:#f2b851;}.cls-25{fill:#fff;}.cls-26{fill:#464977;}.cls-27{fill:#5d5e8b;}.cls-28{fill:#508be2;}.cls-29{fill:#5cbec6;}.cls-30{fill:#8487c1;}.cls-31,.cls-48{mix-blend-mode:multiply;}.cls-32,.cls-48{fill:#afafaf;}.cls-33{fill:#ce4949;}.cls-34{fill:#dd8a4b;}.cls-35{fill:#fff173;}.cls-36{fill:#ffaee0;}.cls-37{fill:#7dffc7;}.cls-38{fill:#ed8b43;}.cls-39{fill:#ffb94a;}.cls-40{fill:#f2c3a7;}.cls-41{fill:#7f635d;}.cls-42{fill:#402823;}.cls-43{fill:#ffc239;}.cls-44{fill:#54678c;}.cls-45{fill:#e0c890;}.cls-46{fill:#af5546;}.cls-47{fill:#e26949;}.cls-49{fill:#d8d8d8;}.cls-50{fill:#d1335d;}.cls-51{fill:#3f434c;}.cls-52{fill:#ff867a;}.cls-53{fill:#404859;}.cls-54{fill:#c66c67;}.cls-55{fill:#ce9d84;}.cls-56{fill:#262e51;}.cls-57{fill:#f27c79;}</style><clipPath id="clip-path"><path class="cls-1" d="M712.49,2420.78l-353.3.86s-159.56-123.41-138.26-169.49S283.59,2152,283.59,2152s-104.87-201.31-48.81-261.76S348.29,1790,424.65,1826.31s238.15,42.27,253.82,123.18S712.49,2420.78,712.49,2420.78Z"/></clipPath><clipPath id="clip-path-2"><path class="cls-1" d="M3560,2418.55h543.22l102.39-331.33s132.28-128.38,119.71-191.65-159.54-169.61-275.76-153-232.7,74.82-300.94,163.77S3523.88,2296.57,3560,2418.55Z"/></clipPath><clipPath id="clip-path-3"><path class="cls-1" d="M3432.43,1118.24c0,7.36-174.47,13.33-389.68,13.33s-389.68-6-389.68-13.33S2683.89,682,3042.75,682C3432.43,682,3432.43,1110.87,3432.43,1118.24Z"/></clipPath></defs><g class="cls-2"><g id="Layer_2" data-name="Layer 2"><g id="Layer_1-2" data-name="Layer 1"><g class="cls-3"><path class="cls-4" d="M487.72,2045.14s-77.56-186.32-169.15-171.76-47,222.33,42.76,304.91c0,0-67.5-12.81-89.76,55.51s241.13,244.68,271.8,334.54,182.9,13,122.23-174.92,29.44-353.23-39.89-414.26C569.5,1929.67,487.72,2045.14,487.72,2045.14Z"/><path class="cls-5" d="M580.48,2502.77c-16.72-41.44-37.24-89.83-61.87-144L273.78,2227.64c.64-1.62,1.32-3.16,2-4.67l239.33,128.21c-.81-1.78-1.62-3.55-2.44-5.33-37.35-81.32-83.1-180.72-123.73-269l-102-19.43c-.67-1.9-1.32-3.79-2-5.69l101.24,19.3c-37.44-81.32-70.23-152.5-87.64-190.28,1.29-.81,2.61-1.59,4-2.29,9.79,21.24,24.4,52.94,41.94,91l39.51-75.13c1.23,1,2.46,1.93,3.68,2.93L347,1974.82c38.6,83.78,90.55,196.61,136.66,296.89l133.64-298.65c1.31.76,2.6,1.61,3.89,2.52l-135,301.65,30.39,66.11q19.44,42.32,35.66,80l92.31-143.27q.26,3.87.57,7.77l-90.64,140.68c11.95,27.81,22.6,53.54,32,77,0,.1.08.21.13.32,14.57,36.32,26.16,67.11,35,91.55-1.35.74-2.7,1.42-4.06,2.07-8.74-24.17-20.18-54.55-34.55-90.39L467.5,2470q-4.08-4.12-8.29-8.27Z"/></g><path class="cls-4" d="M1427.91,2439.86s-9.25-477.82-242.51-593.45-308.32-115.06-308.32-115.06-53.88,316.22,53.76,451.47c34.55,43.4,104.37,120.15,168.58,162a538.6,538.6,0,0,0,231.45,83.67Z"/><path class="cls-5" d="M927,1789.43a4.67,4.67,0,0,1,6.55.73c.73.92,61.3,76.78,134.93,177l-4-92a4.82,4.82,0,0,1,4.2-5.09,4.66,4.66,0,0,1,5.09,4.43l4.67,106.24c13.19,18.07,26.73,36.82,40.35,56q36.13,50.86,66.8,96.71l27.7-117.6a4.66,4.66,0,0,1,5.84-3.4,4.81,4.81,0,0,1,3.16,5.77l-29.58,125.63c0,.07,0,.13-.07.19,23.56,35.52,44.47,68.54,62.54,98.79,44.09,73.8,71.43,131.41,81.27,171.26a4.66,4.66,0,1,1-9,2.32c-13.61-55.23-63-147.35-144.08-269.5l-151.75-17.79a4.75,4.75,0,0,1-4.22-4.21,4.66,4.66,0,0,1,5.18-5.05l144,16.88q-29.94-44.73-65.34-94.57c-13.63-19.17-27.16-37.93-40.35-56l-95.69-38a4.83,4.83,0,0,1-2.93-5.91,4.65,4.65,0,0,1,6.13-2.84L1060.5,1972c-73.28-99.71-133.47-175.1-134.2-176A4.65,4.65,0,0,1,927,1789.43Z"/><path class="cls-6" d="M3739.23,2203.74c62.1,6.58,120.52-31,142.21-89.52,26.33-71,65.48-188.72,80.37-295.26,23.29-166.69,136.57-152.94,97.72-237.1s-290.23,18.9-380.05,203.5C3605.24,1937.91,3590.24,2187.94,3739.23,2203.74Z"/><path class="cls-5" d="M3633.4,1928.91l75.78-.75-52.79-86.81c1.19-3.42,2.39-6.82,3.64-10.19l101,166.06c4.82-30.32,10.92-62.49,18.62-94.34a4.23,4.23,0,0,1,.41-1.74c7.56-31,16.64-61.7,27.53-90-1.39-5.52-6.79-27.4-12.38-55-6.55-5.4-36.64-30.87-56.74-58.5q2.84-3.24,5.74-6.42c14.81,20.74,36.3,40.92,48.37,51.58-5.49-28.8-10.58-61.52-11.52-87.8q4-3.57,8.16-7c.31,45.81,16.81,120.3,23.77,149.72a368.13,368.13,0,0,1,26.6-52.56,429.45,429.45,0,0,1,156.48-148.94,397,397,0,0,1,56-25.62,44,44,0,0,1,5.24,7.1,387.56,387.56,0,0,0-57.51,26,421.15,421.15,0,0,0-153.11,145.86c-24.48,39.3-42.87,91.18-56.68,146.29l170.71-69.52c-.48,3.22-1,6.45-1.51,9.69L3787.55,1906c-15.68,65.57-25.09,134.85-30.73,192.4l146.92-47.46c-1.11,3.34-2.23,6.65-3.33,9.91L3756,2107.47c-3.81,41-5.69,75.26-6.6,96.93-2.79-.08-5.6-.26-8.41-.52.91-22.29,2.83-57.71,6.76-99.78a1.5,1.5,0,0,0,0-.22c1.75-18.69,3.9-38.68,6.54-59.42,1.4-11,3-22.51,4.76-34.34l-44.76-73.61-82.33.81C3632.4,1934.52,3632.89,1931.71,3633.4,1928.91Z"/><g class="cls-7"><path class="cls-4" d="M3646.85,2647.86a102.65,102.65,0,0,1-33.09-75.87c.42-125,29.72-454.23,205.26-593.35,220.43-174.7,344.41-186,433.21-106,76.06,68.48-54.58,97.4-78.34,125.87-48.33,57.91-29.83,168.25-109.68,280.62-58.89,82.86-222.57,276.57-304.46,372.57-26.12,30.62-72.2,33.65-101.5,6.68Z"/><path class="cls-5" d="M3851.45,2462.38a4.88,4.88,0,0,0-6.74-1.53L3753.55,2518c26.58-46.66,57.36-101.26,86.43-154.2l131.4-66.87a5,5,0,0,0,2.2-6.6,4.86,4.86,0,0,0-6.57-2.13l-118.71,60.42c13.48-24.69,26.46-48.8,38.32-71.34,21.67-41.19,46.74-84.83,73.71-127.21l131.1-62.84a4.94,4.94,0,0,0,2.36-6.54,4.85,4.85,0,0,0-6.51-2.29l-116.87,56c72.91-111.77,157.95-211.43,226.95-229.21a5,5,0,0,0,3.58-6,4.83,4.83,0,0,0-5.92-3.52c-47.43,12.22-104.13,60.31-168.52,142.93-23.95,30.74-46.22,62.71-66.17,93.43l-16.54-139.86a4.84,4.84,0,0,0-5.44-4.24,5,5,0,0,0-4.29,5.49L3952,2145.06c-32.6,51.24-58.3,97.85-74,127.74-12.49,23.75-26.23,49.24-40.49,75.31L3789,2208.62a4.85,4.85,0,0,0-6.23-3,5,5,0,0,0-3,6.27l51.31,147.8c-30.4,55.35-62.65,112.48-90,160.42l-26.86-88.51a4.85,4.85,0,0,0-6.1-3.21,5,5,0,0,0-3.27,6.15l29.52,97.31c-34.82,60.92-60.2,104.36-60.76,105.32a4.9,4.9,0,0,0,.88,6.07,5.6,5.6,0,0,0,.86.63,4.92,4.92,0,0,0,6.7-1.81c.57-1,26.16-44.79,61.23-106.15l106.54-66.8A4.94,4.94,0,0,0,3851.45,2462.38Z"/></g><path class="cls-8" d="M4037.77,2465.9c0,23.7-608.81,50.41-1474.12,50.41s-1566.79-13-1566.79-36.71,701.48-42.91,1566.79-42.91c690.44,0,1259.47-27.12,1468.17-10.14C4084.68,2430.85,4037.77,2461.11,4037.77,2465.9Z"/><path class="cls-9" d="M3263.46,1855.21l169-736.42-389.68-.55-389.68.55,169,736.42c-.26.14-.4.28-.4.42,0,3.85,99,7,221.12,7s221.12-3.13,221.12-7C3263.87,1855.49,3263.72,1855.35,3263.46,1855.21Z"/><path class="cls-10" d="M3432.43,1118.24c0,7.36-174.47,13.33-389.68,13.33s-389.68-6-389.68-13.33,174.46-13.34,389.68-13.34S3432.43,1110.87,3432.43,1118.24Z"/><g class="cls-11"><path class="cls-12" d="M3079.41,1428.3l-19.8,38.4-15-38.53C3049.29,1421.37,3059.3,1414.78,3079.41,1428.3Z"/><path class="cls-13" d="M3077.15,1353.36a20.84,20.84,0,0,1,.63,2.14A4.75,4.75,0,0,1,3077.15,1353.36Z"/><path class="cls-14" d="M3079.41,1428.3c-20.11-13.52-30.12-6.93-34.78-.13L3018,1359.71a57.61,57.61,0,0,1-3.74-16.91c5.69-4.5,12.71-7.78,19.1-4.15,13.66,7.75,25.44,26.41,25.44,26.41s-1.55-20.76,7.29-21.61c6.55-.63,9.81,6.28,11.05,9.91a4.75,4.75,0,0,0,.63,2.14,20.84,20.84,0,0,0-.63-2.14c-.11-2.24,1.41-5.68,10.81-7.44,7.47-1.4,18.05,5,26.74,13.23a60.47,60.47,0,0,1-2.48,5.52Z"/><path class="cls-15" d="M3045.92,763.22l1.68-32a28.55,28.55,0,0,1,30-27l47.37,2.49a28.55,28.55,0,0,1,27,30l-1.69,32Z"/><path class="cls-16" d="M3118.55,1341.25a57.79,57.79,0,0,1-3.85,17.9c-8.69-8.21-19.27-14.63-26.74-13.23-9.4,1.76-10.92,5.2-10.81,7.44-1.24-3.63-4.5-10.54-11.05-9.91-8.84.85-7.29,21.61-7.29,21.61s-11.78-18.66-25.44-26.41c-6.39-3.63-13.41-.35-19.1,4.15a57.14,57.14,0,0,1-.1-7L3045,780.32l104.38,5.49Z"/><rect class="cls-17" x="3089.1" y="722.25" width="17.13" height="104.53" transform="translate(2161.42 3827.19) rotate(-86.99)"/><path class="cls-18" d="M3118.55,1341.25a57.79,57.79,0,0,1-3.85,17.9c-8.69-8.21-19.27-14.63-26.74-13.23a30.78,30.78,0,0,0-4.51,1.19c.27-7.1.7-14.08,1.32-20.71,4.55-48.14,12.33-349.1,18.07-416.23,2.69-31.5,5.32-81.84,7.35-126.42l39.21,2.06Z"/><path class="cls-19" d="M3059.66,724.81c1.16-7.27,7.36-13.55,14.94-13.74,2.86-.07,5.55,1.39,6,4.46.38,2.56-1.58,5.93-4.46,6s-5.53,1.71-6,4.58C3069.08,732.8,3058.58,731.56,3059.66,724.81Z"/><polygon class="cls-20" points="3040.85 855.34 3145.36 858.61 3149.4 785.82 3045.02 780.32 3040.85 855.34"/><polygon class="cls-21" points="3146.16 844.28 3041.75 840.68 3042.14 832.19 3146.59 836.48 3146.16 844.28"/><polygon class="cls-21" points="3147.65 817.45 3043.24 814.05 3043.59 805.93 3148.1 809.22 3147.65 817.45"/><path class="cls-12" d="M3165.78,1503,3142,1536.25l-8.72-38.13C3138.54,1492.41,3148.82,1487.62,3165.78,1503Z"/><path class="cls-13" d="M3174,1432.58c.23,1.25.29,2.09.29,2.09A4.43,4.43,0,0,1,3174,1432.58Z"/><path class="cls-14" d="M3165.78,1503c-17-15.42-27.24-10.63-32.54-4.92l-15.48-67.75a54.76,54.76,0,0,1-1.17-16.34c5.95-3.43,13-5.53,18.45-1.25,11.72,9.14,20.17,28.22,20.17,28.22s1.42-19.64,9.81-19.22c6.22.31,8.31,7.24,9,10.8a4.43,4.43,0,0,0,.29,2.09s-.06-.84-.29-2.09c.2-2.11,2.1-5.12,11.14-5.47,7.19-.28,16.21,7.19,23.21,16.07a53.21,53.21,0,0,1-3.09,4.82Z"/><path class="cls-22" d="M3226.12,875.87l6-29.74A27,27,0,0,1,3263.92,825l44,8.86a27,27,0,0,1,21.15,31.82l-6,29.74Z"/><path class="cls-23" d="M3214.42,1427a54.57,54.57,0,0,1-6.07,16.23c-7-8.88-16-16.35-23.21-16.07-9,.35-10.94,3.36-11.14,5.47-.67-3.56-2.76-10.49-9-10.8-8.39-.42-9.81,19.22-9.81,19.22s-8.45-19.08-20.17-28.22c-5.48-4.28-12.5-2.18-18.45,1.25a54.89,54.89,0,0,1,.88-6.61l105.45-515.66,96.95,19.53Z"/><rect class="cls-19" x="3264.89" y="844.13" width="16.21" height="98.9" transform="translate(1750.59 3925.62) rotate(-78.61)"/><path class="cls-24" d="M3214.42,1427a54.57,54.57,0,0,1-6.07,16.23c-7-8.88-16-16.35-23.21-16.07a30.33,30.33,0,0,0-4.39.49c1.24-6.6,2.6-13.08,4.1-19.2,10.89-44.44,59.67-325.08,74.29-387.13,6.86-29.11,16.26-75.87,24.31-117.31l36.42,7.33Z"/><path class="cls-19" d="M3244.27,841.82c2.09-6.65,8.77-11.67,15.89-10.8,2.68.32,5,2.06,5,5,0,2.45-2.3,5.33-5,5s-5.42.84-6.24,3.46C3252,850.59,3242.34,848,3244.27,841.82Z"/><path class="cls-12" d="M2824.5,843.2l-22.61-34.05-10.08,37.79C2796.89,852.84,2807,858,2824.5,843.2Z"/><path class="cls-13" d="M2830.16,913.9a19.88,19.88,0,0,0,.37-2.07A4.51,4.51,0,0,0,2830.16,913.9Z"/><path class="cls-14" d="M2824.5,843.2c-17.51,14.8-27.61,9.64-32.69,3.74l-17.92,67.14a54.33,54.33,0,0,0-1.76,16.29c5.81,3.65,12.76,6,18.39,1.92,12-8.71,21.18-27.48,21.18-27.48s.7,19.68,9.1,19.57c6.23-.09,8.57-6.94,9.36-10.48a4.51,4.51,0,0,1,.37-2.07,19.88,19.88,0,0,1-.37,2.07c.13,2.13,1.92,5.2,10.94,5.88,7.17.54,16.46-6.6,23.78-15.22-.89-1.69-1.86-3.34-2.91-4.93Z"/><path class="cls-15" d="M2862.15,1472.14l4.91,29.93a27,27,0,0,0,31,22.28l44.29-7.27a27,27,0,0,0,22.28-31l-4.92-29.93Z"/><path class="cls-16" d="M2870.36,921a54.68,54.68,0,0,0-5.48-16.43c-7.32,8.62-16.61,15.76-23.78,15.22-9-.68-10.81-3.75-10.94-5.88-.79,3.54-3.13,10.39-9.36,10.48-8.4.11-9.1-19.57-9.1-19.57s-9.14,18.77-21.18,27.48c-5.63,4.08-12.58,1.73-18.39-1.92a54.83,54.83,0,0,0,.63,6.64l86.76,519.13,97.6-16Z"/><rect class="cls-19" x="2860.18" y="1448.03" width="98.9" height="16.21" transform="translate(-197.43 490.52) rotate(-9.32)"/><path class="cls-18" d="M2870.36,921a54.68,54.68,0,0,0-5.48-16.43c-7.32,8.62-16.61,15.76-23.78,15.22a29.37,29.37,0,0,1-4.37-.65c1,6.64,2.13,13.17,3.41,19.34,9.28,44.8,47.89,327,60.26,389.55,5.8,29.34,13.51,76.41,20.06,118.12l36.66-6Z"/><path class="cls-19" d="M2879.06,1506.83c1.85,6.71,8.33,12,15.49,11.36,2.69-.23,5.07-1.88,5.17-4.81.09-2.45-2.1-5.41-4.81-5.18s-5.39-1-6.11-3.68C2887.09,1498.33,2877.35,1500.59,2879.06,1506.83Z"/></g><path class="cls-25" d="M2844.09,1754.81a15.45,15.45,0,0,1-15-11.87l-83-347.13a15.46,15.46,0,0,1,30.06-7.2l83,347.14a15.47,15.47,0,0,1-15,19.06Z"/><path class="cls-25" d="M2741.8,1327.22a15.46,15.46,0,0,1-15-11.86l-30.61-128a15.46,15.46,0,0,1,30.07-7.2l30.61,128a15.48,15.48,0,0,1-15,19.06Z"/><path class="cls-26" d="M2226.88,2238.35v123.59a88,88,0,0,0,88.08,88H3972.72v-41.51H3917V2190h55.71v-39.7H2315a88,88,0,0,0-88.08,88Z"/><path class="cls-27" d="M3187.32,2450h785.41v-41.53H3917V2190h55.73v-39.69H3187.32S3097,2286.36,3187.32,2450Z"/><path class="cls-27" d="M3099.8,2150.35H2791.37s-90.29,136,0,299.62H3099.8C3009.5,2286.36,3099.8,2150.35,3099.8,2150.35Z"/><path class="cls-9" d="M3931,2190.63v217h-716.1c-36.82-63.7-36.82-145.31,0-217Z"/><path class="cls-28" d="M2392.66,1938.75v123.56a88.06,88.06,0,0,0,88,88H3846.18v-37.41h-55.73V1897.18h55.73v-46.52H2480.69a88,88,0,0,0-88,88.09Z"/><path class="cls-29" d="M3040,2150.32h806.23v-37.38h-55.73V1897.18h55.73v-46.49H3040S2949.65,1986.7,3040,2150.32Z"/><path class="cls-9" d="M3805.45,1897.18V2113h-737.9c-36.81-69.67-36.83-154.36,0-215.51Z"/><rect class="cls-30" x="2356.78" y="2263.87" width="622.04" height="72.57" rx="6"/><polygon class="cls-23" points="3549.01 2000.5 3624.18 2034.54 3748.58 2034.54 3664.78 2000.5 3549.01 2000.5"/><polygon class="cls-22" points="3332.64 1976.23 3407.81 2010.27 3520.55 2010.27 3436.75 1976.23 3332.64 1976.23"/><g class="cls-31"><path class="cls-32" d="M2480.69,1850.66a88,88,0,0,0-88,88.09v123.56a88.05,88.05,0,0,0,87.86,88H2315a88,88,0,0,0-88.08,88v123.59a88,88,0,0,0,88.08,88H2692.4l-105.05-599.29Z"/></g><path class="cls-33" d="M1463.25,642.68v88.61h-62.11V632.37h51.79A10.31,10.31,0,0,1,1463.25,642.68Z"/><polygon class="cls-34" points="2440.06 687.43 2220.16 687.43 2220.16 784.42 2452.12 784.42 2440.06 687.43"/><rect class="cls-18" x="2178.37" y="687.43" width="47.05" height="1799.57"/><rect class="cls-18" x="2440.06" y="687.43" width="47.05" height="1799.57"/><path class="cls-9" d="M2225.42,695s41.91,16.79,102.76,17.7c2.62,0,5.58,1.5,10.55,30.25.43,2.46,2.44-30.29,5-30.37A323.79,323.79,0,0,0,2440.06,695V2487H2347.8l-4.81-13.5-6.2,13.5h-25.92l-5.18-8.83-7.13,8.83h-73.14Z"/><path class="cls-16" d="M2178.37,687.43H1170.47a24.5,24.5,0,0,0-24.5,24.51V2462.5a24.5,24.5,0,0,0,24.5,24.5h1007.9Z"/><rect class="cls-18" x="1421.13" y="1534.75" width="546.87" height="283.8"/><rect class="cls-15" x="1406.87" y="1523.09" width="546.87" height="94.6"/><rect class="cls-35" x="1406.87" y="1617.69" width="546.87" height="94.6"/><rect class="cls-15" x="1406.87" y="1712.29" width="546.87" height="94.6"/><path class="cls-18" d="M1787.48,1174.73a43,43,0,0,1-5.12-.31c-9.81-1.17-14.22-3.88-17.45-5.86-2.35-1.44-3.44-2.1-8.42-2.06-10.72.06-16.42,5.23-16.66,5.45l.11-.1L1727.15,1159c1.08-1.08,11.11-10.52,29.23-10.63,9.39,0,13.72,2.12,18,4.75,2.38,1.45,4.26,2.6,10.13,3.31,11.06,1.33,17.29-5,17.55-5.26l-.09.1,13.45,12.17C1811.38,1167.9,1801.31,1174.73,1787.48,1174.73Z"/><path class="cls-18" d="M1393.12,1310.82h-48v82.77h54.55l-3.09,21h-74.26V1200.32h73.59v21.1h-50.79v68.43h48Z"/><path class="cls-18" d="M1435.3,1354.23v12.42c0,20.18,7,31,22,31,15.34,0,21.41-11.11,21.41-34.59,0-25.07-5.51-34.81-28.08-52.39-22.92-17.93-34.55-28.75-34.55-60.32,0-27.15,8.13-53.18,41.75-53,31.89.18,40.32,21.4,40.32,48.61v9.94h-22.65v-9.33c0-17.79-3.47-29.28-18.14-29.28s-18.48,12.89-18.48,29.69c0,19.91,4,27.46,23.61,42.33,29.74,22.48,39.16,35,39.16,70.59,0,30.12-8.6,57.55-44.75,57.55-34.58,0-44.38-22.65-44.38-50.88v-12.3Z"/><path class="cls-18" d="M1525,1200.32h39.18c31.84,0,47,16.12,47,50.73v13c0,32.22-9.62,56-48.57,56h-14.81v94.49H1525Zm22.8,100.53h12.74c24.29,0,27.81-14.9,27.81-37.18v-11.49c0-17.34-3.79-32.51-25.83-32.51h-14.72Z"/><path class="cls-18" d="M1644.4,1346.18l-10.23,68.37h-23.09l35.19-214.23h32.47l36.65,214.23h-23.87l-11-68.37Zm33.15-21c-7.49-47.18-12.86-83.62-14.9-103.88h-.93c-.79,16.56-8.46,64.75-14.23,103.88Z"/><path class="cls-18" d="M1733.76,1414.55V1200.32H1761c11.55,39.65,41.35,152,44.85,169.45h.49c-1.25-28.8-1.6-59-1.6-93.88v-75.57h21.48v214.23h-26.29c-11.4-40.2-42.1-158.11-46.16-175.17h-.32c1.43,25.8,2,60,2,98.69v76.48Z"/><path class="cls-18" d="M1945.81,1252.94v108c0,37.64-15.51,56.5-47.44,56.5-33.17,0-45.3-21.14-45.3-56.21V1253c0-36.38,16.56-55.51,46.85-55.51C1931.58,1197.46,1945.81,1219.09,1945.81,1252.94Zm-69.48-1v111.17c0,24.09,8.75,33.68,23.12,33.68,15.16,0,23.1-9.3,23.1-34.7V1251.92c0-22.74-7.82-33.65-23.27-33.65S1876.33,1228.57,1876.33,1251.89Z"/><path class="cls-18" d="M1973.33,1200.32h22.8V1394H2050l-2.54,20.52h-74.14Z"/><path class="cls-25" d="M1381.45,1305.63h-48v82.78H1388l-3.09,21h-74.26V1195.13h73.58v21.11h-50.78v68.43h48Z"/><path class="cls-25" d="M1423.64,1349.05v12.42c0,20.17,7,31,22,31,15.34,0,21.4-11.11,21.4-34.58,0-25.07-5.51-34.81-28.07-52.39-22.92-17.93-34.55-28.75-34.55-60.33,0-27.14,8.13-53.18,41.75-53,31.89.17,40.32,21.4,40.32,48.6v9.94h-22.65v-9.33c0-17.78-3.47-29.27-18.14-29.27s-18.49,12.89-18.49,29.68c0,19.92,4,27.47,23.62,42.34,29.74,22.48,39.16,35,39.16,70.58,0,30.12-8.6,57.56-44.76,57.56-34.57,0-44.37-22.66-44.37-50.88v-12.3Z"/><path class="cls-25" d="M1513.29,1195.13h39.18c31.84,0,47,16.13,47,50.73v13c0,32.21-9.62,56-48.57,56h-14.82v94.5h-22.79Zm22.79,100.53h12.75c24.28,0,27.81-14.9,27.81-37.17V1247c0-17.35-3.79-32.51-25.83-32.51h-14.73Z"/><path class="cls-25" d="M1632.74,1341l-10.24,68.37h-23.09l35.19-214.24h32.48l36.65,214.24h-23.88l-11-68.37Zm33.15-21c-7.5-47.18-12.86-83.63-14.9-103.89h-.93c-.79,16.56-8.46,64.76-14.23,103.89Z"/><path class="cls-25" d="M1722.1,1409.37V1195.13h27.2c11.55,39.66,41.34,152,44.84,169.46h.5c-1.26-28.81-1.61-58.95-1.61-93.88v-75.58h21.49v214.24h-26.3c-11.4-40.21-42.1-158.11-46.15-175.17h-.32c1.43,25.8,2,60,2,98.69v76.48Z"/><path class="cls-25" d="M1934.15,1247.76v108c0,37.64-15.51,56.51-47.44,56.51-33.18,0-45.31-21.14-45.31-56.21V1247.79c0-36.39,16.56-55.51,46.86-55.51C1919.92,1192.28,1934.15,1213.91,1934.15,1247.76Zm-69.48-1v111.17c0,24.08,8.75,33.68,23.12,33.68,15.16,0,23.09-9.3,23.09-34.7V1246.74c0-22.74-7.81-33.65-23.26-33.65S1864.67,1223.38,1864.67,1246.71Z"/><path class="cls-25" d="M1961.67,1195.13h22.8v193.72h53.88l-2.54,20.52h-74.14Z"/><path class="cls-25" d="M1780.78,1171.92a41.21,41.21,0,0,1-5.12-.31c-9.81-1.17-14.22-3.88-17.44-5.85-2.36-1.45-3.44-2.11-8.42-2.07-10.73.06-16.43,5.24-16.66,5.46l.1-.11-12.79-12.87c1.09-1.07,11.11-10.51,29.24-10.63,9.39,0,13.72,2.12,18,4.75,2.37,1.46,4.25,2.61,10.12,3.31,11.06,1.33,17.3-5,17.56-5.26l-.1.1,13.46,12.17C1804.68,1165.09,1794.62,1171.92,1780.78,1171.92Z"/><path class="cls-10" d="M2336.14,2443.52a2.81,2.81,0,0,1-2.81-2.81V749.11a2.81,2.81,0,1,1,5.62,0v1691.6A2.81,2.81,0,0,1,2336.14,2443.52Z"/><rect class="cls-36" x="1914.32" y="588.3" width="169.33" height="99.13"/><rect class="cls-37" x="1673.93" y="529.77" width="169.33" height="157.66"/><polygon class="cls-18" points="1300.95 984.64 1375.24 946.84 1466.84 984.64 1464.13 687.43 1300.95 687.43 1300.95 984.64"/><path class="cls-15" d="M1412.84,623.73H1301.9a26.9,26.9,0,0,0-26.9,26.9v334l74.28-37.8,91.6,37.8-3-329.65a19.69,19.69,0,0,1,19.06-19.68l3.19-.1h0C1451.68,627.07,1429.29,623.73,1412.84,623.73Z"/><rect class="cls-38" x="1209.82" y="687.43" width="9.84" height="1799.57"/><path class="cls-25" d="M1245.63,2039.4a7,7,0,0,1-7-7v-887.7a7,7,0,1,1,14.05,0v887.7A7,7,0,0,1,1245.63,2039.4Z"/><path class="cls-25" d="M1245.63,1023.41a7,7,0,0,1-7-7V754.61a7,7,0,0,1,14.05,0v261.78A7,7,0,0,1,1245.63,1023.41Z"/><path class="cls-10" d="M2381,1715.1a2.81,2.81,0,0,1-2.81-2.81v-605a2.81,2.81,0,0,1,5.62,0v605A2.81,2.81,0,0,1,2381,1715.1Z"/><path class="cls-10" d="M2381,2058.65a2.81,2.81,0,0,1-2.81-2.81V1795.38a2.81,2.81,0,1,1,5.62,0v260.46A2.81,2.81,0,0,1,2381,2058.65Z"/><path class="cls-29" d="M859,968.67a8.37,8.37,0,0,1-2.36-.34,758.24,758.24,0,0,1-71.69-25.68c-50.74-21.26-81.81-42.18-92.32-62.19-1-1.88-9.61-11.18-82.1-9.12-48.52,1.38-112.13,7.29-173.66,13-108.16,10-210.33,19.51-247.6,7.58-20.61-6.61-43.89-30.7-69.19-71.62-22.3-36.06-44.68-82.77-64.73-135.07-32.71-85.35-66-207.84-52-272.14,6.09-28.1,35-51.67,88.47-72.06,44.19-16.86,103.9-31.21,182.56-43.89,142-22.88,312.1-34.66,448.74-44.12,17.43-1.21,34.21-2.37,50.19-3.51,84.35-6,140.65,15.21,177.15,66.72,32.5,45.87,45.49,109.33,60.52,182.8,7.25,35.45,14.75,72.1,25.05,109.33,18.7,67.61.94,123-52.81,164.8C939.6,807,883,824,845.62,835.23c-12.16,3.65-25.81,7.76-30.09,10.21-.18,3.4,1.28,16.69,23,59.63,13.32,26.39,27.59,50.64,27.73,50.89A8.43,8.43,0,0,1,859,968.67ZM631.17,854.16c47,0,69.59,5.62,76.34,18.46,14.93,28.42,89,58.19,133.49,73.1-5.32-9.58-12-21.88-18.34-34.58-26-51.85-25.85-66.41-22.24-73.81,3.33-6.84,12.35-9.83,40.34-18.25,36.23-10.9,91-27.36,132-59.24,48.5-37.67,63.84-85.75,46.9-147-10.46-37.79-18-74.72-25.32-110.45C979.72,430.8,967.07,369,936.61,326c-32.76-46.23-84.3-65.18-162.2-59.65-16,1.14-32.78,2.3-50.22,3.51-136.3,9.44-305.93,21.19-447.21,44-76.44,12.32-136.74,26.78-179.24,43-47,17.94-73.28,38.09-78,59.87-10.82,49.94,9.32,153,51.31,262.53,41.07,107.17,90.63,186.2,123.32,196.67,34,10.88,139.17,1.12,240.89-8.32,61.79-5.73,125.68-11.66,174.74-13Q621.32,854.16,631.17,854.16Zm184.49-9.65Z"/><path class="cls-39" d="M1081.4,502.27c-22-9.18,0-20,0-20s-22.14,4.72-53.73-7.82c-1.9-.75-3.54-1.49-5-2.2-14.17,8.66-27.44,17.87-31.32,20.16-7.19,4.23-54.11,13.86-54.11,13.86L805.47,486.91c-42.84-12.84-130-36.28-170.53-54.62s-122.57-17.81-161-20.79-186-15.07-221.07-4.12S164.7,482.11,160.6,555.1s61.79,192,181.43,217.73S613.3,694.12,657,653.17s119.11-32.74,165.42-43.39,207.45-54.29,260.12-65.92c9.85-2.17,19.11-4.5,27.65-6.92C1098.12,525.89,1097.84,509.13,1081.4,502.27Z"/><path class="cls-12" d="M1172.46,506.17c1.72-10-19-31.05-42-43.1s-45.41.43-45.41.43-11.77-11.76-29.39-7.61c-8.12,1.91-20.89,8.91-33,16.32,1.43.71,3.07,1.45,5,2.2,31.59,12.54,53.73,7.82,53.73,7.82s-22,10.86,0,20c16.44,6.86,16.72,23.62,28.8,34.67C1147.32,526.44,1171.06,514.3,1172.46,506.17Z"/><path class="cls-25" d="M268.15,415.43s126.24.3,185.59,6.57,123.6,3.75,151.33,14.41,88.74,27.34,105.16,44.66-84.76,58.19-114.59,79.21-144.23,75.9-243.52,62.38S191.63,589.8,189,542.94,222.14,415,268.15,415.43Z"/><path class="cls-15" d="M193.86,543.05s19.66,29.48,49.94,44.88S311.89,598.59,352.17,600s85.39-11.28,119.49-12.9,65.12-25,94.4-37.11,62.62-35.47,79.57-40.37S707.21,495,708.72,488s-6.92-9.15-21.19-14.59S643.78,454,627.74,448.67,597.44,435.6,576,435.28,441.77,429,397,424.91,292,433.16,270.41,440.34,204.59,439.79,193.86,543.05Z"/><path class="cls-25" d="M211.64,569.72a222.19,222.19,0,0,0,53.25-8.85c27-8.26,36-19.44,52.69-26.86s38.07-14.1,66.53-18.06,69.76-25.49,101.71-31.15,79-9.15,109.92-9,92.1-7.5,93.83-5.75-35.12,4.41-46.7,7.07-61.73,8-80.65,7-44.09,2.08-58,5.44-4,8.56,9.75,7.75,48.59-.92,73.46-2.75,73.81-9.2,73.49-8-10.46,3.39-16.41,6.2-63.16,6.73-79.24,10-46.8,7.48-61.92,5.3-15.92-15.88-29.66-11.6-64.39,30-79.39,32.39-57.64,2.25-74.19,12.34-28.19,19.7-39.57,23.29-42.93,21.11-50.58,18.69S211.64,569.72,211.64,569.72Z"/><path class="cls-25" d="M195.48,509.35s10.62-10.75,58.87-20.47,32.47-17.72,82.4-20.47,121.88-21.57,140.6-21.52,74.79-16.34,74.79-16.34l4.08,1.05s-27.6,10.71-43.63,14.62-44.89,4.27-54.26,6S375,468.73,364.76,470.43s-42.51,1.84-55.22,4.65-44.07,17.12-54.11,19.74S198.87,513.06,196,515.59,189.12,512.06,195.48,509.35Z"/><path class="cls-40" d="M1705.77,110.6s47.8.7,72.66-4.08,38.72-17.69,42.07-27.25.12-31.08,10.1-22.47,9.15,47.33,0,64.54-78.46,14.82-78.46,14.82Z"/><path class="cls-40" d="M1635.49,114.17s-56.42,5.26-68.85,2.87-24.38-15.78-28.68-24.86-5.26-8.61-8.13-4.31-7.65,23.43-2.87,38.73,8.29,21.56,24.86,27.59,59.17-5.12,59.17-5.12S1622.93,115.6,1635.49,114.17Z"/><path class="cls-41" d="M1753.57,134.06s20.56,1.91,39.68,8.13,35.38,9.56,37.29,23.42-41.11,9.09-66.93,0S1753.57,134.06,1753.57,134.06Z"/><path class="cls-41" d="M1606.32,154.33s-32.51-2.39-47.8,12.43-20.56,26.77-15.3,29.64,59.76-5.26,63.1-11S1614.89,154.41,1606.32,154.33Z"/><path class="cls-41" d="M1748.8,267.18c1-15.3,24.37-33.93,24.37-51.66,0-5.74-1-84.14-20.08-96.57s-89.88-8.61-117.6-4.78-27.73,21-33.47,31.55c-2.79,5.12-4.23,23.85-5,41.72a85.52,85.52,0,0,0,19.21,57.79,101.36,101.36,0,0,1,10.61,15.23c5,9.2,7.39,19.27,8.53,26.47,3.22-6.06,10.25-13.55,25.64-18,26.39-7.63,64.64-11.79,87.67,1.71C1748.7,269.52,1748.72,268.37,1748.8,267.18Z"/><path class="cls-40" d="M1661.05,268.93c-15.39,4.45-22.42,11.94-25.64,18a83.51,83.51,0,0,1,1,9.86c0,9.57,1.91,28.69,27.73,31.56s81.57-5.1,84.63-15.35c6.17-20.64.15-29.17-.08-42.36C1725.69,257.14,1687.44,261.3,1661.05,268.93Z"/><path class="cls-41" d="M1683.9,302.4s2.1-7.47-5.6-8.64-18.42,2.58-17.49,4.32,5.13.35,6.76,2.21,3,11.43,9.1,10.27S1683.9,302.4,1683.9,302.4Z"/><path class="cls-41" d="M1709.29,298.38s-2.1-7.47,5.6-8.64,18.42,2.58,17.49,4.32-5.13.35-6.77,2.21-3,11.43-9.09,10.26S1709.29,298.38,1709.29,298.38Z"/><ellipse class="cls-42" cx="1643.32" cy="196.99" rx="6.65" ry="8.24"/><path class="cls-42" d="M1732.43,193.5c0,4.55-3,8.24-6.64,8.24s-6.65-3.69-6.65-8.24,3-8.25,6.65-8.25S1732.43,188.94,1732.43,193.5Z"/><path class="cls-16" d="M1699.68,340a38.66,38.66,0,0,1-6.9-.65c-9.68-1.74-16.53-6-20.37-12.63-6.29-10.9-1.71-24-1.51-24.52a4,4,0,0,1,7.58,2.71c0,.14-3.5,10.21.92,17.82,2.61,4.47,7.59,7.4,14.8,8.7,9.07,1.64,15.75-.64,19.87-6.77,5.75-8.56,4.86-21.92,3.26-24.43a4,4,0,0,1,6.8-4.31c3.62,5.71,3.8,22.55-3.39,33.23C1717.24,334.36,1710.86,340,1699.68,340Z"/><path class="cls-25" d="M1713,326.11s3.15-5.76,5-4.48-1.51,7.58-5.65,10.85-10.38,5.13-12.88,3.26,3-2.62,6.52-4.25A26.94,26.94,0,0,0,1713,326.11Z"/><path class="cls-42" d="M1770.12,169.86a1.57,1.57,0,0,1-1.56-1.4c-.55-4.67-6.75-32.52-6.82-32.8a1.58,1.58,0,1,1,3.08-.68c.25,1.15,6.3,28.29,6.87,33.12a1.57,1.57,0,0,1-1.38,1.74Z"/><path class="cls-42" d="M1597.55,190.33A1.58,1.58,0,0,1,1596,189c-.71-4.18,1.89-31.83,2.19-35a1.58,1.58,0,1,1,3.14.3c-1.16,12.16-2.71,31.29-2.22,34.14a1.57,1.57,0,0,1-1.29,1.81A1.24,1.24,0,0,1,1597.55,190.33Z"/><path class="cls-43" d="M1486.48,455.58a8.44,8.44,0,0,1-7.13-12.95l37.41-59a224.68,224.68,0,0,1-56.52-8.21c-50.74-14.54-83.13-46.92-93.67-93.64-10.17-45-14.24-110.56,24.12-167,34.78-51.15,97-84,185-97.71C1677.92,1.21,1760.58-2.29,1821.35,6.73c69.58,10.32,113.66,37.46,131,80.65,20.66,51.47,14.81,133.54-14.22,199.58-22,50.05-54.82,85.42-92.41,99.6-40.51,15.28-91.56,20-151.73,13.9a539.38,539.38,0,0,1-75-12.81l-128.59,67A8.32,8.32,0,0,1,1486.48,455.58Zm45.82-89.14a8.42,8.42,0,0,1,7.12,12.94l-29,45.81,103.68-54a8.39,8.39,0,0,1,6.12-.66c1.28.35,128.58,34.57,219.57.25,33.32-12.57,62.77-44.75,82.93-90.62,27.36-62.22,33.12-138.91,14-186.51-29-72.23-149.59-92.38-358.44-59.88-83.15,12.94-141.56,43.4-173.61,90.53-35,51.4-31.05,112-21.62,153.77,9.23,40.92,36.78,68.22,81.86,81.14a207.78,207.78,0,0,0,66.7,7.25Q1531.94,366.44,1532.3,366.44Z"/><path class="cls-44" d="M390.91,1457.57l232.92,30.65,87-196,5.63-11.64,15.84,7.2L632.29,1493.3s3.72,6.19-2.93,6.68-7.45-3.56-7.45-3.56L388.11,1472Z"/><path class="cls-15" d="M613.54,1268.64c-57.09,2.41-195.35,41.39-217.29,189.63l141.28,18.59c6.46-10.12,20.42-25.09,50.48-40.23,27.69-14,50.23-16.18,65.45-15.13l57.42-129.29S670.64,1266.24,613.54,1268.64Z"/><path class="cls-44" d="M588,1436.63c-30.06,15.14-44,30.11-50.48,40.23l86.3,11.36,29.63-66.72C638.24,1420.45,615.7,1422.68,588,1436.63Z"/><path class="cls-33" d="M546,1458.46a3.19,3.19,0,0,1-2.22.13l-131.42-40.78a3.16,3.16,0,1,1,1.88-6l131.42,40.77a3.16,3.16,0,0,1,.34,5.91Z"/><path class="cls-33" d="M568,1442.55a3.17,3.17,0,0,1-3.22-.4l-26.38-20.46a3.16,3.16,0,1,1,3.87-5l26.38,20.46a3.16,3.16,0,0,1,.56,4.43A3.19,3.19,0,0,1,568,1442.55Z"/><path class="cls-33" d="M534.21,1416.32a3.14,3.14,0,0,1-3.22-.39l-37.92-29.42a3.16,3.16,0,1,1,3.87-5l37.92,29.42a3.15,3.15,0,0,1,.56,4.43A3.07,3.07,0,0,1,534.21,1416.32Z"/><path class="cls-33" d="M485.53,1378.56a3.17,3.17,0,0,1-3.22-.4l-31.48-24.42a3.16,3.16,0,1,1,3.88-5l31.48,24.42a3.18,3.18,0,0,1-.66,5.39Z"/><path class="cls-33" d="M586.61,1432.18a3.16,3.16,0,0,1-4.07-1.41l-68.72-130.16a3.16,3.16,0,0,1,5.59-2.95l68.72,130.15a3.16,3.16,0,0,1-1.32,4.27Z"/><path class="cls-33" d="M597.58,1364.63a2.57,2.57,0,0,1-.61.2,3.16,3.16,0,0,1-3.76-2.42l-18-83.38a3.16,3.16,0,0,1,6.18-1.34l18,83.39A3.15,3.15,0,0,1,597.58,1364.63Z"/><path class="cls-33" d="M610.35,1423.8a2.5,2.5,0,0,1-.62.2,3.15,3.15,0,0,1-3.75-2.42l-9.52-44.1a3.16,3.16,0,0,1,6.18-1.33l9.52,44.1A3.16,3.16,0,0,1,610.35,1423.8Z"/><path class="cls-33" d="M635.75,1412.56a3.16,3.16,0,0,1-4.41-3.33l18.3-131.74a3.16,3.16,0,1,1,6.25.87L637.6,1410.1A3.14,3.14,0,0,1,635.75,1412.56Z"/><path class="cls-29" d="M458.8,1616.17a430.44,430.44,0,0,1-93.27-9.92c-73.13-16.25-104.72-65.89-118.34-104.68-25.6-72.87-9.09-172.41,38.39-231.53,46.17-57.49,180.2-91.5,235.68-103.45,103.36-22.26,205.22-29,253.48-16.78,45,11.39,80.77,42.55,106.44,92.62,25.11,49,33.46,103.07,36.21,131,3.48,35.26-23.57,72.35-80.38,110.23a564.3,564.3,0,0,1-71.52,39.92l72.36,62.55a8.43,8.43,0,0,1-6.85,14.7l-168-26.91c-9,4.06-41.39,18-88.45,28.82A519.56,519.56,0,0,1,458.8,1616.17Zm252.59-455.49c-51,0-119.15,7.88-186.58,22.4-111.88,24.1-196.4,60.56-226.09,97.52-20.5,25.53-35.65,61.09-42.64,100.11-7.29,40.69-4.8,81.63,7,115.28,12.21,34.75,40.52,79.23,106.08,93.8,78.27,17.39,152.55,7.74,201.08-3.41,52.82-12.14,87.49-28.66,87.83-28.83a8.49,8.49,0,0,1,5-.73l141.3,22.63-59.92-51.8a8.43,8.43,0,0,1,2.24-14.15c.41-.18,41.57-17.62,81.14-44,35.13-23.45,76.27-58.87,72.77-94.41-2.63-26.71-10.6-78.45-34.43-124.92-23.37-45.57-55.52-73.83-95.58-84C756,1162.46,735.63,1160.68,711.39,1160.68Z"/><path class="cls-29" d="M3798.19,1036.9a20.26,20.26,0,0,1-4.47-.5,14.61,14.61,0,0,1-10.76-9.23c-2.77-7.24-2.92-20.74,20.79-61.1,6.8-11.58,13.8-22.35,18.82-29.84-37.4-8.29-149-34.45-202.92-62.48-23.42-12.17-29.62-56.93-18.42-133,9-61.34,28.51-135.05,52.13-197.19,18.53-48.77,46.35-108,73.6-113.16,38.92-7.39,223.14,53.76,283.68,73.86,119.26,39.58,232.87,81,235.52,82,11,3.91,17,16.24,18.37,37.7,3.11,50.06-19.35,145.08-41.4,217.32-10.65,34.85-47.38,149.58-73.3,162.48-6.42,3.19-25.94,12.91-148.2-13.53-48.81-10.56-95-22.8-110.07-26.86-6.1,6.85-19.38,21.43-34.5,35.82C3823.89,1030.74,3807.53,1036.9,3798.19,1036.9Zm-62.51-590.39a30.36,30.36,0,0,0-5.58.43c-10.93,2.07-33.46,30.18-61,102.59-22.86,60.14-42.48,134.34-51.21,193.64-7.31,49.7-8.65,106.17,9.52,115.62,61.89,32.18,209.43,63.29,210.92,63.6a8.44,8.44,0,0,1,5.15,13.14c-.13.18-13.12,18.52-25.1,38.88-18.21,31-19.89,42.3-19.83,45.59,3.64-.21,15.95-3.64,46.78-33,19.73-18.76,36.8-38.51,37-38.7a8.4,8.4,0,0,1,8.63-2.62c.55.15,55.54,15.32,114.31,28,105.07,22.72,130.85,18,137.06,14.9,8.9-4.43,34.85-54.61,64.68-152.31,33-108,42.65-180,40.7-211.35-.95-15.34-4.46-21.9-7.19-22.85l-.1,0c-1.14-.41-115.28-42.1-235.11-81.87C3818.12,458.09,3756,446.51,3735.68,446.51Z"/><path class="cls-18" d="M4214.08,412.35s20.43-23.79,24.62-22.34,23.05,20.14,18.27,25.92-22.64,22.94-24.09,21.86S4209.51,424.15,4214.08,412.35Z"/><path class="cls-44" d="M4124.86,461.67c8,8.34,21.47,8,29.79,0l43.78-42.13-3.05-3.16,11.44-11a4.26,4.26,0,0,1,6,.12l33.2,34.48a4.26,4.26,0,0,1-.12,6l-11.45,11-3.36-3.48-43.79,42.12c-8.31,8-9.19,21.48-1.16,29.77,17.56,18.15,14.78,49.25-3.4,66.75L3908.32,857.6c-17.39,16.73-59.41,1.27-93.85-34.53s-48.27-78.38-30.88-95.11L4058,462.48C4076.2,445,4107.4,443.42,4124.86,461.67Z"/><path class="cls-33" d="M4100.15,672s-69.4-47.44-124.39-130l-79.64,76.21s31.75,84.61,124.8,130.4Z"/><path class="cls-25" d="M3832.22,710.74a5.58,5.58,0,0,1,.27-7.76c1.61-1.54,160.83-154.4,172.57-165.74,11.18-10.8,20.66-20.83,29-29.68,12.34-13.05,22.09-23.36,31.71-30.4a5.57,5.57,0,0,1,6.58,9c-8.81,6.43-18.25,16.41-30.2,29.05-8.44,8.94-18,19.06-29.37,30-11.75,11.36-171,164.23-172.59,165.77a5.57,5.57,0,0,1-7.88-.16Z"/><path class="cls-25" d="M4092,476.81a5.57,5.57,0,0,1,4.68-9.29c18.54,1.89,34.82,15.22,35.5,15.79a5.57,5.57,0,0,1-7.1,8.58c-.17-.14-14.42-11.75-29.52-13.28A5.57,5.57,0,0,1,4092,476.81Z"/><path class="cls-29" d="M2804.67,732.43a21.88,21.88,0,0,1-2.2-.11,16.09,16.09,0,0,1-13.08-8.59c-4-7.43-6.69-23.45,16-76.52,7.1-16.62,14.65-32.11,19.67-42.08-43.93-3.94-189.38-18.53-261.24-44.93-29.76-10.94-44-64.25-42.19-158.45,1.43-76.54,13.74-169.9,32.93-249.72,9.56-39.8,20.43-73.94,31.41-98.72C2599,24,2612,7.51,2625.75,3c17.55-5.71,62.05-3.36,136,7.18,57.49,8.19,132.41,21.29,222.67,38.94,152.65,29.85,298.65,62.9,301.85,63.63,13.28,2.87,22.1,16.54,26.93,41.8,11.63,60.67-1,180.53-16.67,272.46-5.37,31.5-33.69,189.62-63.55,209.57-29.23,19.53-144.74,9.62-182.71,6.36-62.89-5.4-122.71-13.38-140.4-15.82-6,8.84-20.44,29.51-37.31,50.25C2833.8,725.12,2815.24,732.43,2804.67,732.43Zm-.52-16.89c2.7.18,17-1.6,55.3-48.68,21.31-26.21,39.2-53.17,39.37-53.44a8.45,8.45,0,0,1,8.23-3.7c.7.1,70.6,10.09,144.77,16.45,128.36,11,162.75,2.49,171.83-3.58,9.8-6.55,33.75-66.19,56.3-198.38,23.54-138,24.08-228.13,16.73-266.46-3.19-16.66-8.41-27.31-14-28.5l-.1,0c-1.46-.33-148.1-33.55-301.43-63.53C2866.06,43.18,2667.47,7.18,2631,19.07c-14.23,4.63-37.47,43-60,136.9-18.63,77.53-31.07,171.83-32.46,246.1-1.52,81.38,10.12,134.57,31.15,142.3,81.26,29.86,267.48,44.87,269.35,45a8.43,8.43,0,0,1,6.77,12.37c-.13.26-13.76,25.89-25.47,53.5C2800.47,702,2803.39,713.7,2804.15,715.54Z"/><path class="cls-45" d="M3286.82,72.86s-6.64-5.22-2.25-9.69,9-7.49,11.9-3.84,4.89,5.16,3.94,6.68S3286.82,72.86,3286.82,72.86Z"/><path class="cls-45" d="M3315.54,55.33s-6.13-5.81-1.35-9.85,9.71-6.63,12.21-2.72,4.39,5.58,3.31,7S3315.54,55.33,3315.54,55.33Z"/><path class="cls-45" d="M3346.77,40.37s-6.13-5.8-1.35-9.85,9.71-6.63,12.21-2.72,4.39,5.58,3.3,7S3346.77,40.37,3346.77,40.37Z"/><path class="cls-45" d="M3313.35,113.78s-.75,8.41,5.52,8.28,11.66-1.48,10.94-6.06-.41-7.09-2.17-7.44S3313.35,113.78,3313.35,113.78Z"/><path class="cls-45" d="M3345.78,104.84s0,8.44,6.27,7.72,11.47-2.54,10.33-7-1.07-7-2.85-7.21S3345.78,104.84,3345.78,104.84Z"/><path class="cls-45" d="M3378.06,92.31s0,8.44,6.26,7.72,11.48-2.54,10.34-7-1.07-7-2.85-7.21S3378.06,92.31,3378.06,92.31Z"/><path class="cls-46" d="M3030.63,221.13s15.79,11.94,29.48,39.13,21.31,74.87-3.83,101.1-68.64,29.41-88.84,35.84-25.51,11.57-32,28.27-40.65,65.84-78.19,85.41-94.55,5-109.56-11.66,79.32-25.12,99-44.88,61.59-85.9,93.44-96.34,50.34-7.37,72.12-35S3030.63,221.13,3030.63,221.13Z"/><path class="cls-39" d="M3030.06,212.15s-20.89-55.71-79.85-57.44c-33.25-1-52,25-76.33,46.24s-63.11,14-105.44,16.7-89,20-107.81,104.46,64.5,171.11,91,178.62,89.53,15.63,141.53-60.23,38.19-59.64,87.5-65.89,79.8-47.28,77-83.68S3030.06,212.15,3030.06,212.15Z"/><polygon class="cls-46" points="2746.43 293.7 2772.16 281.21 2829.25 411.1 2807.35 421.4 2746.43 293.7"/><path class="cls-47" d="M2901.48,235.71a55.86,55.86,0,0,0-29.13,44c-3.3,32,17.57,57.41,47.88,56.22s53.91-20,60.47-45-8.25-53.72-29.07-59.29S2920.7,228.81,2901.48,235.71Z"/><path class="cls-12" d="M2924,245.91s-28.1,2.3-32.07,32.83,24.52,42.46,40.28,37.49,30.78-20.17,35.06-42.32S2944.09,241.24,2924,245.91Z"/><path class="cls-46" d="M2940.94,245.88s15.5,5.07,19,20.3,1.11,25.34,1.11,25.34L3282.7,120.45a36.9,36.9,0,0,1,6.14-1.53l-22.73-37.64C3224.09,103.91,2940.94,245.88,2940.94,245.88Z"/><path class="cls-46" d="M3405.19,41.33c-7.33-7.74-17-7.13-16.91-9.74s9.36-11.55-3.92-8.46S3275,74.53,3271.28,78.31a51.49,51.49,0,0,1-5.17,3l22.73,37.64a28.21,28.21,0,0,1,10.44.06c7.88,1.75,12.56-1.94,19-3.76s90.66-34.09,93.7-36.42-4.75-10.61-2-16.79S3412.52,49.06,3405.19,41.33ZM3288,82.89c.3-4.3,68.08-40.23,75.57-37.41s10.13,5.78,2.22,9.57-61,28.51-72,31.71C3293.74,86.76,3287.66,87.19,3288,82.89Zm97.12-6.3c-.88,1.83-18.85,9.91-28.58,12.82s-53.75,19.33-57.86,17,4-8.08,4-8.08,39.9-18.71,60.43-24.14S3386,74.76,3385.08,76.59Z"/><polygon class="cls-48" points="3397.08 1850.66 3520.55 1873.93 3732.43 2150.32 3759.69 2150.32 3776.66 2190.63 3819.31 2190.63 3797.86 2146.06 3671.53 1905.65 3638.25 1850.66 3397.08 1850.66"/><path class="cls-49" d="M3471.47,1453.08s155.77,112.31,171.21,170.79c4.59,17.39-44.63,73.18-90.48,46.37C3518.79,1650.72,3472.43,1487.8,3471.47,1453.08Z"/><path class="cls-25" d="M3327.91,1723.72s-61.76-115.75-48.34-227.49c12-100,164.35-77.68,191.9-43.15s37.79,131.08,52.29,173.92c15.69,46.37,26.81,49,33.1,67.62s-110.47,53.44-152.21,45.94S3327.91,1723.72,3327.91,1723.72Z"/><polygon class="cls-44" points="3510.01 1699.9 3417.33 1665.87 3417.34 1659.12 3587.2 1645.05 3701.03 1681.84 3510.01 1699.9"/><path class="cls-50" d="M3658.85,1841.82S3494.34,1874,3494.93,1836s99-68.61,152.81-56.34S3697.15,1829.36,3658.85,1841.82Z"/><polygon class="cls-51" points="3701.03 1681.84 3510.01 1699.9 3535.82 1555.31 3726.85 1537.24 3701.03 1681.84"/><path class="cls-52" d="M3348.05,1812.44c23.65,31.57,65.08,45.83,151.27,44.78S3684.83,1790,3684.83,1790l250.6,191,27.2-22.72s-50.55-71.38-108.56-139.52-112.69-136.33-138.75-143.88c-36-10.41-271.67,43.79-271.67,43.79l-115.74,5.08S3330.9,1789.54,3348.05,1812.44Z"/><path class="cls-22" d="M3651,1678.22c-81.81,11.55-207.38,40.42-207.38,40.42l-115.74,5.08s3,65.82,20.14,88.72c23.65,31.57,65.08,45.83,151.27,44.78,59.16-.73,124.53-32.15,159.69-51.78C3653.17,1779.57,3639.76,1711.82,3651,1678.22Z"/><path class="cls-52" d="M3631.07,1820.48s30,93.77,42.27,124.18c41.37,102.46,113.23,198.06,113.23,198.06l32.74-10.57s-76.54-301.15-87.11-325.79S3645.21,1745.64,3631.07,1820.48Z"/><path class="cls-51" d="M3825.7,2132.63c-1.5-2.26-4-24.5-4.47-25.5-2.08-4.3-25.43,7.21-25.9,18.07-.86,20.35-15.83,12.93-17.26,6.46-6,12.42,8.42,49.06,17.39,52.5,17.14,6.58,40.88,35.43,83.39,25C3895.13,2205.14,3839,2152.65,3825.7,2132.63Z"/><path class="cls-53" d="M3397.08,1725.45l-67.56,18.12a328,328,0,0,0,5,32.65C3358,1758.45,3397.08,1725.45,3397.08,1725.45Z"/><path class="cls-51" d="M3997.9,1952.34c-15.2,3.67-20.51,4-31.28,1.09-.73-.19-11.63-19.28-12.5-20-3.78-2.92-25.83,14.69-22.32,25,6.91,20.28-2.51,15.82-10.87,11.41.17,13.8,30.2,47.37,39.76,46.46,18.28-1.74,94.74-69.12,88.46-76.1C4045.39,1936,4018.49,1947.38,3997.9,1952.34Z"/><path class="cls-52" d="M3287.88,1468.3s-120,203.15-79,278.56c43.39,79.84,264.29-55.89,259.1-79.45-7.21-32.73-182.6,14.84-182.6,14.84s48.83-124.54,54.61-150.11C3349,1492.18,3311.67,1446.5,3287.88,1468.3Z"/><path class="cls-52" d="M3458.52,1650.61s25.15-12.06,30.25-6.88,18.65,15.88,15.49,17.82-12.11-7.15-12.11-7.15,10.56,13.83,9.55,15.92-3.72,1-3.72,1-.31,2.92-2.15,4.34-13.16-7.54-13.16-7.54-35.39,24.16-43.89,7.5S3458.52,1650.61,3458.52,1650.61Z"/><path class="cls-54" d="M3737.53,1831.22a1.66,1.66,0,0,1-1.16-.47l-10.1-9.75c-10.06-9.7-42.19-48.37-43.55-50a1.67,1.67,0,1,1,2.57-2.13c.33.4,33.36,40.17,43.29,49.74l10.11,9.76a1.66,1.66,0,0,1-1.16,2.86Z"/><path class="cls-54" d="M3655.14,1783a1.67,1.67,0,0,1-.6-3.22c7.8-3,32.18-5.63,33.21-5.73a1.64,1.64,0,0,1,1.83,1.48,1.66,1.66,0,0,1-1.48,1.83c-.25,0-25,2.65-32.36,5.53A1.77,1.77,0,0,1,3655.14,1783Z"/><path class="cls-25" d="M3340,1532.14c9-40-28.32-85.64-52.11-63.84,0,0-46.25,78.32-71.51,155.75,11.48,9.71,44.61,38.71,86.26,39.59C3317.43,1625.19,3336,1549.79,3340,1532.14Z"/><path class="cls-25" d="M3638.28,1622.24c-1.37,6.69-6,11.4-10.27,10.51s-6.66-7-5.28-13.71,6-11.39,10.27-10.51S3639.66,1615.55,3638.28,1622.24Z"/><path class="cls-54" d="M3248.4,1697.6a1.66,1.66,0,0,1-.91-3.06,104.8,104.8,0,0,1,37.64-13.94,1.67,1.67,0,0,1,.51,3.3,103.53,103.53,0,0,0-36.33,13.43A1.69,1.69,0,0,1,3248.4,1697.6Z"/><path class="cls-49" d="M3305.86,1656.52a1.59,1.59,0,0,1-.6-.11,1.66,1.66,0,0,1-1-2.15c.11-.26,10.21-26.54,17.72-47.75s17.6-93.36,17.7-94.08a1.67,1.67,0,0,1,1.88-1.42,1.65,1.65,0,0,1,1.42,1.88c-.41,3-10.28,73.35-17.85,94.74s-17.65,47.56-17.76,47.83A1.65,1.65,0,0,1,3305.86,1656.52Z"/><path class="cls-49" d="M3333.39,1564.85a1.67,1.67,0,0,1-1.23-2.8c7.81-8.52,18.37-46.94,18.48-47.32a1.66,1.66,0,0,1,3.21.87c-.44,1.62-10.89,39.59-19.24,48.71A1.66,1.66,0,0,1,3333.39,1564.85Z"/><path class="cls-53" d="M3442.29,1800.51c-1.84,0-3.6-.07-5.3-.2-56.26-4.59-75.59-27-76.39-27.93a.83.83,0,0,1,1.28-1.07c.19.23,19.76,22.81,75.24,27.33,13.79,1.13,32.58-2.7,54.32-7.13,16.62-3.39,35.45-7.23,53.76-9,51-4.85,96.82-27.28,97.28-27.51a.84.84,0,0,1,.74,1.5c-.46.22-46.58,22.79-97.87,27.67-18.21,1.74-36.19,5.4-53.58,9C3472.55,1797.06,3455.63,1800.51,3442.29,1800.51Z"/><path class="cls-23" d="M3397.28,1323.87c4.33-5.15,14.83-14.64,26.43-7.94,7.55,4.36,11.5,9.45,9.86,20.72,4.36,5.48,3.3,9.2-.32,14.4-3.74,5.39-.8,1.6-5.31,7-2.71,3.22-.73,7.78-2.59,7.06s-38.32,20.87-40.77,20.23c-1.52-.4-4.89-1.74-5.43-6.88a47,47,0,0,0-3.42-14c-7.71-17.87,10.66-32,10.66-32S3395,1326.61,3397.28,1323.87Z"/><path class="cls-52" d="M3413.81,1444.28c-16.28,7-43.28-12.3-42.82-19.67l13.55-47.06.6-2,.67.46,22.23,15.14,1.58,7.36.52,2.39.55,2.58.18.82,1.4,16.15S3417.83,1442.55,3413.81,1444.28Z"/><path class="cls-52" d="M3434.15,1392.64a14.79,14.79,0,0,1-3.12,8l0,0a10,10,0,0,1-1.73,1.58c-.37.27-.74.51-1.13.74-3.69,2.12-8.61,2.47-16.4.74h0c-.32-.06-.65-.13-1-.22h0c-.7-.17-1.43-.35-2.17-.55s-1.78-.48-2.71-.76a17.24,17.24,0,0,1-8.15-2.86c-.57-.35-1.12-.74-1.67-1.15-6.62-4.92-11.88-13.49-11.45-20.64a12.08,12.08,0,0,1,.52-2.89l1.27-6.65,1.06-.92c6.38-5.55,8.33-15.82,8.33-15.82,2.1-11.35,14.69-13.59,19.79-14.38,17.36-2.68,13.87,5,16.68,14.41C3434.51,1359.08,3436.12,1377.14,3434.15,1392.64Z"/><path class="cls-52" d="M3389.57,1362.88c-.9-3.46-3.05-8.39-7.52-4.52-6.51,5.61-2.24,22.46,6.68,21.63C3395.35,1379.38,3390,1364.7,3389.57,1362.88Z"/><path class="cls-54" d="M3420.05,1375.11c-.13.2.41.61,1.29.73a5.27,5.27,0,0,0,3.57-.72l.09,0a5.58,5.58,0,0,0,1.78-1.78,3.84,3.84,0,0,0,.69-2.28c0-.27-.11-.4-.26-.41a.28.28,0,0,0-.19,0,14.34,14.34,0,0,0-1.21,1.34,8.82,8.82,0,0,1-1.56,1.35,1.07,1.07,0,0,1-.22.15,8.83,8.83,0,0,1-2.78,1.11C3420.57,1374.76,3420.1,1374.86,3420.05,1375.11Z"/><path class="cls-33" d="M3405.78,1353.6c3.63-1.91,6.76-3.35,10.86-1.7,1.15.46.9,2-.71,2.1-4.45.25-5.85.22-9.72,1.63C3404.49,1356.26,3403.66,1354.72,3405.78,1353.6Z"/><path class="cls-33" d="M3434.34,1355.33c-1.45-1.51-3.56-1.81-5.41-2-1.22-.12-2.16,1-.72,1.72,4,2,4,1.51,5.79,2.78C3435.27,1358.74,3436,1357,3434.34,1355.33Z"/><path class="cls-54" d="M3410.91,1404.85l1.36,15.63c-8.4-4.84-12.65-13.66-14.29-19.82-.12-.46-.23-.9-.32-1.32-.61-2.76-.65-4.8-.27-5.37,1-1.56,4.87,4.08,11.08,6.37.57.21,1.12.41,1.67.59,8.38,2.83,14.36,2.8,18,2.07-3.69,2.12-8.61,2.47-16.4.74h0a.45.45,0,0,0-.26.07A1.11,1.11,0,0,0,3410.91,1404.85Z"/><path class="cls-25" d="M3412.64,1378.46s16.05,1.49,19.79,1.21c0,0-2,7-7.42,7S3412.53,1381.62,3412.64,1378.46Z"/><path class="cls-51" d="M3395,1368.48c0,7.84-2.88,14.19-9.28,14.19s-11.58-6.35-11.58-14.19,5.18-14.19,11.58-14.19S3395,1360.65,3395,1368.48Z"/><path class="cls-51" d="M3390,1358.09s-1.73-21.74,4-31.28a35.24,35.24,0,0,0-9.55,7.32s-5,12.51-2.42,23.42Z"/><path class="cls-8" d="M684.8,2487s-98.65,30.3-92.49,46.24S1457.07,2545,1457.07,2545s-17.9,12.26,99.29,18.26,187.4-8.44,185.74-30-373.46-48.19-496.47-46.24S684.8,2487,684.8,2487Z"/><path class="cls-12" d="M616.88,2004.68c9.65-2.59,14.59-11.33,15.4-14.93,1-4.38,12-2.86,19.48.84s9.36,10,16.45,18c4.38,5,8.77,6.42,11.48,6.81a48.5,48.5,0,0,1,2.92-10.08c4.21-8.87,2.26-23.2-5.17-25s-72-4.71-85.74,3C583.43,1988,600.9,1996.42,616.88,2004.68Z"/><path class="cls-52" d="M668.21,2008.54c-7.09-8-9-14.26-16.45-18s-18.51-5.22-19.48-.84c-.81,3.6-5.75,12.34-15.4,14.93,10.45,5.4,22.36,12.34,23.93,16.52,4,10.57-.51,54.68-3.2,86.62-.5,5.91,50.32,20.81,49.18-6.24,0,0-9.43-74.79-7.1-86.23C677,2015,672.59,2013.5,668.21,2008.54Z"/><path class="cls-12" d="M751.44,1990.61c8.93-4.57,12-14.16,12.06-17.85.08-4.48,11.2-5.34,19.27-3.31s11.19,7.73,19.75,14c5.29,3.9,9.88,4.4,12.62,4.21a47.94,47.94,0,0,1,.83-10.47c2.33-9.56-2.48-23.14-10.12-23.31s-71.55,10.68-83.4,21.16C715.28,1981.43,734.1,1985.94,751.44,1990.61Z"/><path class="cls-52" d="M802.52,1983.5c-8.56-6.32-11.68-12-19.75-14s-19.19-1.17-19.27,3.31c0,3.69-3.13,13.28-12.06,17.85,11.33,3.06,24.39,7.31,26.78,11.05,6,9.48-2.1,42.14-8.05,81.42-.89,5.86,48.35,54.44,48.64,27.46.81-74.12-3.64-111.17-3.67-122.83C812.4,1987.9,807.81,1987.4,802.52,1983.5Z"/><path class="cls-55" d="M1111.84,2352.73c-2.63-16.92-57.78-37.82-106.15-41-87.9-5.83-192.1,16.94-192.1,16.94s11.68-44.67,13.64-59.9c7.83-60.88,7.83-245.41,7.83-245.41l-61.55-17.59S649.1,2329.58,712,2411.34C764.09,2479.07,1123.33,2426.53,1111.84,2352.73Z"/><path class="cls-56" d="M1560.82,2185.37s18.1-6.35,31.29,4.88-5.38,54.22-6.84,62.76-13.43,38.34,3.91,78.64,66.66,117.22,45.66,148.47-92.31,40.54-131.38,3.91-69.35-125.42-67.89-199.46S1534,2148.74,1560.82,2185.37Z"/><path class="cls-57" d="M1815.91,2370.63c-24.21-14.85-151.69,103.86-188.18,89.78-5.85-2.26-15.88-13-25.72-25.42h0c-38.48-52.31-96.53-165.42-132.74-138.91-20.62,15.09,23.52,121.06,58.68,175.52a316,316,0,0,0,18.38,26c31,38.26,59.79,60.16,121,39.28S1835.23,2382.49,1815.91,2370.63Z"/><path class="cls-40" d="M1149,2366.68s-47-31.47-147.86-39.35c-99.87-7.8-276.11,58.61-276.11,58.61s3.69-44.8-1.14-87.35c-7.85-69.07-39.23-275.26-39.23-275.26l-54.07,13.81S566.11,2462.67,646.2,2507s408.75,25.48,473.22,13.45C1150.08,2514.68,1149,2366.68,1149,2366.68Z"/><path class="cls-9" d="M1427.68,2509c52.9-15.76,105.5-57.3,98.33-127-4.4-42.73-1.89-84.07-35.24-92.48-92.56-23.33-197.64,42.26-240.13,49-84.32,13.46-154.35-21.52-195.5,27.64-20.91,25-63.64,148.88,1.7,161.33C1132,2541.91,1368.78,2526.57,1427.68,2509Z"/><path class="cls-8" d="M1481.5,2482.18l-78.3-127.08s18.92,155.58,24.48,153.92C1446.56,2503.4,1465.4,2494.48,1481.5,2482.18Z"/><polygon class="cls-33" points="1821.63 2320.91 1826.17 2312.95 1796.69 2278.29 1786.78 2403.18 1821.63 2320.91"/><polygon class="cls-25" points="1742.1 2326.1 1743.11 2318.33 1810.8 2310.79 1790.86 2284.26 1798.19 2282.77 1824.03 2313.22 1821.63 2320.91 1742.1 2326.1"/><polygon class="cls-15" points="1738.55 2323.91 1721.71 2454.14 1814.32 2437.42 1826.17 2312.95 1738.55 2323.91"/><path class="cls-52" d="M1735.16,2388.89C1711,2374,1583.47,2492.75,1547,2478.67c-5.85-2.26-15.88-13-25.72-25.42h0c-38.48-52.31-52-183.81-110.84-148.82-22,13.07,1.62,131,36.78,185.43a316,316,0,0,0,18.38,26c31,38.25,59.79,60.16,121,39.28S1754.48,2400.74,1735.16,2388.89Z"/><path class="cls-52" d="M1712.55,2405.48s-1.64-11.55,7.58-18.75c13.07-10.22,11.82-27.33,16.19-24.57s2.07,16,2.33,19.1,35.5-10,37.75-5.82-13.56,10-13.56,10,13.12-3.47,15.89-1.4-3.62,6.28-3.62,6.28,3.66,4.08,1.66,6.29-12.92,5.38-12.92,5.38,7.22,4,1.81,6.8-46.25,12.45-50.18,7.78S1712.55,2405.48,1712.55,2405.48Z"/><polygon class="cls-9" points="1790.86 2284.26 1785.75 2313.58 1810.8 2310.79 1790.86 2284.26"/><path class="cls-52" d="M1507.76,2243.7l-35.92,45.05c-6.26,8.26-1.55,44.94,19.49,44.24,6.16-.21,9.59-15.4,12.36-26.74l16.72-42.33Z"/><path class="cls-52" d="M1527.6,2214.08s-11.46,11.58-17.25,21.7c-8.55,14.93-2.82,27.68,10.88,38.2,13.36,10.26,20.14,10.08,29.12,2a38.73,38.73,0,0,0,7.14-8.68c3.29-5.68,6.68-16.48,6.3-25.06-.17-3.9,1.24-9.17,1.51-12C1567.22,2209.49,1546.26,2197.42,1527.6,2214.08Z"/><path class="cls-52" d="M1515.93,2223.87a29,29,0,0,1,1.38-6c1.23-3.73,2.17-9.56-4.3-8.67-9.4,1.3-14.83,21.55-6,26.11C1513.5,2238.68,1515.39,2229.05,1515.93,2223.87Z"/><path class="cls-54" d="M1509.54,2254.52c-2.59,1.58-6.2,27,.7,35.84l5.88-13.72c.94-2.13,3.22-4.11,5.07-2.69l0,0c10.92,8.39,17.45,9.8,24.38,5.6-3.49-.43-11.24-1.86-17.66-6.44C1519.36,2267,1512.29,2252.84,1509.54,2254.52Z"/><path class="cls-54" d="M1542.33,2249.77c-.22.17.18.84,1.09,1.36a6.29,6.29,0,0,0,4.2.76l.12,0a6.5,6.5,0,0,0,2.71-1.17,4.46,4.46,0,0,0,1.73-2.18c.09-.32.06-.48-.09-.56a.43.43,0,0,0-.23-.05,18.19,18.19,0,0,0-1.9.94,9.75,9.75,0,0,1-2.29.8,1.32,1.32,0,0,1-.3.07,10.47,10.47,0,0,1-3.5,0C1543.05,2249.61,1542.5,2249.52,1542.33,2249.77Z"/><path class="cls-25" d="M1532.65,2249.38c6.42,5,15.37,8.52,19.31,9a1.82,1.82,0,0,1,1.42,2.69c-12.65,19.55-24.91-.06-23.37-10.28C1530.23,2249.34,1531.39,2248.41,1532.65,2249.38Z"/><path class="cls-56" d="M1537.49,2219.76c4.79-.51,8.81-.72,12.57,2.85,1,1,.11,2.57-1.69,2-4.95-1.65-6.47-2.28-11.28-2.42C1534.94,2222.1,1534.7,2220.06,1537.49,2219.76Z"/><path class="cls-56" d="M1567.86,2234c-.94-2.27-3.11-3.51-5-4.51-1.28-.66-2.78.14-1.53,1.57,3.43,3.93,3.72,3.38,5.11,5.53C1567.38,2238.11,1568.93,2236.59,1567.86,2234Z"/><path class="cls-56" d="M1543,2231.41c-.66,1.18-1.82,1.79-2.6,1.35s-.86-1.74-.2-2.92,1.83-1.79,2.6-1.36S1543.67,2230.22,1543,2231.41Z"/><path class="cls-56" d="M1563.48,2241.08c-.66,1.18-1.83,1.79-2.6,1.36s-.86-1.75-.2-2.93,1.83-1.79,2.6-1.35S1564.14,2239.9,1563.48,2241.08Z"/><path class="cls-54" d="M1558.46,2481.29c-22.68,0-33.21-19.59-33.66-20.45a2.11,2.11,0,1,1,3.73-2c.43.81,10.55,19.45,32.16,18.13a2.1,2.1,0,1,1,.26,4.2C1560.1,2481.27,1559.27,2481.29,1558.46,2481.29Z"/><path class="cls-55" d="M668.85,2427.32a2.92,2.92,0,0,1-1.27-.3,2.82,2.82,0,0,1-1.23-3.78c8.2-16.21,24.56-27.37,36.83-33.88a139.88,139.88,0,0,1,24.76-10.31,2.81,2.81,0,0,1,1.54,5.41c-.44.12-43.62,12.68-58.12,41.32A2.8,2.8,0,0,1,668.85,2427.32Z"/></g></g></g></svg>