<svg xmlns="http://www.w3.org/2000/svg" xmlns:xlink="http://www.w3.org/1999/xlink" viewBox="0 0 2427.03 2144"><defs><style>.cls-1{isolation:isolate;}.cls-2{fill:url(#linear-gradient);}.cls-3{fill:url(#linear-gradient-2);}.cls-4{fill:#982176;}.cls-5{fill:url(#linear-gradient-3);}.cls-6{fill:#d8d8d8;}.cls-7{fill:#e9e9e9;}.cls-8{fill:#dcdbe4;mix-blend-mode:multiply;opacity:0.1;}.cls-9{fill:#c2c1c1;mix-blend-mode:overlay;opacity:0.5;}.cls-10{fill:url(#linear-gradient-4);}.cls-11{fill:url(#linear-gradient-5);}.cls-12{fill:#ffce37;}.cls-13{fill:url(#linear-gradient-6);}.cls-14{fill:url(#linear-gradient-7);}.cls-15{fill:url(#linear-gradient-8);}.cls-16{fill:#c2301a;}.cls-17{fill:url(#linear-gradient-9);}</style><linearGradient id="linear-gradient" x1="515.33" y1="948.09" x2="1790.09" y2="948.09" gradientTransform="translate(1024.31 2725.06) rotate(-120)" gradientUnits="userSpaceOnUse"><stop offset="0" stop-color="#831e6a"/><stop offset="0.16" stop-color="#741f62"/><stop offset="0.24" stop-color="#8c1e6f"/><stop offset="1" stop-color="#8b1f74"/></linearGradient><linearGradient id="linear-gradient-2" x1="835.12" y1="1127.97" x2="854.16" y2="1127.97" gradientTransform="translate(1024.31 2725.06) rotate(-120)" gradientUnits="userSpaceOnUse"><stop offset="0" stop-color="#3d1738"/><stop offset="0.99" stop-color="#581b4f"/></linearGradient><linearGradient id="linear-gradient-3" x1="595.15" y1="2250.49" x2="1618.71" y2="2250.49" gradientTransform="matrix(-0.5, -0.87, -0.87, 0.5, 3008.11, 1579.93)" xlink:href="#linear-gradient-2"/><linearGradient id="linear-gradient-4" x1="928.77" y1="1090.04" x2="2004.1" y2="1090.04" gradientTransform="translate(1024.31 2725.06) rotate(-120)" gradientUnits="userSpaceOnUse"><stop offset="0" stop-color="#eebb26"/><stop offset="0.16" stop-color="#e3b227"/><stop offset="0.24" stop-color="#f6c123"/><stop offset="1" stop-color="#f6be25"/></linearGradient><linearGradient id="linear-gradient-5" x1="1198.54" y1="1241.79" x2="1214.61" y2="1241.79" gradientTransform="translate(1024.31 2725.06) rotate(-120)" gradientUnits="userSpaceOnUse"><stop offset="0" stop-color="#e3a851"/><stop offset="0.99" stop-color="#fab545"/></linearGradient><linearGradient id="linear-gradient-6" x1="996.13" y1="1966.47" x2="1859.56" y2="1966.47" gradientTransform="matrix(-0.5, -0.87, -0.87, 0.5, 3008.11, 1579.93)" gradientUnits="userSpaceOnUse"><stop offset="0" stop-color="#b79746"/><stop offset="0.99" stop-color="#cba43c"/></linearGradient><linearGradient id="linear-gradient-7" x1="1306.8" y1="1249.76" x2="2209.53" y2="1249.76" gradientTransform="translate(1024.31 2725.06) rotate(-120)" gradientUnits="userSpaceOnUse"><stop offset="0" stop-color="#ad1e17"/><stop offset="0.16" stop-color="#9e1a16"/><stop offset="0.24" stop-color="#b62318"/><stop offset="1" stop-color="#b52018"/></linearGradient><linearGradient id="linear-gradient-8" x1="897.06" y1="704.65" x2="2000.98" y2="704.65" gradientUnits="userSpaceOnUse"><stop offset="0" stop-color="#662520"/><stop offset="0.99" stop-color="#82251f"/></linearGradient><linearGradient id="linear-gradient-9" x1="1363.37" y1="1683.83" x2="2088.17" y2="1683.83" gradientTransform="matrix(-0.5, -0.87, -0.87, 0.5, 3008.11, 1579.93)" xlink:href="#linear-gradient-8"/></defs><g class="cls-1"><g id="Layer_2" data-name="Layer 2"><g id="Layer_1-2" data-name="Layer 1"><path class="cls-2" d="M921.57,1798.11l18.51,11.2L993.39,1841l6.33,18.31,4.34,282.32,1408.12-813-.16-.3c9.17-5.61,14.95-17.14,15-33.49l-.23-202.66c-.19-18.84-4.11-35.9-13.58-52.33-10.18-17.7-26.8-34.61-52-51a77.84,77.84,0,0,0-9.5-6.3c-2.91-1.65-5.55-3.35-8.82-5.11a50.44,50.44,0,0,0-5-2.92l-6.49-3.86-64.57-37.23L1407.1,437.12,0,1249.48Z"/><path class="cls-3" d="M802.29,1867,2342.87,977.48c3.27,1.76,5.91,3.46,8.82,5.11a77.84,77.84,0,0,1,9.5,6.3L805.91,1886.77Z"/><path class="cls-4" d="M167.57,1573.9,18.71,1553.3l.16.23-.23.13L.29,1553.6l.07,25.1,968.29,558.23c29.18,16.55,52.42,3.1,52.75-30.45l-.1-202.73c-.23-45.38-23.21-81.06-88.89-117.72L861,1745.42Z"/><polygon class="cls-5" points="0.46 1553.66 931.66 2091.59 941.16 2086.1 941.16 1818.55 82.92 1399.74 21.97 1541.26 0.46 1553.66"/><polygon class="cls-6" points="895.26 1792.01 941.16 1818.55 941.16 2086.1 895.26 2059.57 868.82 1911.91 895.26 1792.01"/><polygon class="cls-7" points="895.06 2059.4 895.03 2058.06 895.16 1943.48 895.06 1889.94 895.1 1876.52 895.16 1828.4 895.16 1792.1 895.26 1791.68 40.48 1298.12 19.06 1285.87 18.15 1285.52 16.71 1284.67 16.91 1286.2 16.78 1321.59 17.04 1382.64 16.65 1435.85 16.81 1436.04 17.07 1552.1 16.88 1552.42 165.38 1638.47 218.04 1668.51 887.1 2054.57 895.06 2059.4"/><polygon class="cls-8" points="895.1 2059.34 895.26 1944.52 16.81 1436.04 17.07 1552.1 157.19 1633.38 210 1663.68 218.04 1668.51 895.1 2059.34"/><polygon class="cls-8" points="16.45 1321.59 16.71 1382.64 17.11 1382.77 18.84 1384.04 895.1 1890.07 895.26 1876.62 895.03 1828.63 18.97 1323.09 16.84 1321.72 16.45 1321.59"/><polygon class="cls-4" points="0.36 1248.92 861.01 1745.42 861.11 1772.22 0.56 1275.36 0.36 1248.92"/><path class="cls-9" d="M453.8,1507.34C257.7,1394.81,82.69,1296.42,82.69,1296.42Z"/><path class="cls-9" d="M943.64,1785.61,453.8,1507.34c183.4,105.18,385,222.71,479.69,284.08Z"/><path class="cls-9" d="M952.09,1803.69c16.52,11.17,28.21,19.75,33.37,24.84,26.47,26.12,32.87,49.59,34.15,56.19-1-5.16-3.46-19.66-2.88-28,1.47-23,20.83-37.18,38.2-48.51,30.68-19.91,1248-719.69,1248-719.69s-1205.59,679.11-1236.8,696.19-52.75,25.13-62.74,25.55c-23,.82-33.72-9.92-33.72-9.92l-5.94-3.39Z"/><path class="cls-10" d="M942,1370.1l15.64,9.47,45,26.77,5.32,15.44,3.65,238.18L2199.4,974.16l-.16-.24c7.73-4.75,12.6-14.45,12.66-28.26l-.16-170.94c-.2-15.88-3.49-30.28-11.46-44.14-8.65-14.92-22.66-29.2-43.91-43.07a77.49,77.49,0,0,0-8-5.31c-2.45-1.39-4.7-2.82-7.44-4.31a46.87,46.87,0,0,0-4.21-2.46l-5.49-3.25-54.48-31.39-725.18-418.7L164.6,907.32Z"/><path class="cls-11" d="M841.36,1428.21,2140.9,677.89c2.74,1.49,5,2.92,7.44,4.31a77.49,77.49,0,0,1,8,5.31L844.46,1444.92Z"/><path class="cls-12" d="M306,1181l-125.55-17.4.13.2-.2.09-15.47,0,0,21.19,816.78,470.87c24.61,14,44.27,2.58,44.53-25.69l-.1-171c-.16-38.26-19.59-68.39-75-99.3l-60.19-34.25Z"/><polygon class="cls-13" points="165.02 1163.91 950.5 1617.65 958.52 1613.08 958.52 1387.37 234.56 1034.08 183.14 1153.47 165.02 1163.91"/><polygon class="cls-6" points="919.81 1364.94 958.52 1387.37 958.52 1613.08 919.81 1590.68 897.48 1466.11 919.81 1364.94"/><polygon class="cls-7" points="919.61 1590.55 919.58 1589.44 919.74 1492.75 919.61 1447.6 919.68 1436.27 919.74 1395.66 919.74 1365.04 919.81 1364.68 198.74 948.36 180.69 938.03 179.91 937.75 178.7 937.01 178.9 938.32 178.76 968.16 178.96 1019.67 178.67 1064.54 178.8 1064.7 178.96 1162.58 178.86 1162.9 304.09 1235.5 348.52 1260.8 912.92 1586.44 919.61 1590.55"/><polygon class="cls-8" points="919.68 1590.49 919.81 1493.63 178.8 1064.7 178.96 1162.58 297.2 1231.16 341.76 1256.72 348.52 1260.8 919.68 1590.49"/><polygon class="cls-8" points="178.5 968.16 178.7 1019.67 178.99 1019.79 180.49 1020.83 919.68 1447.7 919.81 1436.37 919.58 1395.89 180.59 969.45 178.83 968.27 178.5 968.16"/><polygon class="cls-12" points="164.89 906.87 890.92 1325.67 891.02 1348.26 165.09 929.16 164.89 906.87"/><path class="cls-9" d="M547.43,1124.84c-165.42-94.9-313.07-177.9-313.07-177.9Z"/><path class="cls-9" d="M960.58,1359.59,547.43,1124.84c154.7,88.73,324.72,187.9,404.6,239.64Z"/><path class="cls-9" d="M967.73,1374.83c13.94,9.4,23.8,16.65,28.17,21,22.3,22,27.72,41.82,28.76,47.4-.75-4.34-2.87-16.58-2.41-23.6,1.24-19.46,17.59-31.37,32.25-40.94,25.89-16.78,1052.71-607.08,1052.71-607.08s-1017,572.87-1043.31,587.27-44.46,21.19-52.88,21.58c-19.42.68-28.47-8.39-28.47-8.39l-5-2.88Z"/><path class="cls-14" d="M981.47,963.8l13.16,8,37.74,22.46,4.47,13,3.07,199.93,997.14-575.71-.13-.18c6.53-4,10.61-12.11,10.68-23.75L2047.4,464c-.06-13.37-2.87-25.46-9.59-37.1-7.15-12.54-19-24.5-36.83-36.14a57.34,57.34,0,0,0-6.76-4.47c-2.09-1.13-4-2.37-6.2-3.59a29.86,29.86,0,0,0-3.59-2.09l-4.57-2.69-45.8-26.4L1325.33,0,328.87,575.27Z"/><path class="cls-15" d="M897.06,1012.54,1988,382.7c2.22,1.22,4.11,2.46,6.2,3.59a57.34,57.34,0,0,1,6.76,4.47L899.6,1026.61Z"/><path class="cls-16" d="M447.57,805.05,342.19,790.49l.09.14-.16.08-13-.08.07,17.81,685.71,395.33c20.63,11.69,37.12,2.16,37.35-21.57l-.07-143.61c-.2-32.11-16.45-57.36-62.94-83.34L938.64,926.5Z"/><polygon class="cls-17" points="329.26 790.7 988.62 1171.65 995.35 1167.73 995.32 978.26 387.63 681.73 344.44 781.93 329.26 790.7"/><polygon class="cls-6" points="962.83 959.46 995.32 978.26 995.35 1167.73 962.87 1148.9 962.83 959.46"/><polygon class="cls-7" points="962.74 1148.83 962.64 1147.88 962.83 1066.79 962.7 1028.83 962.77 1019.36 962.8 985.23 962.8 959.55 962.87 959.26 357.53 609.71 342.42 601.11 341.73 600.82 340.75 600.25 340.88 601.29 340.78 626.36 340.91 669.6 340.68 707.27 340.81 707.44 340.98 789.57 340.88 789.83 446 850.75 483.34 872.07 957.06 1145.44 962.74 1148.83"/><polygon class="cls-8" points="962.77 1148.83 962.83 1067.48 340.81 707.44 340.98 789.57 440.22 847.12 477.63 868.64 483.34 872.07 962.77 1148.83"/><polygon class="cls-8" points="340.59 626.36 340.72 669.62 341.01 669.67 342.22 670.6 962.77 1028.96 962.87 1019.42 962.64 985.44 342.31 627.46 340.85 626.48 340.59 626.36"/><polygon class="cls-16" points="329.13 574.9 938.64 926.5 938.71 945.45 329.29 593.62 329.13 574.9"/><path class="cls-9" d="M650.26,757.91c-138.88-79.72-262.8-149.34-262.8-149.34Z"/><path class="cls-9" d="M997.18,955l-346.92-197c129.86,74.48,272.58,157.67,339.67,201.2Z"/><path class="cls-9" d="M1003.15,967.8c11.69,7.85,19.92,13.94,23.64,17.56,18.7,18.49,23.21,35.11,24.12,39.78-.62-3.63-2.42-13.91-2.09-19.82C1049.93,989,1063.64,979,1076,971c21.68-14.08,883.7-509.62,883.7-509.62s-853.7,480.91-875.8,493-37.31,17.82-44.43,18.1c-16.29.62-23.89-7-23.89-7l-4.21-2.37Z"/></g></g></g></svg>