<svg xmlns="http://www.w3.org/2000/svg" xmlns:xlink="http://www.w3.org/1999/xlink" viewBox="0 0 1316.43 2406.17"><defs><style>.cls-1{fill:url(#linear-gradient);}.cls-2{fill:#5c120f;}.cls-3{fill:#e9e9e9;}.cls-4{fill:#f2f2f2;}.cls-5{fill:#d8d8d8;}.cls-6{fill:#e5e5e4;}.cls-7{fill:url(#linear-gradient-2);}.cls-8{fill:url(#linear-gradient-3);}.cls-9{fill:url(#linear-gradient-4);}.cls-10{fill:url(#linear-gradient-5);}.cls-11{fill:#8c1812;}</style><linearGradient id="linear-gradient" x1="59.18" y1="951.32" x2="998.51" y2="951.32" gradientUnits="userSpaceOnUse"><stop offset="0" stop-color="#9e1a16"/><stop offset="1" stop-color="#b52018"/></linearGradient><linearGradient id="linear-gradient-2" x1="45.55" y1="1506.39" x2="1256.43" y2="1506.39" gradientUnits="userSpaceOnUse"><stop offset="0" stop-color="#aa1c17"/><stop offset="1" stop-color="#b62318"/></linearGradient><linearGradient id="linear-gradient-3" x1="45.59" y1="734.79" x2="1279.19" y2="734.79" xlink:href="#linear-gradient"/><linearGradient id="linear-gradient-4" x1="1256.47" y1="1633.8" x2="1281.93" y2="1633.8" xlink:href="#linear-gradient"/><linearGradient id="linear-gradient-5" x1="0" y1="1321.76" x2="79.01" y2="1321.76" xlink:href="#linear-gradient"/></defs><g id="Layer_2" data-name="Layer 2"><g id="Layer_1-2" data-name="Layer 1"><polygon class="cls-1" points="979.08 1390.4 78.05 1902.64 59.18 1892.43 59.25 501.97 975.22 0 998.51 12.84 979.08 1390.4"/><polygon class="cls-2" points="998.51 1407.38 78.69 1909.34 78.69 518.91 998.51 12.84 998.51 1407.38"/><polygon class="cls-3" points="24.37 563.24 24.37 1899.25 975.22 1378.42 975.22 42.48 24.37 563.24"/><polygon class="cls-4" points="1050.66 1419.51 61.78 1961.13 61.78 625.2 1050.66 83.64 1050.66 1419.51"/><polygon class="cls-3" points="1225.65 1589.68 46.84 1917.37 46.84 581.44 1225.72 253.78 1225.65 1589.68"/><polygon class="cls-5" points="1316.35 1918.65 61.78 1961.13 69.99 582.75 1316.43 582.75 1316.35 1918.65"/><polygon class="cls-6" points="975.36 42.66 81.44 532 54.72 546.77 24.37 563.42 24.37 604.91 61.71 625.38 109.86 598.91 150.63 576.73 1050.73 83.57 975.36 42.66"/><path class="cls-7" d="M1256.43,872.92V2406S297.16,2196.33,86,2153.89c-7-1.43-13.27-2.43-18.41-3.5-12.91-2.49-20.26-3.89-22.08-3.89V606.76l10.28,2.11,11.8,2.42L86,615.5Z"/><polygon class="cls-8" points="1256.75 875.24 45.59 606.8 67.6 594.35 1279.19 861.43 1256.75 875.24"/><polygon class="cls-9" points="1279.19 861.43 1281.93 2390.62 1256.47 2406.17 1256.75 875.24 1279.19 861.43"/><path class="cls-10" d="M79,491.12C27.11,516.8.83,544.63.25,564.67c-.57,24.18,0,79.44,0,114.78V2059.58c0,61.17,13,85.11,78.76,92.81V491.12Z"/><path class="cls-6" d="M150.63,576.73A25.72,25.72,0,0,0,154,564.67c0-19.47-24-35.06-53.62-35.06A73.75,73.75,0,0,0,81.44,532c-11.49,2.67-21,8.17-26.72,14.77-5,5.1-7.88,11.27-7.88,17.9,0,6.42,3.53,12.16,8.34,17.37l84.32.79Z"/><path class="cls-5" d="M55.18,582c9.39,10.31,19.62,15,27.33,15.41,3.24.11,93,21.72,95.84,21.37l-38.85-36Z"/><polygon class="cls-3" points="347.88 497.76 59.18 578.01 108.29 583.47 401.85 582.75 347.88 497.76"/><path class="cls-2" d="M47.41,568.92c-6.14-16.41-2-31.61,60.53-66.06v14.62S50.47,544.8,47.41,568.92Z"/><path class="cls-11" d="M97.56,602.19l-9.31,12.06.1,1541.35c-7-1.36-13.23-2.43-18.4-3.5L69.77,611.54,81.4,598.81Z"/></g></g></svg>