<svg xmlns="http://www.w3.org/2000/svg" xmlns:xlink="http://www.w3.org/1999/xlink" viewBox="0 0 2667.86 2063.7"><defs><style>.cls-1{isolation:isolate;}.cls-10,.cls-2,.cls-26,.cls-36{mix-blend-mode:multiply;}.cls-3{fill:#f2f3f4;}.cls-4{fill:url(#linear-gradient);}.cls-5{fill:#003d2d;}.cls-6{fill:#022c23;}.cls-7{fill:url(#linear-gradient-2);}.cls-8{fill:#c6c2c5;}.cls-9{fill:#d8d8d8;}.cls-10,.cls-36{fill:#dcdbe4;}.cls-10,.cls-26{opacity:0.1;}.cls-11{fill:url(#linear-gradient-3);}.cls-12{fill:url(#linear-gradient-4);}.cls-13,.cls-27{fill:#c2c1c1;mix-blend-mode:overlay;}.cls-13{opacity:0.5;}.cls-14{fill:url(#linear-gradient-5);}.cls-15{fill:#8b4f14;}.cls-16{fill:#c17619;}.cls-17{fill:url(#linear-gradient-6);}.cls-18{fill:#e9e9e9;}.cls-19{fill:url(#linear-gradient-7);}.cls-20{fill:url(#linear-gradient-8);}.cls-21{fill:url(#linear-gradient-9);}.cls-22{fill:#e3a851;}.cls-23{fill:url(#linear-gradient-10);}.cls-24{fill:#ba7414;}.cls-25{fill:#f7a941;}.cls-28{fill:url(#linear-gradient-11);}.cls-29{fill:url(#linear-gradient-12);}.cls-30{fill:#2263a9;}.cls-31{fill:url(#linear-gradient-13);}.cls-32{fill:url(#linear-gradient-14);}.cls-33{fill:url(#linear-gradient-15);}.cls-34{fill:#2991c1;}.cls-35{fill:url(#linear-gradient-16);}.cls-37{fill:#1f335d;}.cls-38{fill:#154293;}</style><linearGradient id="linear-gradient" x1="319.67" y1="1877.18" x2="1292.49" y2="1877.18" gradientTransform="translate(561.46 2695.94) rotate(-120)" gradientUnits="userSpaceOnUse"><stop offset="0" stop-color="#034d32"/><stop offset="0.04" stop-color="#035534"/><stop offset="0.16" stop-color="#035a37"/><stop offset="0.27" stop-color="#025740"/><stop offset="1" stop-color="#01573c"/></linearGradient><linearGradient id="linear-gradient-2" x1="380.61" y1="1025.84" x2="1161.52" y2="1025.84" gradientTransform="matrix(-0.5, -0.87, -0.87, 0.5, 2475.71, 1590.96)" gradientUnits="userSpaceOnUse"><stop offset="0" stop-color="#040707"/><stop offset="0.99" stop-color="#092319"/></linearGradient><linearGradient id="linear-gradient-3" x1="320.13" y1="1620.44" x2="564.2" y2="1620.44" gradientTransform="translate(561.46 2695.94) rotate(-120)" gradientUnits="userSpaceOnUse"><stop offset="0" stop-color="#9fabb0"/><stop offset="0.16" stop-color="#a3adb5"/><stop offset="1" stop-color="#b0c4cc"/></linearGradient><linearGradient id="linear-gradient-4" x1="319.65" y1="2469.52" x2="563.69" y2="2469.52" xlink:href="#linear-gradient-3"/><linearGradient id="linear-gradient-5" x1="940.48" y1="1894.41" x2="1805.76" y2="1894.41" gradientTransform="translate(800.59 2905.87) rotate(-120)" gradientUnits="userSpaceOnUse"><stop offset="0" stop-color="#ac5e16"/><stop offset="0.16" stop-color="#9f4f16"/><stop offset="0.24" stop-color="#b56816"/><stop offset="1" stop-color="#b56516"/></linearGradient><linearGradient id="linear-gradient-6" x1="994.71" y1="932.25" x2="1689.48" y2="932.25" gradientTransform="matrix(-0.5, -0.87, -0.87, 0.5, 2714.85, 1800.89)" gradientUnits="userSpaceOnUse"><stop offset="0" stop-color="#674321"/><stop offset="0.99" stop-color="#82501e"/></linearGradient><linearGradient id="linear-gradient-7" x1="940.46" y1="1690.65" x2="1157.56" y2="1690.65" gradientTransform="translate(800.59 2905.87) rotate(-120)" gradientUnits="userSpaceOnUse"><stop offset="0" stop-color="#d7991e"/><stop offset="0.16" stop-color="#dda21e"/><stop offset="1" stop-color="#f5a81a"/></linearGradient><linearGradient id="linear-gradient-8" x1="940.43" y1="1844.44" x2="1157.56" y2="1844.44" xlink:href="#linear-gradient-7"/><linearGradient id="linear-gradient-9" x1="940.44" y1="2421.3" x2="1157.53" y2="2421.3" xlink:href="#linear-gradient-7"/><linearGradient id="linear-gradient-10" x1="1185.26" y1="431.21" x2="2643.18" y2="431.21" gradientTransform="translate(-202.6 20.5) rotate(-1.01)" gradientUnits="userSpaceOnUse"><stop offset="0" stop-color="#e3a851"/><stop offset="0.99" stop-color="#fab545"/></linearGradient><linearGradient id="linear-gradient-11" x1="519.57" y1="1222.33" x2="1353.59" y2="1222.33" gradientTransform="matrix(-1, 0, 0, 1, 2070.76, -104.27)" gradientUnits="userSpaceOnUse"><stop offset="0" stop-color="#1a5995"/><stop offset="0.16" stop-color="#194785"/><stop offset="0.24" stop-color="#165c9d"/><stop offset="1" stop-color="#13629e"/></linearGradient><linearGradient id="linear-gradient-12" x1="728.79" y1="1339.98" x2="741.26" y2="1339.98" gradientTransform="matrix(-1, 0, 0, 1, 2070.76, -104.27)" gradientUnits="userSpaceOnUse"><stop offset="0" stop-color="#1e304e"/><stop offset="0.99" stop-color="#213868"/></linearGradient><linearGradient id="linear-gradient-13" x1="571.6" y1="1581.71" x2="1241.24" y2="1581.71" gradientTransform="translate(2070.77 2105.7) rotate(180)" xlink:href="#linear-gradient-12"/><linearGradient id="linear-gradient-14" x1="789.72" y1="1285.41" x2="1576.78" y2="1285.41" gradientTransform="matrix(-1, 0, 0, 1, 2116.03, -11.11)" gradientUnits="userSpaceOnUse"><stop offset="0" stop-color="#1f86ac"/><stop offset="0.16" stop-color="#1f709f"/><stop offset="0.24" stop-color="#1a8bb6"/><stop offset="1" stop-color="#1c92b5"/></linearGradient><linearGradient id="linear-gradient-15" x1="987.17" y1="1396.5" x2="998.92" y2="1396.5" gradientTransform="matrix(-1, 0, 0, 1, 2116.03, -11.11)" gradientUnits="userSpaceOnUse"><stop offset="0" stop-color="#294c66"/><stop offset="0.99" stop-color="#285a83"/></linearGradient><linearGradient id="linear-gradient-16" x1="838.77" y1="1485.16" x2="1470.75" y2="1485.16" gradientTransform="translate(2116.04 2198.86) rotate(180)" xlink:href="#linear-gradient-15"/></defs><g class="cls-1"><g id="Layer_2" data-name="Layer 2"><g id="Layer_1-2" data-name="Layer 1"><g class="cls-2"><polygon class="cls-3" points="0 1478.1 1011.71 2063.7 2289.08 1334.42 1277.35 748.93 0 1478.1"/></g><path class="cls-4" d="M2667.59,936.91c-.22-10.47-1.66-20.19-5.57-29.47a64.85,64.85,0,0,0-4.85-10.45,93.87,93.87,0,0,0-18.54-22.83,155.92,155.92,0,0,0-21.19-16.08,56,56,0,0,0-7.26-4.87c-2.19-1.2-4.17-2.72-6.57-3.92a23,23,0,0,0-3.92-2.2l-4.86-2.91-49.41-28.44-656-378.93L815.84,1056.86l703.25,418.58,14.08,8.48,40.66,24.39,4.84,13.87,3.42,215.36,1074.27-620.32V1117c6.85-4.14,11.23-12.9,11.5-25.5Z"/><path class="cls-5" d="M1428.08,1528,2603.56,849.29c2.45,1.33,4.49,2.69,6.72,3.86a84.28,84.28,0,0,1,7.21,4.79L1430.84,1543.08Z"/><path class="cls-6" d="M1595.32,1710.84c-.25,25.64-18.11,35.82-40.41,23L816.23,1308l-.22-19h14.15v-.27l113.56,15.78L1473,1435.24l54.34,31.11a216.21,216.21,0,0,1,35,23.67,7.4,7.4,0,0,1-2.56-.46,56.9,56.9,0,0,0,5.1,11.4,108.54,108.54,0,0,0,20.22,24.84,40.6,40.6,0,0,1,1.62-6.28c5.79,11.4,8.35,23.24,8.35,36.46Z"/><polygon class="cls-7" points="816.31 1288.92 1526.76 1699.36 1534.02 1695.17 1533.98 1491 879.21 1171.53 832.64 1279.4 816.31 1288.92"/><polygon class="cls-8" points="1498.96 1470.78 1533.98 1491 1534.02 1695.17 1498.97 1674.92 1498.96 1470.78"/><polygon class="cls-9" points="1498.89 1674.79 1498.8 1673.84 1498.96 1586.4 1498.87 1545.53 1498.93 1535.3 1498.93 1498.56 1498.93 1470.84 1498.97 1470.57 846.8 1093.93 830.46 1084.59 829.74 1084.32 828.67 1083.72 828.86 1084.87 828.69 1111.86 828.89 1158.42 828.63 1199.02 828.75 1199.23 828.9 1287.7 828.82 1288.03 942.07 1353.61 982.28 1376.6 1492.73 1671.11 1498.89 1674.79"/><polygon class="cls-10" points="1498.92 1674.79 1498.96 1587.17 828.75 1199.23 828.9 1287.7 935.84 1349.74 976.17 1372.9 982.28 1376.6 1498.92 1674.79"/><polygon class="cls-10" points="828.48 1111.86 828.64 1158.42 828.97 1158.5 830.27 1159.51 1498.93 1545.61 1498.96 1535.35 1498.83 1498.78 830.38 1113 828.75 1111.94 828.48 1111.86"/><polygon class="cls-6" points="816.16 1056.51 1472.87 1435.27 1472.93 1455.65 816.31 1076.59 816.16 1056.51"/><path class="cls-11" d="M1688.59,1393.72l56.15-32.44c21.91,14.59,35.69,29.36,42.91,45.34,5.09,10.55,7.21,21.57,7.29,33.74l.06,49.91.07,104.76c0,11.24-3.46,19.46-9.16,24.3l-56.19,32.36c5.73-4.74,9.21-13,9.21-24.22l-.11-104.79,0-49.91c-.1-12.17-2.18-23.16-7.28-33.69C1724.23,1423.05,1710.46,1408.28,1688.59,1393.72Z"/><path class="cls-12" d="M2424.16,969.59l56.16-32.38c21.89,14.53,35.64,29.28,42.89,45.31,5.08,10.61,7.2,21.61,7.28,33.74l.09,49.88,0,104.79c0,11.22-3.45,19.46-9.17,24.28l-56.17,32.38c5.77-4.79,9.2-13,9.2-24.25l-.1-104.76,0-49.91c-.08-12.16-2.2-23.21-7.27-33.71C2459.8,999,2446,984.18,2424.16,969.59Z"/><path class="cls-6" d="M1586.72,1519.52a40.6,40.6,0,0,0-1.62,6.28,108.54,108.54,0,0,1-20.22-24.84,56.9,56.9,0,0,1-5.1-11.4,7.4,7.4,0,0,0,2.56.46C1573.48,1499.57,1581.62,1509.29,1586.72,1519.52Z"/><path class="cls-13" d="M2619.44,910.65c-171.89,99-980.46,564.08-1003,578.63-11.59,7.73-24.34,16.82-29.7,30.24-5.1-10.23-13.24-20-24.38-29.5a32.37,32.37,0,0,0,11.14,1.14c8.37-.62,26.49-7.15,52-21.58C1648.72,1457.07,2447.78,1007,2619.44,910.65Z"/><path class="cls-14" d="M1518.72,1139.75l12.58,7.59,36.25,21.55,4.23,12.41,3,191.63,955.85-551.86-.09-.16c6.18-3.81,10.12-11.62,10.19-22.75l-.17-137.55c-.1-12.79-2.75-24.36-9.2-35.57-6.91-11.95-18.21-23.4-35.35-34.59a53.16,53.16,0,0,0-6.45-4.3c-2-1.11-3.72-2.26-6-3.4a27.68,27.68,0,0,0-3.39-2l-4.38-2.59-43.9-25.27-583.53-337L893.17,767.33Z"/><path class="cls-15" d="M1437.8,1186.45l1045.73-603.7c2.26,1.14,4,2.29,6,3.4a53.16,53.16,0,0,1,6.45,4.3L1440.24,1199.92Z"/><path class="cls-16" d="M1006.92,987.58l-101-14,.12.14-.18.11-12.5-.11.09,17.12,657.29,378.89c19.79,11.19,35.6,2.1,35.79-20.62l-.06-137.64c-.15-30.8-15.81-55-60.37-80L1477.64,1104Z"/><polygon class="cls-17" points="893.53 973.76 1525.62 1338.94 1532.05 1335.21 1532 1153.63 949.47 869.35 908.11 965.38 893.53 973.76"/><polygon class="cls-9" points="1500.88 1135.56 1532 1153.63 1532.05 1335.21 1500.88 1317.25 1500.88 1135.56"/><polygon class="cls-18" points="1500.78 1317.09 1500.69 1316.22 1500.88 1238.42 1500.73 1202.12 1500.81 1192.95 1500.81 1160.32 1500.83 1135.7 1500.92 1135.39 920.67 800.36 906.14 792.06 905.51 791.76 904.56 791.22 904.7 792.26 904.56 816.28 904.74 857.73 904.51 893.87 904.6 893.97 904.81 972.72 904.7 972.97 1005.46 1031.39 1041.22 1051.78 1495.33 1313.8 1500.78 1317.09"/><polygon class="cls-10" points="1500.81 1317.09 1500.88 1239.15 904.6 893.97 904.81 972.72 999.91 1027.94 1035.73 1048.51 1041.22 1051.78 1500.81 1317.09"/><polygon class="cls-10" points="904.38 816.28 904.51 857.78 904.82 857.81 906.02 858.68 1500.78 1202.17 1500.88 1193.03 1500.72 1160.43 906.07 817.35 904.6 816.36 904.38 816.28"/><polygon class="cls-16" points="893.43 767 1477.64 1103.99 1477.69 1122.14 893.53 784.83 893.43 767"/><path class="cls-19" d="M1696,1114.66c4.53,9.36,6.42,19.16,6.48,30l0,44.33.07,93.2c.07,10-3,17.34-8.14,21.61l111.73-64.49,2.86-1.66-.11-.11c6.1-4.06,10.26-11.54,10.26-22.64l-.16-137.53c-.18-26.8-12.1-48.74-44.62-70.4l-116.56,67.3C1677.34,1087.26,1689.57,1100.35,1696,1114.66Z"/><path class="cls-20" d="M1824.4,978.17l50-28.88c19.49,13,31.73,26.1,38.17,40.41,4.53,9.34,6.41,19.13,6.47,30l0,44.33.12,93.2c0,10-3.08,17.33-8.2,21.66l-50,28.79c5.13-4.27,8.23-11.59,8.23-21.58l-.11-93.23-.06-44.33c0-10.88-1.94-20.62-6.46-30C1856.14,1004.23,1843.88,991.09,1824.4,978.17Z"/><path class="cls-21" d="M2323.94,689.77l50-28.87c19.44,13,31.68,26.1,38.15,40.39,4.53,9.33,6.42,19.13,6.46,30l.07,44.33.09,93.2c0,10-3.07,17.31-8.17,21.6l-50,28.79c5.09-4.21,8.2-11.51,8.18-21.55l-.07-93.25-.08-44.33c-.09-10.86-1.91-20.65-6.47-30C2355.7,715.82,2343.43,702.73,2323.94,689.77Z"/><path class="cls-13" d="M1201.25,942.38C1068.1,866,949.31,799.25,949.31,799.25Z"/><path class="cls-13" d="M1533.74,1131.26,1201.25,942.38c124.45,71.46,261.28,151.19,325.6,192.85Z"/><path class="cls-13" d="M1539.49,1143.59c11.2,7.51,19.15,13.36,22.66,16.76,17.93,17.82,22.26,33.71,23.2,38.15-.67-3.43-2.35-13.28-2-19,1-15.64,14.14-25.22,26-32.92,20.82-13.53,847.13-488.48,847.13-488.48S1638.07,1119,1616.9,1130.66s-35.83,17.09-42.63,17.36c-15.58.57-22.87-6.72-22.87-6.72l-4-2.29Z"/><path class="cls-22" d="M1845.94,208.92c-11.34-6.51-20.26-11.19-31.61-4.33L1045.15,667l1,57.69,584.15,311.79L2450.16,543.7Z"/><path class="cls-23" d="M1842.36,7.71c-11.35-6.56-20.23-11.16-31.6-4.35L991.22,496.11l635.5,339.17L2446.58,342.5Z"/><path class="cls-24" d="M1630.71,1058.82,1020.26,720.69c-18.61-10.29-34-35.9-34.4-57.17L983.26,517c-.36-21.3,14.43-30.17,33.06-19.86l610.4,338.11Z"/><polygon class="cls-25" points="2420.55 382.12 2423.69 559.81 2450.19 543.92 2450.57 566.1 1630.71 1058.82 1626.72 835.28 2446.61 342.55 2447.03 366.17 2420.55 382.12"/><polygon class="cls-25" points="1040.67 709.91 1009.87 692.85 1006.7 515.1 1037.49 532.22 1040.67 709.91"/><polygon class="cls-9" points="1627.17 858.79 1037.49 532.22 1040.67 709.91 1630.33 1036.48 1627.17 858.79"/><polygon class="cls-18" points="2431.24 375.75 2434.39 553.39 1630.33 1036.48 1627.17 858.79 2431.24 375.75"/><g class="cls-26"><polygon class="cls-9" points="1627.17 858.79 1628.52 935.88 1038.86 609.28 1037.48 532.22 1627.17 858.79"/></g><g class="cls-26"><polygon class="cls-18" points="2431.24 375.75 2432.61 452.84 1628.52 935.88 1627.17 858.79 2431.24 375.75"/></g><g class="cls-26"><polygon class="cls-9" points="1627.17 858.79 1628.52 935.88 1038.86 609.28 1037.48 532.22 1627.17 858.79"/></g><g class="cls-26"><polygon class="cls-18" points="2431.24 375.75 2432.61 452.84 1628.52 935.88 1627.17 858.79 2431.24 375.75"/></g><polygon class="cls-27" points="1031.93 505.82 1622.79 836.12 1627.17 858.79 1630.35 836.53 2446.61 342.55 1626.64 829.43 1031.93 505.82"/><path class="cls-28" d="M717.17,400.05V1463.16l562.56,324.67,42.22,24.46,4.26,2.45c1.13.68,2.27,1.31,3.32,1.88,2.07,1.28,3.94,2.23,5.75,3.29a53,53,0,0,0,6.7,3.35c17.55,9,32.65,12.76,46,12.81,12.41,0,23.33-3.4,34-9.44L1537,1760.42c9.2-5.39,13.89-12.4,14.08-19.45l.16,0,0-1063.79L1389.78,767l-12.43,2.4-35.43-19.81-12.39-6.81Z"/><path class="cls-29" d="M1329.5,652.63l0,1164c2.07,1.28,3.94,2.23,5.75,3.29a53,53,0,0,0,6.7,3.35V648.17Z"/><path class="cls-30" d="M955.85,388.89,895.44,311.2l.25.06v-.16l-6.12-10.43,14.28-8.13L1537,658.59c18.9,11.13,18.9,28.65.07,39.84l-115,66.26c-25.75,14.72-53.55,13.36-95.82-11.81l-46.34-27.21Z"/><polygon class="cls-31" points="889.72 300.78 1499.16 652.47 1499.14 659.62 1347.49 747.19 829.52 397.88 889.77 317.03 889.72 300.78"/><polygon class="cls-9" points="1317.46 729.8 1347.49 747.19 1499.14 659.62 1469.08 642.35 1317.46 729.8"/><polygon class="cls-18" points="1468.92 642.24 1468.21 642.64 1403.38 680.28 1372.9 697.69 1365.3 702.13 1338.1 717.94 1317.56 729.72 1317.31 729.97 758.01 407.07 744.02 398.93 743.52 398.56 742.55 398.01 743.49 397.63 763.56 385.93 798.12 366.12 828.22 348.54 828.43 348.54 894.19 310.69 894.36 310.52 991.75 366.44 1025.99 386.47 1463.55 639.3 1468.92 642.24"/><polygon class="cls-10" points="1468.92 642.35 1403.94 679.92 828.43 348.54 894.19 310.69 986.18 363.53 1020.51 383.56 1025.99 386.47 1468.92 642.35"/><polygon class="cls-10" points="763.44 385.79 798.12 365.96 798.31 366.15 799.62 366.72 1373.04 697.69 1365.43 702.16 1338.15 717.72 765.15 386.66 763.62 385.95 763.44 385.79"/><polygon class="cls-30" points="717 400.4 1279.87 725.67 1295.09 716.88 732.01 391.83 717 400.4"/><path class="cls-13" d="M1011.69,572.85C883.84,498.5,770.91,431.54,770.91,431.54Z"/><path class="cls-13" d="M1329.66,759.36l-318-186.51c119.68,69.5,252.2,145.23,318,178.8Z"/><path class="cls-13" d="M1342.78,758.21c11.62,5.72,20.34,9.53,24.91,10.78,23.53,6.47,38.86,2.42,43,1-3.23,1.14-12.27,4.52-16.88,7.43-12.53,8.46-14.24,24-14.91,37.55-1.26,24,.47,942.67.47,942.67s-9.56-905.28-10.13-928.57-3-38.13-6.07-43.9c-7-13.36-16.62-15.86-16.62-15.86l-3.86-2.29Z"/><path class="cls-32" d="M539.26,596.68V1600l530.9,306.44,39.8,23.1,4,2.23c1.07.68,2.13,1.22,3.14,1.8,1.92,1.19,3.7,2.06,5.43,3.12a48.16,48.16,0,0,0,6.3,3.16c16.56,8.38,30.81,12,43.44,12.08,11.7,0,22-3.18,32.11-8.9l108.48-62.45c8.64-5.11,13.09-11.78,13.25-18.34l.17-.11,0-1003.87L1174,943l-11.77,2.26-33.41-18.7-11.71-6.42Z"/><path class="cls-33" d="M1117.11,835.14l0,1098.41c1.92,1.19,3.7,2.06,5.43,3.12a48.16,48.16,0,0,0,6.3,3.16V831Z"/><path class="cls-34" d="M764.49,586.21l-57-73.26.19,0v-.22L702,503l13.46-7.67,597.44,345.46c17.84,10.45,17.88,27,.05,37.6l-108.5,62.51c-24.33,13.88-50.5,12.62-90.42-11.21L1070.28,904Z"/><polygon class="cls-35" points="702.06 503.05 1277.27 834.95 1277.18 841.73 1134.11 924.34 645.29 594.67 702.12 518.37 702.06 503.05"/><polygon class="cls-9" points="1105.74 907.96 1134.11 924.34 1277.18 841.73 1248.83 825.43 1105.74 907.96"/><polygon class="cls-18" points="1248.71 825.32 1247.99 825.73 1186.79 861.18 1158.07 877.64 1150.89 881.84 1125.22 896.78 1105.82 907.85 1105.6 908.07 577.77 603.35 564.63 595.68 564.1 595.38 563.23 594.83 564.09 594.45 583.02 583.49 615.65 564.71 644.05 548.14 644.23 548.14 706.31 512.44 706.46 512.25 798.37 565.04 830.69 583.92 1243.61 822.57 1248.71 825.32"/><polygon class="cls-10" points="1248.68 825.43 1187.33 860.83 644.23 548.14 706.31 512.44 793.1 562.29 825.5 581.17 830.69 583.92 1248.68 825.43"/><polygon class="cls-10" points="582.93 583.3 615.65 564.55 615.82 564.76 617.05 565.31 1158.19 877.64 1151 881.86 1125.26 896.56 584.52 584.14 583.07 583.49 582.93 583.3"/><polygon class="cls-34" points="539.08 597.12 1070.28 904.04 1084.63 895.77 553.23 588.98 539.08 597.12"/><path class="cls-13" d="M817.21,759.79C696.55,689.67,590,626.48,590,626.48Z"/><path class="cls-13" d="M1117.26,935.82l-300-176c113,65.64,238,137.07,300,168.8Z"/><path class="cls-13" d="M1129.63,934.76c11,5.39,19.24,8.93,23.54,10.18,22.16,6.07,36.67,2.31,40.6.9-3.06,1.09-11.61,4.22-15.92,7-11.82,8-13.46,22.67-14.07,35.48-1.22,22.54.4,889.56.4,889.56s-9-854.34-9.54-876.3-2.85-36-5.73-41.48c-6.59-12.57-15.69-14.93-15.69-14.93l-3.64-2.15Z"/><polygon class="cls-36" points="993.77 868.56 1122.96 794.38 1161.66 816.72 1032.48 890.98 1032.14 890.76 1032.14 1468.88 1016.97 1455.68 1016.97 882.03 993.77 868.56"/><polygon class="cls-37" points="1024.25 1468.88 1024.25 877.64 970.65 846.43 963.37 1415.89 968.05 1425.12 994.86 1391.73 1016.97 1455.68 1024.25 1468.88"/><polygon class="cls-37" points="1156.01 813.54 1148.15 808.77 1017.42 884.28 963.33 853.43 1101.96 773.42 1156.01 796.14 1156.01 813.54"/><polygon class="cls-38" points="1016.97 1455.68 1016.93 874.62 963.33 843.38 963.37 1415.89 990.18 1382.45 1016.97 1455.68"/><polygon class="cls-38" points="1156.01 796.14 1017.42 876.1 963.33 845.29 1101.96 765.26 1156.01 796.14"/></g></g></g></svg>