<svg xmlns="http://www.w3.org/2000/svg" version="1.1" xmlns:xlink="http://www.w3.org/1999/xlink" xmlns:svgjs="http://svgjs.com/svgjs" width="1920" height="150" preserveAspectRatio="none" viewBox="0 0 1920 150"><g mask="url(&quot;#SvgjsMask1016&quot;)" fill="none"><path d="M 0,57 C 42.8,47 128.4,9.6 214,7 C 299.6,4.4 342.4,39 428,44 C 513.6,49 556.4,30 642,32 C 727.6,34 770.4,59 856,54 C 941.6,49 984.4,3.2 1070,7 C 1155.6,10.8 1198.4,68.4 1284,73 C 1369.6,77.6 1412.4,36.4 1498,30 C 1583.6,23.6 1627.6,42.6 1712,41 C 1796.4,39.4 1878.4,25.8 1920,22L1920 150L0 150z" fill="rgba(115, 149, 174, 1)"></path><path d="M 0,92 C 64,102.2 192,140.8 320,143 C 448,145.2 512,106.6 640,103 C 768,99.4 832,130.4 960,125 C 1088,119.6 1152,78.4 1280,76 C 1408,73.6 1472,107.4 1600,113 C 1728,118.6 1856,105.8 1920,104L1920 150L0 150z" fill="rgba(85, 188, 201, 1)"></path></g><defs><mask id="SvgjsMask1016"><rect width="1920" height="150" fill="#ffffff"></rect></mask></defs></svg>